G04 Layer_Color=65535*
%FSLAX25Y25*%
%MOIN*%
G70*
G01*
G75*
%ADD27C,0.00787*%
%ADD40C,0.00984*%
%ADD41C,0.02362*%
D27*
X65580Y161651D02*
G03*
X65580Y161651I744J10999D01*
G01*
X91718Y159460D02*
G03*
X91718Y159460I1045J10974D01*
G01*
X130153Y167481D02*
G03*
X130153Y167481I-11024J0D01*
G01*
X134380Y163850D02*
G03*
X134380Y163850I11023J-57D01*
G01*
X-113927Y81149D02*
G03*
X-113927Y81149I-11024J0D01*
G01*
X136073D02*
G03*
X136073Y81149I-11024J0D01*
G01*
X39392Y163110D02*
G03*
X39392Y163110I443J11015D01*
G01*
X13172Y163838D02*
G03*
X13172Y163838I142J11023D01*
G01*
X-2193Y174861D02*
G03*
X-2193Y174861I-11024J0D01*
G01*
X-28713Y174125D02*
G03*
X-28713Y174125I-11024J0D01*
G01*
X-55203Y172649D02*
G03*
X-55203Y172649I-11024J0D01*
G01*
X-81642Y170434D02*
G03*
X-81642Y170434I-11024J0D01*
G01*
X-108008Y167481D02*
G03*
X-108008Y167481I-11024J0D01*
G01*
X-143688Y152889D02*
G03*
X-143688Y152889I-1617J10904D01*
G01*
X38976Y62598D02*
X63386D01*
X38976Y87008D02*
X63386D01*
X38976Y62598D02*
Y87008D01*
X63386Y62598D02*
Y87008D01*
X7283Y102756D02*
Y141339D01*
X-7283Y102756D02*
Y141339D01*
Y102756D02*
X7283D01*
X-7283Y141339D02*
X7283D01*
X70693Y167224D02*
X75406Y166904D01*
X56552Y168181D02*
X61265Y167861D01*
X96981Y164891D02*
X101684Y164443D01*
X82872Y166234D02*
X87575Y165786D01*
X123195Y161825D02*
X127884Y161249D01*
X109127Y163553D02*
X113816Y162977D01*
X149312Y158028D02*
X153984Y157324D01*
X135297Y160141D02*
X139969Y159436D01*
X-134400Y76031D02*
X-129675D01*
X-120227D02*
X-115502Y76031D01*
X129773Y76031D02*
X134498Y76031D01*
X115600D02*
X120325D01*
X47244Y42913D02*
X59055D01*
X47244Y35827D02*
X59055D01*
X47244D02*
Y42913D01*
X59055Y35827D02*
Y42913D01*
X47244Y49213D02*
X55118D01*
Y45276D02*
Y49213D01*
X47244Y45276D02*
X55118D01*
X47244D02*
Y49213D01*
X47638Y105512D02*
X59449D01*
X47638Y112598D02*
X59449D01*
Y105512D02*
Y112598D01*
X47638Y105512D02*
Y112598D01*
X51181Y99606D02*
X59055D01*
X51181D02*
Y103543D01*
X59055D01*
Y99606D02*
Y103543D01*
X41339Y99606D02*
X49213D01*
X41339D02*
Y103543D01*
X49213D01*
Y99606D02*
Y103543D01*
X76772Y69252D02*
Y77126D01*
X80709D01*
Y69252D02*
Y77126D01*
X76772Y69252D02*
X80709D01*
Y56732D02*
Y64606D01*
X76772Y56732D02*
X80709D01*
X76772D02*
Y64606D01*
X80709D01*
X9843Y67716D02*
Y75590D01*
X5906Y67716D02*
X9843D01*
X5906D02*
Y75590D01*
X9843D01*
X-17717Y49213D02*
Y57087D01*
X-21654Y49213D02*
X-17717D01*
X-21654D02*
Y57087D01*
X-17717D01*
X-61024Y47638D02*
X-49213D01*
X-61024Y54724D02*
X-49213D01*
Y47638D02*
Y54724D01*
X-61024Y47638D02*
Y54724D01*
X-91339Y55905D02*
X-74016D01*
Y46457D02*
Y55905D01*
X-91339Y46457D02*
X-74016D01*
X-91339D02*
Y55905D01*
Y67716D02*
X-74016D01*
Y58268D02*
Y67716D01*
X-91339Y58268D02*
X-74016D01*
X-91339D02*
Y67716D01*
X-85827Y78740D02*
Y86614D01*
X-89764Y78740D02*
X-85827D01*
X-89764D02*
Y86614D01*
X-85827D01*
X-47638Y72835D02*
Y84646D01*
X-54724Y72835D02*
Y84646D01*
X-47638D01*
X-54724Y72835D02*
X-47638D01*
X-15354Y36713D02*
Y40650D01*
X-16929Y36713D02*
X-15354D01*
X-24016D02*
Y40650D01*
Y36713D02*
X-22441D01*
X-57480Y59646D02*
X-52756D01*
X-57480Y66339D02*
X-52756D01*
X97736Y56201D02*
Y77658D01*
X83366Y56201D02*
Y77658D01*
X96850D02*
X97736D01*
X83366D02*
X84252D01*
X96850Y56201D02*
X97736D01*
X83366D02*
X84252D01*
X-69784Y42618D02*
X-48327D01*
X-69784Y28248D02*
X-48327D01*
X-69784Y41732D02*
Y42618D01*
Y28248D02*
Y29134D01*
X-48327Y41732D02*
Y42618D01*
Y28248D02*
Y29134D01*
X-33071Y96457D02*
X-25984D01*
X-33071Y108268D02*
X-25984D01*
X-33071Y96457D02*
Y108268D01*
X-25984Y96457D02*
Y108268D01*
X-23622Y107874D02*
X-19685D01*
X-23622Y100000D02*
Y107874D01*
Y100000D02*
X-19685D01*
Y107874D01*
X-18898Y111024D02*
Y120472D01*
X-24409Y111024D02*
X-18898D01*
X-24409D02*
Y120472D01*
X-18898D01*
X30188Y169391D02*
X34909Y169201D01*
X44350Y168821D02*
X49070Y168631D01*
X3800Y169865D02*
X8524Y169804D01*
X17972Y169682D02*
X22696Y169621D01*
X-22590Y169607D02*
X-17866Y169675D01*
X-8418Y169811D02*
X-3695Y169880D01*
X-48964Y168617D02*
X-44243Y168814D01*
X-34803Y169209D02*
X-30082Y169406D01*
X-61160Y167869D02*
X-56447Y168196D01*
X-75300Y166891D02*
X-70586Y167217D01*
X-87470Y165794D02*
X-82767Y166249D01*
X-101577Y164429D02*
X-96875Y164884D01*
X-113711Y162985D02*
X-109023Y163569D01*
X-127776Y161235D02*
X-123088Y161819D01*
X-139881Y159423D02*
X-135208Y160116D01*
X-153901Y157344D02*
X-149228Y158037D01*
X-5512Y61024D02*
Y80709D01*
X-18110Y61024D02*
Y80709D01*
Y61024D02*
X-5512D01*
X-18110Y80709D02*
X-5512D01*
X-83071Y84449D02*
Y87205D01*
Y84449D02*
X-57087D01*
Y87205D01*
X19685Y83463D02*
Y79527D01*
X20472Y78740D01*
X22047D01*
X22834Y79527D01*
Y83463D01*
X27556Y78740D02*
X24408D01*
X27556Y81889D01*
Y82676D01*
X26769Y83463D01*
X25195D01*
X24408Y82676D01*
X-19685Y125984D02*
X-24408D01*
Y128346D01*
X-23621Y129133D01*
X-22047D01*
X-21259Y128346D01*
Y125984D01*
Y127559D02*
X-19685Y129133D01*
Y130707D02*
Y132281D01*
Y131494D01*
X-24408D01*
X-23621Y130707D01*
Y89763D02*
X-24408Y88976D01*
Y87401D01*
X-23621Y86614D01*
X-20472D01*
X-19685Y87401D01*
Y88976D01*
X-20472Y89763D01*
X-19685Y94486D02*
Y91337D01*
X-22834Y94486D01*
X-23621D01*
X-24408Y93699D01*
Y92124D01*
X-23621Y91337D01*
X-31495Y89763D02*
X-32282Y88976D01*
Y87401D01*
X-31495Y86614D01*
X-28346D01*
X-27559Y87401D01*
Y88976D01*
X-28346Y89763D01*
X-27559Y91337D02*
Y92911D01*
Y92124D01*
X-32282D01*
X-31495Y91337D01*
X-84646Y38187D02*
Y33465D01*
X-82284D01*
X-81497Y34252D01*
Y37400D01*
X-82284Y38187D01*
X-84646D01*
X-79923Y33465D02*
X-78348D01*
X-79136D01*
Y38187D01*
X-79923Y37400D01*
X-72838Y38187D02*
X-75987D01*
Y35826D01*
X-74413Y36613D01*
X-73626D01*
X-72838Y35826D01*
Y34252D01*
X-73626Y33465D01*
X-75200D01*
X-75987Y34252D01*
X99608Y57087D02*
X104331Y60235D01*
X99608D02*
X104331Y57087D01*
Y61809D02*
Y63384D01*
Y62597D01*
X99608D01*
X100395Y61809D01*
X-106299Y87400D02*
Y83464D01*
X-105512Y82677D01*
X-103938D01*
X-103151Y83464D01*
Y87400D01*
X-99215Y82677D02*
Y87400D01*
X-101576Y85039D01*
X-98428D01*
X5906Y83463D02*
Y79527D01*
X6693Y78740D01*
X8267D01*
X9054Y79527D01*
Y83463D01*
X10628Y82676D02*
X11416Y83463D01*
X12990D01*
X13777Y82676D01*
Y81889D01*
X12990Y81102D01*
X12203D01*
X12990D01*
X13777Y80314D01*
Y79527D01*
X12990Y78740D01*
X11416D01*
X10628Y79527D01*
X-40159Y67715D02*
X-43307D01*
Y65354D01*
X-41733D01*
X-43307D01*
Y62992D01*
X-38584D02*
X-37010D01*
X-37797D01*
Y67715D01*
X-38584Y66928D01*
X-7874Y40156D02*
Y35433D01*
X-5513D01*
X-4725Y36220D01*
Y39369D01*
X-5513Y40156D01*
X-7874D01*
X-2Y35433D02*
X-3151D01*
X-2Y38582D01*
Y39369D01*
X-790Y40156D01*
X-2364D01*
X-3151Y39369D01*
X1572D02*
X2359Y40156D01*
X3933D01*
X4720Y39369D01*
Y38582D01*
X3933Y37795D01*
X4720Y37007D01*
Y36220D01*
X3933Y35433D01*
X2359D01*
X1572Y36220D01*
Y37007D01*
X2359Y37795D01*
X1572Y38582D01*
Y39369D01*
X2359Y37795D02*
X3933D01*
X-40159Y74802D02*
X-40946Y75589D01*
X-42520D01*
X-43307Y74802D01*
Y71653D01*
X-42520Y70866D01*
X-40946D01*
X-40159Y71653D01*
X-38584Y70866D02*
X-37010D01*
X-37797D01*
Y75589D01*
X-38584Y74802D01*
X-31500Y75589D02*
X-33074Y74802D01*
X-34648Y73228D01*
Y71653D01*
X-33861Y70866D01*
X-32287D01*
X-31500Y71653D01*
Y72440D01*
X-32287Y73228D01*
X-34648D01*
X-103151Y78739D02*
X-103938Y79526D01*
X-105512D01*
X-106299Y78739D01*
Y75590D01*
X-105512Y74803D01*
X-103938D01*
X-103151Y75590D01*
X-101576Y74803D02*
X-100002D01*
X-100789D01*
Y79526D01*
X-101576Y78739D01*
X-94492Y79526D02*
X-97641D01*
Y77165D01*
X-96066Y77952D01*
X-95279D01*
X-94492Y77165D01*
Y75590D01*
X-95279Y74803D01*
X-96853D01*
X-97641Y75590D01*
X-103151Y70865D02*
X-103938Y71652D01*
X-105512D01*
X-106299Y70865D01*
Y67716D01*
X-105512Y66929D01*
X-103938D01*
X-103151Y67716D01*
X-101576Y66929D02*
X-100002D01*
X-100789D01*
Y71652D01*
X-101576Y70865D01*
X-95279Y66929D02*
Y71652D01*
X-97641Y69291D01*
X-94492D01*
X-103151Y62991D02*
X-103938Y63778D01*
X-105512D01*
X-106299Y62991D01*
Y59842D01*
X-105512Y59055D01*
X-103938D01*
X-103151Y59842D01*
X-101576Y59055D02*
X-100002D01*
X-100789D01*
Y63778D01*
X-101576Y62991D01*
X-97641D02*
X-96853Y63778D01*
X-95279D01*
X-94492Y62991D01*
Y62204D01*
X-95279Y61417D01*
X-96066D01*
X-95279D01*
X-94492Y60629D01*
Y59842D01*
X-95279Y59055D01*
X-96853D01*
X-97641Y59842D01*
X-40159Y59054D02*
X-40946Y59841D01*
X-42520D01*
X-43307Y59054D01*
Y55905D01*
X-42520Y55118D01*
X-40946D01*
X-40159Y55905D01*
X-38584Y55118D02*
X-37010D01*
X-37797D01*
Y59841D01*
X-38584Y59054D01*
X-31500Y55118D02*
X-34648D01*
X-31500Y58267D01*
Y59054D01*
X-32287Y59841D01*
X-33861D01*
X-34648Y59054D01*
X-4725Y47243D02*
X-5513Y48030D01*
X-7087D01*
X-7874Y47243D01*
Y44094D01*
X-7087Y43307D01*
X-5513D01*
X-4725Y44094D01*
X-3151Y43307D02*
X-1577D01*
X-2364D01*
Y48030D01*
X-3151Y47243D01*
X785Y43307D02*
X2359D01*
X1572D01*
Y48030D01*
X785Y47243D01*
X13781Y66928D02*
X12994Y66141D01*
Y64567D01*
X13781Y63779D01*
X16929D01*
X17717Y64567D01*
Y66141D01*
X16929Y66928D01*
X17717Y68502D02*
Y70077D01*
Y69290D01*
X12994D01*
X13781Y68502D01*
Y72438D02*
X12994Y73225D01*
Y74800D01*
X13781Y75587D01*
X16929D01*
X17717Y74800D01*
Y73225D01*
X16929Y72438D01*
X13781D01*
X76773Y48070D02*
X75986Y47283D01*
Y45708D01*
X76773Y44921D01*
X79922D01*
X80709Y45708D01*
Y47283D01*
X79922Y48070D01*
Y49644D02*
X80709Y50431D01*
Y52006D01*
X79922Y52793D01*
X76773D01*
X75986Y52006D01*
Y50431D01*
X76773Y49644D01*
X77560D01*
X78347Y50431D01*
Y52793D01*
X76773Y84212D02*
X75986Y83424D01*
Y81850D01*
X76773Y81063D01*
X79922D01*
X80709Y81850D01*
Y83424D01*
X79922Y84212D01*
X76773Y85786D02*
X75986Y86573D01*
Y88147D01*
X76773Y88934D01*
X77560D01*
X78347Y88147D01*
X79134Y88934D01*
X79922D01*
X80709Y88147D01*
Y86573D01*
X79922Y85786D01*
X79134D01*
X78347Y86573D01*
X77560Y85786D01*
X76773D01*
X78347Y86573D02*
Y88147D01*
X32676Y102361D02*
X31889Y103148D01*
X30315D01*
X29528Y102361D01*
Y99212D01*
X30315Y98425D01*
X31889D01*
X32676Y99212D01*
X34250Y103148D02*
X37399D01*
Y102361D01*
X34250Y99212D01*
Y98425D01*
X68109Y102361D02*
X67322Y103148D01*
X65748D01*
X64961Y102361D01*
Y99212D01*
X65748Y98425D01*
X67322D01*
X68109Y99212D01*
X72832Y103148D02*
X71258Y102361D01*
X69683Y100787D01*
Y99212D01*
X70471Y98425D01*
X72045D01*
X72832Y99212D01*
Y99999D01*
X72045Y100787D01*
X69683D01*
X68109Y110235D02*
X67322Y111022D01*
X65748D01*
X64961Y110235D01*
Y107086D01*
X65748Y106299D01*
X67322D01*
X68109Y107086D01*
X72832Y111022D02*
X69683D01*
Y108661D01*
X71258Y109448D01*
X72045D01*
X72832Y108661D01*
Y107086D01*
X72045Y106299D01*
X70471D01*
X69683Y107086D01*
X34645Y49211D02*
X33858Y49999D01*
X32283D01*
X31496Y49211D01*
Y46063D01*
X32283Y45276D01*
X33858D01*
X34645Y46063D01*
X38580Y45276D02*
Y49999D01*
X36219Y47637D01*
X39367D01*
X34645Y41337D02*
X33858Y42125D01*
X32283D01*
X31496Y41337D01*
Y38189D01*
X32283Y37402D01*
X33858D01*
X34645Y38189D01*
X36219Y41337D02*
X37006Y42125D01*
X38580D01*
X39367Y41337D01*
Y40550D01*
X38580Y39763D01*
X37793D01*
X38580D01*
X39367Y38976D01*
Y38189D01*
X38580Y37402D01*
X37006D01*
X36219Y38189D01*
X-14667Y149925D02*
Y145989D01*
X-13880Y145202D01*
X-12306D01*
X-11518Y145989D01*
Y149925D01*
X-9944Y145202D02*
X-8370D01*
X-9157D01*
Y149925D01*
X-9944Y149137D01*
D40*
X37402Y58071D02*
G03*
X37402Y58071I-492J0D01*
G01*
X12106Y102362D02*
G03*
X12106Y102362I-492J0D01*
G01*
X-13287Y43307D02*
G03*
X-13287Y43307I-492J0D01*
G01*
X-197Y59921D02*
G03*
X-197Y59921I-492J0D01*
G01*
X-83878Y76378D02*
G03*
X-83878Y76378I-492J0D01*
G01*
D41*
X44094Y66535D02*
G03*
X44094Y66535I-1181J0D01*
G01*
X-8268Y64961D02*
G03*
X-8268Y64961I-1181J0D01*
G01*
M02*
