G04 Layer_Color=16711935*
%FSLAX25Y25*%
%MOIN*%
G70*
G01*
G75*
%ADD27C,0.00787*%
D27*
X175504Y124830D02*
X175761Y128401D01*
X174741Y121334D02*
X175504Y124830D01*
X173486Y117982D02*
X174741Y121334D01*
X171765Y114843D02*
X173486Y117982D01*
X169614Y111983D02*
X171765Y114843D01*
X167076Y109458D02*
X169614Y111983D01*
X164204Y107323D02*
X167076Y109458D01*
X161041Y105015D02*
X164204Y107323D01*
X158192Y102329D02*
X161041Y105015D01*
X155701Y99308D02*
X158192Y102329D01*
X153607Y95999D02*
X155701Y99308D01*
X151943Y92455D02*
X153607Y95999D01*
X150736Y88730D02*
X151943Y92455D01*
X150004Y84883D02*
X150736Y88730D01*
X149759Y80976D02*
X150004Y84883D01*
X149759Y24817D02*
Y80976D01*
X149545Y21554D02*
X149759Y24817D01*
X148907Y18347D02*
X149545Y21554D01*
X147855Y15250D02*
X148907Y18347D01*
X146409Y12317D02*
X147855Y15250D01*
X144592Y9598D02*
X146409Y12317D01*
X142436Y7139D02*
X144592Y9598D01*
X139978Y4983D02*
X142436Y7139D01*
X137259Y3167D02*
X139978Y4983D01*
X134326Y1720D02*
X137259Y3167D01*
X131229Y669D02*
X134326Y1720D01*
X128022Y31D02*
X131229Y669D01*
X124759Y-183D02*
X128022Y31D01*
X-125241Y-183D02*
X124759D01*
X-128505Y31D02*
X-125241Y-183D01*
X-131712Y669D02*
X-128505Y31D01*
X-134809Y1720D02*
X-131712Y669D01*
X-137741Y3167D02*
X-134809Y1720D01*
X-140461Y4983D02*
X-137741Y3167D01*
X-142919Y7139D02*
X-140461Y4983D01*
X-145075Y9598D02*
X-142919Y7139D01*
X-146892Y12317D02*
X-145075Y9598D01*
X-148338Y15250D02*
X-146892Y12317D01*
X-149390Y18347D02*
X-148338Y15250D01*
X-150028Y21554D02*
X-149390Y18347D01*
X-150241Y24817D02*
X-150028Y21554D01*
X-150241Y24817D02*
Y80976D01*
X-150487Y84883D02*
X-150241Y80976D01*
X-151219Y88730D02*
X-150487Y84883D01*
X-152426Y92455D02*
X-151219Y88730D01*
X-154090Y95999D02*
X-152426Y92455D01*
X-156184Y99308D02*
X-154090Y95999D01*
X-158675Y102329D02*
X-156184Y99308D01*
X-161524Y105015D02*
X-158675Y102329D01*
X-164687Y107323D02*
X-161524Y105015D01*
X-167559Y109458D02*
X-164687Y107323D01*
X-170097Y111983D02*
X-167559Y109458D01*
X-172248Y114843D02*
X-170097Y111983D01*
X-173969Y117982D02*
X-172248Y114843D01*
X-175224Y121334D02*
X-173969Y117982D01*
X-175987Y124830D02*
X-175224Y121334D01*
X-176243Y128401D02*
X-175987Y124830D01*
X-176243Y128401D02*
Y154824D01*
X-175731Y158202D01*
X-174777Y161483D01*
X-173397Y164609D01*
X-171616Y167525D01*
X-169465Y170179D01*
X-166981Y172526D01*
X-164210Y174524D01*
X-161198Y176138D01*
X-158000Y177340D01*
X-154671Y178108D01*
X-132760Y181396D01*
X-110780Y184180D01*
X-88742Y186459D01*
X-66658Y188233D01*
X-44538Y189499D01*
X-22396Y190257D01*
X-241Y190507D01*
X21913Y190257D01*
X44055Y189499D01*
X66175Y188233D01*
X88259Y186459D01*
X110298Y184180D01*
X132277Y181396D01*
X154188Y178108D01*
X157517Y177340D01*
X160715Y176138D01*
X163727Y174524D01*
X166499Y172526D01*
X168982Y170179D01*
X171133Y167525D01*
X172914Y164609D01*
X174294Y161483D01*
X175248Y158202D01*
X175761Y154824D01*
Y128401D02*
Y154824D01*
M02*
