G04 Layer_Color=8388736*
%FSLAX25Y25*%
%MOIN*%
G70*
G01*
G75*
%ADD13R,0.09449X0.24291*%
%ADD42O,0.02323X0.06063*%
%ADD43O,0.06063X0.02323*%
%ADD44O,0.05669X0.01929*%
%ADD45R,0.03307X0.05276*%
%ADD46R,0.02205X0.02205*%
%ADD47R,0.02205X0.02205*%
%ADD48R,0.03504X0.06850*%
%ADD49R,0.05276X0.03307*%
%ADD50R,0.02520X0.03307*%
%ADD51R,0.04095X0.07638*%
%ADD52R,0.09606X0.07047*%
%ADD53R,0.07047X0.09606*%
%ADD54R,0.03307X0.01929*%
%ADD55O,0.06653X0.02716*%
%ADD56R,0.06457X0.11969*%
%ADD57R,0.26535X0.26535*%
%ADD58C,0.05669*%
%ADD59C,0.23779*%
%ADD60C,0.06457*%
D13*
X0Y122047D02*
D03*
D42*
X40157Y58071D02*
D03*
X43307D02*
D03*
X46457D02*
D03*
X49606D02*
D03*
X52756D02*
D03*
X55905D02*
D03*
X59055D02*
D03*
X62205D02*
D03*
Y91535D02*
D03*
X59055D02*
D03*
X55905D02*
D03*
X52756D02*
D03*
X49606D02*
D03*
X46457D02*
D03*
X43307D02*
D03*
X40157D02*
D03*
D43*
X67913Y63779D02*
D03*
Y66929D02*
D03*
Y70079D02*
D03*
Y73228D02*
D03*
Y76378D02*
D03*
Y79528D02*
D03*
Y82677D02*
D03*
Y85827D02*
D03*
X34449D02*
D03*
Y82677D02*
D03*
Y79528D02*
D03*
Y76378D02*
D03*
Y73228D02*
D03*
Y70079D02*
D03*
Y66929D02*
D03*
Y63779D02*
D03*
D44*
X11614Y105413D02*
D03*
Y107972D02*
D03*
Y110531D02*
D03*
Y113091D02*
D03*
Y115650D02*
D03*
Y118209D02*
D03*
Y120768D02*
D03*
Y123327D02*
D03*
Y125886D02*
D03*
Y128445D02*
D03*
Y131004D02*
D03*
Y133563D02*
D03*
Y136122D02*
D03*
Y138681D02*
D03*
X-11614Y105413D02*
D03*
Y107972D02*
D03*
Y110531D02*
D03*
Y113091D02*
D03*
Y115650D02*
D03*
Y118209D02*
D03*
Y120768D02*
D03*
Y123327D02*
D03*
Y125886D02*
D03*
Y128445D02*
D03*
Y131004D02*
D03*
Y133563D02*
D03*
Y136122D02*
D03*
Y138681D02*
D03*
D45*
X49902Y39370D02*
D03*
X56398D02*
D03*
X56791Y109055D02*
D03*
X50295D02*
D03*
X-51870Y51181D02*
D03*
X-58366D02*
D03*
D46*
X49567Y47244D02*
D03*
X52795D02*
D03*
X56732Y101575D02*
D03*
X53504D02*
D03*
X46890D02*
D03*
X43661D02*
D03*
D47*
X78740Y71575D02*
D03*
Y74803D02*
D03*
Y62283D02*
D03*
Y59055D02*
D03*
X7874Y73268D02*
D03*
Y70039D02*
D03*
X-19685Y54764D02*
D03*
Y51535D02*
D03*
X-87795Y84291D02*
D03*
Y81063D02*
D03*
X-21654Y102323D02*
D03*
Y105551D02*
D03*
D48*
X-77067Y51181D02*
D03*
X-88287D02*
D03*
X-77067Y62992D02*
D03*
X-88287D02*
D03*
D49*
X-51181Y81988D02*
D03*
Y75492D02*
D03*
X-29528Y99114D02*
D03*
Y105610D02*
D03*
D50*
X-17126Y43307D02*
D03*
X-22244D02*
D03*
X-19685Y35433D02*
D03*
D51*
X-49213Y62992D02*
D03*
X-61024D02*
D03*
D52*
X90551Y74783D02*
D03*
Y59075D02*
D03*
D53*
X-66909Y35433D02*
D03*
X-51201D02*
D03*
D54*
X-21654Y118602D02*
D03*
Y112894D02*
D03*
D55*
X-689Y63366D02*
D03*
Y68366D02*
D03*
Y73366D02*
D03*
Y78366D02*
D03*
X-22933Y63366D02*
D03*
Y68366D02*
D03*
Y73366D02*
D03*
Y78366D02*
D03*
D56*
X-79055Y76378D02*
D03*
X-61102D02*
D03*
D57*
X-70079Y101969D02*
D03*
D58*
X122047Y133858D02*
D03*
Y118110D02*
D03*
Y125984D02*
D03*
X-122047Y133858D02*
D03*
Y118110D02*
D03*
Y125984D02*
D03*
X114173D02*
D03*
Y133858D02*
D03*
X106299D02*
D03*
Y125984D02*
D03*
X98425D02*
D03*
Y133858D02*
D03*
X90551D02*
D03*
Y125984D02*
D03*
X-90551D02*
D03*
Y133858D02*
D03*
X-98425D02*
D03*
Y125984D02*
D03*
X-106299D02*
D03*
Y133858D02*
D03*
X-114173D02*
D03*
Y125984D02*
D03*
X65987Y167660D02*
D03*
X66662Y177638D02*
D03*
X92289Y165456D02*
D03*
X93237Y175411D02*
D03*
X118520Y162518D02*
D03*
X119739Y172444D02*
D03*
X144658Y158849D02*
D03*
X146149Y168737D02*
D03*
X-124951Y76149D02*
D03*
Y86149D02*
D03*
X125049D02*
D03*
Y76149D02*
D03*
X39634Y169129D02*
D03*
X40036Y179121D02*
D03*
X13250Y169861D02*
D03*
X13379Y179860D02*
D03*
X-13144Y169861D02*
D03*
X-13288Y179860D02*
D03*
X-39528Y169129D02*
D03*
X-39946Y179121D02*
D03*
X-66572Y177637D02*
D03*
X-65881Y167661D02*
D03*
X-93147Y175410D02*
D03*
X-92184Y165457D02*
D03*
X-119649Y172443D02*
D03*
X-118414Y162519D02*
D03*
X-146039Y168739D02*
D03*
X-144572Y158847D02*
D03*
D59*
X-125241Y24817D02*
D03*
X-151243Y128401D02*
D03*
X150761D02*
D03*
X124759Y24817D02*
D03*
D60*
X-34449Y19685D02*
D03*
X-24606D02*
D03*
X34449D02*
D03*
X24606D02*
D03*
X-14764D02*
D03*
X-4921D02*
D03*
X4921D02*
D03*
X14764D02*
D03*
X-69882D02*
D03*
X-79724D02*
D03*
X79724D02*
D03*
X69882D02*
D03*
M02*
