G04 Layer_Color=32896*
%FSLAX25Y25*%
%MOIN*%
G70*
G01*
G75*
%ADD27C,0.00787*%
%ADD29C,0.01968*%
%ADD32C,0.01181*%
%ADD63C,0.01000*%
%ADD64C,0.00591*%
G36*
X125984Y98425D02*
X86614D01*
Y106299D01*
X125984D01*
Y98425D01*
D02*
G37*
G36*
X90551Y31496D02*
X59055D01*
Y39370D01*
X90551D01*
Y31496D01*
D02*
G37*
G36*
X43307D02*
X-43307D01*
Y39370D01*
X43307D01*
Y31496D01*
D02*
G37*
G36*
X57803Y45276D02*
X49213D01*
Y72047D01*
X57803D01*
Y45276D01*
D02*
G37*
G36*
X-59055Y31496D02*
X-90551D01*
Y39370D01*
X-59055D01*
Y31496D01*
D02*
G37*
G36*
X-86614Y98425D02*
X-125984D01*
Y106299D01*
X-86614D01*
Y98425D01*
D02*
G37*
%LPC*%
G36*
X106860Y104282D02*
X106083D01*
Y102196D01*
Y102190D01*
Y102173D01*
Y102151D01*
Y102118D01*
Y102074D01*
Y102029D01*
X106077Y101929D01*
Y101818D01*
X106072Y101713D01*
X106066Y101663D01*
Y101619D01*
X106061Y101585D01*
X106055Y101552D01*
Y101541D01*
X106044Y101513D01*
X106027Y101469D01*
X106005Y101413D01*
X105977Y101352D01*
X105933Y101291D01*
X105883Y101225D01*
X105822Y101169D01*
X105811Y101163D01*
X105789Y101147D01*
X105744Y101125D01*
X105689Y101102D01*
X105611Y101075D01*
X105522Y101052D01*
X105422Y101036D01*
X105306Y101030D01*
X105250D01*
X105195Y101036D01*
X105123Y101047D01*
X105039Y101064D01*
X104962Y101086D01*
X104878Y101119D01*
X104812Y101163D01*
X104806Y101169D01*
X104784Y101186D01*
X104756Y101213D01*
X104723Y101252D01*
X104690Y101302D01*
X104656Y101358D01*
X104629Y101419D01*
X104612Y101491D01*
Y101502D01*
X104606Y101530D01*
X104601Y101580D01*
X104590Y101646D01*
Y101691D01*
X104584Y101741D01*
Y101796D01*
X104579Y101852D01*
Y101918D01*
X104573Y101990D01*
Y102068D01*
Y102151D01*
Y104282D01*
X103796D01*
Y102257D01*
Y102251D01*
Y102229D01*
Y102190D01*
Y102146D01*
Y102090D01*
X103802Y102024D01*
Y101952D01*
Y101879D01*
X103813Y101718D01*
X103824Y101552D01*
X103830Y101480D01*
X103841Y101408D01*
X103852Y101341D01*
X103863Y101280D01*
Y101274D01*
X103868Y101269D01*
Y101252D01*
X103874Y101236D01*
X103891Y101180D01*
X103913Y101113D01*
X103946Y101036D01*
X103985Y100958D01*
X104035Y100875D01*
X104096Y100797D01*
X104101Y100786D01*
X104124Y100764D01*
X104163Y100731D01*
X104212Y100686D01*
X104279Y100636D01*
X104357Y100586D01*
X104446Y100531D01*
X104545Y100486D01*
X104551D01*
X104557Y100481D01*
X104573Y100475D01*
X104595Y100470D01*
X104623Y100459D01*
X104656Y100447D01*
X104701Y100436D01*
X104745Y100431D01*
X104851Y100409D01*
X104978Y100386D01*
X105123Y100375D01*
X105284Y100370D01*
X105372D01*
X105422Y100375D01*
X105472D01*
X105533Y100381D01*
X105594Y100386D01*
X105728Y100398D01*
X105866Y100420D01*
X106005Y100453D01*
X106066Y100470D01*
X106122Y100492D01*
X106127D01*
X106133Y100497D01*
X106166Y100514D01*
X106221Y100542D01*
X106283Y100581D01*
X106355Y100631D01*
X106432Y100686D01*
X106505Y100753D01*
X106571Y100825D01*
X106577Y100836D01*
X106599Y100858D01*
X106627Y100903D01*
X106660Y100958D01*
X106693Y101019D01*
X106732Y101091D01*
X106760Y101169D01*
X106788Y101252D01*
Y101258D01*
X106793Y101269D01*
Y101286D01*
X106799Y101313D01*
X106804Y101347D01*
X106810Y101391D01*
X106815Y101441D01*
X106821Y101496D01*
X106832Y101563D01*
X106838Y101635D01*
X106843Y101713D01*
X106849Y101802D01*
X106854Y101896D01*
Y102002D01*
X106860Y102112D01*
Y102229D01*
Y104282D01*
D02*
G37*
G36*
X114302D02*
X113553D01*
X111966Y101696D01*
Y104282D01*
X111250D01*
Y100442D01*
X112027D01*
X113586Y102973D01*
Y100442D01*
X114302D01*
Y104282D01*
D02*
G37*
G36*
X115823D02*
X115046D01*
Y100442D01*
X115823D01*
Y104282D01*
D02*
G37*
G36*
X110428D02*
X109013D01*
X108952Y104277D01*
X108808D01*
X108652Y104266D01*
X108497Y104255D01*
X108430Y104249D01*
X108364Y104244D01*
X108308Y104233D01*
X108264Y104221D01*
X108258D01*
X108247Y104216D01*
X108231Y104210D01*
X108208Y104205D01*
X108147Y104177D01*
X108070Y104144D01*
X107986Y104094D01*
X107892Y104027D01*
X107803Y103944D01*
X107714Y103844D01*
Y103839D01*
X107703Y103833D01*
X107692Y103816D01*
X107681Y103794D01*
X107659Y103761D01*
X107642Y103727D01*
X107620Y103689D01*
X107598Y103644D01*
X107559Y103533D01*
X107520Y103411D01*
X107498Y103261D01*
X107487Y103100D01*
Y103095D01*
Y103084D01*
Y103067D01*
Y103039D01*
X107492Y103012D01*
Y102973D01*
X107504Y102895D01*
X107520Y102801D01*
X107542Y102695D01*
X107576Y102595D01*
X107620Y102501D01*
X107626Y102490D01*
X107642Y102462D01*
X107670Y102418D01*
X107709Y102362D01*
X107753Y102307D01*
X107814Y102240D01*
X107875Y102179D01*
X107948Y102124D01*
X107959Y102118D01*
X107981Y102101D01*
X108020Y102079D01*
X108070Y102051D01*
X108131Y102018D01*
X108197Y101990D01*
X108270Y101963D01*
X108347Y101940D01*
X108358D01*
X108375Y101935D01*
X108397D01*
X108425Y101929D01*
X108464Y101924D01*
X108503Y101918D01*
X108553D01*
X108602Y101913D01*
X108663Y101907D01*
X108730Y101902D01*
X108802Y101896D01*
X108880D01*
X108963Y101891D01*
X109651D01*
Y100442D01*
X110428D01*
Y104282D01*
D02*
G37*
G36*
X98357Y104355D02*
X98291D01*
X98241Y104349D01*
X98180Y104344D01*
X98107Y104338D01*
X98035Y104327D01*
X97952Y104316D01*
X97774Y104277D01*
X97686Y104249D01*
X97597Y104221D01*
X97508Y104183D01*
X97425Y104138D01*
X97347Y104088D01*
X97275Y104033D01*
X97269Y104027D01*
X97258Y104016D01*
X97242Y103999D01*
X97219Y103977D01*
X97192Y103944D01*
X97158Y103905D01*
X97125Y103861D01*
X97086Y103811D01*
X97053Y103750D01*
X97020Y103689D01*
X96986Y103616D01*
X96959Y103539D01*
X96931Y103461D01*
X96909Y103372D01*
X96892Y103284D01*
X96886Y103184D01*
X97663Y103156D01*
Y103161D01*
Y103167D01*
X97675Y103206D01*
X97686Y103256D01*
X97708Y103317D01*
X97736Y103389D01*
X97774Y103456D01*
X97824Y103522D01*
X97880Y103578D01*
X97885Y103583D01*
X97908Y103600D01*
X97947Y103622D01*
X98002Y103644D01*
X98069Y103666D01*
X98152Y103689D01*
X98252Y103705D01*
X98368Y103711D01*
X98424D01*
X98485Y103705D01*
X98557Y103694D01*
X98640Y103678D01*
X98729Y103650D01*
X98812Y103616D01*
X98890Y103567D01*
X98896Y103561D01*
X98907Y103550D01*
X98929Y103533D01*
X98951Y103506D01*
X98973Y103472D01*
X98995Y103428D01*
X99006Y103383D01*
X99012Y103328D01*
Y103322D01*
Y103306D01*
X99006Y103278D01*
X98995Y103250D01*
X98984Y103211D01*
X98968Y103173D01*
X98940Y103134D01*
X98901Y103095D01*
X98896Y103089D01*
X98868Y103073D01*
X98851Y103061D01*
X98823Y103050D01*
X98796Y103034D01*
X98757Y103017D01*
X98712Y103000D01*
X98662Y102978D01*
X98601Y102956D01*
X98540Y102934D01*
X98463Y102912D01*
X98379Y102890D01*
X98291Y102867D01*
X98191Y102840D01*
X98185D01*
X98163Y102834D01*
X98135Y102828D01*
X98096Y102817D01*
X98052Y102806D01*
X97996Y102790D01*
X97935Y102773D01*
X97874Y102756D01*
X97741Y102712D01*
X97602Y102667D01*
X97469Y102618D01*
X97414Y102590D01*
X97358Y102562D01*
X97353D01*
X97347Y102557D01*
X97314Y102534D01*
X97264Y102501D01*
X97203Y102457D01*
X97136Y102401D01*
X97064Y102334D01*
X96992Y102257D01*
X96931Y102168D01*
X96925Y102157D01*
X96909Y102124D01*
X96881Y102074D01*
X96853Y102002D01*
X96825Y101913D01*
X96798Y101807D01*
X96781Y101691D01*
X96775Y101558D01*
Y101552D01*
Y101541D01*
Y101524D01*
Y101502D01*
X96781Y101474D01*
X96786Y101435D01*
X96798Y101358D01*
X96820Y101258D01*
X96853Y101152D01*
X96903Y101047D01*
X96964Y100936D01*
Y100930D01*
X96975Y100925D01*
X96997Y100891D01*
X97042Y100836D01*
X97097Y100775D01*
X97170Y100703D01*
X97264Y100636D01*
X97364Y100570D01*
X97486Y100508D01*
X97491D01*
X97502Y100503D01*
X97519Y100497D01*
X97547Y100486D01*
X97580Y100475D01*
X97619Y100464D01*
X97663Y100453D01*
X97713Y100442D01*
X97774Y100425D01*
X97835Y100414D01*
X97980Y100392D01*
X98141Y100375D01*
X98318Y100370D01*
X98391D01*
X98440Y100375D01*
X98501Y100381D01*
X98568Y100386D01*
X98646Y100398D01*
X98729Y100414D01*
X98912Y100453D01*
X99006Y100481D01*
X99095Y100508D01*
X99190Y100547D01*
X99278Y100592D01*
X99362Y100642D01*
X99439Y100703D01*
X99445Y100708D01*
X99456Y100719D01*
X99478Y100736D01*
X99501Y100764D01*
X99534Y100803D01*
X99567Y100847D01*
X99606Y100897D01*
X99645Y100952D01*
X99684Y101019D01*
X99722Y101091D01*
X99761Y101174D01*
X99800Y101263D01*
X99828Y101358D01*
X99861Y101463D01*
X99883Y101574D01*
X99900Y101691D01*
X99145Y101763D01*
Y101757D01*
X99140Y101746D01*
Y101724D01*
X99134Y101702D01*
X99112Y101635D01*
X99084Y101552D01*
X99051Y101458D01*
X99001Y101363D01*
X98945Y101280D01*
X98873Y101202D01*
X98862Y101197D01*
X98835Y101174D01*
X98790Y101147D01*
X98724Y101113D01*
X98640Y101080D01*
X98546Y101052D01*
X98435Y101030D01*
X98307Y101025D01*
X98246D01*
X98180Y101036D01*
X98096Y101047D01*
X98008Y101064D01*
X97913Y101091D01*
X97824Y101130D01*
X97747Y101180D01*
X97736Y101186D01*
X97713Y101208D01*
X97686Y101241D01*
X97647Y101286D01*
X97614Y101341D01*
X97580Y101408D01*
X97558Y101474D01*
X97552Y101552D01*
Y101558D01*
Y101574D01*
X97558Y101602D01*
X97563Y101635D01*
X97575Y101669D01*
X97586Y101707D01*
X97608Y101746D01*
X97636Y101785D01*
X97641Y101791D01*
X97652Y101802D01*
X97669Y101818D01*
X97697Y101840D01*
X97736Y101868D01*
X97786Y101896D01*
X97841Y101924D01*
X97913Y101952D01*
X97919D01*
X97941Y101963D01*
X97980Y101974D01*
X98008Y101985D01*
X98041Y101990D01*
X98080Y102002D01*
X98124Y102018D01*
X98174Y102029D01*
X98229Y102046D01*
X98296Y102062D01*
X98368Y102079D01*
X98446Y102101D01*
X98535Y102124D01*
X98540D01*
X98563Y102129D01*
X98596Y102140D01*
X98635Y102151D01*
X98685Y102168D01*
X98746Y102185D01*
X98807Y102207D01*
X98879Y102229D01*
X99023Y102285D01*
X99162Y102351D01*
X99234Y102384D01*
X99295Y102423D01*
X99356Y102462D01*
X99406Y102501D01*
X99412Y102506D01*
X99423Y102518D01*
X99439Y102534D01*
X99462Y102557D01*
X99489Y102590D01*
X99517Y102629D01*
X99550Y102667D01*
X99578Y102717D01*
X99645Y102834D01*
X99700Y102967D01*
X99722Y103039D01*
X99739Y103112D01*
X99750Y103195D01*
X99756Y103278D01*
Y103284D01*
Y103289D01*
Y103306D01*
Y103328D01*
X99745Y103383D01*
X99734Y103456D01*
X99717Y103539D01*
X99689Y103633D01*
X99650Y103733D01*
X99595Y103827D01*
Y103833D01*
X99589Y103839D01*
X99562Y103872D01*
X99528Y103916D01*
X99473Y103972D01*
X99406Y104033D01*
X99323Y104099D01*
X99229Y104160D01*
X99117Y104216D01*
X99112D01*
X99101Y104221D01*
X99084Y104227D01*
X99062Y104238D01*
X99029Y104249D01*
X98995Y104260D01*
X98951Y104271D01*
X98901Y104288D01*
X98790Y104310D01*
X98662Y104332D01*
X98518Y104349D01*
X98357Y104355D01*
D02*
G37*
G36*
X103247Y104282D02*
X100200D01*
Y103633D01*
X101332D01*
Y100442D01*
X102109D01*
Y103633D01*
X103247D01*
Y104282D01*
D02*
G37*
%LPD*%
G36*
X109651Y102540D02*
X109119D01*
X109080Y102545D01*
X108980D01*
X108880Y102551D01*
X108780Y102562D01*
X108691Y102579D01*
X108652Y102584D01*
X108619Y102595D01*
X108614Y102601D01*
X108591Y102606D01*
X108564Y102623D01*
X108530Y102640D01*
X108492Y102667D01*
X108453Y102701D01*
X108408Y102740D01*
X108375Y102784D01*
X108369Y102790D01*
X108358Y102806D01*
X108347Y102834D01*
X108331Y102873D01*
X108314Y102917D01*
X108297Y102967D01*
X108292Y103023D01*
X108286Y103084D01*
Y103095D01*
Y103117D01*
X108292Y103156D01*
X108303Y103206D01*
X108319Y103261D01*
X108342Y103322D01*
X108369Y103378D01*
X108414Y103433D01*
X108419Y103439D01*
X108436Y103456D01*
X108464Y103478D01*
X108497Y103506D01*
X108541Y103539D01*
X108597Y103567D01*
X108658Y103589D01*
X108725Y103605D01*
X108730D01*
X108752Y103611D01*
X108791Y103616D01*
X108847Y103622D01*
X108919D01*
X108969Y103628D01*
X109019D01*
X109074Y103633D01*
X109651D01*
Y102540D01*
D02*
G37*
%LPC*%
G36*
X78544Y37426D02*
X78477D01*
X78427Y37420D01*
X78366Y37414D01*
X78294Y37409D01*
X78222Y37398D01*
X78139Y37387D01*
X77961Y37348D01*
X77872Y37320D01*
X77784Y37292D01*
X77695Y37253D01*
X77612Y37209D01*
X77534Y37159D01*
X77462Y37104D01*
X77456Y37098D01*
X77445Y37087D01*
X77428Y37070D01*
X77406Y37048D01*
X77378Y37015D01*
X77345Y36976D01*
X77312Y36932D01*
X77273Y36882D01*
X77240Y36821D01*
X77206Y36759D01*
X77173Y36687D01*
X77145Y36610D01*
X77118Y36532D01*
X77095Y36443D01*
X77079Y36354D01*
X77073Y36255D01*
X77850Y36227D01*
Y36232D01*
Y36238D01*
X77861Y36277D01*
X77872Y36327D01*
X77895Y36388D01*
X77922Y36460D01*
X77961Y36526D01*
X78011Y36593D01*
X78066Y36648D01*
X78072Y36654D01*
X78094Y36671D01*
X78133Y36693D01*
X78189Y36715D01*
X78255Y36737D01*
X78338Y36759D01*
X78438Y36776D01*
X78555Y36782D01*
X78610D01*
X78671Y36776D01*
X78744Y36765D01*
X78827Y36748D01*
X78916Y36721D01*
X78999Y36687D01*
X79077Y36637D01*
X79082Y36632D01*
X79093Y36621D01*
X79115Y36604D01*
X79138Y36576D01*
X79160Y36543D01*
X79182Y36499D01*
X79193Y36454D01*
X79199Y36399D01*
Y36393D01*
Y36377D01*
X79193Y36349D01*
X79182Y36321D01*
X79171Y36282D01*
X79154Y36243D01*
X79127Y36204D01*
X79088Y36166D01*
X79082Y36160D01*
X79054Y36143D01*
X79038Y36132D01*
X79010Y36121D01*
X78982Y36105D01*
X78943Y36088D01*
X78899Y36071D01*
X78849Y36049D01*
X78788Y36027D01*
X78727Y36005D01*
X78649Y35982D01*
X78566Y35960D01*
X78477Y35938D01*
X78377Y35910D01*
X78372D01*
X78350Y35905D01*
X78322Y35899D01*
X78283Y35888D01*
X78239Y35877D01*
X78183Y35860D01*
X78122Y35844D01*
X78061Y35827D01*
X77928Y35783D01*
X77789Y35738D01*
X77656Y35688D01*
X77600Y35661D01*
X77545Y35633D01*
X77539D01*
X77534Y35627D01*
X77500Y35605D01*
X77451Y35572D01*
X77389Y35527D01*
X77323Y35472D01*
X77251Y35405D01*
X77179Y35328D01*
X77118Y35239D01*
X77112Y35228D01*
X77095Y35194D01*
X77068Y35144D01*
X77040Y35072D01*
X77012Y34984D01*
X76984Y34878D01*
X76968Y34762D01*
X76962Y34628D01*
Y34623D01*
Y34612D01*
Y34595D01*
Y34573D01*
X76968Y34545D01*
X76973Y34506D01*
X76984Y34429D01*
X77007Y34329D01*
X77040Y34223D01*
X77090Y34118D01*
X77151Y34007D01*
Y34001D01*
X77162Y33996D01*
X77184Y33962D01*
X77228Y33907D01*
X77284Y33846D01*
X77356Y33774D01*
X77451Y33707D01*
X77550Y33640D01*
X77672Y33579D01*
X77678D01*
X77689Y33574D01*
X77706Y33568D01*
X77734Y33557D01*
X77767Y33546D01*
X77806Y33535D01*
X77850Y33524D01*
X77900Y33513D01*
X77961Y33496D01*
X78022Y33485D01*
X78166Y33463D01*
X78327Y33446D01*
X78505Y33441D01*
X78577D01*
X78627Y33446D01*
X78688Y33452D01*
X78755Y33457D01*
X78832Y33468D01*
X78916Y33485D01*
X79099Y33524D01*
X79193Y33552D01*
X79282Y33579D01*
X79376Y33618D01*
X79465Y33663D01*
X79548Y33713D01*
X79626Y33774D01*
X79632Y33779D01*
X79643Y33790D01*
X79665Y33807D01*
X79687Y33835D01*
X79720Y33874D01*
X79754Y33918D01*
X79793Y33968D01*
X79831Y34023D01*
X79870Y34090D01*
X79909Y34162D01*
X79948Y34245D01*
X79987Y34334D01*
X80015Y34429D01*
X80048Y34534D01*
X80070Y34645D01*
X80087Y34762D01*
X79332Y34834D01*
Y34828D01*
X79326Y34817D01*
Y34795D01*
X79321Y34773D01*
X79299Y34706D01*
X79271Y34623D01*
X79238Y34528D01*
X79188Y34434D01*
X79132Y34351D01*
X79060Y34273D01*
X79049Y34268D01*
X79021Y34245D01*
X78977Y34218D01*
X78910Y34184D01*
X78827Y34151D01*
X78733Y34123D01*
X78622Y34101D01*
X78494Y34095D01*
X78433D01*
X78366Y34107D01*
X78283Y34118D01*
X78194Y34134D01*
X78100Y34162D01*
X78011Y34201D01*
X77933Y34251D01*
X77922Y34257D01*
X77900Y34279D01*
X77872Y34312D01*
X77833Y34356D01*
X77800Y34412D01*
X77767Y34479D01*
X77745Y34545D01*
X77739Y34623D01*
Y34628D01*
Y34645D01*
X77745Y34673D01*
X77750Y34706D01*
X77761Y34739D01*
X77772Y34778D01*
X77795Y34817D01*
X77822Y34856D01*
X77828Y34861D01*
X77839Y34872D01*
X77856Y34889D01*
X77883Y34911D01*
X77922Y34939D01*
X77972Y34967D01*
X78028Y34995D01*
X78100Y35022D01*
X78105D01*
X78128Y35034D01*
X78166Y35045D01*
X78194Y35056D01*
X78228Y35061D01*
X78266Y35072D01*
X78311Y35089D01*
X78361Y35100D01*
X78416Y35117D01*
X78483Y35133D01*
X78555Y35150D01*
X78633Y35172D01*
X78721Y35194D01*
X78727D01*
X78749Y35200D01*
X78782Y35211D01*
X78821Y35222D01*
X78871Y35239D01*
X78932Y35256D01*
X78993Y35278D01*
X79066Y35300D01*
X79210Y35355D01*
X79349Y35422D01*
X79421Y35455D01*
X79482Y35494D01*
X79543Y35533D01*
X79593Y35572D01*
X79598Y35577D01*
X79610Y35588D01*
X79626Y35605D01*
X79648Y35627D01*
X79676Y35661D01*
X79704Y35699D01*
X79737Y35738D01*
X79765Y35788D01*
X79831Y35905D01*
X79887Y36038D01*
X79909Y36110D01*
X79926Y36182D01*
X79937Y36266D01*
X79942Y36349D01*
Y36354D01*
Y36360D01*
Y36377D01*
Y36399D01*
X79931Y36454D01*
X79920Y36526D01*
X79904Y36610D01*
X79876Y36704D01*
X79837Y36804D01*
X79782Y36898D01*
Y36904D01*
X79776Y36909D01*
X79748Y36943D01*
X79715Y36987D01*
X79659Y37043D01*
X79593Y37104D01*
X79510Y37170D01*
X79415Y37231D01*
X79304Y37287D01*
X79299D01*
X79287Y37292D01*
X79271Y37298D01*
X79249Y37309D01*
X79215Y37320D01*
X79182Y37331D01*
X79138Y37342D01*
X79088Y37359D01*
X78977Y37381D01*
X78849Y37403D01*
X78705Y37420D01*
X78544Y37426D01*
D02*
G37*
G36*
X76679Y37353D02*
X75885D01*
X75308Y34712D01*
X74609Y37353D01*
X73677D01*
X73010Y34667D01*
X72422Y37353D01*
X71640D01*
X72566Y33513D01*
X73405D01*
X74159Y36382D01*
X74925Y33513D01*
X75769D01*
X76679Y37353D01*
D02*
G37*
G36*
X70119Y37376D02*
X69520D01*
Y33513D01*
X70258D01*
Y36293D01*
X70263Y36288D01*
X70274Y36277D01*
X70297Y36260D01*
X70330Y36232D01*
X70369Y36199D01*
X70413Y36166D01*
X70469Y36127D01*
X70530Y36082D01*
X70596Y36038D01*
X70668Y35994D01*
X70746Y35944D01*
X70829Y35899D01*
X71007Y35816D01*
X71207Y35738D01*
Y36404D01*
X71201D01*
X71196Y36410D01*
X71179Y36415D01*
X71157Y36421D01*
X71101Y36449D01*
X71024Y36482D01*
X70929Y36526D01*
X70824Y36588D01*
X70707Y36665D01*
X70585Y36754D01*
X70580Y36759D01*
X70569Y36765D01*
X70552Y36782D01*
X70530Y36804D01*
X70469Y36859D01*
X70402Y36932D01*
X70324Y37020D01*
X70247Y37131D01*
X70174Y37248D01*
X70119Y37376D01*
D02*
G37*
G36*
X-4598Y37487D02*
X-5375D01*
Y34323D01*
X-7307D01*
Y33674D01*
X-4598D01*
Y37487D01*
D02*
G37*
G36*
X-1002Y37514D02*
X-3849D01*
Y36865D01*
X-1779D01*
Y36016D01*
X-3705D01*
Y35366D01*
X-1779D01*
Y34323D01*
X-3921D01*
Y33674D01*
X-1002D01*
Y37514D01*
D02*
G37*
G36*
X-7862D02*
X-10709D01*
Y36865D01*
X-8639D01*
Y36016D01*
X-10564D01*
Y35366D01*
X-8639D01*
Y34323D01*
X-10781D01*
Y33674D01*
X-7862D01*
Y37514D01*
D02*
G37*
G36*
X-18895D02*
X-21742D01*
Y36865D01*
X-19672D01*
Y36016D01*
X-21598D01*
Y35366D01*
X-19672D01*
Y34323D01*
X-21814D01*
Y33674D01*
X-18895D01*
Y37514D01*
D02*
G37*
G36*
X-12535D02*
X-13356D01*
X-14899Y33674D01*
X-14061D01*
X-13728Y34545D01*
X-12185D01*
X-11869Y33674D01*
X-11047D01*
X-12535Y37514D01*
D02*
G37*
G36*
X10459Y37587D02*
X10392D01*
X10342Y37581D01*
X10281Y37575D01*
X10215Y37564D01*
X10137Y37553D01*
X10054Y37536D01*
X9965Y37514D01*
X9871Y37487D01*
X9776Y37453D01*
X9676Y37409D01*
X9582Y37365D01*
X9493Y37309D01*
X9399Y37242D01*
X9316Y37170D01*
X9310D01*
X9305Y37159D01*
X9288Y37143D01*
X9271Y37126D01*
X9249Y37098D01*
X9227Y37065D01*
X9166Y36987D01*
X9105Y36887D01*
X9038Y36765D01*
X8977Y36626D01*
X8922Y36465D01*
X9687Y36282D01*
Y36288D01*
X9693Y36293D01*
Y36310D01*
X9704Y36332D01*
X9721Y36382D01*
X9749Y36449D01*
X9787Y36526D01*
X9837Y36604D01*
X9904Y36682D01*
X9976Y36748D01*
X9987Y36754D01*
X10015Y36776D01*
X10059Y36804D01*
X10120Y36837D01*
X10198Y36871D01*
X10287Y36898D01*
X10387Y36920D01*
X10498Y36926D01*
X10537D01*
X10570Y36920D01*
X10603Y36915D01*
X10648Y36909D01*
X10742Y36887D01*
X10853Y36848D01*
X10970Y36793D01*
X11031Y36759D01*
X11086Y36721D01*
X11142Y36671D01*
X11192Y36615D01*
Y36610D01*
X11203Y36599D01*
X11214Y36582D01*
X11230Y36554D01*
X11253Y36521D01*
X11275Y36482D01*
X11297Y36432D01*
X11319Y36377D01*
X11347Y36310D01*
X11369Y36238D01*
X11391Y36155D01*
X11414Y36066D01*
X11430Y35966D01*
X11441Y35860D01*
X11447Y35744D01*
X11452Y35616D01*
Y35611D01*
Y35583D01*
Y35544D01*
X11447Y35500D01*
Y35439D01*
X11436Y35366D01*
X11430Y35294D01*
X11419Y35211D01*
X11386Y35039D01*
X11341Y34867D01*
X11314Y34784D01*
X11275Y34706D01*
X11236Y34634D01*
X11192Y34573D01*
X11186Y34567D01*
X11180Y34562D01*
X11164Y34545D01*
X11142Y34523D01*
X11086Y34479D01*
X11008Y34423D01*
X10914Y34362D01*
X10797Y34317D01*
X10664Y34279D01*
X10592Y34273D01*
X10514Y34268D01*
X10487D01*
X10464Y34273D01*
X10403Y34279D01*
X10331Y34290D01*
X10254Y34317D01*
X10165Y34351D01*
X10076Y34395D01*
X9987Y34462D01*
X9976Y34473D01*
X9948Y34501D01*
X9910Y34545D01*
X9865Y34612D01*
X9810Y34701D01*
X9760Y34806D01*
X9710Y34934D01*
X9665Y35083D01*
X8911Y34850D01*
Y34845D01*
X8916Y34823D01*
X8927Y34789D01*
X8944Y34745D01*
X8966Y34695D01*
X8988Y34634D01*
X9016Y34567D01*
X9049Y34495D01*
X9127Y34345D01*
X9227Y34190D01*
X9349Y34040D01*
X9416Y33973D01*
X9488Y33912D01*
X9493Y33907D01*
X9504Y33901D01*
X9527Y33885D01*
X9560Y33862D01*
X9599Y33840D01*
X9649Y33818D01*
X9704Y33790D01*
X9765Y33762D01*
X9837Y33729D01*
X9915Y33702D01*
X9998Y33679D01*
X10087Y33657D01*
X10182Y33635D01*
X10287Y33618D01*
X10392Y33613D01*
X10509Y33607D01*
X10542D01*
X10581Y33613D01*
X10637Y33618D01*
X10698Y33624D01*
X10775Y33635D01*
X10859Y33652D01*
X10953Y33674D01*
X11047Y33702D01*
X11147Y33735D01*
X11253Y33779D01*
X11358Y33829D01*
X11463Y33885D01*
X11569Y33957D01*
X11669Y34034D01*
X11763Y34129D01*
X11769Y34134D01*
X11785Y34151D01*
X11808Y34184D01*
X11841Y34223D01*
X11874Y34279D01*
X11919Y34340D01*
X11963Y34417D01*
X12007Y34506D01*
X12052Y34601D01*
X12096Y34706D01*
X12141Y34828D01*
X12174Y34956D01*
X12207Y35089D01*
X12229Y35239D01*
X12246Y35394D01*
X12252Y35561D01*
Y35566D01*
Y35572D01*
Y35605D01*
X12246Y35655D01*
Y35722D01*
X12235Y35799D01*
X12224Y35894D01*
X12213Y35994D01*
X12191Y36110D01*
X12163Y36227D01*
X12129Y36349D01*
X12091Y36471D01*
X12041Y36599D01*
X11985Y36721D01*
X11919Y36837D01*
X11846Y36948D01*
X11758Y37054D01*
X11752Y37059D01*
X11735Y37076D01*
X11708Y37104D01*
X11669Y37137D01*
X11619Y37176D01*
X11558Y37220D01*
X11491Y37270D01*
X11408Y37320D01*
X11319Y37370D01*
X11225Y37420D01*
X11114Y37464D01*
X11003Y37503D01*
X10875Y37536D01*
X10748Y37564D01*
X10603Y37581D01*
X10459Y37587D01*
D02*
G37*
G36*
X8239Y37514D02*
X7462D01*
Y35805D01*
X5886Y37514D01*
X4842D01*
X6296Y36016D01*
X4770Y33674D01*
X5775D01*
X6835Y35478D01*
X7462Y34834D01*
Y33674D01*
X8239D01*
Y37514D01*
D02*
G37*
G36*
X17491D02*
X16714D01*
Y35427D01*
Y35422D01*
Y35405D01*
Y35383D01*
Y35350D01*
Y35305D01*
Y35261D01*
X16708Y35161D01*
Y35050D01*
X16703Y34945D01*
X16697Y34895D01*
Y34850D01*
X16692Y34817D01*
X16686Y34784D01*
Y34773D01*
X16675Y34745D01*
X16658Y34701D01*
X16636Y34645D01*
X16608Y34584D01*
X16564Y34523D01*
X16514Y34456D01*
X16453Y34401D01*
X16442Y34395D01*
X16420Y34379D01*
X16375Y34356D01*
X16320Y34334D01*
X16242Y34306D01*
X16153Y34284D01*
X16053Y34268D01*
X15937Y34262D01*
X15881D01*
X15826Y34268D01*
X15754Y34279D01*
X15670Y34295D01*
X15593Y34317D01*
X15509Y34351D01*
X15443Y34395D01*
X15437Y34401D01*
X15415Y34417D01*
X15387Y34445D01*
X15354Y34484D01*
X15321Y34534D01*
X15288Y34589D01*
X15260Y34650D01*
X15243Y34723D01*
Y34734D01*
X15237Y34762D01*
X15232Y34811D01*
X15221Y34878D01*
Y34923D01*
X15215Y34972D01*
Y35028D01*
X15210Y35083D01*
Y35150D01*
X15204Y35222D01*
Y35300D01*
Y35383D01*
Y37514D01*
X14427D01*
Y35489D01*
Y35483D01*
Y35461D01*
Y35422D01*
Y35378D01*
Y35322D01*
X14433Y35256D01*
Y35183D01*
Y35111D01*
X14444Y34950D01*
X14455Y34784D01*
X14460Y34712D01*
X14472Y34639D01*
X14483Y34573D01*
X14494Y34512D01*
Y34506D01*
X14499Y34501D01*
Y34484D01*
X14505Y34467D01*
X14522Y34412D01*
X14544Y34345D01*
X14577Y34268D01*
X14616Y34190D01*
X14666Y34107D01*
X14727Y34029D01*
X14732Y34018D01*
X14755Y33996D01*
X14794Y33962D01*
X14843Y33918D01*
X14910Y33868D01*
X14988Y33818D01*
X15077Y33762D01*
X15177Y33718D01*
X15182D01*
X15188Y33713D01*
X15204Y33707D01*
X15226Y33702D01*
X15254Y33690D01*
X15288Y33679D01*
X15332Y33668D01*
X15376Y33663D01*
X15482Y33640D01*
X15609Y33618D01*
X15754Y33607D01*
X15915Y33602D01*
X16003D01*
X16053Y33607D01*
X16103D01*
X16164Y33613D01*
X16225Y33618D01*
X16359Y33629D01*
X16497Y33652D01*
X16636Y33685D01*
X16697Y33702D01*
X16753Y33724D01*
X16758D01*
X16764Y33729D01*
X16797Y33746D01*
X16853Y33774D01*
X16914Y33812D01*
X16986Y33862D01*
X17063Y33918D01*
X17136Y33985D01*
X17202Y34057D01*
X17208Y34068D01*
X17230Y34090D01*
X17258Y34134D01*
X17291Y34190D01*
X17324Y34251D01*
X17363Y34323D01*
X17391Y34401D01*
X17419Y34484D01*
Y34490D01*
X17424Y34501D01*
Y34517D01*
X17430Y34545D01*
X17435Y34578D01*
X17441Y34623D01*
X17446Y34673D01*
X17452Y34728D01*
X17463Y34795D01*
X17469Y34867D01*
X17474Y34945D01*
X17480Y35034D01*
X17485Y35128D01*
Y35233D01*
X17491Y35344D01*
Y35461D01*
Y37514D01*
D02*
G37*
G36*
X2872D02*
X1141D01*
X1091Y37509D01*
X1029D01*
X969Y37503D01*
X896D01*
X752Y37487D01*
X602Y37470D01*
X463Y37442D01*
X402Y37426D01*
X347Y37409D01*
X341D01*
X336Y37403D01*
X302Y37387D01*
X252Y37359D01*
X186Y37326D01*
X114Y37270D01*
X42Y37209D01*
X-30Y37131D01*
X-97Y37037D01*
Y37031D01*
X-103Y37026D01*
X-114Y37009D01*
X-125Y36993D01*
X-153Y36937D01*
X-186Y36865D01*
X-214Y36776D01*
X-241Y36676D01*
X-264Y36560D01*
X-269Y36438D01*
Y36432D01*
Y36421D01*
Y36393D01*
X-264Y36366D01*
Y36327D01*
X-258Y36288D01*
X-236Y36188D01*
X-208Y36071D01*
X-164Y35955D01*
X-97Y35833D01*
X-58Y35777D01*
X-14Y35722D01*
X-8Y35716D01*
X-3Y35711D01*
X14Y35694D01*
X36Y35677D01*
X58Y35655D01*
X92Y35627D01*
X130Y35600D01*
X175Y35572D01*
X225Y35539D01*
X286Y35511D01*
X347Y35483D01*
X414Y35455D01*
X491Y35427D01*
X569Y35405D01*
X652Y35383D01*
X746Y35366D01*
X741D01*
X735Y35361D01*
X702Y35339D01*
X658Y35311D01*
X602Y35272D01*
X536Y35222D01*
X469Y35172D01*
X397Y35111D01*
X336Y35045D01*
X330Y35039D01*
X302Y35011D01*
X269Y34967D01*
X219Y34900D01*
X153Y34817D01*
X119Y34762D01*
X81Y34706D01*
X36Y34645D01*
X-8Y34578D01*
X-58Y34501D01*
X-108Y34423D01*
X-580Y33674D01*
X352D01*
X907Y34506D01*
X913Y34512D01*
X919Y34528D01*
X935Y34551D01*
X957Y34578D01*
X980Y34612D01*
X1007Y34656D01*
X1068Y34745D01*
X1141Y34845D01*
X1207Y34934D01*
X1268Y35017D01*
X1296Y35045D01*
X1318Y35072D01*
X1324Y35078D01*
X1335Y35089D01*
X1357Y35111D01*
X1385Y35139D01*
X1424Y35161D01*
X1462Y35189D01*
X1507Y35211D01*
X1551Y35233D01*
X1557D01*
X1573Y35239D01*
X1601Y35250D01*
X1646Y35256D01*
X1701Y35267D01*
X1768Y35272D01*
X1845Y35278D01*
X2095D01*
Y33674D01*
X2872D01*
Y37514D01*
D02*
G37*
G36*
X13634D02*
X12857D01*
Y33674D01*
X13634D01*
Y37514D01*
D02*
G37*
G36*
X19950Y37587D02*
X19911D01*
X19866Y37581D01*
X19805D01*
X19739Y37570D01*
X19650Y37559D01*
X19561Y37542D01*
X19461Y37520D01*
X19356Y37492D01*
X19245Y37459D01*
X19128Y37414D01*
X19017Y37365D01*
X18906Y37303D01*
X18795Y37231D01*
X18695Y37154D01*
X18595Y37059D01*
X18590Y37054D01*
X18573Y37037D01*
X18551Y37004D01*
X18518Y36965D01*
X18479Y36909D01*
X18434Y36843D01*
X18390Y36771D01*
X18340Y36682D01*
X18296Y36582D01*
X18251Y36471D01*
X18207Y36354D01*
X18168Y36221D01*
X18135Y36082D01*
X18112Y35927D01*
X18096Y35766D01*
X18090Y35594D01*
Y35588D01*
Y35572D01*
Y35544D01*
Y35511D01*
X18096Y35466D01*
Y35416D01*
X18101Y35361D01*
X18107Y35300D01*
X18124Y35161D01*
X18151Y35011D01*
X18185Y34861D01*
X18235Y34717D01*
Y34712D01*
X18240Y34706D01*
X18246Y34689D01*
X18257Y34667D01*
X18279Y34612D01*
X18318Y34539D01*
X18362Y34456D01*
X18418Y34356D01*
X18490Y34257D01*
X18567Y34157D01*
X18562D01*
X18556Y34146D01*
X18540Y34134D01*
X18518Y34123D01*
X18462Y34084D01*
X18384Y34040D01*
X18290Y33990D01*
X18185Y33935D01*
X18068Y33885D01*
X17946Y33835D01*
X18235Y33280D01*
X18240D01*
X18262Y33291D01*
X18301Y33302D01*
X18346Y33318D01*
X18395Y33341D01*
X18456Y33369D01*
X18579Y33430D01*
X18590Y33435D01*
X18612Y33452D01*
X18634Y33463D01*
X18656Y33479D01*
X18684Y33496D01*
X18717Y33518D01*
X18762Y33546D01*
X18812Y33579D01*
X18867Y33613D01*
X18934Y33657D01*
X19012Y33707D01*
X19095Y33762D01*
X19100D01*
X19111Y33757D01*
X19134Y33746D01*
X19161Y33740D01*
X19195Y33724D01*
X19239Y33713D01*
X19284Y33696D01*
X19339Y33685D01*
X19461Y33652D01*
X19605Y33629D01*
X19761Y33607D01*
X19927Y33602D01*
X19966D01*
X20010Y33607D01*
X20072Y33613D01*
X20149Y33618D01*
X20233Y33629D01*
X20332Y33646D01*
X20432Y33668D01*
X20543Y33696D01*
X20654Y33729D01*
X20771Y33774D01*
X20887Y33824D01*
X20998Y33879D01*
X21109Y33951D01*
X21215Y34029D01*
X21315Y34123D01*
X21320Y34129D01*
X21337Y34146D01*
X21359Y34179D01*
X21393Y34218D01*
X21431Y34273D01*
X21470Y34340D01*
X21520Y34417D01*
X21565Y34501D01*
X21609Y34601D01*
X21653Y34712D01*
X21698Y34834D01*
X21737Y34961D01*
X21770Y35106D01*
X21792Y35261D01*
X21809Y35422D01*
X21814Y35594D01*
Y35605D01*
Y35638D01*
X21809Y35683D01*
Y35749D01*
X21798Y35827D01*
X21787Y35921D01*
X21770Y36021D01*
X21753Y36132D01*
X21725Y36249D01*
X21692Y36366D01*
X21653Y36488D01*
X21603Y36610D01*
X21548Y36732D01*
X21481Y36848D01*
X21404Y36959D01*
X21315Y37059D01*
X21309Y37065D01*
X21293Y37081D01*
X21265Y37109D01*
X21220Y37143D01*
X21170Y37181D01*
X21109Y37226D01*
X21037Y37276D01*
X20954Y37326D01*
X20860Y37370D01*
X20760Y37420D01*
X20649Y37464D01*
X20527Y37503D01*
X20393Y37536D01*
X20255Y37564D01*
X20105Y37581D01*
X19950Y37587D01*
D02*
G37*
G36*
X-16653D02*
X-16719D01*
X-16769Y37581D01*
X-16830Y37575D01*
X-16903Y37570D01*
X-16975Y37559D01*
X-17058Y37548D01*
X-17235Y37509D01*
X-17324Y37481D01*
X-17413Y37453D01*
X-17502Y37414D01*
X-17585Y37370D01*
X-17663Y37320D01*
X-17735Y37265D01*
X-17741Y37259D01*
X-17752Y37248D01*
X-17768Y37231D01*
X-17790Y37209D01*
X-17818Y37176D01*
X-17852Y37137D01*
X-17885Y37093D01*
X-17924Y37043D01*
X-17957Y36981D01*
X-17990Y36920D01*
X-18024Y36848D01*
X-18051Y36771D01*
X-18079Y36693D01*
X-18101Y36604D01*
X-18118Y36515D01*
X-18124Y36415D01*
X-17346Y36388D01*
Y36393D01*
Y36399D01*
X-17335Y36438D01*
X-17324Y36488D01*
X-17302Y36549D01*
X-17274Y36621D01*
X-17235Y36687D01*
X-17186Y36754D01*
X-17130Y36810D01*
X-17124Y36815D01*
X-17102Y36832D01*
X-17063Y36854D01*
X-17008Y36876D01*
X-16941Y36898D01*
X-16858Y36920D01*
X-16758Y36937D01*
X-16642Y36943D01*
X-16586D01*
X-16525Y36937D01*
X-16453Y36926D01*
X-16370Y36909D01*
X-16281Y36882D01*
X-16198Y36848D01*
X-16120Y36798D01*
X-16114Y36793D01*
X-16103Y36782D01*
X-16081Y36765D01*
X-16059Y36737D01*
X-16037Y36704D01*
X-16014Y36660D01*
X-16003Y36615D01*
X-15998Y36560D01*
Y36554D01*
Y36538D01*
X-16003Y36510D01*
X-16014Y36482D01*
X-16026Y36443D01*
X-16042Y36404D01*
X-16070Y36366D01*
X-16109Y36327D01*
X-16114Y36321D01*
X-16142Y36304D01*
X-16159Y36293D01*
X-16187Y36282D01*
X-16214Y36266D01*
X-16253Y36249D01*
X-16298Y36232D01*
X-16348Y36210D01*
X-16409Y36188D01*
X-16470Y36166D01*
X-16547Y36143D01*
X-16631Y36121D01*
X-16719Y36099D01*
X-16819Y36071D01*
X-16825D01*
X-16847Y36066D01*
X-16875Y36060D01*
X-16914Y36049D01*
X-16958Y36038D01*
X-17014Y36021D01*
X-17075Y36005D01*
X-17136Y35988D01*
X-17269Y35944D01*
X-17408Y35899D01*
X-17541Y35849D01*
X-17596Y35822D01*
X-17652Y35794D01*
X-17657D01*
X-17663Y35788D01*
X-17696Y35766D01*
X-17746Y35733D01*
X-17807Y35688D01*
X-17874Y35633D01*
X-17946Y35566D01*
X-18018Y35489D01*
X-18079Y35400D01*
X-18085Y35389D01*
X-18101Y35355D01*
X-18129Y35305D01*
X-18157Y35233D01*
X-18185Y35144D01*
X-18212Y35039D01*
X-18229Y34923D01*
X-18235Y34789D01*
Y34784D01*
Y34773D01*
Y34756D01*
Y34734D01*
X-18229Y34706D01*
X-18223Y34667D01*
X-18212Y34589D01*
X-18190Y34490D01*
X-18157Y34384D01*
X-18107Y34279D01*
X-18046Y34168D01*
Y34162D01*
X-18035Y34157D01*
X-18012Y34123D01*
X-17968Y34068D01*
X-17913Y34007D01*
X-17841Y33935D01*
X-17746Y33868D01*
X-17646Y33801D01*
X-17524Y33740D01*
X-17519D01*
X-17507Y33735D01*
X-17491Y33729D01*
X-17463Y33718D01*
X-17430Y33707D01*
X-17391Y33696D01*
X-17346Y33685D01*
X-17297Y33674D01*
X-17235Y33657D01*
X-17175Y33646D01*
X-17030Y33624D01*
X-16869Y33607D01*
X-16692Y33602D01*
X-16620D01*
X-16569Y33607D01*
X-16509Y33613D01*
X-16442Y33618D01*
X-16364Y33629D01*
X-16281Y33646D01*
X-16098Y33685D01*
X-16003Y33713D01*
X-15915Y33740D01*
X-15820Y33779D01*
X-15732Y33824D01*
X-15648Y33874D01*
X-15571Y33935D01*
X-15565Y33940D01*
X-15554Y33951D01*
X-15532Y33968D01*
X-15509Y33996D01*
X-15476Y34034D01*
X-15443Y34079D01*
X-15404Y34129D01*
X-15365Y34184D01*
X-15326Y34251D01*
X-15288Y34323D01*
X-15249Y34406D01*
X-15210Y34495D01*
X-15182Y34589D01*
X-15149Y34695D01*
X-15126Y34806D01*
X-15110Y34923D01*
X-15865Y34995D01*
Y34989D01*
X-15870Y34978D01*
Y34956D01*
X-15876Y34934D01*
X-15898Y34867D01*
X-15926Y34784D01*
X-15959Y34689D01*
X-16009Y34595D01*
X-16064Y34512D01*
X-16137Y34434D01*
X-16148Y34429D01*
X-16175Y34406D01*
X-16220Y34379D01*
X-16286Y34345D01*
X-16370Y34312D01*
X-16464Y34284D01*
X-16575Y34262D01*
X-16703Y34257D01*
X-16764D01*
X-16830Y34268D01*
X-16914Y34279D01*
X-17002Y34295D01*
X-17097Y34323D01*
X-17186Y34362D01*
X-17263Y34412D01*
X-17274Y34417D01*
X-17297Y34440D01*
X-17324Y34473D01*
X-17363Y34517D01*
X-17397Y34573D01*
X-17430Y34639D01*
X-17452Y34706D01*
X-17458Y34784D01*
Y34789D01*
Y34806D01*
X-17452Y34834D01*
X-17446Y34867D01*
X-17435Y34900D01*
X-17424Y34939D01*
X-17402Y34978D01*
X-17374Y35017D01*
X-17369Y35022D01*
X-17358Y35034D01*
X-17341Y35050D01*
X-17313Y35072D01*
X-17274Y35100D01*
X-17224Y35128D01*
X-17169Y35156D01*
X-17097Y35183D01*
X-17091D01*
X-17069Y35194D01*
X-17030Y35206D01*
X-17002Y35217D01*
X-16969Y35222D01*
X-16930Y35233D01*
X-16886Y35250D01*
X-16836Y35261D01*
X-16780Y35278D01*
X-16714Y35294D01*
X-16642Y35311D01*
X-16564Y35333D01*
X-16475Y35355D01*
X-16470D01*
X-16447Y35361D01*
X-16414Y35372D01*
X-16375Y35383D01*
X-16325Y35400D01*
X-16264Y35416D01*
X-16203Y35439D01*
X-16131Y35461D01*
X-15987Y35516D01*
X-15848Y35583D01*
X-15776Y35616D01*
X-15715Y35655D01*
X-15654Y35694D01*
X-15604Y35733D01*
X-15598Y35738D01*
X-15587Y35749D01*
X-15571Y35766D01*
X-15548Y35788D01*
X-15521Y35822D01*
X-15493Y35860D01*
X-15460Y35899D01*
X-15432Y35949D01*
X-15365Y36066D01*
X-15310Y36199D01*
X-15288Y36271D01*
X-15271Y36343D01*
X-15260Y36426D01*
X-15254Y36510D01*
Y36515D01*
Y36521D01*
Y36538D01*
Y36560D01*
X-15265Y36615D01*
X-15276Y36687D01*
X-15293Y36771D01*
X-15321Y36865D01*
X-15360Y36965D01*
X-15415Y37059D01*
Y37065D01*
X-15421Y37070D01*
X-15448Y37104D01*
X-15482Y37148D01*
X-15537Y37203D01*
X-15604Y37265D01*
X-15687Y37331D01*
X-15781Y37392D01*
X-15892Y37448D01*
X-15898D01*
X-15909Y37453D01*
X-15926Y37459D01*
X-15948Y37470D01*
X-15981Y37481D01*
X-16014Y37492D01*
X-16059Y37503D01*
X-16109Y37520D01*
X-16220Y37542D01*
X-16348Y37564D01*
X-16492Y37581D01*
X-16653Y37587D01*
D02*
G37*
%LPD*%
G36*
X-12418Y35194D02*
X-13478D01*
X-12940Y36621D01*
X-12418Y35194D01*
D02*
G37*
G36*
X2095Y35888D02*
X1340D01*
X1229Y35894D01*
X1113Y35899D01*
X996Y35905D01*
X946Y35910D01*
X902Y35916D01*
X857Y35927D01*
X830Y35933D01*
X824D01*
X807Y35944D01*
X780Y35955D01*
X752Y35971D01*
X680Y36021D01*
X647Y36055D01*
X613Y36094D01*
X608Y36099D01*
X602Y36116D01*
X586Y36138D01*
X569Y36171D01*
X558Y36216D01*
X541Y36266D01*
X536Y36321D01*
X530Y36382D01*
Y36393D01*
Y36415D01*
X536Y36449D01*
X541Y36493D01*
X558Y36543D01*
X574Y36593D01*
X602Y36648D01*
X636Y36693D01*
X641Y36698D01*
X652Y36715D01*
X680Y36732D01*
X713Y36759D01*
X752Y36787D01*
X802Y36810D01*
X863Y36832D01*
X930Y36848D01*
X935D01*
X952Y36854D01*
X985D01*
X1035Y36859D01*
X1157D01*
X1207Y36865D01*
X2095D01*
Y35888D01*
D02*
G37*
G36*
X20033Y36920D02*
X20072Y36915D01*
X20121Y36909D01*
X20227Y36887D01*
X20349Y36843D01*
X20410Y36821D01*
X20477Y36787D01*
X20543Y36748D01*
X20604Y36704D01*
X20665Y36654D01*
X20721Y36593D01*
X20727Y36588D01*
X20732Y36576D01*
X20749Y36560D01*
X20765Y36532D01*
X20787Y36493D01*
X20815Y36454D01*
X20843Y36404D01*
X20865Y36343D01*
X20893Y36277D01*
X20921Y36204D01*
X20948Y36121D01*
X20971Y36033D01*
X20987Y35933D01*
X21004Y35827D01*
X21010Y35716D01*
X21015Y35594D01*
Y35588D01*
Y35566D01*
Y35527D01*
X21010Y35483D01*
X21004Y35427D01*
X20998Y35361D01*
X20993Y35289D01*
X20976Y35211D01*
X20943Y35050D01*
X20893Y34878D01*
X20860Y34800D01*
X20815Y34717D01*
X20771Y34645D01*
X20721Y34578D01*
X20715Y34573D01*
X20710Y34562D01*
X20693Y34545D01*
X20665Y34528D01*
X20638Y34501D01*
X20604Y34473D01*
X20565Y34445D01*
X20516Y34412D01*
X20410Y34351D01*
X20282Y34295D01*
X20210Y34279D01*
X20138Y34262D01*
X20061Y34251D01*
X19977Y34245D01*
X19950D01*
X19916Y34251D01*
X19877D01*
X19827Y34257D01*
X19772Y34268D01*
X19661Y34295D01*
X19672Y34301D01*
X19700Y34323D01*
X19750Y34351D01*
X19811Y34384D01*
X19883Y34423D01*
X19961Y34462D01*
X20049Y34506D01*
X20138Y34539D01*
X19922Y34989D01*
X19916D01*
X19905Y34984D01*
X19883Y34978D01*
X19855Y34967D01*
X19822Y34950D01*
X19783Y34934D01*
X19689Y34889D01*
X19578Y34834D01*
X19455Y34767D01*
X19322Y34684D01*
X19195Y34589D01*
X19189Y34595D01*
X19173Y34623D01*
X19145Y34662D01*
X19111Y34712D01*
X19073Y34773D01*
X19034Y34845D01*
X19000Y34928D01*
X18967Y35017D01*
Y35022D01*
X18962Y35028D01*
X18956Y35061D01*
X18945Y35111D01*
X18928Y35183D01*
X18912Y35267D01*
X18901Y35366D01*
X18895Y35478D01*
X18889Y35594D01*
Y35600D01*
Y35622D01*
Y35661D01*
X18895Y35705D01*
X18901Y35761D01*
X18906Y35822D01*
X18912Y35894D01*
X18928Y35971D01*
X18962Y36132D01*
X19012Y36299D01*
X19045Y36377D01*
X19084Y36454D01*
X19134Y36526D01*
X19184Y36593D01*
X19189Y36599D01*
X19195Y36610D01*
X19211Y36626D01*
X19239Y36643D01*
X19267Y36671D01*
X19300Y36698D01*
X19344Y36726D01*
X19389Y36759D01*
X19444Y36793D01*
X19500Y36821D01*
X19633Y36876D01*
X19705Y36893D01*
X19783Y36909D01*
X19866Y36920D01*
X19955Y36926D01*
X19999D01*
X20033Y36920D01*
D02*
G37*
%LPC*%
G36*
X51587Y51899D02*
Y51061D01*
X52459Y50728D01*
Y49185D01*
X51587Y48868D01*
Y48047D01*
X55428Y49534D01*
Y50356D01*
X51587Y51899D01*
D02*
G37*
G36*
X52703Y65674D02*
X52647D01*
X52620Y65668D01*
X52581Y65663D01*
X52503Y65652D01*
X52403Y65629D01*
X52298Y65596D01*
X52192Y65546D01*
X52081Y65485D01*
X52076D01*
X52070Y65474D01*
X52037Y65452D01*
X51981Y65407D01*
X51920Y65352D01*
X51848Y65280D01*
X51782Y65185D01*
X51715Y65086D01*
X51654Y64963D01*
Y64958D01*
X51648Y64947D01*
X51643Y64930D01*
X51632Y64902D01*
X51621Y64869D01*
X51610Y64830D01*
X51599Y64786D01*
X51587Y64736D01*
X51571Y64675D01*
X51560Y64614D01*
X51537Y64469D01*
X51521Y64309D01*
X51515Y64131D01*
Y64125D01*
Y64098D01*
Y64059D01*
X51521Y64009D01*
X51526Y63948D01*
X51532Y63881D01*
X51543Y63803D01*
X51560Y63720D01*
X51599Y63537D01*
X51626Y63443D01*
X51654Y63354D01*
X51693Y63260D01*
X51737Y63171D01*
X51787Y63087D01*
X51848Y63010D01*
X51854Y63004D01*
X51865Y62993D01*
X51881Y62971D01*
X51909Y62949D01*
X51948Y62915D01*
X51992Y62882D01*
X52043Y62843D01*
X52098Y62805D01*
X52165Y62766D01*
X52237Y62727D01*
X52320Y62688D01*
X52409Y62649D01*
X52503Y62621D01*
X52609Y62588D01*
X52720Y62566D01*
X52836Y62549D01*
X52908Y63304D01*
X52903D01*
X52892Y63310D01*
X52869D01*
X52847Y63315D01*
X52781Y63337D01*
X52697Y63365D01*
X52603Y63398D01*
X52509Y63448D01*
X52425Y63504D01*
X52348Y63576D01*
X52342Y63587D01*
X52320Y63615D01*
X52292Y63659D01*
X52259Y63726D01*
X52226Y63809D01*
X52198Y63903D01*
X52176Y64014D01*
X52170Y64142D01*
Y64148D01*
Y64159D01*
Y64175D01*
Y64203D01*
X52181Y64270D01*
X52192Y64353D01*
X52209Y64442D01*
X52237Y64536D01*
X52276Y64625D01*
X52325Y64703D01*
X52331Y64714D01*
X52353Y64736D01*
X52387Y64764D01*
X52431Y64802D01*
X52486Y64836D01*
X52553Y64869D01*
X52620Y64891D01*
X52697Y64897D01*
X52720D01*
X52747Y64891D01*
X52781Y64886D01*
X52814Y64875D01*
X52853Y64864D01*
X52892Y64841D01*
X52930Y64814D01*
X52936Y64808D01*
X52947Y64797D01*
X52964Y64780D01*
X52986Y64753D01*
X53014Y64714D01*
X53041Y64664D01*
X53069Y64608D01*
X53097Y64536D01*
Y64530D01*
X53108Y64508D01*
X53119Y64469D01*
X53130Y64442D01*
X53136Y64408D01*
X53147Y64370D01*
X53164Y64325D01*
X53175Y64275D01*
X53191Y64220D01*
X53208Y64153D01*
X53225Y64081D01*
X53247Y64003D01*
X53269Y63915D01*
Y63909D01*
X53275Y63887D01*
X53286Y63853D01*
X53297Y63815D01*
X53313Y63765D01*
X53330Y63704D01*
X53352Y63643D01*
X53374Y63570D01*
X53430Y63426D01*
X53497Y63287D01*
X53530Y63215D01*
X53569Y63154D01*
X53608Y63093D01*
X53646Y63043D01*
X53652Y63038D01*
X53663Y63026D01*
X53680Y63010D01*
X53702Y62988D01*
X53735Y62960D01*
X53774Y62932D01*
X53813Y62899D01*
X53863Y62871D01*
X53979Y62805D01*
X54113Y62749D01*
X54185Y62727D01*
X54257Y62710D01*
X54340Y62699D01*
X54423Y62694D01*
X54473D01*
X54529Y62705D01*
X54601Y62716D01*
X54684Y62732D01*
X54779Y62760D01*
X54878Y62799D01*
X54973Y62854D01*
X54978D01*
X54984Y62860D01*
X55017Y62888D01*
X55062Y62921D01*
X55117Y62976D01*
X55178Y63043D01*
X55245Y63126D01*
X55306Y63221D01*
X55361Y63332D01*
Y63337D01*
X55367Y63348D01*
X55373Y63365D01*
X55384Y63387D01*
X55395Y63420D01*
X55406Y63454D01*
X55417Y63498D01*
X55433Y63548D01*
X55456Y63659D01*
X55478Y63787D01*
X55495Y63931D01*
X55500Y64092D01*
Y64103D01*
Y64125D01*
Y64159D01*
X55495Y64209D01*
X55489Y64270D01*
X55484Y64342D01*
X55472Y64414D01*
X55461Y64497D01*
X55422Y64675D01*
X55395Y64764D01*
X55367Y64852D01*
X55328Y64941D01*
X55284Y65025D01*
X55234Y65102D01*
X55178Y65174D01*
X55173Y65180D01*
X55162Y65191D01*
X55145Y65208D01*
X55123Y65230D01*
X55089Y65258D01*
X55051Y65291D01*
X55006Y65324D01*
X54956Y65363D01*
X54895Y65396D01*
X54834Y65430D01*
X54762Y65463D01*
X54684Y65491D01*
X54607Y65518D01*
X54518Y65541D01*
X54429Y65557D01*
X54329Y65563D01*
X54301Y64786D01*
X54312D01*
X54351Y64775D01*
X54401Y64764D01*
X54462Y64741D01*
X54534Y64714D01*
X54601Y64675D01*
X54668Y64625D01*
X54723Y64569D01*
X54729Y64564D01*
X54745Y64542D01*
X54768Y64503D01*
X54790Y64447D01*
X54812Y64381D01*
X54834Y64297D01*
X54851Y64197D01*
X54856Y64081D01*
Y64075D01*
Y64064D01*
Y64048D01*
Y64025D01*
X54851Y63964D01*
X54840Y63892D01*
X54823Y63809D01*
X54795Y63720D01*
X54762Y63637D01*
X54712Y63559D01*
X54707Y63554D01*
X54695Y63543D01*
X54679Y63520D01*
X54651Y63498D01*
X54618Y63476D01*
X54573Y63454D01*
X54529Y63443D01*
X54473Y63437D01*
X54451D01*
X54423Y63443D01*
X54396Y63454D01*
X54357Y63465D01*
X54318Y63482D01*
X54279Y63509D01*
X54240Y63548D01*
X54235Y63554D01*
X54218Y63582D01*
X54207Y63598D01*
X54196Y63626D01*
X54179Y63654D01*
X54163Y63692D01*
X54146Y63737D01*
X54124Y63787D01*
X54102Y63848D01*
X54079Y63909D01*
X54057Y63987D01*
X54035Y64070D01*
X54013Y64159D01*
X53985Y64259D01*
Y64264D01*
X53979Y64286D01*
X53974Y64314D01*
X53963Y64353D01*
X53952Y64397D01*
X53935Y64453D01*
X53918Y64514D01*
X53902Y64575D01*
X53857Y64708D01*
X53813Y64847D01*
X53763Y64980D01*
X53735Y65036D01*
X53707Y65091D01*
Y65097D01*
X53702Y65102D01*
X53680Y65136D01*
X53646Y65185D01*
X53602Y65246D01*
X53547Y65313D01*
X53480Y65385D01*
X53402Y65457D01*
X53313Y65518D01*
X53302Y65524D01*
X53269Y65541D01*
X53219Y65568D01*
X53147Y65596D01*
X53058Y65624D01*
X52953Y65652D01*
X52836Y65668D01*
X52703Y65674D01*
D02*
G37*
G36*
X55428Y55501D02*
X51587Y54135D01*
Y53297D01*
X55428Y51921D01*
Y52759D01*
X52586Y53736D01*
X55428Y54674D01*
Y55501D01*
D02*
G37*
G36*
Y62011D02*
X51587D01*
Y61234D01*
X55428D01*
Y62011D01*
D02*
G37*
G36*
X51587Y59347D02*
Y58414D01*
X52420Y57859D01*
X52425Y57854D01*
X52442Y57848D01*
X52464Y57832D01*
X52492Y57810D01*
X52525Y57787D01*
X52570Y57759D01*
X52658Y57699D01*
X52758Y57626D01*
X52847Y57560D01*
X52930Y57499D01*
X52958Y57471D01*
X52986Y57449D01*
X52991Y57443D01*
X53003Y57432D01*
X53025Y57410D01*
X53053Y57382D01*
X53075Y57343D01*
X53102Y57304D01*
X53125Y57260D01*
X53147Y57216D01*
Y57210D01*
X53153Y57193D01*
X53164Y57166D01*
X53169Y57121D01*
X53180Y57066D01*
X53186Y56999D01*
X53191Y56921D01*
Y56827D01*
Y56672D01*
X51587D01*
Y55895D01*
X55428D01*
Y57526D01*
Y57532D01*
Y57554D01*
Y57587D01*
Y57626D01*
X55422Y57676D01*
Y57737D01*
X55417Y57798D01*
Y57871D01*
X55400Y58015D01*
X55384Y58165D01*
X55356Y58303D01*
X55339Y58364D01*
X55322Y58420D01*
Y58425D01*
X55317Y58431D01*
X55300Y58464D01*
X55273Y58514D01*
X55239Y58581D01*
X55184Y58653D01*
X55123Y58725D01*
X55045Y58797D01*
X54951Y58864D01*
X54945D01*
X54940Y58869D01*
X54923Y58881D01*
X54906Y58892D01*
X54851Y58920D01*
X54779Y58953D01*
X54690Y58981D01*
X54590Y59008D01*
X54473Y59030D01*
X54351Y59036D01*
X54307D01*
X54279Y59030D01*
X54240D01*
X54201Y59025D01*
X54102Y59003D01*
X53985Y58975D01*
X53868Y58931D01*
X53746Y58864D01*
X53691Y58825D01*
X53635Y58781D01*
X53630Y58775D01*
X53624Y58770D01*
X53608Y58753D01*
X53591Y58731D01*
X53569Y58709D01*
X53541Y58675D01*
X53513Y58636D01*
X53486Y58592D01*
X53452Y58542D01*
X53424Y58481D01*
X53397Y58420D01*
X53369Y58353D01*
X53341Y58276D01*
X53319Y58198D01*
X53297Y58115D01*
X53280Y58020D01*
Y58026D01*
X53275Y58031D01*
X53252Y58065D01*
X53225Y58109D01*
X53186Y58165D01*
X53136Y58231D01*
X53086Y58298D01*
X53025Y58370D01*
X52958Y58431D01*
X52953Y58437D01*
X52925Y58464D01*
X52881Y58498D01*
X52814Y58548D01*
X52731Y58614D01*
X52675Y58648D01*
X52620Y58686D01*
X52559Y58731D01*
X52492Y58775D01*
X52414Y58825D01*
X52337Y58875D01*
X51587Y59347D01*
D02*
G37*
G36*
X54246Y69276D02*
X54185D01*
X54157Y69270D01*
X54118D01*
X54040Y69259D01*
X53946Y69243D01*
X53841Y69220D01*
X53741Y69187D01*
X53646Y69143D01*
X53635Y69137D01*
X53608Y69120D01*
X53563Y69093D01*
X53508Y69054D01*
X53452Y69009D01*
X53386Y68948D01*
X53325Y68887D01*
X53269Y68815D01*
X53263Y68804D01*
X53247Y68782D01*
X53225Y68743D01*
X53197Y68693D01*
X53164Y68632D01*
X53136Y68565D01*
X53108Y68493D01*
X53086Y68415D01*
Y68410D01*
Y68404D01*
X53080Y68388D01*
Y68366D01*
X53075Y68338D01*
X53069Y68299D01*
X53064Y68260D01*
Y68210D01*
X53058Y68160D01*
X53053Y68099D01*
X53047Y68033D01*
X53041Y67960D01*
Y67883D01*
X53036Y67800D01*
Y67711D01*
Y67616D01*
Y67111D01*
X51587D01*
Y66334D01*
X55428D01*
Y67577D01*
Y67583D01*
Y67611D01*
Y67644D01*
Y67689D01*
Y67750D01*
X55422Y67811D01*
Y67883D01*
Y67955D01*
X55411Y68110D01*
X55400Y68266D01*
X55395Y68332D01*
X55389Y68399D01*
X55378Y68454D01*
X55367Y68499D01*
Y68504D01*
X55361Y68515D01*
X55356Y68532D01*
X55350Y68554D01*
X55322Y68615D01*
X55289Y68693D01*
X55239Y68776D01*
X55173Y68871D01*
X55089Y68959D01*
X54989Y69048D01*
X54984D01*
X54978Y69059D01*
X54962Y69070D01*
X54940Y69081D01*
X54906Y69104D01*
X54873Y69120D01*
X54834Y69143D01*
X54790Y69165D01*
X54679Y69204D01*
X54557Y69243D01*
X54407Y69265D01*
X54246Y69276D01*
D02*
G37*
%LPD*%
G36*
X54534Y49940D02*
X53108Y49418D01*
Y50478D01*
X54534Y49940D01*
D02*
G37*
G36*
X54362Y58231D02*
X54407Y58226D01*
X54457Y58209D01*
X54507Y58192D01*
X54562Y58165D01*
X54607Y58131D01*
X54612Y58126D01*
X54629Y58115D01*
X54645Y58087D01*
X54673Y58054D01*
X54701Y58015D01*
X54723Y57965D01*
X54745Y57904D01*
X54762Y57837D01*
Y57832D01*
X54768Y57815D01*
Y57782D01*
X54773Y57732D01*
Y57699D01*
Y57660D01*
Y57610D01*
X54779Y57560D01*
Y57499D01*
Y57432D01*
Y57354D01*
Y57271D01*
Y56672D01*
X53802D01*
Y57243D01*
Y57249D01*
Y57266D01*
Y57293D01*
Y57332D01*
Y57377D01*
Y57427D01*
X53807Y57538D01*
X53813Y57654D01*
X53819Y57771D01*
X53824Y57821D01*
X53830Y57865D01*
X53841Y57909D01*
X53846Y57937D01*
Y57943D01*
X53857Y57959D01*
X53868Y57987D01*
X53885Y58015D01*
X53935Y58087D01*
X53968Y58120D01*
X54007Y58154D01*
X54013Y58159D01*
X54029Y58165D01*
X54052Y58181D01*
X54085Y58198D01*
X54129Y58209D01*
X54179Y58226D01*
X54235Y58231D01*
X54296Y58237D01*
X54329D01*
X54362Y58231D01*
D02*
G37*
G36*
X54301Y68471D02*
X54351Y68460D01*
X54407Y68443D01*
X54468Y68421D01*
X54523Y68393D01*
X54579Y68349D01*
X54584Y68343D01*
X54601Y68327D01*
X54623Y68299D01*
X54651Y68266D01*
X54684Y68221D01*
X54712Y68166D01*
X54734Y68105D01*
X54751Y68038D01*
Y68033D01*
X54756Y68010D01*
X54762Y67971D01*
X54768Y67916D01*
Y67844D01*
X54773Y67794D01*
Y67744D01*
X54779Y67689D01*
Y67627D01*
Y67561D01*
Y67483D01*
Y67111D01*
X53685D01*
Y67533D01*
Y67539D01*
Y67555D01*
Y67577D01*
Y67605D01*
Y67644D01*
X53691Y67683D01*
Y67783D01*
X53696Y67883D01*
X53707Y67983D01*
X53724Y68071D01*
X53730Y68110D01*
X53741Y68144D01*
X53746Y68149D01*
X53752Y68171D01*
X53768Y68199D01*
X53785Y68232D01*
X53813Y68271D01*
X53846Y68310D01*
X53885Y68354D01*
X53930Y68388D01*
X53935Y68393D01*
X53952Y68404D01*
X53979Y68415D01*
X54018Y68432D01*
X54063Y68449D01*
X54113Y68466D01*
X54168Y68471D01*
X54229Y68477D01*
X54263D01*
X54301Y68471D01*
D02*
G37*
%LPC*%
G36*
X-72625Y37353D02*
X-73418D01*
X-73996Y34712D01*
X-74695Y37353D01*
X-75627D01*
X-76293Y34667D01*
X-76882Y37353D01*
X-77664D01*
X-76737Y33513D01*
X-75899D01*
X-75144Y36382D01*
X-74379Y33513D01*
X-73535D01*
X-72625Y37353D01*
D02*
G37*
G36*
X-79168Y37376D02*
X-79224D01*
X-79263Y37370D01*
X-79312Y37365D01*
X-79368Y37359D01*
X-79429Y37348D01*
X-79496Y37337D01*
X-79640Y37298D01*
X-79784Y37242D01*
X-79862Y37209D01*
X-79929Y37170D01*
X-80001Y37120D01*
X-80062Y37065D01*
X-80067Y37059D01*
X-80078Y37054D01*
X-80089Y37031D01*
X-80112Y37009D01*
X-80139Y36981D01*
X-80167Y36943D01*
X-80195Y36904D01*
X-80228Y36854D01*
X-80284Y36743D01*
X-80339Y36615D01*
X-80361Y36543D01*
X-80373Y36465D01*
X-80384Y36382D01*
X-80389Y36299D01*
Y36288D01*
Y36255D01*
X-80384Y36204D01*
X-80378Y36143D01*
X-80367Y36066D01*
X-80350Y35982D01*
X-80328Y35894D01*
X-80295Y35805D01*
X-80289Y35794D01*
X-80278Y35766D01*
X-80256Y35716D01*
X-80223Y35655D01*
X-80184Y35583D01*
X-80134Y35500D01*
X-80073Y35411D01*
X-80001Y35317D01*
X-79995Y35311D01*
X-79973Y35283D01*
X-79940Y35244D01*
X-79890Y35189D01*
X-79823Y35122D01*
X-79740Y35034D01*
X-79640Y34939D01*
X-79518Y34823D01*
X-79512Y34817D01*
X-79501Y34811D01*
X-79485Y34795D01*
X-79462Y34773D01*
X-79401Y34717D01*
X-79329Y34650D01*
X-79257Y34578D01*
X-79185Y34506D01*
X-79118Y34445D01*
X-79096Y34417D01*
X-79074Y34395D01*
X-79068Y34390D01*
X-79057Y34379D01*
X-79041Y34356D01*
X-79018Y34329D01*
X-78968Y34268D01*
X-78924Y34195D01*
X-80389D01*
Y33513D01*
X-77808D01*
Y33518D01*
Y33529D01*
X-77814Y33552D01*
X-77820Y33579D01*
X-77825Y33613D01*
X-77831Y33652D01*
X-77853Y33751D01*
X-77886Y33862D01*
X-77931Y33985D01*
X-77986Y34118D01*
X-78058Y34245D01*
Y34251D01*
X-78069Y34262D01*
X-78080Y34284D01*
X-78103Y34306D01*
X-78125Y34345D01*
X-78158Y34384D01*
X-78197Y34434D01*
X-78241Y34490D01*
X-78291Y34556D01*
X-78352Y34623D01*
X-78419Y34701D01*
X-78497Y34784D01*
X-78580Y34867D01*
X-78674Y34961D01*
X-78774Y35061D01*
X-78885Y35167D01*
X-78891Y35172D01*
X-78907Y35189D01*
X-78930Y35211D01*
X-78963Y35244D01*
X-79007Y35278D01*
X-79052Y35322D01*
X-79152Y35422D01*
X-79251Y35527D01*
X-79351Y35633D01*
X-79396Y35677D01*
X-79440Y35727D01*
X-79474Y35766D01*
X-79496Y35799D01*
X-79501Y35811D01*
X-79518Y35838D01*
X-79546Y35883D01*
X-79573Y35944D01*
X-79601Y36010D01*
X-79629Y36088D01*
X-79646Y36166D01*
X-79651Y36249D01*
Y36255D01*
Y36260D01*
Y36288D01*
X-79646Y36338D01*
X-79634Y36393D01*
X-79618Y36454D01*
X-79596Y36515D01*
X-79562Y36576D01*
X-79518Y36632D01*
X-79512Y36637D01*
X-79496Y36654D01*
X-79462Y36676D01*
X-79423Y36698D01*
X-79368Y36721D01*
X-79307Y36743D01*
X-79235Y36759D01*
X-79152Y36765D01*
X-79113D01*
X-79068Y36759D01*
X-79018Y36748D01*
X-78957Y36732D01*
X-78896Y36704D01*
X-78835Y36671D01*
X-78780Y36626D01*
X-78774Y36621D01*
X-78758Y36599D01*
X-78735Y36565D01*
X-78713Y36515D01*
X-78685Y36454D01*
X-78663Y36371D01*
X-78641Y36277D01*
X-78630Y36166D01*
X-77897Y36238D01*
Y36243D01*
X-77903Y36266D01*
Y36293D01*
X-77914Y36338D01*
X-77920Y36388D01*
X-77936Y36443D01*
X-77953Y36504D01*
X-77969Y36576D01*
X-78025Y36715D01*
X-78092Y36859D01*
X-78136Y36932D01*
X-78186Y36998D01*
X-78241Y37054D01*
X-78302Y37109D01*
X-78308Y37115D01*
X-78319Y37120D01*
X-78336Y37131D01*
X-78364Y37154D01*
X-78397Y37170D01*
X-78441Y37192D01*
X-78486Y37220D01*
X-78541Y37242D01*
X-78602Y37270D01*
X-78669Y37292D01*
X-78813Y37337D01*
X-78985Y37365D01*
X-79074Y37370D01*
X-79168Y37376D01*
D02*
G37*
G36*
X-70760Y37426D02*
X-70827D01*
X-70876Y37420D01*
X-70938Y37414D01*
X-71010Y37409D01*
X-71082Y37398D01*
X-71165Y37387D01*
X-71343Y37348D01*
X-71431Y37320D01*
X-71520Y37292D01*
X-71609Y37253D01*
X-71692Y37209D01*
X-71770Y37159D01*
X-71842Y37104D01*
X-71848Y37098D01*
X-71859Y37087D01*
X-71876Y37070D01*
X-71898Y37048D01*
X-71925Y37015D01*
X-71959Y36976D01*
X-71992Y36932D01*
X-72031Y36882D01*
X-72064Y36821D01*
X-72097Y36759D01*
X-72131Y36687D01*
X-72159Y36610D01*
X-72186Y36532D01*
X-72208Y36443D01*
X-72225Y36354D01*
X-72231Y36255D01*
X-71454Y36227D01*
Y36232D01*
Y36238D01*
X-71443Y36277D01*
X-71431Y36327D01*
X-71409Y36388D01*
X-71382Y36460D01*
X-71343Y36526D01*
X-71293Y36593D01*
X-71237Y36648D01*
X-71232Y36654D01*
X-71210Y36671D01*
X-71171Y36693D01*
X-71115Y36715D01*
X-71049Y36737D01*
X-70965Y36759D01*
X-70865Y36776D01*
X-70749Y36782D01*
X-70693D01*
X-70632Y36776D01*
X-70560Y36765D01*
X-70477Y36748D01*
X-70388Y36721D01*
X-70305Y36687D01*
X-70227Y36637D01*
X-70222Y36632D01*
X-70210Y36621D01*
X-70188Y36604D01*
X-70166Y36576D01*
X-70144Y36543D01*
X-70122Y36499D01*
X-70111Y36454D01*
X-70105Y36399D01*
Y36393D01*
Y36377D01*
X-70111Y36349D01*
X-70122Y36321D01*
X-70133Y36282D01*
X-70149Y36243D01*
X-70177Y36204D01*
X-70216Y36166D01*
X-70222Y36160D01*
X-70249Y36143D01*
X-70266Y36132D01*
X-70294Y36121D01*
X-70322Y36105D01*
X-70360Y36088D01*
X-70405Y36071D01*
X-70455Y36049D01*
X-70516Y36027D01*
X-70577Y36005D01*
X-70654Y35982D01*
X-70738Y35960D01*
X-70827Y35938D01*
X-70926Y35910D01*
X-70932D01*
X-70954Y35905D01*
X-70982Y35899D01*
X-71021Y35888D01*
X-71065Y35877D01*
X-71121Y35860D01*
X-71182Y35844D01*
X-71243Y35827D01*
X-71376Y35783D01*
X-71515Y35738D01*
X-71648Y35688D01*
X-71703Y35661D01*
X-71759Y35633D01*
X-71764D01*
X-71770Y35627D01*
X-71803Y35605D01*
X-71853Y35572D01*
X-71914Y35527D01*
X-71981Y35472D01*
X-72053Y35405D01*
X-72125Y35328D01*
X-72186Y35239D01*
X-72192Y35228D01*
X-72208Y35194D01*
X-72236Y35144D01*
X-72264Y35072D01*
X-72292Y34984D01*
X-72320Y34878D01*
X-72336Y34762D01*
X-72342Y34628D01*
Y34623D01*
Y34612D01*
Y34595D01*
Y34573D01*
X-72336Y34545D01*
X-72331Y34506D01*
X-72320Y34429D01*
X-72297Y34329D01*
X-72264Y34223D01*
X-72214Y34118D01*
X-72153Y34007D01*
Y34001D01*
X-72142Y33996D01*
X-72120Y33962D01*
X-72075Y33907D01*
X-72020Y33846D01*
X-71948Y33774D01*
X-71853Y33707D01*
X-71753Y33640D01*
X-71631Y33579D01*
X-71626D01*
X-71615Y33574D01*
X-71598Y33568D01*
X-71570Y33557D01*
X-71537Y33546D01*
X-71498Y33535D01*
X-71454Y33524D01*
X-71404Y33513D01*
X-71343Y33496D01*
X-71282Y33485D01*
X-71137Y33463D01*
X-70976Y33446D01*
X-70799Y33441D01*
X-70727D01*
X-70677Y33446D01*
X-70616Y33452D01*
X-70549Y33457D01*
X-70471Y33468D01*
X-70388Y33485D01*
X-70205Y33524D01*
X-70111Y33552D01*
X-70022Y33579D01*
X-69928Y33618D01*
X-69839Y33663D01*
X-69755Y33713D01*
X-69678Y33774D01*
X-69672Y33779D01*
X-69661Y33790D01*
X-69639Y33807D01*
X-69617Y33835D01*
X-69583Y33874D01*
X-69550Y33918D01*
X-69511Y33968D01*
X-69472Y34023D01*
X-69433Y34090D01*
X-69395Y34162D01*
X-69356Y34245D01*
X-69317Y34334D01*
X-69289Y34429D01*
X-69256Y34534D01*
X-69234Y34645D01*
X-69217Y34762D01*
X-69972Y34834D01*
Y34828D01*
X-69977Y34817D01*
Y34795D01*
X-69983Y34773D01*
X-70005Y34706D01*
X-70033Y34623D01*
X-70066Y34528D01*
X-70116Y34434D01*
X-70172Y34351D01*
X-70244Y34273D01*
X-70255Y34268D01*
X-70283Y34245D01*
X-70327Y34218D01*
X-70394Y34184D01*
X-70477Y34151D01*
X-70571Y34123D01*
X-70682Y34101D01*
X-70810Y34095D01*
X-70871D01*
X-70938Y34107D01*
X-71021Y34118D01*
X-71110Y34134D01*
X-71204Y34162D01*
X-71293Y34201D01*
X-71371Y34251D01*
X-71382Y34257D01*
X-71404Y34279D01*
X-71431Y34312D01*
X-71470Y34356D01*
X-71504Y34412D01*
X-71537Y34479D01*
X-71559Y34545D01*
X-71565Y34623D01*
Y34628D01*
Y34645D01*
X-71559Y34673D01*
X-71554Y34706D01*
X-71543Y34739D01*
X-71531Y34778D01*
X-71509Y34817D01*
X-71482Y34856D01*
X-71476Y34861D01*
X-71465Y34872D01*
X-71448Y34889D01*
X-71420Y34911D01*
X-71382Y34939D01*
X-71332Y34967D01*
X-71276Y34995D01*
X-71204Y35022D01*
X-71198D01*
X-71176Y35034D01*
X-71137Y35045D01*
X-71110Y35056D01*
X-71076Y35061D01*
X-71038Y35072D01*
X-70993Y35089D01*
X-70943Y35100D01*
X-70888Y35117D01*
X-70821Y35133D01*
X-70749Y35150D01*
X-70671Y35172D01*
X-70582Y35194D01*
X-70577D01*
X-70555Y35200D01*
X-70521Y35211D01*
X-70482Y35222D01*
X-70433Y35239D01*
X-70372Y35256D01*
X-70310Y35278D01*
X-70238Y35300D01*
X-70094Y35355D01*
X-69955Y35422D01*
X-69883Y35455D01*
X-69822Y35494D01*
X-69761Y35533D01*
X-69711Y35572D01*
X-69705Y35577D01*
X-69694Y35588D01*
X-69678Y35605D01*
X-69656Y35627D01*
X-69628Y35661D01*
X-69600Y35699D01*
X-69567Y35738D01*
X-69539Y35788D01*
X-69472Y35905D01*
X-69417Y36038D01*
X-69395Y36110D01*
X-69378Y36182D01*
X-69367Y36266D01*
X-69361Y36349D01*
Y36354D01*
Y36360D01*
Y36377D01*
Y36399D01*
X-69372Y36454D01*
X-69384Y36526D01*
X-69400Y36610D01*
X-69428Y36704D01*
X-69467Y36804D01*
X-69522Y36898D01*
Y36904D01*
X-69528Y36909D01*
X-69556Y36943D01*
X-69589Y36987D01*
X-69644Y37043D01*
X-69711Y37104D01*
X-69794Y37170D01*
X-69889Y37231D01*
X-70000Y37287D01*
X-70005D01*
X-70016Y37292D01*
X-70033Y37298D01*
X-70055Y37309D01*
X-70088Y37320D01*
X-70122Y37331D01*
X-70166Y37342D01*
X-70216Y37359D01*
X-70327Y37381D01*
X-70455Y37403D01*
X-70599Y37420D01*
X-70760Y37426D01*
D02*
G37*
G36*
X-109352Y104282D02*
X-112399D01*
Y103633D01*
X-111267D01*
Y100442D01*
X-110489D01*
Y103633D01*
X-109352D01*
Y104282D01*
D02*
G37*
G36*
X-114241Y104355D02*
X-114308D01*
X-114358Y104349D01*
X-114419Y104344D01*
X-114491Y104338D01*
X-114563Y104327D01*
X-114646Y104316D01*
X-114824Y104277D01*
X-114913Y104249D01*
X-115002Y104221D01*
X-115090Y104183D01*
X-115174Y104138D01*
X-115251Y104088D01*
X-115323Y104033D01*
X-115329Y104027D01*
X-115340Y104016D01*
X-115357Y103999D01*
X-115379Y103977D01*
X-115407Y103944D01*
X-115440Y103905D01*
X-115473Y103861D01*
X-115512Y103811D01*
X-115545Y103750D01*
X-115579Y103689D01*
X-115612Y103616D01*
X-115640Y103539D01*
X-115668Y103461D01*
X-115690Y103372D01*
X-115707Y103284D01*
X-115712Y103184D01*
X-114935Y103156D01*
Y103161D01*
Y103167D01*
X-114924Y103206D01*
X-114913Y103256D01*
X-114891Y103317D01*
X-114863Y103389D01*
X-114824Y103456D01*
X-114774Y103522D01*
X-114719Y103578D01*
X-114713Y103583D01*
X-114691Y103600D01*
X-114652Y103622D01*
X-114596Y103644D01*
X-114530Y103666D01*
X-114447Y103689D01*
X-114347Y103705D01*
X-114230Y103711D01*
X-114175D01*
X-114114Y103705D01*
X-114041Y103694D01*
X-113958Y103678D01*
X-113869Y103650D01*
X-113786Y103616D01*
X-113708Y103567D01*
X-113703Y103561D01*
X-113692Y103550D01*
X-113670Y103533D01*
X-113647Y103506D01*
X-113625Y103472D01*
X-113603Y103428D01*
X-113592Y103383D01*
X-113586Y103328D01*
Y103322D01*
Y103306D01*
X-113592Y103278D01*
X-113603Y103250D01*
X-113614Y103211D01*
X-113631Y103173D01*
X-113658Y103134D01*
X-113697Y103095D01*
X-113703Y103089D01*
X-113731Y103073D01*
X-113747Y103061D01*
X-113775Y103050D01*
X-113803Y103034D01*
X-113842Y103017D01*
X-113886Y103000D01*
X-113936Y102978D01*
X-113997Y102956D01*
X-114058Y102934D01*
X-114136Y102912D01*
X-114219Y102890D01*
X-114308Y102867D01*
X-114408Y102840D01*
X-114413D01*
X-114436Y102834D01*
X-114463Y102828D01*
X-114502Y102817D01*
X-114547Y102806D01*
X-114602Y102790D01*
X-114663Y102773D01*
X-114724Y102756D01*
X-114857Y102712D01*
X-114996Y102667D01*
X-115129Y102618D01*
X-115185Y102590D01*
X-115240Y102562D01*
X-115246D01*
X-115251Y102557D01*
X-115285Y102534D01*
X-115335Y102501D01*
X-115396Y102457D01*
X-115462Y102401D01*
X-115534Y102334D01*
X-115607Y102257D01*
X-115668Y102168D01*
X-115673Y102157D01*
X-115690Y102124D01*
X-115718Y102074D01*
X-115745Y102002D01*
X-115773Y101913D01*
X-115801Y101807D01*
X-115817Y101691D01*
X-115823Y101558D01*
Y101552D01*
Y101541D01*
Y101524D01*
Y101502D01*
X-115817Y101474D01*
X-115812Y101435D01*
X-115801Y101358D01*
X-115779Y101258D01*
X-115745Y101152D01*
X-115695Y101047D01*
X-115634Y100936D01*
Y100930D01*
X-115623Y100925D01*
X-115601Y100891D01*
X-115557Y100836D01*
X-115501Y100775D01*
X-115429Y100703D01*
X-115335Y100636D01*
X-115235Y100570D01*
X-115113Y100508D01*
X-115107D01*
X-115096Y100503D01*
X-115079Y100497D01*
X-115052Y100486D01*
X-115018Y100475D01*
X-114979Y100464D01*
X-114935Y100453D01*
X-114885Y100442D01*
X-114824Y100425D01*
X-114763Y100414D01*
X-114619Y100392D01*
X-114458Y100375D01*
X-114280Y100370D01*
X-114208D01*
X-114158Y100375D01*
X-114097Y100381D01*
X-114030Y100386D01*
X-113953Y100398D01*
X-113869Y100414D01*
X-113686Y100453D01*
X-113592Y100481D01*
X-113503Y100508D01*
X-113409Y100547D01*
X-113320Y100592D01*
X-113237Y100642D01*
X-113159Y100703D01*
X-113154Y100708D01*
X-113142Y100719D01*
X-113120Y100736D01*
X-113098Y100764D01*
X-113065Y100803D01*
X-113031Y100847D01*
X-112993Y100897D01*
X-112954Y100952D01*
X-112915Y101019D01*
X-112876Y101091D01*
X-112837Y101174D01*
X-112798Y101263D01*
X-112770Y101358D01*
X-112737Y101463D01*
X-112715Y101574D01*
X-112698Y101691D01*
X-113453Y101763D01*
Y101757D01*
X-113459Y101746D01*
Y101724D01*
X-113464Y101702D01*
X-113487Y101635D01*
X-113514Y101552D01*
X-113548Y101458D01*
X-113598Y101363D01*
X-113653Y101280D01*
X-113725Y101202D01*
X-113736Y101197D01*
X-113764Y101174D01*
X-113808Y101147D01*
X-113875Y101113D01*
X-113958Y101080D01*
X-114053Y101052D01*
X-114164Y101030D01*
X-114291Y101025D01*
X-114352D01*
X-114419Y101036D01*
X-114502Y101047D01*
X-114591Y101064D01*
X-114685Y101091D01*
X-114774Y101130D01*
X-114852Y101180D01*
X-114863Y101186D01*
X-114885Y101208D01*
X-114913Y101241D01*
X-114952Y101286D01*
X-114985Y101341D01*
X-115018Y101408D01*
X-115041Y101474D01*
X-115046Y101552D01*
Y101558D01*
Y101574D01*
X-115041Y101602D01*
X-115035Y101635D01*
X-115024Y101669D01*
X-115013Y101707D01*
X-114990Y101746D01*
X-114963Y101785D01*
X-114957Y101791D01*
X-114946Y101802D01*
X-114929Y101818D01*
X-114902Y101840D01*
X-114863Y101868D01*
X-114813Y101896D01*
X-114757Y101924D01*
X-114685Y101952D01*
X-114680D01*
X-114657Y101963D01*
X-114619Y101974D01*
X-114591Y101985D01*
X-114558Y101990D01*
X-114519Y102002D01*
X-114474Y102018D01*
X-114424Y102029D01*
X-114369Y102046D01*
X-114302Y102062D01*
X-114230Y102079D01*
X-114153Y102101D01*
X-114064Y102124D01*
X-114058D01*
X-114036Y102129D01*
X-114003Y102140D01*
X-113964Y102151D01*
X-113914Y102168D01*
X-113853Y102185D01*
X-113792Y102207D01*
X-113720Y102229D01*
X-113575Y102285D01*
X-113436Y102351D01*
X-113364Y102384D01*
X-113303Y102423D01*
X-113242Y102462D01*
X-113192Y102501D01*
X-113187Y102506D01*
X-113176Y102518D01*
X-113159Y102534D01*
X-113137Y102557D01*
X-113109Y102590D01*
X-113081Y102629D01*
X-113048Y102667D01*
X-113020Y102717D01*
X-112954Y102834D01*
X-112898Y102967D01*
X-112876Y103039D01*
X-112859Y103112D01*
X-112848Y103195D01*
X-112843Y103278D01*
Y103284D01*
Y103289D01*
Y103306D01*
Y103328D01*
X-112854Y103383D01*
X-112865Y103456D01*
X-112882Y103539D01*
X-112909Y103633D01*
X-112948Y103733D01*
X-113004Y103827D01*
Y103833D01*
X-113009Y103839D01*
X-113037Y103872D01*
X-113070Y103916D01*
X-113126Y103972D01*
X-113192Y104033D01*
X-113276Y104099D01*
X-113370Y104160D01*
X-113481Y104216D01*
X-113487D01*
X-113498Y104221D01*
X-113514Y104227D01*
X-113536Y104238D01*
X-113570Y104249D01*
X-113603Y104260D01*
X-113647Y104271D01*
X-113697Y104288D01*
X-113808Y104310D01*
X-113936Y104332D01*
X-114080Y104349D01*
X-114241Y104355D01*
D02*
G37*
G36*
X-96775Y104282D02*
X-97552D01*
Y100442D01*
X-96775D01*
Y104282D01*
D02*
G37*
G36*
X-105739D02*
X-106516D01*
Y102196D01*
Y102190D01*
Y102173D01*
Y102151D01*
Y102118D01*
Y102074D01*
Y102029D01*
X-106521Y101929D01*
Y101818D01*
X-106527Y101713D01*
X-106532Y101663D01*
Y101619D01*
X-106538Y101585D01*
X-106543Y101552D01*
Y101541D01*
X-106554Y101513D01*
X-106571Y101469D01*
X-106593Y101413D01*
X-106621Y101352D01*
X-106666Y101291D01*
X-106716Y101225D01*
X-106776Y101169D01*
X-106788Y101163D01*
X-106810Y101147D01*
X-106854Y101125D01*
X-106910Y101102D01*
X-106987Y101075D01*
X-107076Y101052D01*
X-107176Y101036D01*
X-107293Y101030D01*
X-107348D01*
X-107404Y101036D01*
X-107476Y101047D01*
X-107559Y101064D01*
X-107637Y101086D01*
X-107720Y101119D01*
X-107787Y101163D01*
X-107792Y101169D01*
X-107814Y101186D01*
X-107842Y101213D01*
X-107875Y101252D01*
X-107909Y101302D01*
X-107942Y101358D01*
X-107970Y101419D01*
X-107986Y101491D01*
Y101502D01*
X-107992Y101530D01*
X-107998Y101580D01*
X-108009Y101646D01*
Y101691D01*
X-108014Y101741D01*
Y101796D01*
X-108020Y101852D01*
Y101918D01*
X-108025Y101990D01*
Y102068D01*
Y102151D01*
Y104282D01*
X-108802D01*
Y102257D01*
Y102251D01*
Y102229D01*
Y102190D01*
Y102146D01*
Y102090D01*
X-108797Y102024D01*
Y101952D01*
Y101879D01*
X-108786Y101718D01*
X-108774Y101552D01*
X-108769Y101480D01*
X-108758Y101408D01*
X-108747Y101341D01*
X-108736Y101280D01*
Y101274D01*
X-108730Y101269D01*
Y101252D01*
X-108725Y101236D01*
X-108708Y101180D01*
X-108686Y101113D01*
X-108652Y101036D01*
X-108614Y100958D01*
X-108564Y100875D01*
X-108503Y100797D01*
X-108497Y100786D01*
X-108475Y100764D01*
X-108436Y100731D01*
X-108386Y100686D01*
X-108319Y100636D01*
X-108242Y100586D01*
X-108153Y100531D01*
X-108053Y100486D01*
X-108047D01*
X-108042Y100481D01*
X-108025Y100475D01*
X-108003Y100470D01*
X-107975Y100459D01*
X-107942Y100447D01*
X-107898Y100436D01*
X-107853Y100431D01*
X-107748Y100409D01*
X-107620Y100386D01*
X-107476Y100375D01*
X-107315Y100370D01*
X-107226D01*
X-107176Y100375D01*
X-107126D01*
X-107065Y100381D01*
X-107004Y100386D01*
X-106871Y100398D01*
X-106732Y100420D01*
X-106593Y100453D01*
X-106532Y100470D01*
X-106477Y100492D01*
X-106471D01*
X-106466Y100497D01*
X-106432Y100514D01*
X-106377Y100542D01*
X-106316Y100581D01*
X-106244Y100631D01*
X-106166Y100686D01*
X-106094Y100753D01*
X-106027Y100825D01*
X-106022Y100836D01*
X-106000Y100858D01*
X-105972Y100903D01*
X-105938Y100958D01*
X-105905Y101019D01*
X-105866Y101091D01*
X-105839Y101169D01*
X-105811Y101252D01*
Y101258D01*
X-105805Y101269D01*
Y101286D01*
X-105800Y101313D01*
X-105794Y101347D01*
X-105789Y101391D01*
X-105783Y101441D01*
X-105778Y101496D01*
X-105766Y101563D01*
X-105761Y101635D01*
X-105755Y101713D01*
X-105750Y101802D01*
X-105744Y101896D01*
Y102002D01*
X-105739Y102112D01*
Y102229D01*
Y104282D01*
D02*
G37*
G36*
X-98296D02*
X-99045D01*
X-100633Y101696D01*
Y104282D01*
X-101349D01*
Y100442D01*
X-100572D01*
X-99012Y102973D01*
Y100442D01*
X-98296D01*
Y104282D01*
D02*
G37*
G36*
X-102170D02*
X-103585D01*
X-103646Y104277D01*
X-103791D01*
X-103946Y104266D01*
X-104101Y104255D01*
X-104168Y104249D01*
X-104235Y104244D01*
X-104290Y104233D01*
X-104334Y104221D01*
X-104340D01*
X-104351Y104216D01*
X-104368Y104210D01*
X-104390Y104205D01*
X-104451Y104177D01*
X-104529Y104144D01*
X-104612Y104094D01*
X-104706Y104027D01*
X-104795Y103944D01*
X-104884Y103844D01*
Y103839D01*
X-104895Y103833D01*
X-104906Y103816D01*
X-104917Y103794D01*
X-104939Y103761D01*
X-104956Y103727D01*
X-104978Y103689D01*
X-105000Y103644D01*
X-105039Y103533D01*
X-105078Y103411D01*
X-105100Y103261D01*
X-105112Y103100D01*
Y103095D01*
Y103084D01*
Y103067D01*
Y103039D01*
X-105106Y103012D01*
Y102973D01*
X-105095Y102895D01*
X-105078Y102801D01*
X-105056Y102695D01*
X-105023Y102595D01*
X-104978Y102501D01*
X-104973Y102490D01*
X-104956Y102462D01*
X-104928Y102418D01*
X-104890Y102362D01*
X-104845Y102307D01*
X-104784Y102240D01*
X-104723Y102179D01*
X-104651Y102124D01*
X-104640Y102118D01*
X-104618Y102101D01*
X-104579Y102079D01*
X-104529Y102051D01*
X-104468Y102018D01*
X-104401Y101990D01*
X-104329Y101963D01*
X-104251Y101940D01*
X-104240D01*
X-104224Y101935D01*
X-104201D01*
X-104174Y101929D01*
X-104135Y101924D01*
X-104096Y101918D01*
X-104046D01*
X-103996Y101913D01*
X-103935Y101907D01*
X-103868Y101902D01*
X-103796Y101896D01*
X-103718D01*
X-103635Y101891D01*
X-102947D01*
Y100442D01*
X-102170D01*
Y104282D01*
D02*
G37*
%LPD*%
G36*
X-102947Y102540D02*
X-103480D01*
X-103519Y102545D01*
X-103619D01*
X-103718Y102551D01*
X-103818Y102562D01*
X-103907Y102579D01*
X-103946Y102584D01*
X-103979Y102595D01*
X-103985Y102601D01*
X-104007Y102606D01*
X-104035Y102623D01*
X-104068Y102640D01*
X-104107Y102667D01*
X-104146Y102701D01*
X-104190Y102740D01*
X-104224Y102784D01*
X-104229Y102790D01*
X-104240Y102806D01*
X-104251Y102834D01*
X-104268Y102873D01*
X-104285Y102917D01*
X-104301Y102967D01*
X-104307Y103023D01*
X-104312Y103084D01*
Y103095D01*
Y103117D01*
X-104307Y103156D01*
X-104296Y103206D01*
X-104279Y103261D01*
X-104257Y103322D01*
X-104229Y103378D01*
X-104185Y103433D01*
X-104179Y103439D01*
X-104163Y103456D01*
X-104135Y103478D01*
X-104101Y103506D01*
X-104057Y103539D01*
X-104001Y103567D01*
X-103940Y103589D01*
X-103874Y103605D01*
X-103868D01*
X-103846Y103611D01*
X-103807Y103616D01*
X-103752Y103622D01*
X-103680D01*
X-103630Y103628D01*
X-103580D01*
X-103524Y103633D01*
X-102947D01*
Y102540D01*
D02*
G37*
D27*
X-23622Y46850D02*
Y55512D01*
X-39370Y46850D02*
X-23622D01*
X-39370D02*
Y55512D01*
X-23622D01*
X-15748Y46850D02*
Y55512D01*
X0D01*
Y46850D02*
Y55512D01*
X-15748Y46850D02*
X0D01*
X77954Y136164D02*
X78216Y136689D01*
X78741Y137214D01*
X79266Y137476D01*
X80315D01*
X80840Y137214D01*
X81365Y136689D01*
X81627Y136164D01*
X81890Y135377D01*
Y134065D01*
X81627Y133278D01*
X81365Y132753D01*
X80840Y132228D01*
X80315Y131966D01*
X79266D01*
X78741Y132228D01*
X78216Y132753D01*
X77954Y133278D01*
Y134065D01*
X79266D02*
X77954D01*
X76694Y137476D02*
Y131966D01*
Y137476D02*
X73020Y131966D01*
Y137476D02*
Y131966D01*
X71498Y137476D02*
Y131966D01*
Y137476D02*
X69661D01*
X68874Y137214D01*
X68349Y136689D01*
X68087Y136164D01*
X67825Y135377D01*
Y134065D01*
X68087Y133278D01*
X68349Y132753D01*
X68874Y132228D01*
X69661Y131966D01*
X71498D01*
X81890Y128974D02*
Y123463D01*
X80735Y128974D02*
Y123463D01*
Y128974D02*
X77061Y123463D01*
Y128974D02*
Y123463D01*
X78741Y120471D02*
X81365D01*
X81627Y118110D01*
X81365Y118372D01*
X80578Y118634D01*
X79791D01*
X79003Y118372D01*
X78478Y117847D01*
X78216Y117060D01*
Y116535D01*
X78478Y115748D01*
X79003Y115223D01*
X79791Y114961D01*
X80578D01*
X81365Y115223D01*
X81627Y115485D01*
X81890Y116010D01*
X76983Y120471D02*
X74883Y114961D01*
X72784Y120471D02*
X74883Y114961D01*
X-73324Y136164D02*
X-73061Y136689D01*
X-72536Y137214D01*
X-72012Y137476D01*
X-70962D01*
X-70437Y137214D01*
X-69912Y136689D01*
X-69650Y136164D01*
X-69388Y135377D01*
Y134065D01*
X-69650Y133278D01*
X-69912Y132753D01*
X-70437Y132228D01*
X-70962Y131966D01*
X-72012D01*
X-72536Y132228D01*
X-73061Y132753D01*
X-73324Y133278D01*
Y134065D01*
X-72012D02*
X-73324D01*
X-74583Y137476D02*
Y131966D01*
Y137476D02*
X-78257Y131966D01*
Y137476D02*
Y131966D01*
X-79779Y137476D02*
Y131966D01*
Y137476D02*
X-81616D01*
X-82403Y137214D01*
X-82928Y136689D01*
X-83190Y136164D01*
X-83453Y135377D01*
Y134065D01*
X-83190Y133278D01*
X-82928Y132753D01*
X-82403Y132228D01*
X-81616Y131966D01*
X-79779D01*
X-78624Y128974D02*
Y123463D01*
X-79779Y128974D02*
Y123463D01*
Y128974D02*
X-83453Y123463D01*
Y128974D02*
Y123463D01*
X-77496Y120471D02*
X-74872D01*
X-74610Y118110D01*
X-74872Y118372D01*
X-75659Y118634D01*
X-76446D01*
X-77234Y118372D01*
X-77758Y117847D01*
X-78021Y117060D01*
Y116535D01*
X-77758Y115748D01*
X-77234Y115223D01*
X-76446Y114961D01*
X-75659D01*
X-74872Y115223D01*
X-74610Y115485D01*
X-74347Y116010D01*
X-79254Y120471D02*
X-81353Y114961D01*
X-83453Y120471D02*
X-81353Y114961D01*
X-85676Y145669D02*
Y143044D01*
X-88038Y142782D01*
X-87775Y143044D01*
X-87513Y143832D01*
Y144619D01*
X-87775Y145406D01*
X-88300Y145931D01*
X-89087Y146193D01*
X-89612D01*
X-90399Y145931D01*
X-90924Y145406D01*
X-91187Y144619D01*
Y143832D01*
X-90924Y143044D01*
X-90662Y142782D01*
X-90137Y142520D01*
X-94966Y145669D02*
X-94441Y145406D01*
X-94179Y144619D01*
Y144094D01*
X-94441Y143307D01*
X-95228Y142782D01*
X-96540Y142520D01*
X-97852D01*
X-98902Y142782D01*
X-99427Y143307D01*
X-99689Y144094D01*
Y144357D01*
X-99427Y145144D01*
X-98902Y145669D01*
X-98115Y145931D01*
X-97852D01*
X-97065Y145669D01*
X-96540Y145144D01*
X-96278Y144357D01*
Y144094D01*
X-96540Y143307D01*
X-97065Y142782D01*
X-97852Y142520D01*
X-102681Y146193D02*
X-108192Y143569D01*
X-102681Y142520D02*
Y146193D01*
X-111184Y143832D02*
X-111446Y143044D01*
X-111971Y142782D01*
X-112496D01*
X-113021Y143044D01*
X-113283Y143569D01*
X-113545Y144619D01*
X-113808Y145406D01*
X-114333Y145931D01*
X-114857Y146193D01*
X-115645D01*
X-116170Y145931D01*
X-116432Y145669D01*
X-116694Y144881D01*
Y143832D01*
X-116432Y143044D01*
X-116170Y142782D01*
X-115645Y142520D01*
X-114857D01*
X-114333Y142782D01*
X-113808Y143307D01*
X-113545Y144094D01*
X-113283Y145144D01*
X-113021Y145669D01*
X-112496Y145931D01*
X-111971D01*
X-111446Y145669D01*
X-111184Y144881D01*
Y143832D01*
X-125197Y146718D02*
X-119686Y144619D01*
X-125197Y142520D01*
X-123360Y143307D02*
Y145931D01*
X-120998Y148266D02*
X-120736D01*
X-120211Y148529D01*
X-119949Y148791D01*
X-119686Y149316D01*
Y150366D01*
X-119949Y150891D01*
X-120211Y151153D01*
X-120736Y151415D01*
X-121261D01*
X-121785Y151153D01*
X-122573Y150628D01*
X-125197Y148004D01*
Y151678D01*
X121412Y146718D02*
X126922Y144619D01*
X121412Y142520D01*
X123249Y143307D02*
Y145931D01*
X125873Y148004D02*
X126135Y148529D01*
X126922Y149316D01*
X121412D01*
X117370Y142520D02*
X117632Y143044D01*
X118420Y143832D01*
X112909D01*
X108605Y142782D02*
X108868D01*
X109392Y143044D01*
X109655Y143307D01*
X109917Y143832D01*
Y144881D01*
X109655Y145406D01*
X109392Y145669D01*
X108868Y145931D01*
X108343D01*
X107818Y145669D01*
X107031Y145144D01*
X104407Y142520D01*
Y146193D01*
X101415Y143044D02*
Y145931D01*
X99315Y144357D01*
Y145144D01*
X99053Y145669D01*
X98791Y145931D01*
X98003Y146193D01*
X97479D01*
X96691Y145931D01*
X96166Y145406D01*
X95904Y144619D01*
Y143832D01*
X96166Y143044D01*
X96429Y142782D01*
X96954Y142520D01*
X92912Y145144D02*
X89239Y142520D01*
Y146456D01*
X92912Y145144D02*
X87402D01*
X-7874Y59055D02*
Y63778D01*
X-10236D01*
X-11023Y62991D01*
Y61417D01*
X-10236Y60629D01*
X-7874D01*
X-9448D02*
X-11023Y59055D01*
X-12597Y62991D02*
X-13384Y63778D01*
X-14958D01*
X-15745Y62991D01*
Y62204D01*
X-14958Y61417D01*
X-14171D01*
X-14958D01*
X-15745Y60629D01*
Y59842D01*
X-14958Y59055D01*
X-13384D01*
X-12597Y59842D01*
X-23622Y59055D02*
Y63778D01*
X-25984D01*
X-26771Y62991D01*
Y61417D01*
X-25984Y60629D01*
X-23622D01*
X-25196D02*
X-26771Y59055D01*
X-31493D02*
X-28345D01*
X-31493Y62204D01*
Y62991D01*
X-30706Y63778D01*
X-29132D01*
X-28345Y62991D01*
X48425Y111810D02*
Y105512D01*
Y111810D02*
X45726D01*
X44826Y111510D01*
X44526Y111210D01*
X44227Y110610D01*
Y110010D01*
X44526Y109411D01*
X44826Y109111D01*
X45726Y108811D01*
X48425D01*
X46326D02*
X44227Y105512D01*
X42817Y107911D02*
X39218D01*
Y108511D01*
X39518Y109111D01*
X39818Y109411D01*
X40418Y109710D01*
X41318D01*
X41917Y109411D01*
X42517Y108811D01*
X42817Y107911D01*
Y107311D01*
X42517Y106412D01*
X41917Y105812D01*
X41318Y105512D01*
X40418D01*
X39818Y105812D01*
X39218Y106412D01*
X37869Y109710D02*
X36069Y105512D01*
X34270Y109710D02*
X36069Y105512D01*
X28302Y111810D02*
Y107311D01*
X28002Y106412D01*
X27402Y105812D01*
X26503Y105512D01*
X25903D01*
X25003Y105812D01*
X24403Y106412D01*
X24103Y107311D01*
Y111810D01*
X22364D02*
X19965Y105512D01*
X17566Y111810D02*
X19965Y105512D01*
X16756Y110610D02*
X16156Y110910D01*
X15257Y111810D01*
Y105512D01*
X7939Y111810D02*
X10938Y105512D01*
X12138Y111810D02*
X7939D01*
X6529Y108211D02*
X1131D01*
X-728Y111810D02*
Y105512D01*
Y111810D02*
X-3427D01*
X-4327Y111510D01*
X-4627Y111210D01*
X-4927Y110610D01*
Y110010D01*
X-4627Y109411D01*
X-4327Y109111D01*
X-3427Y108811D01*
X-728D02*
X-3427D01*
X-4327Y108511D01*
X-4627Y108211D01*
X-4927Y107611D01*
Y106711D01*
X-4627Y106112D01*
X-4327Y105812D01*
X-3427Y105512D01*
X-728D01*
X48125Y100468D02*
Y100768D01*
X47825Y101367D01*
X47526Y101667D01*
X46926Y101967D01*
X45726D01*
X45126Y101667D01*
X44826Y101367D01*
X44526Y100768D01*
Y100168D01*
X44826Y99568D01*
X45426Y98668D01*
X48425Y95669D01*
X44227D01*
X41018Y101967D02*
X41917Y101667D01*
X42517Y100768D01*
X42817Y99268D01*
Y98368D01*
X42517Y96869D01*
X41917Y95969D01*
X41018Y95669D01*
X40418D01*
X39518Y95969D01*
X38918Y96869D01*
X38618Y98368D01*
Y99268D01*
X38918Y100768D01*
X39518Y101667D01*
X40418Y101967D01*
X41018D01*
X37209Y100768D02*
X36609Y101067D01*
X35710Y101967D01*
Y95669D01*
X28392Y101967D02*
X31391Y95669D01*
X32591Y101967D02*
X28392D01*
X26983Y98368D02*
X21584D01*
X17926Y101967D02*
X18825Y101667D01*
X19425Y100768D01*
X19725Y99268D01*
Y98368D01*
X19425Y96869D01*
X18825Y95969D01*
X17926Y95669D01*
X17326D01*
X16426Y95969D01*
X15826Y96869D01*
X15526Y98368D01*
Y99268D01*
X15826Y100768D01*
X16426Y101667D01*
X17326Y101967D01*
X17926D01*
X11118D02*
X14117Y97769D01*
X9618D01*
X11118Y101967D02*
Y95669D01*
X8509Y98368D02*
X3111D01*
X1251Y100768D02*
X651Y101067D01*
X-248Y101967D01*
Y95669D01*
X-3667Y100468D02*
Y100768D01*
X-3967Y101367D01*
X-4267Y101667D01*
X-4867Y101967D01*
X-6066D01*
X-6666Y101667D01*
X-6966Y101367D01*
X-7266Y100768D01*
Y100168D01*
X-6966Y99568D01*
X-6366Y98668D01*
X-3367Y95669D01*
X-7566D01*
X48425Y143306D02*
Y138807D01*
X48125Y137908D01*
X47526Y137308D01*
X46626Y137008D01*
X46026D01*
X45126Y137308D01*
X44526Y137908D01*
X44227Y138807D01*
Y143306D01*
X42487D02*
X40088Y137008D01*
X37689Y143306D02*
X40088Y137008D01*
X36279Y143306D02*
X35979Y143006D01*
X35680Y143306D01*
X35979Y143606D01*
X36279Y143306D01*
X35979Y141206D02*
Y137008D01*
X30971Y140307D02*
X31571Y140907D01*
X32171Y141206D01*
X33070D01*
X33670Y140907D01*
X34270Y140307D01*
X34570Y139407D01*
Y138807D01*
X34270Y137908D01*
X33670Y137308D01*
X33070Y137008D01*
X32171D01*
X31571Y137308D01*
X30971Y137908D01*
X24673Y143306D02*
Y137008D01*
Y143306D02*
X20775D01*
X24673Y140307D02*
X22274D01*
X18555Y141206D02*
X19155Y140907D01*
X19755Y140307D01*
X20055Y139407D01*
Y138807D01*
X19755Y137908D01*
X19155Y137308D01*
X18555Y137008D01*
X17656D01*
X17056Y137308D01*
X16456Y137908D01*
X16156Y138807D01*
Y139407D01*
X16456Y140307D01*
X17056Y140907D01*
X17656Y141206D01*
X18555D01*
X14777D02*
Y137008D01*
Y139407D02*
X14477Y140307D01*
X13877Y140907D01*
X13277Y141206D01*
X12377D01*
X11808D02*
Y137008D01*
Y140007D02*
X10908Y140907D01*
X10308Y141206D01*
X9409D01*
X8809Y140907D01*
X8509Y140007D01*
Y137008D01*
Y140007D02*
X7609Y140907D01*
X7009Y141206D01*
X6110D01*
X5510Y140907D01*
X5210Y140007D01*
Y137008D01*
X3230Y141206D02*
Y138207D01*
X2931Y137308D01*
X2331Y137008D01*
X1431D01*
X831Y137308D01*
X-68Y138207D01*
Y141206D02*
Y137008D01*
X-1718Y143306D02*
Y137008D01*
X-6636Y141206D02*
Y137008D01*
Y140307D02*
X-6036Y140907D01*
X-5437Y141206D01*
X-4537D01*
X-3937Y140907D01*
X-3337Y140307D01*
X-3037Y139407D01*
Y138807D01*
X-3337Y137908D01*
X-3937Y137308D01*
X-4537Y137008D01*
X-5437D01*
X-6036Y137308D01*
X-6636Y137908D01*
X-13264Y143306D02*
Y137008D01*
Y143306D02*
X-15663Y137008D01*
X-18062Y143306D02*
X-15663Y137008D01*
X-18062Y143306D02*
Y137008D01*
X-21361Y141206D02*
X-20761Y140907D01*
X-20162Y140307D01*
X-19862Y139407D01*
Y138807D01*
X-20162Y137908D01*
X-20761Y137308D01*
X-21361Y137008D01*
X-22261D01*
X-22861Y137308D01*
X-23460Y137908D01*
X-23760Y138807D01*
Y139407D01*
X-23460Y140307D01*
X-22861Y140907D01*
X-22261Y141206D01*
X-21361D01*
X-26039Y143306D02*
Y138207D01*
X-26339Y137308D01*
X-26939Y137008D01*
X-27539D01*
X-25140Y141206D02*
X-27239D01*
X-29938D02*
X-29338Y140907D01*
X-28739Y140307D01*
X-28439Y139407D01*
Y138807D01*
X-28739Y137908D01*
X-29338Y137308D01*
X-29938Y137008D01*
X-30838D01*
X-31438Y137308D01*
X-32037Y137908D01*
X-32337Y138807D01*
Y139407D01*
X-32037Y140307D01*
X-31438Y140907D01*
X-30838Y141206D01*
X-29938D01*
X-33717D02*
Y137008D01*
Y139407D02*
X-34017Y140307D01*
X-34617Y140907D01*
X-35216Y141206D01*
X-36116D01*
X-39985Y140307D02*
X-39685Y140907D01*
X-38785Y141206D01*
X-37885D01*
X-36986Y140907D01*
X-36686Y140307D01*
X-36986Y139707D01*
X-37586Y139407D01*
X-39085Y139107D01*
X-39685Y138807D01*
X-39985Y138207D01*
Y137908D01*
X-39685Y137308D01*
X-38785Y137008D01*
X-37885D01*
X-36986Y137308D01*
X-36686Y137908D01*
X-41304Y141206D02*
Y134909D01*
Y140307D02*
X-41904Y140907D01*
X-42504Y141206D01*
X-43404D01*
X-44003Y140907D01*
X-44603Y140307D01*
X-44903Y139407D01*
Y138807D01*
X-44603Y137908D01*
X-44003Y137308D01*
X-43404Y137008D01*
X-42504D01*
X-41904Y137308D01*
X-41304Y137908D01*
X-47752Y141206D02*
X-47152Y140907D01*
X-46553Y140307D01*
X-46253Y139407D01*
Y138807D01*
X-46553Y137908D01*
X-47152Y137308D01*
X-47752Y137008D01*
X-48652D01*
X-49252Y137308D01*
X-49851Y137908D01*
X-50151Y138807D01*
Y139407D01*
X-49851Y140307D01*
X-49252Y140907D01*
X-48652Y141206D01*
X-47752D01*
X-51531D02*
Y137008D01*
Y139407D02*
X-51831Y140307D01*
X-52431Y140907D01*
X-53030Y141206D01*
X-53930D01*
X-55400Y143306D02*
Y138207D01*
X-55699Y137308D01*
X-56299Y137008D01*
X-56899D01*
X-54500Y141206D02*
X-56599D01*
D29*
X37179Y129319D02*
X37929Y130818D01*
X39428Y132318D01*
X40928Y133068D01*
X43927D01*
X45426Y132318D01*
X46926Y130818D01*
X47675Y129319D01*
X48425Y127069D01*
Y123321D01*
X47675Y121072D01*
X46926Y119572D01*
X45426Y118073D01*
X43927Y117323D01*
X40928D01*
X39428Y118073D01*
X37929Y119572D01*
X37179Y121072D01*
X20760Y117323D02*
X26757Y133068D01*
X32756Y117323D01*
X30506Y122571D02*
X23009D01*
X17086Y133068D02*
Y117323D01*
Y133068D02*
X6589Y117323D01*
Y133068D02*
Y117323D01*
X2241Y127819D02*
X-758Y117323D01*
X-3757Y127819D02*
X-758Y117323D01*
X-3757Y127819D02*
X-6756Y117323D01*
X-9755Y127819D02*
X-6756Y117323D01*
X-13429Y133068D02*
Y117323D01*
Y124820D02*
X-15678Y127069D01*
X-17177Y127819D01*
X-19427D01*
X-20926Y127069D01*
X-21676Y124820D01*
Y117323D01*
X-25800Y123321D02*
X-34797D01*
Y124820D01*
X-34047Y126320D01*
X-33297Y127069D01*
X-31798Y127819D01*
X-29548D01*
X-28049Y127069D01*
X-26549Y125570D01*
X-25800Y123321D01*
Y121821D01*
X-26549Y119572D01*
X-28049Y118073D01*
X-29548Y117323D01*
X-31798D01*
X-33297Y118073D01*
X-34797Y119572D01*
X-38170Y123321D02*
X-47167D01*
Y124820D01*
X-46418Y126320D01*
X-45668Y127069D01*
X-44168Y127819D01*
X-41919D01*
X-40420Y127069D01*
X-38920Y125570D01*
X-38170Y123321D01*
Y121821D01*
X-38920Y119572D01*
X-40420Y118073D01*
X-41919Y117323D01*
X-44168D01*
X-45668Y118073D01*
X-47167Y119572D01*
X-50541Y133068D02*
Y117323D01*
D32*
X-50000Y89764D02*
X48425D01*
D63*
X122441Y112992D02*
G03*
X122441Y112992I-394J0D01*
G01*
X-121653D02*
G03*
X-121653Y112992I-394J0D01*
G01*
X114567Y120866D02*
G03*
X114567Y120866I-394J0D01*
G01*
X106693D02*
G03*
X106693Y120866I-394J0D01*
G01*
X98819D02*
G03*
X98819Y120866I-394J0D01*
G01*
X90945D02*
G03*
X90945Y120866I-394J0D01*
G01*
X-90158D02*
G03*
X-90158Y120866I-394J0D01*
G01*
X-98032D02*
G03*
X-98032Y120866I-394J0D01*
G01*
X-105905D02*
G03*
X-105905Y120866I-394J0D01*
G01*
X-113779D02*
G03*
X-113779Y120866I-394J0D01*
G01*
X46850Y42520D02*
G03*
X46850Y42520I-394J0D01*
G01*
X44094Y15748D02*
Y29921D01*
X-44094D02*
X44094D01*
X-44094Y15748D02*
Y29921D01*
X-89370Y15748D02*
Y29921D01*
X-60236D01*
Y15748D02*
Y29921D01*
X60236Y15748D02*
Y29921D01*
X89370D01*
Y15748D02*
Y29921D01*
X-108299Y53905D02*
Y59903D01*
X-110298D02*
Y53905D01*
X-107299Y57903D02*
X-110298D01*
X-111298D01*
X-107299Y55904D02*
X-111298D01*
X-117296Y59903D02*
X-115297Y58903D01*
X-113297Y56904D01*
Y54904D01*
X-114297Y53905D01*
X-116296D01*
X-117296Y54904D01*
Y55904D01*
X-116296Y56904D01*
X-113297D01*
X-119295D02*
X-123294D01*
X-125293Y58903D02*
X-126293Y59903D01*
X-128292D01*
X-129292Y58903D01*
Y57903D01*
X-128292Y56904D01*
X-127293D01*
X-128292D01*
X-129292Y55904D01*
Y54904D01*
X-128292Y53905D01*
X-126293D01*
X-125293Y54904D01*
X-135290Y53905D02*
X-131291D01*
X-135290Y57903D01*
Y58903D01*
X-134291Y59903D01*
X-132291D01*
X-131291Y58903D01*
X-125293Y48306D02*
X-129292Y44307D01*
X-127293Y46306D01*
X-129292Y48306D01*
X-125293Y44307D01*
X-134291D02*
Y50305D01*
X-131291Y47306D01*
X-135290D01*
D64*
X268Y71457D02*
X-3669Y72956D01*
X268Y74456D02*
X-3669Y72956D01*
X268Y74962D02*
X-3669D01*
X268D02*
Y76649D01*
X80Y77211D01*
X-107Y77398D01*
X-482Y77586D01*
X-857D01*
X-1232Y77398D01*
X-1419Y77211D01*
X-1607Y76649D01*
Y74962D02*
Y76649D01*
X-1794Y77211D01*
X-1982Y77398D01*
X-2357Y77586D01*
X-2919D01*
X-3294Y77398D01*
X-3481Y77211D01*
X-3669Y76649D01*
Y74962D01*
Y81466D02*
X268Y79966D01*
X-3669Y78467D01*
X-2357Y79029D02*
Y80904D01*
X268Y83696D02*
X-3669D01*
X268Y82384D02*
Y85008D01*
X-6436Y74081D02*
X-6061Y73706D01*
X-5873Y73144D01*
Y72394D01*
X-6061Y71832D01*
X-6436Y71457D01*
X-6810D01*
X-7185Y71644D01*
X-7373Y71832D01*
X-7560Y72206D01*
X-7935Y73331D01*
X-8122Y73706D01*
X-8310Y73893D01*
X-8685Y74081D01*
X-9247D01*
X-9622Y73706D01*
X-9809Y73144D01*
Y72394D01*
X-9622Y71832D01*
X-9247Y71457D01*
X-5873Y74962D02*
X-9809Y75899D01*
X-5873Y76836D02*
X-9809Y75899D01*
X-5873Y76836D02*
X-9809Y77773D01*
X-5873Y78711D02*
X-9809Y77773D01*
X-6623Y79498D02*
X-6436Y79873D01*
X-5873Y80435D01*
X-9809D01*
X-12576Y74081D02*
X-12201Y73706D01*
X-12014Y73144D01*
Y72394D01*
X-12201Y71832D01*
X-12576Y71457D01*
X-12951D01*
X-13326Y71644D01*
X-13513Y71832D01*
X-13701Y72206D01*
X-14076Y73331D01*
X-14263Y73706D01*
X-14451Y73893D01*
X-14825Y74081D01*
X-15388D01*
X-15763Y73706D01*
X-15950Y73144D01*
Y72394D01*
X-15763Y71832D01*
X-15388Y71457D01*
X-12014Y74962D02*
X-15950Y75899D01*
X-12014Y76836D02*
X-15950Y75899D01*
X-12014Y76836D02*
X-15950Y77773D01*
X-12014Y78711D02*
X-15950Y77773D01*
X-12951Y79685D02*
X-12764D01*
X-12389Y79873D01*
X-12201Y80060D01*
X-12014Y80435D01*
Y81185D01*
X-12201Y81559D01*
X-12389Y81747D01*
X-12764Y81934D01*
X-13138D01*
X-13513Y81747D01*
X-14076Y81372D01*
X-15950Y79498D01*
Y82122D01*
X-18155Y71457D02*
X-22091D01*
X-18155Y73406D02*
X-18342Y73031D01*
X-18717Y72656D01*
X-19092Y72469D01*
X-19654Y72281D01*
X-20591D01*
X-21154Y72469D01*
X-21528Y72656D01*
X-21903Y73031D01*
X-22091Y73406D01*
Y74156D01*
X-21903Y74531D01*
X-21528Y74906D01*
X-21154Y75093D01*
X-20591Y75280D01*
X-19654D01*
X-19092Y75093D01*
X-18717Y74906D01*
X-18342Y74531D01*
X-18155Y74156D01*
Y73406D01*
X-18904Y76199D02*
X-18717Y76574D01*
X-18155Y77136D01*
X-22091D01*
X-24295Y71457D02*
X-28231D01*
X-24295Y73406D02*
X-24483Y73031D01*
X-24858Y72656D01*
X-25232Y72469D01*
X-25795Y72281D01*
X-26732D01*
X-27294Y72469D01*
X-27669Y72656D01*
X-28044Y73031D01*
X-28231Y73406D01*
Y74156D01*
X-28044Y74531D01*
X-27669Y74906D01*
X-27294Y75093D01*
X-26732Y75280D01*
X-25795D01*
X-25232Y75093D01*
X-24858Y74906D01*
X-24483Y74531D01*
X-24295Y74156D01*
Y73406D01*
X-25232Y76386D02*
X-25045D01*
X-24670Y76574D01*
X-24483Y76761D01*
X-24295Y77136D01*
Y77886D01*
X-24483Y78261D01*
X-24670Y78448D01*
X-25045Y78636D01*
X-25420D01*
X-25795Y78448D01*
X-26357Y78073D01*
X-28231Y76199D01*
Y78823D01*
X-31373Y74268D02*
X-30998Y74081D01*
X-30623Y73706D01*
X-30436Y73331D01*
Y72581D01*
X-30623Y72206D01*
X-30998Y71832D01*
X-31373Y71644D01*
X-31936Y71457D01*
X-32873D01*
X-33435Y71644D01*
X-33810Y71832D01*
X-34185Y72206D01*
X-34372Y72581D01*
Y73331D01*
X-34185Y73706D01*
X-33810Y74081D01*
X-33435Y74268D01*
X-34372Y78373D02*
X-30436Y76874D01*
X-34372Y75374D01*
X-33060Y75936D02*
Y77811D01*
X-30436Y79291D02*
X-34372D01*
X-30436D02*
X-34372Y81916D01*
X-30436D02*
X-34372D01*
X-32685Y83003D02*
Y86377D01*
X-37514Y74268D02*
X-37139Y74081D01*
X-36764Y73706D01*
X-36577Y73331D01*
Y72581D01*
X-36764Y72206D01*
X-37139Y71832D01*
X-37514Y71644D01*
X-38076Y71457D01*
X-39013D01*
X-39576Y71644D01*
X-39950Y71832D01*
X-40325Y72206D01*
X-40513Y72581D01*
Y73331D01*
X-40325Y73706D01*
X-39950Y74081D01*
X-39576Y74268D01*
X-40513Y78373D02*
X-36577Y76874D01*
X-40513Y75374D01*
X-39201Y75936D02*
Y77811D01*
X-36577Y79291D02*
X-40513D01*
X-36577D02*
X-40513Y81916D01*
X-36577D02*
X-40513D01*
X-37139Y84690D02*
X-40513D01*
X-38826Y83003D02*
Y86377D01*
X-43655Y74268D02*
X-43280Y74081D01*
X-42905Y73706D01*
X-42717Y73331D01*
Y72581D01*
X-42905Y72206D01*
X-43280Y71832D01*
X-43655Y71644D01*
X-44217Y71457D01*
X-45154D01*
X-45716Y71644D01*
X-46091Y71832D01*
X-46466Y72206D01*
X-46654Y72581D01*
Y73331D01*
X-46466Y73706D01*
X-46091Y74081D01*
X-45716Y74268D01*
X-45154D01*
Y73331D02*
Y74268D01*
X-42717Y75168D02*
X-46654D01*
X-42717D02*
X-46654Y77792D01*
X-42717D02*
X-46654D01*
X-42717Y78879D02*
X-46654D01*
X-42717D02*
Y80191D01*
X-42905Y80753D01*
X-43280Y81128D01*
X-43655Y81316D01*
X-44217Y81503D01*
X-45154D01*
X-45716Y81316D01*
X-46091Y81128D01*
X-46466Y80753D01*
X-46654Y80191D01*
Y78879D01*
X79003Y50459D02*
X79378Y50084D01*
X79565Y49522D01*
Y48772D01*
X79378Y48210D01*
X79003Y47835D01*
X78628D01*
X78253Y48022D01*
X78066Y48210D01*
X77878Y48584D01*
X77503Y49709D01*
X77316Y50084D01*
X77128Y50271D01*
X76753Y50459D01*
X76191D01*
X75816Y50084D01*
X75629Y49522D01*
Y48772D01*
X75816Y48210D01*
X76191Y47835D01*
X79565Y51340D02*
X75629Y52277D01*
X79565Y53214D02*
X75629Y52277D01*
X79565Y53214D02*
X75629Y54151D01*
X79565Y55088D02*
X75629Y54151D01*
X78815Y55876D02*
X79003Y56251D01*
X79565Y56813D01*
X75629D01*
X72487Y50646D02*
X72862Y50459D01*
X73237Y50084D01*
X73424Y49709D01*
Y48959D01*
X73237Y48584D01*
X72862Y48210D01*
X72487Y48022D01*
X71925Y47835D01*
X70988D01*
X70425Y48022D01*
X70051Y48210D01*
X69676Y48584D01*
X69488Y48959D01*
Y49709D01*
X69676Y50084D01*
X70051Y50459D01*
X70425Y50646D01*
X70988D01*
Y49709D02*
Y50646D01*
X73424Y51546D02*
X69488D01*
X73424D02*
X69488Y54170D01*
X73424D02*
X69488D01*
X73424Y55257D02*
X69488D01*
X73424D02*
Y56569D01*
X73237Y57131D01*
X72862Y57506D01*
X72487Y57694D01*
X71925Y57881D01*
X70988D01*
X70425Y57694D01*
X70051Y57506D01*
X69676Y57131D01*
X69488Y56569D01*
Y55257D01*
X-70604Y50459D02*
X-70229Y50084D01*
X-70041Y49522D01*
Y48772D01*
X-70229Y48210D01*
X-70604Y47835D01*
X-70978D01*
X-71353Y48022D01*
X-71541Y48210D01*
X-71728Y48584D01*
X-72103Y49709D01*
X-72290Y50084D01*
X-72478Y50271D01*
X-72853Y50459D01*
X-73415D01*
X-73790Y50084D01*
X-73977Y49522D01*
Y48772D01*
X-73790Y48210D01*
X-73415Y47835D01*
X-70041Y51340D02*
X-73977Y52277D01*
X-70041Y53214D02*
X-73977Y52277D01*
X-70041Y53214D02*
X-73977Y54151D01*
X-70041Y55088D02*
X-73977Y54151D01*
X-70978Y56063D02*
X-70791D01*
X-70416Y56251D01*
X-70229Y56438D01*
X-70041Y56813D01*
Y57563D01*
X-70229Y57938D01*
X-70416Y58125D01*
X-70791Y58312D01*
X-71166D01*
X-71541Y58125D01*
X-72103Y57750D01*
X-73977Y55876D01*
Y58500D01*
X-77119Y50646D02*
X-76744Y50459D01*
X-76369Y50084D01*
X-76182Y49709D01*
Y48959D01*
X-76369Y48584D01*
X-76744Y48210D01*
X-77119Y48022D01*
X-77681Y47835D01*
X-78619D01*
X-79181Y48022D01*
X-79556Y48210D01*
X-79931Y48584D01*
X-80118Y48959D01*
Y49709D01*
X-79931Y50084D01*
X-79556Y50459D01*
X-79181Y50646D01*
X-78619D01*
Y49709D02*
Y50646D01*
X-76182Y51546D02*
X-80118D01*
X-76182D02*
X-80118Y54170D01*
X-76182D02*
X-80118D01*
X-76182Y55257D02*
X-80118D01*
X-76182D02*
Y56569D01*
X-76369Y57131D01*
X-76744Y57506D01*
X-77119Y57694D01*
X-77681Y57881D01*
X-78619D01*
X-79181Y57694D01*
X-79556Y57506D01*
X-79931Y57131D01*
X-80118Y56569D01*
Y55257D01*
M02*
