G04 Layer_Physical_Order=1*
G04 Layer_Color=255*
%FSLAX25Y25*%
%MOIN*%
G70*
G01*
G75*
%ADD10O,0.02165X0.05905*%
%ADD11O,0.05905X0.02165*%
%ADD12O,0.05512X0.01772*%
%ADD13R,0.09449X0.24291*%
%ADD14R,0.03150X0.05118*%
%ADD15R,0.02047X0.02047*%
%ADD16R,0.02047X0.02047*%
%ADD17R,0.03347X0.06693*%
%ADD18R,0.05118X0.03150*%
%ADD19R,0.02362X0.03150*%
%ADD20R,0.03937X0.07480*%
%ADD21R,0.09449X0.06890*%
%ADD22R,0.06890X0.09449*%
%ADD23R,0.03150X0.01772*%
%ADD24O,0.06496X0.02559*%
%ADD25R,0.06299X0.11811*%
%ADD26R,0.26378X0.26378*%
%ADD27C,0.00787*%
%ADD28C,0.05905*%
%ADD29C,0.01968*%
%ADD30C,0.02953*%
%ADD31C,0.00606*%
%ADD32C,0.01181*%
%ADD33C,0.05512*%
%ADD34C,0.23622*%
%ADD35C,0.06299*%
%ADD36C,0.03937*%
%ADD37C,0.02362*%
G36*
X21913Y190257D02*
X44055Y189499D01*
X66175Y188233D01*
X88259Y186459D01*
X110298Y184180D01*
X132277Y181396D01*
X154188Y178108D01*
X157517Y177340D01*
X160715Y176138D01*
X163727Y174524D01*
X166499Y172526D01*
X168982Y170179D01*
X171133Y167525D01*
X172914Y164609D01*
X174294Y161483D01*
X175248Y158202D01*
X175761Y154824D01*
Y128401D01*
X175504Y124830D01*
X174741Y121334D01*
X173486Y117982D01*
X171765Y114843D01*
X169614Y111983D01*
X167076Y109458D01*
X164204Y107323D01*
X161041Y105015D01*
X158192Y102329D01*
X155701Y99308D01*
X153607Y95999D01*
X151943Y92455D01*
X150736Y88730D01*
X150004Y84883D01*
X149759Y80976D01*
Y24817D01*
X149545Y21554D01*
X148907Y18347D01*
X147855Y15250D01*
X146409Y12317D01*
X144592Y9598D01*
X142436Y7139D01*
X139978Y4983D01*
X137259Y3167D01*
X134326Y1720D01*
X131229Y669D01*
X128022Y31D01*
X124759Y-183D01*
X-125241D01*
X-128505Y31D01*
X-131712Y669D01*
X-134809Y1720D01*
X-137741Y3167D01*
X-140461Y4983D01*
X-142919Y7139D01*
X-145075Y9598D01*
X-146892Y12317D01*
X-148338Y15250D01*
X-149390Y18347D01*
X-150028Y21554D01*
X-150241Y24817D01*
Y80976D01*
X-150487Y84883D01*
X-151219Y88730D01*
X-152426Y92455D01*
X-154090Y95999D01*
X-156184Y99308D01*
X-158675Y102329D01*
X-161524Y105015D01*
X-164687Y107323D01*
X-167559Y109458D01*
X-170097Y111983D01*
X-172248Y114843D01*
X-173969Y117982D01*
X-175224Y121334D01*
X-175987Y124830D01*
X-176243Y128401D01*
Y154824D01*
X-175731Y158202D01*
X-174777Y161483D01*
X-173397Y164609D01*
X-171616Y167525D01*
X-169465Y170179D01*
X-166981Y172526D01*
X-164210Y174524D01*
X-161198Y176138D01*
X-158000Y177340D01*
X-154671Y178108D01*
X-132760Y181396D01*
X-110780Y184180D01*
X-88742Y186459D01*
X-66658Y188233D01*
X-44538Y189499D01*
X-22396Y190257D01*
X-241Y190507D01*
X21913Y190257D01*
D02*
G37*
%LPC*%
G36*
X-1189Y70273D02*
X-2657D01*
X-3387Y70128D01*
X-4006Y69714D01*
X-4419Y69096D01*
X-4465Y68866D01*
X-1189D01*
Y70273D01*
D02*
G37*
G36*
X1280D02*
X-189D01*
Y68866D01*
X3087D01*
X3041Y69096D01*
X2628Y69714D01*
X2009Y70128D01*
X1280Y70273D01*
D02*
G37*
G36*
X9537Y69539D02*
X8374D01*
Y68376D01*
X8898D01*
X9350Y68564D01*
X9537Y69016D01*
Y69539D01*
D02*
G37*
G36*
X3087Y67866D02*
X-189D01*
Y66459D01*
X1280D01*
X2009Y66605D01*
X2628Y67018D01*
X3041Y67637D01*
X3087Y67866D01*
D02*
G37*
G36*
X7374Y69539D02*
X6211D01*
Y69016D01*
X6398Y68564D01*
X6850Y68376D01*
X7374D01*
Y69539D01*
D02*
G37*
G36*
X-51181Y85572D02*
X-55492D01*
X-56420Y85449D01*
X-57284Y85092D01*
X-58026Y84522D01*
X-59615Y82933D01*
X-64252D01*
X-64711Y82743D01*
X-64901Y82284D01*
Y79961D01*
X-70866D01*
X-71794Y79839D01*
X-72658Y79481D01*
X-73400Y78912D01*
X-73970Y78170D01*
X-74327Y77305D01*
X-74449Y76378D01*
X-74327Y75450D01*
X-73970Y74586D01*
X-73400Y73844D01*
X-72658Y73275D01*
X-71794Y72917D01*
X-70866Y72795D01*
X-70866Y72795D01*
X-64901D01*
Y70473D01*
X-64711Y70013D01*
X-64252Y69823D01*
X-57953D01*
X-57494Y70013D01*
X-57303Y70473D01*
Y75109D01*
X-54008Y78405D01*
X-51181D01*
X-50254Y78527D01*
X-49389Y78885D01*
X-48647Y79454D01*
X-48311Y79893D01*
X-48163Y79954D01*
X-47973Y80413D01*
Y80450D01*
X-47720Y81061D01*
X-47598Y81988D01*
X-47720Y82916D01*
X-47973Y83526D01*
Y83563D01*
X-48163Y84022D01*
X-48311Y84083D01*
X-48647Y84522D01*
X-49389Y85092D01*
X-50254Y85449D01*
X-51181Y85572D01*
D02*
G37*
G36*
X-51681Y77706D02*
X-53740D01*
X-54192Y77519D01*
X-54379Y77067D01*
Y75992D01*
X-51681D01*
Y77706D01*
D02*
G37*
G36*
X-48622D02*
X-50681D01*
Y75992D01*
X-47983D01*
Y77067D01*
X-48170Y77519D01*
X-48622Y77706D01*
D02*
G37*
G36*
X7874Y78588D02*
X7179Y78449D01*
X6590Y78056D01*
X6196Y77467D01*
X6058Y76772D01*
X6196Y76077D01*
X6259Y75983D01*
Y74981D01*
X2245D01*
X2013Y75137D01*
X1280Y75283D01*
X-2657D01*
X-3391Y75137D01*
X-4013Y74721D01*
X-4428Y74099D01*
X-4574Y73366D01*
X-4428Y72633D01*
X-4013Y72011D01*
X-3391Y71596D01*
X-2657Y71450D01*
X1280D01*
X2013Y71596D01*
X2245Y71751D01*
X5981D01*
X6289Y71251D01*
X6211Y71063D01*
Y70539D01*
X9537D01*
Y71063D01*
X9350Y71515D01*
X9452Y72014D01*
X9547Y72244D01*
Y74291D01*
X9489Y74431D01*
Y75983D01*
X9552Y76077D01*
X9690Y76772D01*
X9552Y77467D01*
X9158Y78056D01*
X8569Y78449D01*
X7874Y78588D01*
D02*
G37*
G36*
X-51681Y74992D02*
X-54379D01*
Y73917D01*
X-54192Y73465D01*
X-53740Y73278D01*
X-51681D01*
Y74992D01*
D02*
G37*
G36*
X-47983D02*
X-50681D01*
Y73278D01*
X-48622D01*
X-48170Y73465D01*
X-47983Y73917D01*
Y74992D01*
D02*
G37*
G36*
X-88787Y55167D02*
X-89961D01*
X-90413Y54979D01*
X-90600Y54527D01*
Y51681D01*
X-88787D01*
Y55167D01*
D02*
G37*
G36*
X-86614D02*
X-87787D01*
Y51681D01*
X-85975D01*
Y54527D01*
X-86162Y54979D01*
X-86614Y55167D01*
D02*
G37*
G36*
X-56791Y54379D02*
X-57866D01*
Y51681D01*
X-56152D01*
Y53740D01*
X-56339Y54192D01*
X-56791Y54379D01*
D02*
G37*
G36*
X-56152Y50681D02*
X-57866D01*
Y47983D01*
X-56791D01*
X-56339Y48170D01*
X-56152Y48622D01*
Y50681D01*
D02*
G37*
G36*
X-58866Y54379D02*
X-59941D01*
X-60393Y54192D01*
X-60580Y53740D01*
Y51681D01*
X-58866D01*
Y54379D01*
D02*
G37*
G36*
X-86132Y83791D02*
X-89458D01*
Y83268D01*
X-89271Y82816D01*
X-89373Y82317D01*
X-89468Y82087D01*
Y80039D01*
X-89278Y79580D01*
X-88819Y79390D01*
X-86772D01*
X-86632Y79448D01*
X-82854D01*
Y70473D01*
X-82664Y70013D01*
X-82639Y70003D01*
Y64980D01*
X-82516Y64053D01*
X-82158Y63189D01*
X-81589Y62446D01*
X-80650Y61508D01*
Y51181D01*
X-80528Y50254D01*
X-80170Y49389D01*
X-79601Y48647D01*
X-79390Y48485D01*
Y47835D01*
X-79199Y47375D01*
X-78740Y47185D01*
X-75394D01*
X-74935Y47375D01*
X-74744Y47835D01*
Y48485D01*
X-74533Y48647D01*
X-73964Y49389D01*
X-73606Y50254D01*
X-73484Y51181D01*
Y59409D01*
X-63642D01*
Y59252D01*
X-63451Y58793D01*
X-62992Y58602D01*
X-59055D01*
X-58596Y58793D01*
X-58406Y59252D01*
Y60568D01*
X-57920Y61200D01*
X-57562Y62065D01*
X-57440Y62992D01*
X-57562Y63920D01*
X-57920Y64784D01*
X-58406Y65416D01*
Y66732D01*
X-58596Y67191D01*
X-59055Y67382D01*
X-62992D01*
X-63451Y67191D01*
X-63642Y66732D01*
Y66575D01*
X-74842D01*
X-74935Y66798D01*
X-75394Y66988D01*
X-75472D01*
Y70003D01*
X-75446Y70013D01*
X-75256Y70473D01*
Y82284D01*
X-75446Y82743D01*
X-75906Y82933D01*
X-82205D01*
X-82664Y82743D01*
X-82691Y82678D01*
X-85835D01*
X-86169Y83178D01*
X-86132Y83268D01*
Y83791D01*
D02*
G37*
G36*
X-86614Y66978D02*
X-87787D01*
Y63492D01*
X-85975D01*
Y66339D01*
X-86162Y66791D01*
X-86614Y66978D01*
D02*
G37*
G36*
X-1189Y67866D02*
X-4465D01*
X-4419Y67637D01*
X-4006Y67018D01*
X-3387Y66605D01*
X-2657Y66459D01*
X-1189D01*
Y67866D01*
D02*
G37*
G36*
X-88787Y66978D02*
X-89961D01*
X-90413Y66791D01*
X-90600Y66339D01*
Y63492D01*
X-88787D01*
Y66978D01*
D02*
G37*
G36*
Y62492D02*
X-90600D01*
Y59646D01*
X-90413Y59194D01*
X-89961Y59007D01*
X-88787D01*
Y62492D01*
D02*
G37*
G36*
X-85975D02*
X-87787D01*
Y59007D01*
X-86614D01*
X-86162Y59194D01*
X-85975Y59646D01*
Y62492D01*
D02*
G37*
G36*
X-20965Y80282D02*
X-24902D01*
X-25635Y80137D01*
X-26257Y79721D01*
X-26672Y79100D01*
X-26675Y79087D01*
X-26681Y79083D01*
X-28275Y77488D01*
X-28495Y77159D01*
X-28572Y76772D01*
Y72303D01*
X-28495Y71915D01*
X-28275Y71587D01*
X-26838Y70150D01*
X-26643Y70019D01*
X-26476Y69544D01*
X-26464Y69411D01*
X-26558Y69270D01*
X-26838Y69083D01*
X-32212Y63709D01*
X-32432Y63380D01*
X-32509Y62992D01*
Y58552D01*
X-32780Y58371D01*
X-33174Y57782D01*
X-33312Y57087D01*
X-33174Y56392D01*
X-32780Y55803D01*
X-32509Y55621D01*
Y55118D01*
X-32432Y54730D01*
X-32212Y54402D01*
X-23749Y45938D01*
X-23866Y45349D01*
X-23884Y45341D01*
X-24075Y44882D01*
Y42909D01*
X-25323Y41661D01*
X-25542Y41333D01*
X-25620Y40945D01*
Y23324D01*
X-26497Y22960D01*
X-27281Y22359D01*
X-27882Y21576D01*
X-28259Y20664D01*
X-28388Y19685D01*
X-28259Y18706D01*
X-27882Y17794D01*
X-27281Y17011D01*
X-26497Y16410D01*
X-25585Y16032D01*
X-24606Y15903D01*
X-23628Y16032D01*
X-22715Y16410D01*
X-21932Y17011D01*
X-21331Y17794D01*
X-20953Y18706D01*
X-20824Y19685D01*
X-20953Y20664D01*
X-21331Y21576D01*
X-21932Y22359D01*
X-22715Y22960D01*
X-23593Y23324D01*
Y40525D01*
X-23035Y41083D01*
X-21063D01*
X-20604Y41273D01*
X-20414Y41732D01*
Y44882D01*
X-20500Y45091D01*
X-20136Y45518D01*
X-19685Y45428D01*
X-19234Y45518D01*
X-18870Y45091D01*
X-18957Y44882D01*
Y41732D01*
X-18766Y41273D01*
X-18307Y41083D01*
X-16335D01*
X-15777Y40525D01*
Y23324D01*
X-16655Y22960D01*
X-17438Y22359D01*
X-18039Y21576D01*
X-18417Y20664D01*
X-18546Y19685D01*
X-18417Y18706D01*
X-18039Y17794D01*
X-17438Y17011D01*
X-16655Y16410D01*
X-15743Y16032D01*
X-14764Y15903D01*
X-13785Y16032D01*
X-12873Y16410D01*
X-12089Y17011D01*
X-11489Y17794D01*
X-11111Y18706D01*
X-10982Y19685D01*
X-11111Y20664D01*
X-11489Y21576D01*
X-12089Y22359D01*
X-12873Y22960D01*
X-13751Y23324D01*
Y40945D01*
X-13828Y41333D01*
X-14047Y41661D01*
X-15295Y42909D01*
Y44882D01*
X-15486Y45341D01*
X-15504Y45349D01*
X-15621Y45938D01*
X-11095Y50465D01*
X-10875Y50793D01*
X-10798Y51181D01*
Y55621D01*
X-10527Y55803D01*
X-10133Y56392D01*
X-9995Y57087D01*
X-10133Y57782D01*
X-10527Y58371D01*
X-10798Y58552D01*
Y66929D01*
X-10875Y67317D01*
X-11095Y67646D01*
X-17532Y74083D01*
X-17860Y74302D01*
X-18248Y74379D01*
X-19381D01*
X-19610Y74721D01*
X-20231Y75137D01*
X-20965Y75283D01*
X-24902D01*
X-25635Y75137D01*
X-26046Y74862D01*
X-26546Y75120D01*
Y76352D01*
X-26035Y76863D01*
X-25635Y76596D01*
X-24902Y76450D01*
X-20965D01*
X-20231Y76596D01*
X-19610Y77011D01*
X-19194Y77633D01*
X-19048Y78366D01*
X-19194Y79100D01*
X-19610Y79721D01*
X-20231Y80137D01*
X-20965Y80282D01*
D02*
G37*
G36*
X43161Y103238D02*
X42638D01*
X42186Y103050D01*
X41999Y102598D01*
Y102075D01*
X43161D01*
Y103238D01*
D02*
G37*
G36*
X53004D02*
X52480D01*
X52028Y103050D01*
X51841Y102598D01*
Y102075D01*
X53004D01*
Y103238D01*
D02*
G37*
G36*
X-19991Y101823D02*
X-21154D01*
Y100660D01*
X-20630D01*
X-20178Y100847D01*
X-19991Y101299D01*
Y101823D01*
D02*
G37*
G36*
X53004Y101075D02*
X51841D01*
Y100551D01*
X52028Y100099D01*
X52480Y99912D01*
X53004D01*
Y101075D01*
D02*
G37*
G36*
X-22153Y101823D02*
X-23316D01*
Y101299D01*
X-23129Y100847D01*
X-22677Y100660D01*
X-22153D01*
Y101823D01*
D02*
G37*
G36*
X-70579Y115797D02*
X-83268D01*
X-83720Y115610D01*
X-83907Y115157D01*
Y102469D01*
X-70579D01*
Y115797D01*
D02*
G37*
G36*
X6038Y105012D02*
X5512D01*
Y104170D01*
X5608Y104235D01*
X6000Y104821D01*
X6038Y105012D01*
D02*
G37*
G36*
X49795Y108555D02*
X48081D01*
Y106496D01*
X48268Y106044D01*
X48720Y105857D01*
X49795D01*
Y108555D01*
D02*
G37*
G36*
X14890Y104913D02*
X12114D01*
Y103908D01*
X13484D01*
X14060Y104023D01*
X14549Y104349D01*
X14875Y104837D01*
X14890Y104913D01*
D02*
G37*
G36*
X-56890Y115797D02*
X-69579D01*
Y102469D01*
X-56251D01*
Y115157D01*
X-56438Y115610D01*
X-56890Y115797D01*
D02*
G37*
G36*
X11114Y104913D02*
X8338D01*
X8353Y104837D01*
X8680Y104349D01*
X9168Y104023D01*
X9744Y103908D01*
X11114D01*
Y104913D01*
D02*
G37*
G36*
X-86772Y85954D02*
X-87295D01*
Y84791D01*
X-86132D01*
Y85315D01*
X-86320Y85767D01*
X-86772Y85954D01*
D02*
G37*
G36*
X-70579Y101469D02*
X-83907D01*
Y88779D01*
X-83720Y88328D01*
X-83268Y88140D01*
X-70579D01*
Y101469D01*
D02*
G37*
G36*
X-88295Y85954D02*
X-88819D01*
X-89271Y85767D01*
X-89458Y85315D01*
Y84791D01*
X-88295D01*
Y85954D01*
D02*
G37*
G36*
X-124951Y89534D02*
X-125827Y89419D01*
X-126643Y89081D01*
X-127344Y88543D01*
X-127882Y87841D01*
X-128220Y87025D01*
X-128336Y86149D01*
X-128220Y85273D01*
X-127882Y84457D01*
X-127344Y83756D01*
X-126643Y83218D01*
X-125827Y82880D01*
X-124951Y82764D01*
X-124075Y82880D01*
X-123258Y83218D01*
X-122557Y83756D01*
X-122020Y84457D01*
X-121681Y85273D01*
X-121566Y86149D01*
X-121681Y87025D01*
X-122020Y87841D01*
X-122557Y88543D01*
X-123258Y89081D01*
X-124075Y89419D01*
X-124951Y89534D01*
D02*
G37*
G36*
X125049D02*
X124173Y89419D01*
X123357Y89081D01*
X122656Y88543D01*
X122118Y87841D01*
X121780Y87025D01*
X121664Y86149D01*
X121780Y85273D01*
X122118Y84457D01*
X122656Y83756D01*
X123357Y83218D01*
X124173Y82880D01*
X125049Y82764D01*
X125925Y82880D01*
X126742Y83218D01*
X127443Y83756D01*
X127980Y84457D01*
X128319Y85273D01*
X128434Y86149D01*
X128319Y87025D01*
X127980Y87841D01*
X127443Y88543D01*
X126742Y89081D01*
X125925Y89419D01*
X125049Y89534D01*
D02*
G37*
G36*
X-56251Y101469D02*
X-69579D01*
Y88140D01*
X-56890D01*
X-56438Y88328D01*
X-56251Y88779D01*
Y101469D01*
D02*
G37*
G36*
X-26969Y101328D02*
X-29028D01*
Y99614D01*
X-26329D01*
Y100689D01*
X-26517Y101141D01*
X-26969Y101328D01*
D02*
G37*
G36*
X43161Y101075D02*
X41999D01*
Y100551D01*
X42186Y100099D01*
X42638Y99912D01*
X43161D01*
Y101075D01*
D02*
G37*
G36*
X-30028Y101328D02*
X-32087D01*
X-32539Y101141D01*
X-32726Y100689D01*
Y99614D01*
X-30028D01*
Y101328D01*
D02*
G37*
G36*
Y98614D02*
X-32726D01*
Y97539D01*
X-32539Y97087D01*
X-32087Y96900D01*
X-30028D01*
Y98614D01*
D02*
G37*
G36*
X-26329D02*
X-29028D01*
Y96900D01*
X-26969D01*
X-26517Y97087D01*
X-26329Y97539D01*
Y98614D01*
D02*
G37*
G36*
X-58866Y50681D02*
X-60580D01*
Y48622D01*
X-60393Y48170D01*
X-59941Y47983D01*
X-58866D01*
Y50681D01*
D02*
G37*
G36*
X73589Y19185D02*
X70382D01*
Y15979D01*
X70858Y16041D01*
X71768Y16418D01*
X72549Y17018D01*
X73149Y17799D01*
X73526Y18709D01*
X73589Y19185D01*
D02*
G37*
G36*
X-80224Y23392D02*
X-80701Y23329D01*
X-81611Y22952D01*
X-82392Y22353D01*
X-82991Y21571D01*
X-83368Y20661D01*
X-83431Y20185D01*
X-80224D01*
Y23392D01*
D02*
G37*
G36*
X69382Y19185D02*
X66175D01*
X66238Y18709D01*
X66615Y17799D01*
X67214Y17018D01*
X67996Y16418D01*
X68906Y16041D01*
X69382Y15979D01*
Y19185D01*
D02*
G37*
G36*
X-34949D02*
X-38155D01*
X-38093Y18709D01*
X-37716Y17799D01*
X-37116Y17018D01*
X-36335Y16418D01*
X-35425Y16041D01*
X-34949Y15979D01*
Y19185D01*
D02*
G37*
G36*
X-30742D02*
X-33949D01*
Y15979D01*
X-33472Y16041D01*
X-32563Y16418D01*
X-31781Y17018D01*
X-31182Y17799D01*
X-30805Y18709D01*
X-30742Y19185D01*
D02*
G37*
G36*
X-79224Y23392D02*
Y20185D01*
X-76018D01*
X-76081Y20661D01*
X-76457Y21571D01*
X-77057Y22353D01*
X-77838Y22952D01*
X-78748Y23329D01*
X-79224Y23392D01*
D02*
G37*
G36*
X70382D02*
Y20185D01*
X73589D01*
X73526Y20661D01*
X73149Y21571D01*
X72549Y22353D01*
X71768Y22952D01*
X70858Y23329D01*
X70382Y23392D01*
D02*
G37*
G36*
X-125741Y37218D02*
X-127188Y37104D01*
X-129086Y36648D01*
X-130889Y35901D01*
X-132553Y34881D01*
X-134038Y33613D01*
X-135306Y32129D01*
X-136326Y30465D01*
X-137073Y28661D01*
X-137528Y26763D01*
X-137642Y25317D01*
X-125741D01*
Y37218D01*
D02*
G37*
G36*
X69382Y23392D02*
X68906Y23329D01*
X67996Y22952D01*
X67214Y22353D01*
X66615Y21571D01*
X66238Y20661D01*
X66175Y20185D01*
X69382D01*
Y23392D01*
D02*
G37*
G36*
X-34949D02*
X-35425Y23329D01*
X-36335Y22952D01*
X-37116Y22353D01*
X-37716Y21571D01*
X-38093Y20661D01*
X-38155Y20185D01*
X-34949D01*
Y23392D01*
D02*
G37*
G36*
X-33949D02*
Y20185D01*
X-30742D01*
X-30805Y20661D01*
X-31182Y21571D01*
X-31781Y22353D01*
X-32563Y22952D01*
X-33472Y23329D01*
X-33949Y23392D01*
D02*
G37*
G36*
X137159Y24317D02*
X125259D01*
Y12416D01*
X126705Y12530D01*
X128603Y12986D01*
X130406Y13733D01*
X132071Y14753D01*
X133555Y16021D01*
X134823Y17505D01*
X135843Y19170D01*
X136590Y20973D01*
X137045Y22871D01*
X137159Y24317D01*
D02*
G37*
G36*
X14764Y23467D02*
X13785Y23338D01*
X12873Y22960D01*
X12089Y22359D01*
X11489Y21576D01*
X11111Y20664D01*
X10982Y19685D01*
X11111Y18706D01*
X11391Y18029D01*
X6387Y13025D01*
X-61505D01*
X-66509Y18029D01*
X-66229Y18706D01*
X-66100Y19685D01*
X-66229Y20664D01*
X-66607Y21576D01*
X-67208Y22359D01*
X-67991Y22960D01*
X-68903Y23338D01*
X-69882Y23467D01*
X-70861Y23338D01*
X-71773Y22960D01*
X-72556Y22359D01*
X-73157Y21576D01*
X-73535Y20664D01*
X-73664Y19685D01*
X-73535Y18706D01*
X-73157Y17794D01*
X-72556Y17011D01*
X-71773Y16410D01*
X-70861Y16032D01*
X-69882Y15903D01*
X-68903Y16032D01*
X-68226Y16312D01*
X-62866Y10953D01*
X-62866Y10953D01*
X-62472Y10689D01*
X-62008Y10597D01*
X-62008Y10597D01*
X6890D01*
X6890Y10597D01*
X7354Y10689D01*
X7748Y10953D01*
X13108Y16312D01*
X13785Y16032D01*
X14764Y15903D01*
X15743Y16032D01*
X16655Y16410D01*
X17438Y17011D01*
X18039Y17794D01*
X18417Y18706D01*
X18546Y19685D01*
X18417Y20664D01*
X18039Y21576D01*
X17438Y22359D01*
X16655Y22960D01*
X15743Y23338D01*
X14764Y23467D01*
D02*
G37*
G36*
X124259Y24317D02*
X112358D01*
X112472Y22871D01*
X112927Y20973D01*
X113674Y19170D01*
X114694Y17505D01*
X115962Y16021D01*
X117447Y14753D01*
X119111Y13733D01*
X120914Y12986D01*
X122812Y12530D01*
X124259Y12416D01*
Y24317D01*
D02*
G37*
G36*
X-125741D02*
X-137642D01*
X-137528Y22871D01*
X-137073Y20973D01*
X-136326Y19170D01*
X-135306Y17505D01*
X-134038Y16021D01*
X-132553Y14753D01*
X-130889Y13733D01*
X-129086Y12986D01*
X-127188Y12530D01*
X-125741Y12416D01*
Y24317D01*
D02*
G37*
G36*
X-112841D02*
X-124741D01*
Y12416D01*
X-123295Y12530D01*
X-121397Y12986D01*
X-119594Y13733D01*
X-117929Y14753D01*
X-116445Y16021D01*
X-115177Y17505D01*
X-114157Y19170D01*
X-113410Y20973D01*
X-112955Y22871D01*
X-112841Y24317D01*
D02*
G37*
G36*
X79724Y23467D02*
X78746Y23338D01*
X77833Y22960D01*
X77050Y22359D01*
X76449Y21576D01*
X76071Y20664D01*
X75942Y19685D01*
X76071Y18706D01*
X76352Y18029D01*
X71348Y13025D01*
X32983D01*
X27979Y18029D01*
X28259Y18706D01*
X28388Y19685D01*
X28259Y20664D01*
X27882Y21576D01*
X27281Y22359D01*
X26497Y22960D01*
X25585Y23338D01*
X24606Y23467D01*
X23628Y23338D01*
X22715Y22960D01*
X21932Y22359D01*
X21331Y21576D01*
X20953Y20664D01*
X20824Y19685D01*
X20953Y18706D01*
X21331Y17794D01*
X21932Y17011D01*
X22715Y16410D01*
X23628Y16032D01*
X24606Y15903D01*
X25585Y16032D01*
X26262Y16312D01*
X31622Y10953D01*
X31622Y10953D01*
X32016Y10689D01*
X32480Y10597D01*
X32480Y10597D01*
X71850D01*
X71850Y10597D01*
X72315Y10689D01*
X72709Y10953D01*
X78069Y16312D01*
X78746Y16032D01*
X79724Y15903D01*
X80703Y16032D01*
X81615Y16410D01*
X82399Y17011D01*
X83000Y17794D01*
X83377Y18706D01*
X83506Y19685D01*
X83377Y20664D01*
X83000Y21576D01*
X82399Y22359D01*
X81615Y22960D01*
X80703Y23338D01*
X79724Y23467D01*
D02*
G37*
G36*
X-80224Y19185D02*
X-83431D01*
X-83368Y18709D01*
X-82991Y17799D01*
X-82392Y17018D01*
X-81611Y16418D01*
X-80701Y16041D01*
X-80224Y15979D01*
Y19185D01*
D02*
G37*
G36*
X-76018D02*
X-79224D01*
Y15979D01*
X-78748Y16041D01*
X-77838Y16418D01*
X-77057Y17018D01*
X-76457Y17799D01*
X-76081Y18709D01*
X-76018Y19185D01*
D02*
G37*
G36*
X34449Y23467D02*
X33470Y23338D01*
X32558Y22960D01*
X31775Y22359D01*
X31174Y21576D01*
X30796Y20664D01*
X30667Y19685D01*
X30796Y18706D01*
X31174Y17794D01*
X31775Y17011D01*
X32558Y16410D01*
X33470Y16032D01*
X34449Y15903D01*
X35428Y16032D01*
X36340Y16410D01*
X37123Y17011D01*
X37724Y17794D01*
X38102Y18706D01*
X38231Y19685D01*
X38102Y20664D01*
X37724Y21576D01*
X37123Y22359D01*
X36340Y22960D01*
X35428Y23338D01*
X34449Y23467D01*
D02*
G37*
G36*
X-47244Y67382D02*
X-51181D01*
X-51640Y67191D01*
X-51831Y66732D01*
Y65442D01*
X-54109Y63164D01*
X-54678Y62422D01*
X-55036Y61557D01*
X-55158Y60630D01*
Y40488D01*
X-55295Y40157D01*
Y30709D01*
X-55158Y30378D01*
Y17323D01*
X-55036Y16395D01*
X-54678Y15531D01*
X-54109Y14789D01*
X-53367Y14220D01*
X-52502Y13861D01*
X-51575Y13739D01*
X-50647Y13861D01*
X-49783Y14220D01*
X-49041Y14789D01*
X-48472Y15531D01*
X-48114Y16395D01*
X-47991Y17323D01*
Y30059D01*
X-47756D01*
X-47297Y30249D01*
X-47107Y30709D01*
Y40157D01*
X-47297Y40617D01*
X-47756Y40807D01*
X-47991D01*
Y58602D01*
X-47244D01*
X-46785Y58793D01*
X-46595Y59252D01*
Y60568D01*
X-46109Y61200D01*
X-45751Y62065D01*
X-45629Y62992D01*
X-45751Y63920D01*
X-46109Y64784D01*
X-46595Y65416D01*
Y66732D01*
X-46785Y67191D01*
X-47244Y67382D01*
D02*
G37*
G36*
X4921Y23467D02*
X3942Y23338D01*
X3030Y22960D01*
X2247Y22359D01*
X1646Y21576D01*
X1268Y20664D01*
X1139Y19685D01*
X1268Y18706D01*
X1646Y17794D01*
X2247Y17011D01*
X3030Y16410D01*
X3942Y16032D01*
X4921Y15903D01*
X5900Y16032D01*
X6812Y16410D01*
X7596Y17011D01*
X8196Y17794D01*
X8574Y18706D01*
X8703Y19685D01*
X8574Y20664D01*
X8196Y21576D01*
X7596Y22359D01*
X6812Y22960D01*
X5900Y23338D01*
X4921Y23467D01*
D02*
G37*
G36*
X-124741Y37218D02*
Y25317D01*
X-112841D01*
X-112955Y26763D01*
X-113410Y28661D01*
X-114157Y30465D01*
X-115177Y32129D01*
X-116445Y33613D01*
X-117929Y34881D01*
X-119594Y35901D01*
X-121397Y36648D01*
X-123295Y37104D01*
X-124741Y37218D01*
D02*
G37*
G36*
X61705Y42020D02*
X59689D01*
X59711Y41852D01*
X59969Y41229D01*
X60380Y40695D01*
X60914Y40284D01*
X61537Y40027D01*
X61705Y40004D01*
Y42020D01*
D02*
G37*
G36*
X64720D02*
X62705D01*
Y40004D01*
X62873Y40027D01*
X63495Y40284D01*
X64030Y40695D01*
X64440Y41229D01*
X64698Y41852D01*
X64720Y42020D01*
D02*
G37*
G36*
X57972Y42568D02*
X56898D01*
Y39870D01*
X58612D01*
Y41929D01*
X58424Y42381D01*
X57972Y42568D01*
D02*
G37*
G36*
X58612Y38870D02*
X56898D01*
Y36172D01*
X57972D01*
X58424Y36359D01*
X58612Y36811D01*
Y38870D01*
D02*
G37*
G36*
X55898Y42568D02*
X54823D01*
X54371Y42381D01*
X54184Y41929D01*
Y39870D01*
X55898D01*
Y42568D01*
D02*
G37*
G36*
X61705Y45035D02*
X61537Y45013D01*
X60914Y44755D01*
X60380Y44345D01*
X59969Y43810D01*
X59711Y43188D01*
X59689Y43020D01*
X61705D01*
Y45035D01*
D02*
G37*
G36*
X-85975Y50681D02*
X-87787D01*
Y47195D01*
X-86614D01*
X-86162Y47383D01*
X-85975Y47835D01*
Y50681D01*
D02*
G37*
G36*
X53819Y48907D02*
X53295D01*
Y47744D01*
X54458D01*
Y48268D01*
X54271Y48720D01*
X53819Y48907D01*
D02*
G37*
G36*
X-88787Y50681D02*
X-90600D01*
Y47835D01*
X-90413Y47383D01*
X-89961Y47195D01*
X-88787D01*
Y50681D01*
D02*
G37*
G36*
X62705Y45035D02*
Y43020D01*
X64720D01*
X64698Y43188D01*
X64440Y43810D01*
X64030Y44345D01*
X63495Y44755D01*
X62873Y45013D01*
X62705Y45035D01*
D02*
G37*
G36*
X54458Y46744D02*
X53295D01*
Y45581D01*
X53819D01*
X54271Y45768D01*
X54458Y46220D01*
Y46744D01*
D02*
G37*
G36*
X-62825Y34933D02*
X-66409D01*
Y30070D01*
X-63465D01*
X-63013Y30257D01*
X-62825Y30709D01*
Y34933D01*
D02*
G37*
G36*
X-20185D02*
X-21505D01*
Y33858D01*
X-21318Y33406D01*
X-20866Y33219D01*
X-20185D01*
Y34933D01*
D02*
G37*
G36*
X-67409D02*
X-70994D01*
Y30709D01*
X-70806Y30257D01*
X-70354Y30070D01*
X-67409D01*
Y34933D01*
D02*
G37*
G36*
X124259Y37218D02*
X122812Y37104D01*
X120914Y36648D01*
X119111Y35901D01*
X117447Y34881D01*
X115962Y33613D01*
X114694Y32129D01*
X113674Y30465D01*
X112927Y28661D01*
X112472Y26763D01*
X112358Y25317D01*
X124259D01*
Y37218D01*
D02*
G37*
G36*
X125259D02*
Y25317D01*
X137159D01*
X137045Y26763D01*
X136590Y28661D01*
X135843Y30465D01*
X134823Y32129D01*
X133555Y33613D01*
X132071Y34881D01*
X130406Y35901D01*
X128603Y36648D01*
X126705Y37104D01*
X125259Y37218D01*
D02*
G37*
G36*
X-17865Y34933D02*
X-19185D01*
Y33219D01*
X-18504D01*
X-18052Y33406D01*
X-17865Y33858D01*
Y34933D01*
D02*
G37*
G36*
X-63465Y40797D02*
X-66409D01*
Y35933D01*
X-62825D01*
Y40157D01*
X-63013Y40609D01*
X-63465Y40797D01*
D02*
G37*
G36*
X55898Y38870D02*
X54184D01*
Y36811D01*
X54371Y36359D01*
X54823Y36172D01*
X55898D01*
Y38870D01*
D02*
G37*
G36*
X-18504Y37647D02*
X-19185D01*
Y35933D01*
X-17865D01*
Y37008D01*
X-18052Y37460D01*
X-18504Y37647D01*
D02*
G37*
G36*
X-67409Y40797D02*
X-70354D01*
X-70806Y40609D01*
X-70994Y40157D01*
Y35933D01*
X-67409D01*
Y40797D01*
D02*
G37*
G36*
X-20185Y37647D02*
X-20866D01*
X-21318Y37460D01*
X-21505Y37008D01*
Y35933D01*
X-20185D01*
Y37647D01*
D02*
G37*
G36*
X52509Y108555D02*
X50795D01*
Y105857D01*
X51870D01*
X52322Y106044D01*
X52509Y106496D01*
Y108555D01*
D02*
G37*
G36*
X90051Y133358D02*
X87242D01*
X87291Y132985D01*
X87628Y132171D01*
X88165Y131472D01*
X88863Y130935D01*
X89678Y130598D01*
X90051Y130549D01*
Y133358D01*
D02*
G37*
G36*
X113673D02*
X110864D01*
X110913Y132985D01*
X111250Y132171D01*
X111786Y131472D01*
X112486Y130935D01*
X113300Y130598D01*
X113673Y130549D01*
Y133358D01*
D02*
G37*
G36*
X109609Y133358D02*
X106799D01*
Y130549D01*
X107173Y130598D01*
X107987Y130935D01*
X108686Y131472D01*
X109222Y132171D01*
X109560Y132985D01*
X109609Y133358D01*
D02*
G37*
G36*
X105799D02*
X102990D01*
X103039Y132985D01*
X103376Y132171D01*
X103912Y131472D01*
X104612Y130935D01*
X105426Y130598D01*
X105799Y130549D01*
Y133358D01*
D02*
G37*
G36*
X-118738D02*
X-121547D01*
Y130549D01*
X-121174Y130598D01*
X-120360Y130935D01*
X-119660Y131472D01*
X-119124Y132171D01*
X-118787Y132985D01*
X-118738Y133358D01*
D02*
G37*
G36*
X101735Y133358D02*
X98925D01*
Y130549D01*
X99299Y130598D01*
X100113Y130935D01*
X100812Y131472D01*
X101348Y132171D01*
X101686Y132985D01*
X101735Y133358D01*
D02*
G37*
G36*
X6038Y132571D02*
X5512D01*
Y131729D01*
X5608Y131794D01*
X6000Y132380D01*
X6038Y132571D01*
D02*
G37*
G36*
X-5512Y134412D02*
X-5608Y134348D01*
X-6000Y133762D01*
X-6038Y133571D01*
X-5512D01*
Y134412D01*
D02*
G37*
G36*
Y132571D02*
X-6038D01*
X-6000Y132380D01*
X-5608Y131794D01*
X-5512Y131729D01*
Y132571D01*
D02*
G37*
G36*
X125357Y133358D02*
X122547D01*
Y130549D01*
X122921Y130598D01*
X123735Y130935D01*
X124434Y131472D01*
X124970Y132171D01*
X125308Y132985D01*
X125357Y133358D01*
D02*
G37*
G36*
X-98425Y133858D02*
D01*
Y133358D01*
X-101735D01*
X-101686Y132985D01*
X-101348Y132171D01*
X-100812Y131472D01*
X-100763Y131434D01*
X-100933Y130934D01*
X-103791D01*
X-103961Y131434D01*
X-103912Y131472D01*
X-103376Y132171D01*
X-103039Y132985D01*
X-102990Y133358D01*
X-106299D01*
X-109609D01*
X-109560Y132985D01*
X-109222Y132171D01*
X-108686Y131472D01*
X-108638Y131434D01*
X-108807Y130934D01*
X-111665D01*
X-111835Y131434D01*
X-111786Y131472D01*
X-111250Y132171D01*
X-110913Y132985D01*
X-110864Y133358D01*
X-114173D01*
X-117483D01*
X-117434Y132985D01*
X-117096Y132171D01*
X-116560Y131472D01*
X-116512Y131434D01*
X-116681Y130934D01*
X-118110D01*
X-118498Y130857D01*
X-118827Y130638D01*
X-120492Y128972D01*
X-121171Y129254D01*
X-122047Y129369D01*
X-122923Y129254D01*
X-123740Y128916D01*
X-124441Y128378D01*
X-124979Y127677D01*
X-125317Y126860D01*
X-125432Y125984D01*
X-125317Y125108D01*
X-124979Y124292D01*
X-124441Y123591D01*
X-123740Y123053D01*
X-122923Y122715D01*
X-122047Y122599D01*
X-121171Y122715D01*
X-120355Y123053D01*
X-119654Y123591D01*
X-119116Y124292D01*
X-118778Y125108D01*
X-118662Y125984D01*
X-118778Y126860D01*
X-119059Y127540D01*
X-117691Y128908D01*
X-116653D01*
X-116492Y128435D01*
X-116567Y128378D01*
X-117105Y127677D01*
X-117443Y126860D01*
X-117558Y125984D01*
X-117443Y125108D01*
X-117105Y124292D01*
X-116567Y123591D01*
X-115866Y123053D01*
X-115049Y122715D01*
X-114173Y122599D01*
X-113297Y122715D01*
X-112618Y122996D01*
X-107016Y117394D01*
X-106687Y117174D01*
X-106299Y117097D01*
X-55538D01*
X-54163Y115722D01*
Y94488D01*
X-54086Y94100D01*
X-53866Y93772D01*
X-42055Y81961D01*
X-41726Y81741D01*
X-41339Y81664D01*
X11391D01*
X23693Y69362D01*
X24022Y69143D01*
X24409Y69066D01*
X31232D01*
X31366Y68866D01*
X31473Y68794D01*
X31504Y68289D01*
X31162Y67942D01*
X30315D01*
X29927Y67865D01*
X29599Y67646D01*
X25268Y63315D01*
X25048Y62986D01*
X24971Y62598D01*
Y59733D01*
X24700Y59552D01*
X24306Y58963D01*
X24168Y58268D01*
X24306Y57573D01*
X24700Y56984D01*
X25289Y56590D01*
X25984Y56452D01*
X26679Y56590D01*
X27268Y56984D01*
X27662Y57573D01*
X27800Y58268D01*
X27662Y58963D01*
X27268Y59552D01*
X26997Y59733D01*
Y62179D01*
X30735Y65916D01*
X31232D01*
X31366Y65716D01*
X31533Y65604D01*
Y65104D01*
X31366Y64993D01*
X31192Y64732D01*
X31108Y64716D01*
X30780Y64496D01*
X28811Y62527D01*
X28591Y62199D01*
X28514Y61811D01*
Y56719D01*
X26352Y54557D01*
X21286D01*
X17107Y58736D01*
X17170Y59055D01*
X17032Y59750D01*
X16638Y60339D01*
X16049Y60733D01*
X15354Y60871D01*
X14659Y60733D01*
X14070Y60339D01*
X13677Y59750D01*
X13538Y59055D01*
X13677Y58360D01*
X14070Y57771D01*
X14659Y57377D01*
X15354Y57239D01*
X15674Y57303D01*
X20150Y52827D01*
X20478Y52607D01*
X20866Y52530D01*
X26772D01*
X27159Y52607D01*
X27488Y52827D01*
X30244Y55583D01*
X30464Y55911D01*
X30541Y56299D01*
Y61391D01*
X31576Y62426D01*
X31922Y62195D01*
X32132Y62153D01*
X32362Y61597D01*
X32181Y61325D01*
X32042Y60630D01*
X32181Y59935D01*
X32574Y59346D01*
X33163Y58952D01*
X33858Y58814D01*
X34553Y58952D01*
X35142Y59346D01*
X35323Y59617D01*
X37008D01*
X37396Y59694D01*
X37724Y59913D01*
X37977Y60166D01*
X38404Y59959D01*
X38442Y59924D01*
Y57954D01*
X38307Y57809D01*
X38020Y57598D01*
X37402Y57722D01*
X36707Y57583D01*
X36118Y57190D01*
X35724Y56600D01*
X35586Y55905D01*
X35724Y55211D01*
X36118Y54621D01*
X36707Y54228D01*
X37402Y54089D01*
X38096Y54228D01*
X38686Y54621D01*
X38762Y54736D01*
X38944Y54988D01*
X39501Y54616D01*
X40157Y54485D01*
X40814Y54616D01*
X41371Y54988D01*
X41482Y55155D01*
X41982D01*
X42094Y54988D01*
X42650Y54616D01*
X43307Y54485D01*
X43964Y54616D01*
X44520Y54988D01*
X44592Y55095D01*
X45097Y55126D01*
X45443Y54784D01*
Y53827D01*
X45173Y53646D01*
X44779Y53057D01*
X44641Y52362D01*
X44779Y51667D01*
X45173Y51078D01*
X45762Y50684D01*
X46457Y50546D01*
X47152Y50684D01*
X47452Y50885D01*
X47952Y50618D01*
Y48564D01*
X47611Y48054D01*
X47450Y47244D01*
Y42558D01*
X47033Y42239D01*
X46464Y41496D01*
X46106Y40632D01*
X45983Y39705D01*
Y33898D01*
X46106Y32970D01*
X46464Y32106D01*
X47033Y31364D01*
X47775Y30794D01*
X48131Y30647D01*
X48031Y30147D01*
X6719D01*
X-4892Y41758D01*
Y60604D01*
X-3696Y61800D01*
X-3391Y61596D01*
X-2657Y61450D01*
X1280D01*
X2013Y61596D01*
X2635Y62011D01*
X3050Y62633D01*
X3196Y63366D01*
X3050Y64100D01*
X2635Y64721D01*
X2013Y65137D01*
X1280Y65282D01*
X-2657D01*
X-3391Y65137D01*
X-4013Y64721D01*
X-4428Y64100D01*
X-4469Y63893D01*
X-6361Y62001D01*
X-6861Y62208D01*
Y76352D01*
X-5860Y77353D01*
X-4241D01*
X-4013Y77011D01*
X-3391Y76596D01*
X-2657Y76450D01*
X1280D01*
X2013Y76596D01*
X2635Y77011D01*
X3050Y77633D01*
X3196Y78366D01*
X3050Y79100D01*
X2635Y79721D01*
X2013Y80137D01*
X1280Y80282D01*
X-2657D01*
X-3391Y80137D01*
X-4013Y79721D01*
X-4241Y79379D01*
X-6279D01*
X-6667Y79302D01*
X-6996Y79083D01*
X-8590Y77488D01*
X-8810Y77159D01*
X-8887Y76772D01*
Y41339D01*
X-8810Y40951D01*
X-8590Y40622D01*
X5322Y26710D01*
X5115Y26210D01*
X591D01*
X203Y26133D01*
X-126Y25913D01*
X-3065Y22975D01*
X-3942Y23338D01*
X-4921Y23467D01*
X-5900Y23338D01*
X-6812Y22960D01*
X-7596Y22359D01*
X-8196Y21576D01*
X-8574Y20664D01*
X-8703Y19685D01*
X-8574Y18706D01*
X-8196Y17794D01*
X-7596Y17011D01*
X-6812Y16410D01*
X-5900Y16032D01*
X-4921Y15903D01*
X-3942Y16032D01*
X-3030Y16410D01*
X-2247Y17011D01*
X-1646Y17794D01*
X-1268Y18706D01*
X-1139Y19685D01*
X-1268Y20664D01*
X-1632Y21542D01*
X1010Y24184D01*
X72835D01*
X73222Y24261D01*
X73551Y24480D01*
X101898Y52827D01*
X102117Y53156D01*
X102194Y53543D01*
Y75197D01*
X102117Y75585D01*
X101898Y75913D01*
X94811Y83000D01*
X94482Y83219D01*
X94095Y83297D01*
X79921D01*
X79533Y83219D01*
X79205Y83000D01*
X79108Y82903D01*
X78740D01*
X78352Y82826D01*
X78024Y82606D01*
X72809Y77391D01*
X71130D01*
X70997Y77591D01*
X70829Y77703D01*
Y78203D01*
X70997Y78314D01*
X71368Y78871D01*
X71499Y79528D01*
X71368Y80184D01*
X70997Y80741D01*
X70829Y80852D01*
Y81352D01*
X70997Y81464D01*
X71368Y82021D01*
X71499Y82677D01*
X71368Y83334D01*
X70997Y83890D01*
X70889Y83962D01*
X70858Y84467D01*
X71200Y84814D01*
X81890D01*
X82278Y84891D01*
X82606Y85110D01*
X120492Y122996D01*
X121171Y122715D01*
X122047Y122599D01*
X122923Y122715D01*
X123740Y123053D01*
X124441Y123591D01*
X124979Y124292D01*
X125317Y125108D01*
X125432Y125984D01*
X125317Y126860D01*
X124979Y127677D01*
X124441Y128378D01*
X123740Y128916D01*
X122923Y129254D01*
X122047Y129369D01*
X121171Y129254D01*
X120355Y128916D01*
X119654Y128378D01*
X119116Y127677D01*
X118778Y126860D01*
X118662Y125984D01*
X118778Y125108D01*
X119059Y124429D01*
X81470Y86840D01*
X71130D01*
X70997Y87040D01*
X70440Y87412D01*
X69784Y87542D01*
X66043D01*
X65387Y87412D01*
X64830Y87040D01*
X64458Y86483D01*
X64328Y85827D01*
X64458Y85170D01*
X64830Y84614D01*
X64997Y84502D01*
Y84002D01*
X64830Y83890D01*
X64458Y83334D01*
X64328Y82677D01*
X64458Y82021D01*
X64830Y81464D01*
X64938Y81392D01*
X64969Y80887D01*
X64626Y80541D01*
X64064D01*
X63882Y80812D01*
X63293Y81205D01*
X62598Y81344D01*
X61904Y81205D01*
X61314Y80812D01*
X60921Y80222D01*
X60782Y79528D01*
X60921Y78833D01*
X61314Y78243D01*
X61904Y77850D01*
X62598Y77712D01*
X63293Y77850D01*
X63882Y78243D01*
X64064Y78514D01*
X64697D01*
X64830Y78314D01*
X64997Y78203D01*
Y77703D01*
X64830Y77591D01*
X64458Y77034D01*
X64328Y76378D01*
X64458Y75721D01*
X64830Y75165D01*
X64938Y75093D01*
X64969Y74588D01*
X64626Y74242D01*
X55008D01*
X54827Y74512D01*
X54238Y74906D01*
X53543Y75044D01*
X52848Y74906D01*
X52259Y74512D01*
X51866Y73923D01*
X51727Y73228D01*
X51866Y72533D01*
X52259Y71944D01*
X52848Y71551D01*
X53543Y71412D01*
X54238Y71551D01*
X54827Y71944D01*
X55008Y72215D01*
X64697D01*
X64830Y72015D01*
X64997Y71904D01*
Y71403D01*
X64830Y71292D01*
X64458Y70735D01*
X64328Y70079D01*
X64458Y69422D01*
X64830Y68866D01*
X64997Y68754D01*
Y68254D01*
X64830Y68142D01*
X64458Y67586D01*
X64328Y66929D01*
X64458Y66273D01*
X64830Y65716D01*
X64718Y65194D01*
X64276Y65064D01*
X63687Y65457D01*
X62992Y65596D01*
X62297Y65457D01*
X61708Y65064D01*
X61314Y64474D01*
X61176Y63779D01*
X61314Y63085D01*
X61708Y62495D01*
X62246Y62136D01*
X62224Y61876D01*
X62149Y61645D01*
X61548Y61526D01*
X60992Y61154D01*
X60880Y60987D01*
X60380D01*
X60268Y61154D01*
X59712Y61526D01*
X59055Y61657D01*
X58399Y61526D01*
X57842Y61154D01*
X57730Y60987D01*
X57230D01*
X57119Y61154D01*
X56562Y61526D01*
X55905Y61657D01*
X55249Y61526D01*
X54692Y61154D01*
X54575Y60979D01*
X54075D01*
X53962Y61147D01*
X53409Y61517D01*
X53256Y61547D01*
Y58071D01*
Y54594D01*
X53409Y54625D01*
X53962Y54994D01*
X54075Y55163D01*
X54575D01*
X54692Y54988D01*
X54892Y54854D01*
Y54724D01*
X54969Y54337D01*
X55189Y54008D01*
X66310Y42887D01*
Y36246D01*
X60210Y30147D01*
X51103D01*
X51003Y30647D01*
X51359Y30794D01*
X52101Y31364D01*
X52670Y32106D01*
X53028Y32970D01*
X53150Y33898D01*
Y39705D01*
X53028Y40632D01*
X52670Y41496D01*
X52101Y42239D01*
X51950Y42355D01*
X51936Y42388D01*
X51870Y42415D01*
X51684Y42558D01*
Y45523D01*
X51772Y45581D01*
X52295D01*
Y47244D01*
Y48907D01*
X51772D01*
X51682Y48870D01*
X51182Y49204D01*
Y54684D01*
X51244Y54737D01*
X51682Y54906D01*
X52103Y54625D01*
X52256Y54594D01*
Y58071D01*
Y61547D01*
X52103Y61517D01*
X51550Y61147D01*
X51437Y60979D01*
X50937Y60979D01*
X50819Y61154D01*
X50263Y61526D01*
X49606Y61657D01*
X48950Y61526D01*
X48393Y61154D01*
X48281Y60987D01*
X47782D01*
X47670Y61154D01*
X47113Y61526D01*
X46457Y61657D01*
X45800Y61526D01*
X45243Y61154D01*
X45132Y60987D01*
X44632D01*
X44520Y61154D01*
X44260Y61328D01*
X44243Y61411D01*
X44023Y61740D01*
X42449Y63315D01*
X42120Y63534D01*
X41732Y63612D01*
X38976D01*
X38589Y63534D01*
X38481Y63463D01*
X38031Y63763D01*
X38034Y63779D01*
X37904Y64436D01*
X37532Y64993D01*
X37365Y65104D01*
Y65604D01*
X37532Y65716D01*
X37904Y66273D01*
X38034Y66929D01*
X37904Y67586D01*
X37532Y68142D01*
X37365Y68254D01*
Y68754D01*
X37532Y68866D01*
X37904Y69422D01*
X38034Y70079D01*
X37904Y70735D01*
X37532Y71292D01*
X37365Y71403D01*
Y71904D01*
X37532Y72015D01*
X37904Y72572D01*
X38034Y73228D01*
X37904Y73885D01*
X37532Y74441D01*
X37425Y74513D01*
X37394Y75018D01*
X37736Y75365D01*
X38189D01*
X38577Y75442D01*
X38905Y75661D01*
X41806Y78562D01*
X42126Y78499D01*
X42821Y78637D01*
X43410Y79031D01*
X43804Y79620D01*
X43942Y80315D01*
X43804Y81010D01*
X43410Y81599D01*
X42821Y81993D01*
X42126Y82131D01*
X41431Y81993D01*
X40842Y81599D01*
X40448Y81010D01*
X40310Y80315D01*
X40374Y79995D01*
X38068Y77689D01*
X37842Y77648D01*
X37658Y77797D01*
X37532Y78314D01*
X37904Y78871D01*
X38034Y79528D01*
X37904Y80184D01*
X37532Y80741D01*
X37365Y80852D01*
Y81352D01*
X37532Y81464D01*
X37904Y82021D01*
X38034Y82677D01*
X37904Y83334D01*
X37532Y83890D01*
X37365Y84002D01*
Y84502D01*
X37532Y84614D01*
X37904Y85170D01*
X38032Y85813D01*
X38095Y85856D01*
X38500Y86052D01*
X38654Y85898D01*
X38982Y85678D01*
X39370Y85601D01*
X60630D01*
X61018Y85678D01*
X61346Y85898D01*
X62921Y87473D01*
X63141Y87801D01*
X63218Y88189D01*
Y88319D01*
X63418Y88452D01*
X63790Y89009D01*
X63920Y89665D01*
Y93405D01*
X63790Y94062D01*
X63418Y94619D01*
X62861Y94991D01*
X62205Y95121D01*
X61548Y94991D01*
X60992Y94619D01*
X60474Y94744D01*
X60325Y94929D01*
X60367Y95154D01*
X74435Y109223D01*
X98425D01*
X98813Y109300D01*
X99142Y109520D01*
X112618Y122996D01*
X113297Y122715D01*
X114173Y122599D01*
X115049Y122715D01*
X115866Y123053D01*
X116567Y123591D01*
X117105Y124292D01*
X117443Y125108D01*
X117558Y125984D01*
X117443Y126860D01*
X117105Y127677D01*
X116567Y128378D01*
X115866Y128916D01*
X115049Y129254D01*
X114173Y129369D01*
X113297Y129254D01*
X112481Y128916D01*
X111780Y128378D01*
X111242Y127677D01*
X110904Y126860D01*
X110788Y125984D01*
X110904Y125108D01*
X111185Y124429D01*
X98005Y111249D01*
X74016D01*
X73628Y111172D01*
X73299Y110953D01*
X59292Y96945D01*
X58831Y97192D01*
X58849Y97284D01*
Y101337D01*
X58908Y101634D01*
Y106201D01*
X59325Y106521D01*
X59895Y107263D01*
X60253Y108128D01*
X60375Y109055D01*
Y114862D01*
X60253Y115790D01*
X59895Y116654D01*
X59325Y117396D01*
X58583Y117965D01*
X57719Y118324D01*
X56791Y118446D01*
X55864Y118324D01*
X55000Y117965D01*
X54258Y117396D01*
X53688Y116654D01*
X53330Y115790D01*
X53208Y114862D01*
Y109055D01*
X53330Y108128D01*
X53688Y107263D01*
X54258Y106521D01*
X54674Y106201D01*
Y103336D01*
X54527Y103238D01*
X54004D01*
Y101575D01*
Y99912D01*
X54527D01*
X54615Y99853D01*
Y98160D01*
X54409Y97954D01*
X53950Y97267D01*
X53789Y96457D01*
X53950Y95647D01*
X54108Y95409D01*
X54046Y95157D01*
X53477Y94936D01*
X53409Y94982D01*
X53256Y95012D01*
Y91535D01*
X52256D01*
Y95012D01*
X52103Y94982D01*
X51550Y94612D01*
X51437Y94443D01*
X50937Y94443D01*
X50819Y94619D01*
X50620Y94752D01*
Y98858D01*
X50542Y99246D01*
X50323Y99575D01*
X48563Y101335D01*
Y102598D01*
X48373Y103058D01*
X47913Y103248D01*
X45866D01*
X45636Y103153D01*
X45137Y103050D01*
X44685Y103238D01*
X44161D01*
Y101575D01*
Y99912D01*
X44685D01*
X45137Y100099D01*
X45636Y99997D01*
X45866Y99902D01*
X47130D01*
X48593Y98439D01*
Y94752D01*
X48393Y94619D01*
X48281Y94451D01*
X47782D01*
X47670Y94619D01*
X47113Y94991D01*
X46457Y95121D01*
X46139Y95058D01*
X37627Y103569D01*
Y111391D01*
X47270Y121034D01*
X74629D01*
X78663Y117000D01*
X78991Y116780D01*
X79379Y116703D01*
X98032D01*
X98419Y116780D01*
X98748Y117000D01*
X104744Y122996D01*
X105423Y122715D01*
X106299Y122599D01*
X107175Y122715D01*
X107992Y123053D01*
X108693Y123591D01*
X109231Y124292D01*
X109569Y125108D01*
X109684Y125984D01*
X109569Y126860D01*
X109231Y127677D01*
X108693Y128378D01*
X107992Y128916D01*
X107175Y129254D01*
X106299Y129369D01*
X105423Y129254D01*
X104607Y128916D01*
X103906Y128378D01*
X103368Y127677D01*
X103030Y126860D01*
X102914Y125984D01*
X103030Y125108D01*
X103311Y124429D01*
X97612Y118730D01*
X93311D01*
X93103Y119230D01*
X96870Y122996D01*
X97549Y122715D01*
X98425Y122599D01*
X99301Y122715D01*
X100118Y123053D01*
X100819Y123591D01*
X101357Y124292D01*
X101695Y125108D01*
X101810Y125984D01*
X101695Y126860D01*
X101357Y127677D01*
X100819Y128378D01*
X100118Y128916D01*
X99301Y129254D01*
X98425Y129369D01*
X97549Y129254D01*
X96733Y128916D01*
X96032Y128378D01*
X95494Y127677D01*
X95156Y126860D01*
X95040Y125984D01*
X95156Y125108D01*
X95437Y124429D01*
X91706Y120698D01*
X87284D01*
X87132Y121198D01*
X87331Y121331D01*
X88996Y122996D01*
X89675Y122715D01*
X90551Y122599D01*
X91427Y122715D01*
X92244Y123053D01*
X92945Y123591D01*
X93483Y124292D01*
X93821Y125108D01*
X93936Y125984D01*
X93821Y126860D01*
X93483Y127677D01*
X92945Y128378D01*
X92244Y128916D01*
X91427Y129254D01*
X90551Y129369D01*
X89675Y129254D01*
X88859Y128916D01*
X88158Y128378D01*
X87620Y127677D01*
X87282Y126860D01*
X87166Y125984D01*
X87282Y125108D01*
X87563Y124429D01*
X86194Y123060D01*
X81916D01*
X78276Y126701D01*
X77947Y126920D01*
X77559Y126997D01*
X44488D01*
X44100Y126920D01*
X43772Y126701D01*
X31961Y114890D01*
X31741Y114561D01*
X31664Y114173D01*
Y101575D01*
X31741Y101187D01*
X31961Y100858D01*
X38646Y94173D01*
X38572Y94062D01*
X38442Y93405D01*
Y89682D01*
X38404Y89647D01*
X37977Y89440D01*
X36149Y91268D01*
X35821Y91487D01*
X35433Y91564D01*
X-36195D01*
X-44262Y99632D01*
Y119291D01*
X-44339Y119679D01*
X-44559Y120008D01*
X-51252Y126701D01*
X-51581Y126920D01*
X-51968Y126997D01*
X-83439D01*
X-87079Y130638D01*
X-87407Y130857D01*
X-87795Y130934D01*
X-88043D01*
X-88213Y131434D01*
X-88164Y131472D01*
X-87628Y132171D01*
X-87291Y132985D01*
X-87242Y133358D01*
X-90551D01*
X-93861D01*
X-93812Y132985D01*
X-93474Y132171D01*
X-92938Y131472D01*
X-92889Y131434D01*
X-93059Y130934D01*
X-95917D01*
X-96087Y131434D01*
X-96039Y131472D01*
X-95502Y132171D01*
X-95165Y132985D01*
X-95116Y133358D01*
X-98425D01*
Y133858D01*
D02*
G37*
G36*
X-122547Y133358D02*
X-125357D01*
X-125308Y132985D01*
X-124970Y132171D01*
X-124434Y131472D01*
X-123735Y130935D01*
X-122921Y130598D01*
X-122547Y130549D01*
Y133358D01*
D02*
G37*
G36*
X-120067Y175802D02*
X-120922Y175579D01*
X-121690Y175143D01*
X-122319Y174522D01*
X-122767Y173760D01*
X-123002Y172908D01*
X-123008Y172025D01*
X-122785Y171170D01*
X-122349Y170401D01*
X-121728Y169772D01*
X-120966Y169325D01*
X-120115Y169090D01*
X-119231Y169084D01*
X-118376Y169306D01*
X-117607Y169743D01*
X-116978Y170363D01*
X-116531Y171125D01*
X-116296Y171977D01*
X-116290Y172861D01*
X-116513Y173716D01*
X-116949Y174484D01*
X-117569Y175113D01*
X-118331Y175561D01*
X-119183Y175795D01*
X-120067Y175802D01*
D02*
G37*
G36*
X121547Y133358D02*
X118738D01*
X118787Y132985D01*
X119124Y132171D01*
X119660Y131472D01*
X120360Y130935D01*
X121174Y130598D01*
X121547Y130549D01*
Y133358D01*
D02*
G37*
G36*
X120152Y175803D02*
X119269Y175796D01*
X118417Y175559D01*
X117656Y175111D01*
X117036Y174481D01*
X116601Y173712D01*
X116380Y172856D01*
X116387Y171973D01*
X116623Y171121D01*
X117072Y170360D01*
X117702Y169741D01*
X118471Y169305D01*
X119326Y169084D01*
X120210Y169092D01*
X121062Y169328D01*
X121823Y169776D01*
X122442Y170406D01*
X122878Y171175D01*
X123099Y172031D01*
X123091Y172915D01*
X122855Y173766D01*
X122407Y174527D01*
X121777Y175147D01*
X121008Y175582D01*
X120152Y175803D01*
D02*
G37*
G36*
X97925Y133358D02*
X95116D01*
X95165Y132985D01*
X95502Y132171D01*
X96039Y131472D01*
X96737Y130935D01*
X97552Y130598D01*
X97925Y130549D01*
Y133358D01*
D02*
G37*
G36*
X-93473Y178779D02*
X-94333Y178580D01*
X-95113Y178165D01*
X-95759Y177562D01*
X-96227Y176813D01*
X-96485Y175968D01*
X-96516Y175084D01*
X-96317Y174224D01*
X-95901Y173444D01*
X-95298Y172798D01*
X-94549Y172330D01*
X-93704Y172072D01*
X-92821Y172041D01*
X-91960Y172240D01*
X-91180Y172656D01*
X-90534Y173259D01*
X-90066Y174008D01*
X-89808Y174853D01*
X-89777Y175736D01*
X-89977Y176597D01*
X-90392Y177377D01*
X-90995Y178023D01*
X-91744Y178491D01*
X-92589Y178749D01*
X-93473Y178779D01*
D02*
G37*
G36*
X93861Y133358D02*
X91051D01*
Y130549D01*
X91425Y130598D01*
X92239Y130935D01*
X92938Y131472D01*
X93474Y132171D01*
X93812Y132985D01*
X93861Y133358D01*
D02*
G37*
G36*
X-13193Y173246D02*
X-14067Y173118D01*
X-14879Y172768D01*
X-15572Y172220D01*
X-16100Y171511D01*
X-16426Y170690D01*
X-16529Y169813D01*
X-16401Y168938D01*
X-16215Y168507D01*
X-16476Y168116D01*
X-16568Y167651D01*
X-16568Y167651D01*
Y160724D01*
X-17068Y160517D01*
X-26701Y170150D01*
X-27095Y170413D01*
X-27559Y170505D01*
X-27559Y170505D01*
X-36467D01*
X-36670Y170943D01*
X-37237Y171621D01*
X-37960Y172129D01*
X-38789Y172433D01*
X-39669Y172511D01*
X-40540Y172360D01*
X-41341Y171987D01*
X-42019Y171421D01*
X-42527Y170698D01*
X-42831Y169868D01*
X-42910Y168988D01*
X-42758Y168117D01*
X-42386Y167316D01*
X-41819Y166638D01*
X-41311Y166281D01*
X-41469Y165781D01*
X-62285D01*
X-62800Y166296D01*
X-62559Y167013D01*
X-62505Y167895D01*
X-62680Y168761D01*
X-63074Y169552D01*
X-63659Y170214D01*
X-64395Y170702D01*
X-65233Y170983D01*
X-66115Y171038D01*
X-66981Y170862D01*
X-67772Y170468D01*
X-68435Y169883D01*
X-68923Y169147D01*
X-69204Y168309D01*
X-69258Y167427D01*
X-69083Y166561D01*
X-68689Y165770D01*
X-68104Y165108D01*
X-67367Y164620D01*
X-66530Y164339D01*
X-65648Y164284D01*
X-64782Y164460D01*
X-64525Y164587D01*
X-63856Y163919D01*
X-64063Y163419D01*
X-88429D01*
X-89094Y164084D01*
X-88845Y164900D01*
X-88815Y165783D01*
X-89014Y166644D01*
X-89429Y167424D01*
X-90032Y168070D01*
X-90781Y168538D01*
X-91627Y168796D01*
X-92510Y168826D01*
X-93370Y168627D01*
X-94151Y168212D01*
X-94797Y167609D01*
X-95264Y166859D01*
X-95522Y166014D01*
X-95553Y165131D01*
X-95354Y164270D01*
X-94938Y163490D01*
X-94336Y162844D01*
X-93586Y162376D01*
X-92741Y162118D01*
X-91858Y162088D01*
X-90997Y162287D01*
X-90823Y162380D01*
X-90000Y161556D01*
X-90207Y161056D01*
X-114824D01*
X-115198Y161556D01*
X-115061Y162054D01*
X-115055Y162937D01*
X-115278Y163792D01*
X-115714Y164561D01*
X-116334Y165190D01*
X-117096Y165637D01*
X-117948Y165872D01*
X-118832Y165878D01*
X-119687Y165656D01*
X-120456Y165219D01*
X-121085Y164599D01*
X-121532Y163837D01*
X-121767Y162985D01*
X-121773Y162101D01*
X-121550Y161246D01*
X-121114Y160478D01*
X-120494Y159849D01*
X-119732Y159401D01*
X-118980Y159194D01*
X-119048Y158694D01*
X-141213D01*
X-141224Y159344D01*
X-141466Y160193D01*
X-141920Y160951D01*
X-142555Y161566D01*
X-143328Y161995D01*
X-144185Y162210D01*
X-145068Y162196D01*
X-145918Y161953D01*
X-146676Y161499D01*
X-147291Y160864D01*
X-147720Y160091D01*
X-147934Y159234D01*
X-147920Y158351D01*
X-147678Y157501D01*
X-147223Y156743D01*
X-146588Y156129D01*
X-146437Y156045D01*
X-146567Y155545D01*
X-152756D01*
X-152756Y155545D01*
X-153220Y155452D01*
X-153614Y155189D01*
X-153614Y155189D01*
X-168575Y140228D01*
X-168838Y139835D01*
X-168930Y139370D01*
X-168930Y139370D01*
Y118773D01*
X-168930Y118773D01*
X-168838Y118309D01*
X-168575Y117915D01*
X-128064Y77404D01*
X-128220Y77025D01*
X-128336Y76149D01*
X-128220Y75273D01*
X-127882Y74457D01*
X-127344Y73756D01*
X-126643Y73218D01*
X-125827Y72880D01*
X-124951Y72764D01*
X-124075Y72880D01*
X-123258Y73218D01*
X-122557Y73756D01*
X-122020Y74457D01*
X-121681Y75273D01*
X-121566Y76149D01*
X-121681Y77025D01*
X-122020Y77842D01*
X-122557Y78543D01*
X-123258Y79080D01*
X-124075Y79419D01*
X-124951Y79534D01*
X-125827Y79419D01*
X-126406Y79179D01*
X-166503Y119276D01*
Y138867D01*
X-152253Y153117D01*
X-31999D01*
X-30741Y151859D01*
Y133858D01*
X-30741Y133858D01*
X-30649Y133394D01*
X-30386Y133000D01*
X-19854Y122468D01*
X-19461Y122205D01*
X-18996Y122113D01*
X-18996Y122113D01*
X-14974D01*
X-14706Y121613D01*
X-14884Y121347D01*
X-14999Y120768D01*
X-14884Y120188D01*
X-14641Y119824D01*
X-14588Y119488D01*
X-14641Y119152D01*
X-14884Y118788D01*
X-14999Y118209D01*
X-14884Y117629D01*
X-14556Y117137D01*
Y116721D01*
X-14884Y116229D01*
X-14999Y115650D01*
X-14884Y115070D01*
X-14641Y114706D01*
X-14588Y114370D01*
X-14641Y114034D01*
X-14884Y113670D01*
X-14999Y113091D01*
X-14884Y112511D01*
X-14556Y112019D01*
Y111603D01*
X-14884Y111111D01*
X-14999Y110531D01*
X-14884Y109952D01*
X-14641Y109588D01*
X-14616Y109432D01*
X-14925Y108986D01*
X-16313D01*
X-19429Y112102D01*
Y113779D01*
X-19620Y114239D01*
X-20079Y114429D01*
X-23228D01*
X-23688Y114239D01*
X-23878Y113779D01*
Y112008D01*
X-23688Y111549D01*
X-23228Y111358D01*
X-21551D01*
X-18274Y108081D01*
X-18465Y107619D01*
X-21408D01*
X-21654Y107668D01*
X-26567D01*
X-26657Y107705D01*
X-26994Y108144D01*
X-27736Y108714D01*
X-28600Y109072D01*
X-29528Y109194D01*
X-36614D01*
X-37542Y109072D01*
X-38406Y108714D01*
X-39148Y108144D01*
X-39718Y107402D01*
X-40075Y106538D01*
X-40198Y105610D01*
X-40075Y104683D01*
X-39718Y103819D01*
X-39148Y103076D01*
X-38406Y102507D01*
X-37542Y102149D01*
X-36614Y102027D01*
X-29528D01*
X-28600Y102149D01*
X-27736Y102507D01*
X-26994Y103076D01*
X-26719Y103434D01*
X-23375D01*
X-23316Y103346D01*
Y102823D01*
X-19991D01*
Y103346D01*
X-19965Y103385D01*
X-16142D01*
X-15332Y103547D01*
X-14822Y103887D01*
X-12061D01*
X-11614Y103798D01*
X-11110Y103899D01*
X-9744D01*
X-9164Y104014D01*
X-8673Y104342D01*
X-8344Y104834D01*
X-8252Y105296D01*
X-8019Y105452D01*
X-7519Y105195D01*
Y101387D01*
X-7442Y101000D01*
X-7222Y100671D01*
X-4260Y97709D01*
X-3931Y97489D01*
X-3543Y97412D01*
X21234D01*
X21870Y96776D01*
X21806Y96457D01*
X21944Y95762D01*
X22338Y95173D01*
X22927Y94779D01*
X23622Y94641D01*
X24317Y94779D01*
X24906Y95173D01*
X25300Y95762D01*
X25438Y96457D01*
X25300Y97152D01*
X24906Y97741D01*
X24317Y98134D01*
X24137Y98170D01*
Y98680D01*
X24317Y98716D01*
X24906Y99110D01*
X25300Y99699D01*
X25438Y100394D01*
X25300Y101089D01*
X24906Y101678D01*
X24317Y102071D01*
X24137Y102107D01*
Y102617D01*
X24317Y102653D01*
X24906Y103047D01*
X25300Y103636D01*
X25438Y104331D01*
X25300Y105026D01*
X24906Y105615D01*
X24317Y106009D01*
X24137Y106044D01*
Y106554D01*
X24317Y106590D01*
X24906Y106984D01*
X25300Y107573D01*
X25438Y108268D01*
X25300Y108963D01*
X24906Y109552D01*
X24317Y109945D01*
X24137Y109981D01*
Y110491D01*
X24317Y110527D01*
X24906Y110921D01*
X25300Y111510D01*
X25438Y112205D01*
X25300Y112900D01*
X24906Y113489D01*
X24317Y113883D01*
X24137Y113918D01*
Y114428D01*
X24317Y114464D01*
X24906Y114858D01*
X25300Y115447D01*
X25438Y116142D01*
X25300Y116837D01*
X24906Y117426D01*
X24317Y117819D01*
X23622Y117958D01*
X23302Y117894D01*
X22272Y118925D01*
X21943Y119145D01*
X21555Y119222D01*
X14925D01*
X14616Y119668D01*
X14641Y119824D01*
X14884Y120188D01*
X14999Y120768D01*
X14884Y121347D01*
X14706Y121613D01*
X14974Y122113D01*
X19102D01*
X19103Y122113D01*
X19567Y122205D01*
X19961Y122469D01*
X30492Y133000D01*
X30755Y133394D01*
X30848Y133859D01*
X30848Y133859D01*
Y151860D01*
X32105Y153117D01*
X152359D01*
X166609Y138867D01*
Y119426D01*
X126404Y79220D01*
X125925Y79419D01*
X125049Y79534D01*
X124173Y79419D01*
X123357Y79080D01*
X122656Y78543D01*
X122118Y77842D01*
X121780Y77025D01*
X121664Y76149D01*
X121780Y75273D01*
X122118Y74457D01*
X122656Y73756D01*
X123357Y73218D01*
X124173Y72880D01*
X125049Y72764D01*
X125925Y72880D01*
X126742Y73218D01*
X127443Y73756D01*
X127980Y74457D01*
X128319Y75273D01*
X128434Y76149D01*
X128319Y77025D01*
X128120Y77504D01*
X168681Y118065D01*
X168945Y118458D01*
X169037Y118923D01*
X169037Y118923D01*
Y139370D01*
X169037Y139370D01*
X168945Y139835D01*
X168681Y140229D01*
X168681Y140229D01*
X153721Y155189D01*
X153327Y155452D01*
X152862Y155545D01*
X152862Y155545D01*
X146651D01*
X146522Y156045D01*
X146668Y156125D01*
X147304Y156738D01*
X147760Y157495D01*
X148005Y158344D01*
X148022Y159228D01*
X147809Y160086D01*
X147381Y160859D01*
X146768Y161495D01*
X146012Y161951D01*
X145162Y162196D01*
X144279Y162213D01*
X143421Y162000D01*
X142648Y161573D01*
X142012Y160959D01*
X141556Y160203D01*
X141311Y159353D01*
X141299Y158694D01*
X119159D01*
X119091Y159194D01*
X119842Y159402D01*
X120603Y159851D01*
X121223Y160481D01*
X121658Y161250D01*
X121879Y162106D01*
X121872Y162989D01*
X121636Y163841D01*
X121187Y164602D01*
X120557Y165221D01*
X119788Y165657D01*
X118932Y165878D01*
X118049Y165870D01*
X117197Y165634D01*
X116436Y165186D01*
X115817Y164556D01*
X115381Y163787D01*
X115160Y162931D01*
X115168Y162048D01*
X115313Y161524D01*
X114938Y161056D01*
X90207D01*
X90000Y161556D01*
X90859Y162416D01*
X91107Y162284D01*
X91969Y162087D01*
X92852Y162118D01*
X93696Y162378D01*
X94445Y162847D01*
X95047Y163494D01*
X95461Y164274D01*
X95659Y165135D01*
X95627Y166018D01*
X95368Y166863D01*
X94899Y167612D01*
X94252Y168214D01*
X93471Y168628D01*
X92610Y168826D01*
X91727Y168794D01*
X90882Y168535D01*
X90134Y168066D01*
X89531Y167419D01*
X89117Y166638D01*
X88920Y165777D01*
X88951Y164894D01*
X89175Y164165D01*
X88429Y163419D01*
X64063D01*
X63856Y163919D01*
X64560Y164622D01*
X64892Y164457D01*
X65759Y164283D01*
X66641Y164339D01*
X67478Y164621D01*
X68213Y165111D01*
X68798Y165774D01*
X69190Y166566D01*
X69364Y167432D01*
X69308Y168314D01*
X69026Y169151D01*
X68537Y169887D01*
X67874Y170471D01*
X67082Y170863D01*
X66216Y171037D01*
X65334Y170982D01*
X64496Y170699D01*
X63761Y170210D01*
X63177Y169547D01*
X62784Y168755D01*
X62610Y167889D01*
X62666Y167007D01*
X62879Y166375D01*
X62285Y165781D01*
X41576D01*
X41418Y166281D01*
X41929Y166641D01*
X42495Y167320D01*
X42865Y168122D01*
X43016Y168993D01*
X42936Y169873D01*
X42631Y170702D01*
X42122Y171424D01*
X41443Y171990D01*
X40641Y172361D01*
X39770Y172511D01*
X38890Y172431D01*
X38061Y172126D01*
X37339Y171617D01*
X36773Y170938D01*
X36573Y170505D01*
X27559D01*
X27559Y170505D01*
X27095Y170413D01*
X26701Y170150D01*
X26701Y170150D01*
X17068Y160517D01*
X16568Y160724D01*
Y167651D01*
X16568Y167651D01*
X16476Y168116D01*
X16279Y168410D01*
X16508Y168943D01*
X16635Y169818D01*
X16530Y170695D01*
X16203Y171516D01*
X15674Y172224D01*
X14980Y172771D01*
X14168Y173119D01*
X13294Y173246D01*
X12416Y173142D01*
X11595Y172814D01*
X10887Y172285D01*
X10341Y171591D01*
X9992Y170779D01*
X9865Y169905D01*
X9969Y169027D01*
X10297Y168207D01*
X10826Y167499D01*
X11520Y166952D01*
X12332Y166603D01*
X13206Y166477D01*
X13641Y166528D01*
X14141Y166084D01*
Y140575D01*
X13641Y140165D01*
X13484Y140196D01*
X9744D01*
X9164Y140081D01*
X8673Y139752D01*
X8344Y139261D01*
X8229Y138681D01*
X8344Y138101D01*
X8673Y137610D01*
Y137193D01*
X8344Y136702D01*
X8229Y136122D01*
X8344Y135542D01*
X8587Y135178D01*
X8640Y134843D01*
X8587Y134506D01*
X8344Y134143D01*
X8229Y133563D01*
X8344Y132983D01*
X8673Y132492D01*
Y132075D01*
X8344Y131584D01*
X8229Y131004D01*
X8344Y130424D01*
X8587Y130060D01*
X8640Y129724D01*
X8587Y129388D01*
X8344Y129025D01*
X8229Y128445D01*
X8344Y127865D01*
X8673Y127374D01*
Y126957D01*
X8344Y126466D01*
X8229Y125886D01*
X8344Y125306D01*
X8587Y124942D01*
X8640Y124606D01*
X8587Y124270D01*
X8344Y123907D01*
X8229Y123327D01*
X8344Y122747D01*
X8673Y122256D01*
Y121839D01*
X8344Y121347D01*
X8229Y120768D01*
X8344Y120188D01*
X8587Y119824D01*
X8640Y119488D01*
X8587Y119152D01*
X8344Y118788D01*
X8229Y118209D01*
X8344Y117629D01*
X8673Y117137D01*
Y116721D01*
X8344Y116229D01*
X8229Y115650D01*
X8344Y115070D01*
X8587Y114706D01*
X8640Y114370D01*
X8587Y114034D01*
X8344Y113670D01*
X8229Y113091D01*
X8344Y112511D01*
X8673Y112019D01*
Y111603D01*
X8344Y111111D01*
X8229Y110531D01*
X8344Y109952D01*
X8587Y109588D01*
X8640Y109252D01*
X8587Y108916D01*
X8344Y108552D01*
X8229Y107972D01*
X8344Y107393D01*
X8673Y106901D01*
X8595Y106352D01*
X8353Y105989D01*
X8338Y105913D01*
X11614D01*
X14890D01*
X14875Y105989D01*
X14633Y106352D01*
X14611Y106508D01*
X14927Y106959D01*
X15624D01*
X21870Y100713D01*
X21806Y100394D01*
X21905Y99898D01*
X21789Y99687D01*
X21612Y99492D01*
X21525Y99438D01*
X-3124D01*
X-5492Y101807D01*
Y102756D01*
X-5512D01*
Y112365D01*
X-5608Y112301D01*
X-5761Y112072D01*
X-6259Y112022D01*
X-8043Y113807D01*
X-8372Y114027D01*
X-8547Y114061D01*
X-8654Y114283D01*
X-8587Y114706D01*
X-8344Y115070D01*
X-8229Y115650D01*
X-8344Y116229D01*
X-8673Y116721D01*
Y117137D01*
X-8344Y117629D01*
X-8229Y118209D01*
X-8344Y118788D01*
X-8587Y119152D01*
X-8640Y119488D01*
X-8587Y119824D01*
X-8344Y120188D01*
X-8229Y120768D01*
X-8344Y121347D01*
X-8673Y121839D01*
Y122256D01*
X-8344Y122747D01*
X-8229Y123327D01*
X-8344Y123907D01*
X-8587Y124270D01*
X-8640Y124606D01*
X-8587Y124942D01*
X-8344Y125306D01*
X-8229Y125886D01*
X-8344Y126466D01*
X-8673Y126957D01*
Y127374D01*
X-8344Y127865D01*
X-8229Y128445D01*
X-8344Y129025D01*
X-8587Y129388D01*
X-8640Y129724D01*
X-8587Y130060D01*
X-8344Y130424D01*
X-8229Y131004D01*
X-8344Y131584D01*
X-8673Y132075D01*
Y132492D01*
X-8344Y132983D01*
X-8229Y133563D01*
X-8344Y134143D01*
X-8587Y134506D01*
X-8640Y134843D01*
X-8587Y135178D01*
X-8344Y135542D01*
X-8229Y136122D01*
X-8344Y136702D01*
X-8673Y137193D01*
Y137610D01*
X-8344Y138101D01*
X-8229Y138681D01*
X-8344Y139261D01*
X-8673Y139752D01*
X-9164Y140081D01*
X-9744Y140196D01*
X-13484D01*
X-13641Y140165D01*
X-14141Y140575D01*
Y166144D01*
X-13641Y166541D01*
X-13095Y166477D01*
X-12221Y166605D01*
X-11410Y166955D01*
X-10716Y167503D01*
X-10189Y168211D01*
X-9862Y169033D01*
X-9760Y169910D01*
X-9888Y170784D01*
X-10238Y171596D01*
X-10785Y172289D01*
X-11494Y172817D01*
X-12315Y173143D01*
X-13193Y173246D01*
D02*
G37*
G36*
X5512Y139924D02*
Y139083D01*
X6038D01*
X6000Y139274D01*
X5608Y139860D01*
X5512Y139924D01*
D02*
G37*
G36*
X145770Y172101D02*
X144912Y171888D01*
X144139Y171461D01*
X143502Y170848D01*
X143046Y170091D01*
X142801Y169242D01*
X142785Y168358D01*
X142998Y167501D01*
X143425Y166727D01*
X144038Y166091D01*
X144795Y165635D01*
X145644Y165390D01*
X146528Y165374D01*
X147385Y165586D01*
X148159Y166014D01*
X148795Y166627D01*
X149251Y167384D01*
X149496Y168233D01*
X149512Y169116D01*
X149299Y169974D01*
X148872Y170747D01*
X148259Y171384D01*
X147502Y171840D01*
X146653Y172084D01*
X145770Y172101D01*
D02*
G37*
G36*
X117483Y133358D02*
X114673D01*
Y130549D01*
X115047Y130598D01*
X115861Y130935D01*
X116560Y131472D01*
X117096Y132171D01*
X117434Y132985D01*
X117483Y133358D01*
D02*
G37*
G36*
X-145651Y172102D02*
X-146535Y172087D01*
X-147385Y171845D01*
X-148143Y171390D01*
X-148757Y170756D01*
X-149187Y169983D01*
X-149401Y169126D01*
X-149387Y168243D01*
X-149144Y167393D01*
X-148690Y166635D01*
X-148055Y166021D01*
X-147283Y165591D01*
X-146426Y165376D01*
X-145542Y165391D01*
X-144692Y165633D01*
X-143935Y166088D01*
X-143320Y166723D01*
X-142891Y167495D01*
X-142676Y168352D01*
X-142690Y169236D01*
X-142933Y170085D01*
X-143387Y170843D01*
X-144022Y171458D01*
X-144794Y171887D01*
X-145651Y172102D01*
D02*
G37*
G36*
X5512Y134412D02*
Y133571D01*
X6038D01*
X6000Y133762D01*
X5608Y134348D01*
X5512Y134412D01*
D02*
G37*
G36*
X106799Y137168D02*
Y134358D01*
X109609D01*
X109560Y134732D01*
X109222Y135546D01*
X108686Y136245D01*
X107987Y136781D01*
X107173Y137119D01*
X106799Y137168D01*
D02*
G37*
G36*
X90051D02*
X89678Y137119D01*
X88863Y136781D01*
X88165Y136245D01*
X87628Y135546D01*
X87291Y134732D01*
X87242Y134358D01*
X90051D01*
Y137168D01*
D02*
G37*
G36*
X-90051D02*
Y134358D01*
X-87242D01*
X-87291Y134732D01*
X-87628Y135546D01*
X-88164Y136245D01*
X-88863Y136781D01*
X-89678Y137119D01*
X-90051Y137168D01*
D02*
G37*
G36*
X-105799D02*
Y134358D01*
X-102990D01*
X-103039Y134732D01*
X-103376Y135546D01*
X-103912Y136245D01*
X-104612Y136781D01*
X-105426Y137119D01*
X-105799Y137168D01*
D02*
G37*
G36*
X-97925D02*
Y134358D01*
X-95116D01*
X-95165Y134732D01*
X-95502Y135546D01*
X-96039Y136245D01*
X-96737Y136781D01*
X-97552Y137119D01*
X-97925Y137168D01*
D02*
G37*
G36*
X113673D02*
X113300Y137119D01*
X112486Y136781D01*
X111786Y136245D01*
X111250Y135546D01*
X110913Y134732D01*
X110864Y134358D01*
X113673D01*
Y137168D01*
D02*
G37*
G36*
X6038Y138083D02*
X5512D01*
Y137241D01*
X5608Y137305D01*
X6000Y137891D01*
X6038Y138083D01*
D02*
G37*
G36*
X-5512Y139924D02*
X-5608Y139860D01*
X-6000Y139274D01*
X-6038Y139083D01*
X-5512D01*
Y139924D01*
D02*
G37*
G36*
Y138083D02*
X-6038D01*
X-6000Y137891D01*
X-5608Y137305D01*
X-5512Y137241D01*
Y138083D01*
D02*
G37*
G36*
X91051Y137168D02*
Y134358D01*
X93861D01*
X93812Y134732D01*
X93474Y135546D01*
X92938Y136245D01*
X92239Y136781D01*
X91425Y137119D01*
X91051Y137168D01*
D02*
G37*
G36*
X114673D02*
Y134358D01*
X117483D01*
X117434Y134732D01*
X117096Y135546D01*
X116560Y136245D01*
X115861Y136781D01*
X115047Y137119D01*
X114673Y137168D01*
D02*
G37*
G36*
X-113673Y137168D02*
Y134358D01*
X-110864D01*
X-110913Y134732D01*
X-111250Y135546D01*
X-111786Y136245D01*
X-112486Y136781D01*
X-113300Y137119D01*
X-113673Y137168D01*
D02*
G37*
G36*
X122547D02*
Y134358D01*
X125357D01*
X125308Y134732D01*
X124970Y135546D01*
X124434Y136245D01*
X123735Y136781D01*
X122921Y137119D01*
X122547Y137168D01*
D02*
G37*
G36*
X-122547D02*
X-122921Y137119D01*
X-123735Y136781D01*
X-124434Y136245D01*
X-124970Y135546D01*
X-125308Y134732D01*
X-125357Y134358D01*
X-122547D01*
Y137168D01*
D02*
G37*
G36*
X98925D02*
Y134358D01*
X101735D01*
X101686Y134732D01*
X101348Y135546D01*
X100812Y136245D01*
X100113Y136781D01*
X99299Y137119D01*
X98925Y137168D01*
D02*
G37*
G36*
X97925Y137168D02*
X97552Y137119D01*
X96737Y136781D01*
X96039Y136245D01*
X95502Y135546D01*
X95165Y134732D01*
X95116Y134358D01*
X97925D01*
Y137168D01*
D02*
G37*
G36*
X121547D02*
X121174Y137119D01*
X120360Y136781D01*
X119660Y136245D01*
X119124Y135546D01*
X118787Y134732D01*
X118738Y134358D01*
X121547D01*
Y137168D01*
D02*
G37*
G36*
X-114673Y137168D02*
X-115047Y137119D01*
X-115861Y136781D01*
X-116560Y136245D01*
X-117096Y135546D01*
X-117434Y134732D01*
X-117483Y134358D01*
X-114673D01*
Y137168D01*
D02*
G37*
G36*
X105799D02*
X105426Y137119D01*
X104612Y136781D01*
X103912Y136245D01*
X103376Y135546D01*
X103039Y134732D01*
X102990Y134358D01*
X105799D01*
Y137168D01*
D02*
G37*
G36*
X-121547D02*
Y134358D01*
X-118738D01*
X-118787Y134732D01*
X-119124Y135546D01*
X-119660Y136245D01*
X-120360Y136781D01*
X-121174Y137119D01*
X-121547Y137168D01*
D02*
G37*
G36*
X-91051D02*
X-91425Y137119D01*
X-92239Y136781D01*
X-92938Y136245D01*
X-93474Y135546D01*
X-93812Y134732D01*
X-93861Y134358D01*
X-91051D01*
Y137168D01*
D02*
G37*
G36*
X-106799D02*
X-107173Y137119D01*
X-107987Y136781D01*
X-108686Y136245D01*
X-109222Y135546D01*
X-109560Y134732D01*
X-109609Y134358D01*
X-106799D01*
Y137168D01*
D02*
G37*
G36*
X-98925D02*
X-99299Y137119D01*
X-100113Y136781D01*
X-100812Y136245D01*
X-101348Y135546D01*
X-101686Y134732D01*
X-101735Y134358D01*
X-98925D01*
Y137168D01*
D02*
G37*
G36*
X151261Y140801D02*
Y128901D01*
X163161D01*
X163047Y130347D01*
X162592Y132245D01*
X161845Y134048D01*
X160825Y135713D01*
X159557Y137197D01*
X158073Y138465D01*
X156408Y139485D01*
X154605Y140232D01*
X152707Y140687D01*
X151261Y140801D01*
D02*
G37*
G36*
X-22153Y120127D02*
X-23228D01*
X-23680Y119940D01*
X-23867Y119488D01*
Y119102D01*
X-22153D01*
Y120127D01*
D02*
G37*
G36*
X-122047Y121495D02*
X-122923Y121380D01*
X-123740Y121042D01*
X-124441Y120504D01*
X-124979Y119803D01*
X-125317Y118986D01*
X-125432Y118110D01*
X-125317Y117234D01*
X-124979Y116418D01*
X-124441Y115717D01*
X-123740Y115179D01*
X-122923Y114841D01*
X-122047Y114725D01*
X-121171Y114841D01*
X-120355Y115179D01*
X-119654Y115717D01*
X-119116Y116418D01*
X-118778Y117234D01*
X-118662Y118110D01*
X-118778Y118986D01*
X-119116Y119803D01*
X-119654Y120504D01*
X-120355Y121042D01*
X-121171Y121380D01*
X-122047Y121495D01*
D02*
G37*
G36*
X-19440Y118102D02*
X-21154D01*
Y117077D01*
X-20079D01*
X-19627Y117265D01*
X-19440Y117717D01*
Y118102D01*
D02*
G37*
G36*
X49319Y119051D02*
Y117035D01*
X51334D01*
X51312Y117203D01*
X51054Y117826D01*
X50644Y118361D01*
X50109Y118771D01*
X49487Y119029D01*
X49319Y119051D01*
D02*
G37*
G36*
X-22153Y118102D02*
X-23867D01*
Y117717D01*
X-23680Y117265D01*
X-23228Y117077D01*
X-22153D01*
Y118102D01*
D02*
G37*
G36*
X48319Y116035D02*
X46304D01*
X46326Y115867D01*
X46584Y115245D01*
X46994Y114710D01*
X47528Y114300D01*
X48151Y114042D01*
X48319Y114020D01*
Y116035D01*
D02*
G37*
G36*
X6038Y121547D02*
X5512D01*
Y120706D01*
X5608Y120770D01*
X6000Y121356D01*
X6038Y121547D01*
D02*
G37*
G36*
X-5512D02*
X-6038D01*
X-6000Y121356D01*
X-5608Y120770D01*
X-5512Y120706D01*
Y121547D01*
D02*
G37*
G36*
X-20079Y120127D02*
X-21154D01*
Y119102D01*
X-19440D01*
Y119488D01*
X-19627Y119940D01*
X-20079Y120127D01*
D02*
G37*
G36*
X51334Y116035D02*
X49319D01*
Y114020D01*
X49487Y114042D01*
X50109Y114300D01*
X50644Y114710D01*
X51054Y115245D01*
X51312Y115867D01*
X51334Y116035D01*
D02*
G37*
G36*
X-138843Y127901D02*
X-150743D01*
Y116000D01*
X-149297Y116114D01*
X-147399Y116569D01*
X-145596Y117316D01*
X-143931Y118336D01*
X-142447Y119604D01*
X-141179Y121089D01*
X-140159Y122753D01*
X-139412Y124556D01*
X-138957Y126454D01*
X-138843Y127901D01*
D02*
G37*
G36*
X150261D02*
X138360D01*
X138474Y126454D01*
X138930Y124556D01*
X139677Y122753D01*
X140697Y121089D01*
X141964Y119604D01*
X143449Y118336D01*
X145113Y117316D01*
X146916Y116569D01*
X148815Y116114D01*
X150261Y116000D01*
Y127901D01*
D02*
G37*
G36*
X-151743D02*
X-163644D01*
X-163530Y126454D01*
X-163075Y124556D01*
X-162328Y122753D01*
X-161308Y121089D01*
X-160040Y119604D01*
X-158555Y118336D01*
X-156891Y117316D01*
X-155088Y116569D01*
X-153190Y116114D01*
X-151743Y116000D01*
Y127901D01*
D02*
G37*
G36*
X-5512Y116035D02*
X-6038D01*
X-6000Y115844D01*
X-5608Y115258D01*
X-5512Y115194D01*
Y116035D01*
D02*
G37*
G36*
X6038D02*
X5512D01*
Y115194D01*
X5608Y115258D01*
X6000Y115844D01*
X6038Y116035D01*
D02*
G37*
G36*
X48319Y119051D02*
X48151Y119029D01*
X47528Y118771D01*
X46994Y118361D01*
X46584Y117826D01*
X46326Y117203D01*
X46304Y117035D01*
X48319D01*
Y119051D01*
D02*
G37*
G36*
X122047Y121495D02*
X121171Y121380D01*
X120355Y121042D01*
X119654Y120504D01*
X119116Y119803D01*
X118778Y118986D01*
X118662Y118110D01*
X118778Y117234D01*
X119116Y116418D01*
X119654Y115717D01*
X120355Y115179D01*
X121171Y114841D01*
X122047Y114725D01*
X122923Y114841D01*
X123740Y115179D01*
X124441Y115717D01*
X124979Y116418D01*
X125317Y117234D01*
X125432Y118110D01*
X125317Y118986D01*
X124979Y119803D01*
X124441Y120504D01*
X123740Y121042D01*
X122923Y121380D01*
X122047Y121495D01*
D02*
G37*
G36*
X5512Y117877D02*
Y117035D01*
X6038D01*
X6000Y117227D01*
X5608Y117813D01*
X5512Y117877D01*
D02*
G37*
G36*
X163161Y127901D02*
X151261D01*
Y116000D01*
X152707Y116114D01*
X154605Y116569D01*
X156408Y117316D01*
X158073Y118336D01*
X159557Y119604D01*
X160825Y121089D01*
X161845Y122753D01*
X162592Y124556D01*
X163047Y126454D01*
X163161Y127901D01*
D02*
G37*
G36*
X-5512Y117877D02*
X-5608Y117813D01*
X-6000Y117227D01*
X-6038Y117035D01*
X-5512D01*
Y117877D01*
D02*
G37*
G36*
X5512Y112365D02*
Y111524D01*
X6038D01*
X6000Y111715D01*
X5608Y112301D01*
X5512Y112365D01*
D02*
G37*
G36*
X-150743Y140801D02*
Y128901D01*
X-138843D01*
X-138957Y130347D01*
X-139412Y132245D01*
X-140159Y134048D01*
X-141179Y135713D01*
X-142447Y137197D01*
X-143931Y138465D01*
X-145596Y139485D01*
X-147399Y140232D01*
X-149297Y140687D01*
X-150743Y140801D01*
D02*
G37*
G36*
X150261D02*
X148815Y140687D01*
X146916Y140232D01*
X145113Y139485D01*
X143449Y138465D01*
X141964Y137197D01*
X140697Y135713D01*
X139677Y134048D01*
X138930Y132245D01*
X138474Y130347D01*
X138360Y128901D01*
X150261D01*
Y140801D01*
D02*
G37*
G36*
X40172Y182503D02*
X39292Y182423D01*
X38463Y182118D01*
X37741Y181609D01*
X37175Y180930D01*
X36804Y180128D01*
X36654Y179257D01*
X36734Y178377D01*
X37039Y177548D01*
X37548Y176826D01*
X38227Y176260D01*
X39029Y175889D01*
X39900Y175739D01*
X40780Y175819D01*
X41609Y176124D01*
X42331Y176633D01*
X42897Y177312D01*
X43268Y178114D01*
X43418Y178985D01*
X43338Y179865D01*
X43033Y180694D01*
X42524Y181416D01*
X41845Y181982D01*
X41043Y182353D01*
X40172Y182503D01*
D02*
G37*
G36*
X-151743Y140801D02*
X-153190Y140687D01*
X-155088Y140232D01*
X-156891Y139485D01*
X-158555Y138465D01*
X-160040Y137197D01*
X-161308Y135713D01*
X-162328Y134048D01*
X-163075Y132245D01*
X-163530Y130347D01*
X-163644Y128901D01*
X-151743D01*
Y140801D01*
D02*
G37*
G36*
X-13337Y183245D02*
X-14212Y183117D01*
X-15023Y182767D01*
X-15716Y182219D01*
X-16244Y181510D01*
X-16570Y180689D01*
X-16673Y179812D01*
X-16545Y178937D01*
X-16195Y178126D01*
X-15647Y177433D01*
X-14938Y176905D01*
X-14117Y176578D01*
X-13240Y176476D01*
X-12365Y176604D01*
X-11554Y176954D01*
X-10861Y177502D01*
X-10333Y178210D01*
X-10007Y179032D01*
X-9904Y179909D01*
X-10032Y180783D01*
X-10382Y181595D01*
X-10930Y182288D01*
X-11639Y182816D01*
X-12460Y183142D01*
X-13337Y183245D01*
D02*
G37*
G36*
X-66806Y181014D02*
X-67672Y180838D01*
X-68463Y180445D01*
X-69125Y179859D01*
X-69613Y179123D01*
X-69894Y178285D01*
X-69949Y177403D01*
X-69773Y176537D01*
X-69380Y175746D01*
X-68795Y175084D01*
X-68058Y174596D01*
X-67220Y174315D01*
X-66338Y174260D01*
X-65472Y174436D01*
X-64681Y174829D01*
X-64019Y175415D01*
X-63531Y176151D01*
X-63250Y176989D01*
X-63195Y177871D01*
X-63371Y178737D01*
X-63765Y179528D01*
X-64350Y180190D01*
X-65086Y180678D01*
X-65924Y180959D01*
X-66806Y181014D01*
D02*
G37*
G36*
X93558Y178781D02*
X92675Y178749D01*
X91830Y178490D01*
X91081Y178021D01*
X90479Y177374D01*
X90065Y176593D01*
X89867Y175732D01*
X89899Y174849D01*
X90158Y174004D01*
X90627Y173255D01*
X91274Y172653D01*
X92055Y172239D01*
X92916Y172041D01*
X93799Y172073D01*
X94644Y172333D01*
X95393Y172802D01*
X95995Y173449D01*
X96409Y174229D01*
X96607Y175090D01*
X96575Y175973D01*
X96316Y176818D01*
X95847Y177567D01*
X95200Y178169D01*
X94419Y178583D01*
X93558Y178781D01*
D02*
G37*
G36*
X66891Y181015D02*
X66009Y180959D01*
X65172Y180676D01*
X64436Y180187D01*
X63852Y179524D01*
X63459Y178732D01*
X63285Y177866D01*
X63341Y176984D01*
X63623Y176147D01*
X64113Y175411D01*
X64776Y174827D01*
X65568Y174435D01*
X66434Y174260D01*
X67316Y174316D01*
X68153Y174599D01*
X68889Y175088D01*
X69473Y175751D01*
X69865Y176543D01*
X70039Y177409D01*
X69984Y178291D01*
X69701Y179128D01*
X69212Y179864D01*
X68549Y180448D01*
X67757Y180840D01*
X66891Y181015D01*
D02*
G37*
G36*
X5512Y106853D02*
Y106012D01*
X6038D01*
X6000Y106203D01*
X5608Y106789D01*
X5512Y106853D01*
D02*
G37*
G36*
X-40087Y182503D02*
X-40958Y182351D01*
X-41759Y181979D01*
X-42437Y181412D01*
X-42945Y180689D01*
X-43249Y179859D01*
X-43328Y178979D01*
X-43176Y178109D01*
X-42804Y177307D01*
X-42237Y176629D01*
X-41514Y176121D01*
X-40685Y175817D01*
X-39804Y175739D01*
X-38934Y175891D01*
X-38132Y176263D01*
X-37454Y176829D01*
X-36946Y177552D01*
X-36643Y178382D01*
X-36564Y179262D01*
X-36716Y180133D01*
X-37088Y180934D01*
X-37654Y181612D01*
X-38377Y182120D01*
X-39207Y182424D01*
X-40087Y182503D01*
D02*
G37*
G36*
X13422Y183245D02*
X12545Y183141D01*
X11724Y182813D01*
X11016Y182285D01*
X10470Y181590D01*
X10121Y180779D01*
X9994Y179904D01*
X10098Y179027D01*
X10426Y178206D01*
X10955Y177498D01*
X11649Y176951D01*
X12461Y176602D01*
X13335Y176476D01*
X14213Y176580D01*
X15033Y176908D01*
X15741Y177436D01*
X16288Y178130D01*
X16637Y178942D01*
X16763Y179817D01*
X16659Y180694D01*
X16332Y181515D01*
X15803Y182223D01*
X15109Y182770D01*
X14297Y183118D01*
X13422Y183245D01*
D02*
G37*
G36*
X-5512Y127059D02*
X-6038D01*
X-6000Y126868D01*
X-5608Y126282D01*
X-5512Y126217D01*
Y127059D01*
D02*
G37*
G36*
X6038Y110524D02*
X5512D01*
Y109682D01*
X5608Y109746D01*
X6000Y110332D01*
X6038Y110524D01*
D02*
G37*
G36*
X-5512Y123389D02*
X-5608Y123325D01*
X-6000Y122739D01*
X-6038Y122547D01*
X-5512D01*
Y123389D01*
D02*
G37*
G36*
X5512D02*
Y122547D01*
X6038D01*
X6000Y122739D01*
X5608Y123325D01*
X5512Y123389D01*
D02*
G37*
G36*
X51870Y112253D02*
X50795D01*
Y109555D01*
X52509D01*
Y111614D01*
X52322Y112066D01*
X51870Y112253D01*
D02*
G37*
G36*
X49795D02*
X48720D01*
X48268Y112066D01*
X48081Y111614D01*
Y109555D01*
X49795D01*
Y112253D01*
D02*
G37*
G36*
X5512Y128901D02*
Y128059D01*
X6038D01*
X6000Y128250D01*
X5608Y128836D01*
X5512Y128901D01*
D02*
G37*
G36*
X6038Y127059D02*
X5512D01*
Y126217D01*
X5608Y126282D01*
X6000Y126868D01*
X6038Y127059D01*
D02*
G37*
G36*
X-5512Y128901D02*
X-5608Y128836D01*
X-6000Y128250D01*
X-6038Y128059D01*
X-5512D01*
Y128901D01*
D02*
G37*
%LPD*%
G36*
X-16761Y66509D02*
Y53569D01*
X-17531Y52799D01*
X-18009Y52892D01*
X-18190Y53334D01*
X-18022Y53740D01*
Y54264D01*
X-21348D01*
Y53740D01*
X-21161Y53288D01*
X-21263Y52789D01*
X-21358Y52559D01*
Y50512D01*
X-21168Y50053D01*
X-20709Y49862D01*
X-20698D01*
Y48709D01*
X-20969Y48528D01*
X-21363Y47939D01*
X-21498Y47260D01*
X-21568Y47212D01*
X-21967Y47021D01*
X-30173Y55228D01*
X-30212Y55803D01*
X-29818Y56392D01*
X-29680Y57087D01*
X-29818Y57782D01*
X-30212Y58371D01*
X-30483Y58552D01*
Y62572D01*
X-26129Y66926D01*
X-25635Y66596D01*
X-24902Y66450D01*
X-20965D01*
X-20231Y66596D01*
X-19610Y67011D01*
X-19194Y67633D01*
X-19094Y68135D01*
X-18567Y68315D01*
X-16761Y66509D01*
D02*
G37*
G36*
X-12824D02*
Y58552D01*
X-13095Y58371D01*
X-13489Y57782D01*
X-13627Y57087D01*
X-13489Y56392D01*
X-13095Y55803D01*
X-12824Y55621D01*
Y51601D01*
X-17403Y47021D01*
X-17802Y47212D01*
X-17872Y47260D01*
X-18007Y47939D01*
X-18401Y48528D01*
X-18672Y48709D01*
Y49862D01*
X-18661D01*
X-18202Y50053D01*
X-18012Y50512D01*
Y50522D01*
X-17362D01*
X-16974Y50599D01*
X-16646Y50819D01*
X-15032Y52433D01*
X-14812Y52762D01*
X-14735Y53150D01*
Y66929D01*
X-14812Y67317D01*
X-15032Y67646D01*
X-18969Y71583D01*
X-19194Y71733D01*
X-19251Y71853D01*
X-19089Y72163D01*
X-18579Y72264D01*
X-12824Y66509D01*
D02*
G37*
%LPC*%
G36*
X-20965Y65273D02*
X-22433D01*
Y63866D01*
X-19157D01*
X-19203Y64096D01*
X-19616Y64714D01*
X-20235Y65128D01*
X-20965Y65273D01*
D02*
G37*
G36*
X-23433D02*
X-24902D01*
X-25631Y65128D01*
X-26250Y64714D01*
X-26663Y64096D01*
X-26709Y63866D01*
X-23433D01*
Y65273D01*
D02*
G37*
G36*
X-20185Y56427D02*
X-20709D01*
X-21161Y56239D01*
X-21348Y55787D01*
Y55264D01*
X-20185D01*
Y56427D01*
D02*
G37*
G36*
X-18661D02*
X-19185D01*
Y55264D01*
X-18022D01*
Y55787D01*
X-18209Y56239D01*
X-18661Y56427D01*
D02*
G37*
G36*
X-26091Y56980D02*
X-28106D01*
X-28084Y56812D01*
X-27826Y56190D01*
X-27416Y55655D01*
X-26881Y55245D01*
X-26259Y54987D01*
X-26091Y54965D01*
Y56980D01*
D02*
G37*
G36*
X-23075D02*
X-25091D01*
Y54965D01*
X-24923Y54987D01*
X-24300Y55245D01*
X-23765Y55655D01*
X-23355Y56190D01*
X-23097Y56812D01*
X-23075Y56980D01*
D02*
G37*
G36*
X-23433Y62866D02*
X-26709D01*
X-26663Y62637D01*
X-26250Y62018D01*
X-25631Y61605D01*
X-24902Y61459D01*
X-23433D01*
Y62866D01*
D02*
G37*
G36*
X-19157D02*
X-22433D01*
Y61459D01*
X-20965D01*
X-20235Y61605D01*
X-19616Y62018D01*
X-19203Y62637D01*
X-19157Y62866D01*
D02*
G37*
G36*
X-26091Y59996D02*
X-26259Y59974D01*
X-26881Y59716D01*
X-27416Y59305D01*
X-27826Y58771D01*
X-28084Y58148D01*
X-28106Y57980D01*
X-26091D01*
Y59996D01*
D02*
G37*
G36*
X-25091D02*
Y57980D01*
X-23075D01*
X-23097Y58148D01*
X-23355Y58771D01*
X-23765Y59305D01*
X-24300Y59716D01*
X-24923Y59974D01*
X-25091Y59996D01*
D02*
G37*
%LPD*%
G36*
X100168Y74777D02*
Y53963D01*
X72415Y26210D01*
X63389D01*
X63182Y26710D01*
X70008Y33536D01*
X70227Y33864D01*
X70305Y34252D01*
Y44346D01*
X70227Y44734D01*
X70008Y45063D01*
X60416Y54655D01*
X60491Y54837D01*
X60690Y54897D01*
X61072Y54934D01*
X61548Y54616D01*
X62205Y54485D01*
X62861Y54616D01*
X63418Y54988D01*
X63790Y55544D01*
X63920Y56201D01*
Y59941D01*
X63790Y60597D01*
X63418Y61154D01*
X62930Y61480D01*
X62975Y61830D01*
X63027Y61971D01*
X63687Y62102D01*
X64276Y62495D01*
X64279Y62499D01*
X64830Y62566D01*
X65387Y62195D01*
X66043Y62064D01*
X69784D01*
X70440Y62195D01*
X70997Y62566D01*
X71368Y63123D01*
X71499Y63779D01*
X71406Y64250D01*
X71866Y64496D01*
X75758Y60604D01*
X75787Y60461D01*
X76006Y60132D01*
X77067Y59071D01*
Y58031D01*
X77257Y57572D01*
X77716Y57382D01*
X79764D01*
X80223Y57572D01*
X80413Y58031D01*
Y58042D01*
X85177D01*
Y55630D01*
X85368Y55171D01*
X85827Y54980D01*
X95276D01*
X95735Y55171D01*
X95925Y55630D01*
Y62520D01*
X95735Y62979D01*
X95276Y63169D01*
X85827D01*
X85368Y62979D01*
X85177Y62520D01*
Y60068D01*
X80413D01*
Y60079D01*
X80318Y60309D01*
X80216Y60808D01*
X80403Y61260D01*
Y61783D01*
X78740D01*
Y62283D01*
X78240D01*
Y63946D01*
X77716D01*
X77265Y63759D01*
X77077Y63307D01*
Y62804D01*
X76615Y62613D01*
X71583Y67646D01*
X71254Y67865D01*
X71171Y67882D01*
X70997Y68142D01*
X70889Y68214D01*
X70858Y68719D01*
X71200Y69066D01*
X73792D01*
X74179Y69143D01*
X74508Y69362D01*
X76615Y71470D01*
X77077Y71278D01*
Y70551D01*
X77265Y70099D01*
X77716Y69912D01*
X78240D01*
Y71575D01*
X78740D01*
Y72075D01*
X80403D01*
Y72598D01*
X80216Y73050D01*
X80318Y73549D01*
X80413Y73779D01*
Y73790D01*
X85177D01*
Y71339D01*
X85368Y70879D01*
X85827Y70689D01*
X95276D01*
X95735Y70879D01*
X95925Y71339D01*
Y78228D01*
X95865Y78373D01*
X96289Y78656D01*
X100168Y74777D01*
D02*
G37*
G36*
X18969Y81961D02*
X19297Y81741D01*
X19685Y81664D01*
X28030D01*
X28168Y81367D01*
X28216Y81164D01*
X27850Y80616D01*
X27712Y79921D01*
X27850Y79226D01*
X28243Y78637D01*
X28833Y78243D01*
X29528Y78105D01*
X30222Y78243D01*
X30628Y78514D01*
X31232D01*
X31366Y78314D01*
X31533Y78203D01*
Y77703D01*
X31366Y77591D01*
X30994Y77034D01*
X30863Y76378D01*
X30994Y75721D01*
X31366Y75165D01*
X31473Y75093D01*
X31504Y74588D01*
X31162Y74242D01*
X25616D01*
X14901Y84957D01*
X15093Y85462D01*
X15426Y85503D01*
X18969Y81961D01*
D02*
G37*
G36*
X95703Y79242D02*
X95420Y78818D01*
X95276Y78878D01*
X85827D01*
X85368Y78688D01*
X85177Y78228D01*
Y75816D01*
X80413D01*
Y75827D01*
X80223Y76286D01*
X79764Y76476D01*
X77716D01*
X77257Y76286D01*
X77067Y75827D01*
Y74787D01*
X73372Y71092D01*
X71130D01*
X70997Y71292D01*
X70829Y71403D01*
Y71904D01*
X70997Y72015D01*
X71368Y72572D01*
X71499Y73228D01*
X71368Y73885D01*
X70997Y74441D01*
X70889Y74513D01*
X70858Y75018D01*
X71200Y75365D01*
X73228D01*
X73616Y75442D01*
X73945Y75661D01*
X79160Y80877D01*
X79528D01*
X79915Y80954D01*
X80244Y81173D01*
X80341Y81270D01*
X93675D01*
X95703Y79242D01*
D02*
G37*
G36*
X36544Y88007D02*
X36337Y87580D01*
X36302Y87542D01*
X32579D01*
X31922Y87412D01*
X31366Y87040D01*
X31232Y86840D01*
X20892D01*
X18694Y89038D01*
X18901Y89538D01*
X35013D01*
X36544Y88007D01*
D02*
G37*
G36*
X-108618Y128435D02*
X-108693Y128378D01*
X-109231Y127677D01*
X-109569Y126860D01*
X-109684Y125984D01*
X-109569Y125108D01*
X-109231Y124292D01*
X-108693Y123591D01*
X-107992Y123053D01*
X-107175Y122715D01*
X-106299Y122599D01*
X-105423Y122715D01*
X-104744Y122996D01*
X-101371Y119623D01*
X-101578Y119123D01*
X-105879D01*
X-111185Y124429D01*
X-110904Y125108D01*
X-110788Y125984D01*
X-110904Y126860D01*
X-111242Y127677D01*
X-111780Y128378D01*
X-111854Y128435D01*
X-111693Y128908D01*
X-108779D01*
X-108618Y128435D01*
D02*
G37*
%LPC*%
G36*
X82177Y66429D02*
X80162D01*
X80184Y66261D01*
X80442Y65639D01*
X80852Y65104D01*
X81387Y64694D01*
X82009Y64436D01*
X82177Y64414D01*
Y66429D01*
D02*
G37*
G36*
X79764Y63946D02*
X79240D01*
Y62783D01*
X80403D01*
Y63307D01*
X80216Y63759D01*
X79764Y63946D01*
D02*
G37*
G36*
X83177Y69444D02*
Y67429D01*
X85193D01*
X85170Y67597D01*
X84913Y68220D01*
X84502Y68754D01*
X83968Y69164D01*
X83345Y69422D01*
X83177Y69444D01*
D02*
G37*
G36*
X80403Y71075D02*
X79240D01*
Y69912D01*
X79764D01*
X80216Y70099D01*
X80403Y70551D01*
Y71075D01*
D02*
G37*
G36*
X85193Y66429D02*
X83177D01*
Y64414D01*
X83345Y64436D01*
X83968Y64694D01*
X84502Y65104D01*
X84913Y65639D01*
X85170Y66261D01*
X85193Y66429D01*
D02*
G37*
G36*
X82177Y69444D02*
X82009Y69422D01*
X81387Y69164D01*
X80852Y68754D01*
X80442Y68220D01*
X80184Y67597D01*
X80162Y67429D01*
X82177D01*
Y69444D01*
D02*
G37*
%LPD*%
G36*
X-28379Y155009D02*
Y153638D01*
X-28879Y153430D01*
X-30638Y155189D01*
X-31032Y155452D01*
X-31496Y155545D01*
X-31496Y155545D01*
X-142304D01*
X-142518Y156045D01*
X-142307Y156266D01*
X-29637D01*
X-28379Y155009D01*
D02*
G37*
G36*
X142608Y156045D02*
X142394Y155545D01*
X31603D01*
X31602Y155545D01*
X31138Y155452D01*
X30744Y155189D01*
X28879Y153324D01*
X28472Y153444D01*
X28379Y153512D01*
Y155009D01*
X29637Y156266D01*
X142396D01*
X142608Y156045D01*
D02*
G37*
D10*
X40157Y58071D02*
D03*
X43307D02*
D03*
X46457D02*
D03*
X49606D02*
D03*
X52756D02*
D03*
X55905D02*
D03*
X59055D02*
D03*
X62205D02*
D03*
Y91535D02*
D03*
X59055D02*
D03*
X55905D02*
D03*
X52756D02*
D03*
X49606D02*
D03*
X46457D02*
D03*
X43307D02*
D03*
X40157D02*
D03*
D11*
X67913Y63779D02*
D03*
Y66929D02*
D03*
Y70079D02*
D03*
Y73228D02*
D03*
Y76378D02*
D03*
Y79528D02*
D03*
Y82677D02*
D03*
Y85827D02*
D03*
X34449D02*
D03*
Y82677D02*
D03*
Y79528D02*
D03*
Y76378D02*
D03*
Y73228D02*
D03*
Y70079D02*
D03*
Y66929D02*
D03*
Y63779D02*
D03*
D12*
X11614Y105413D02*
D03*
Y107972D02*
D03*
Y110531D02*
D03*
Y113091D02*
D03*
Y115650D02*
D03*
Y118209D02*
D03*
Y120768D02*
D03*
Y123327D02*
D03*
Y125886D02*
D03*
Y128445D02*
D03*
Y131004D02*
D03*
Y133563D02*
D03*
Y136122D02*
D03*
Y138681D02*
D03*
X-11614Y105413D02*
D03*
Y107972D02*
D03*
Y110531D02*
D03*
Y113091D02*
D03*
Y115650D02*
D03*
Y118209D02*
D03*
Y120768D02*
D03*
Y123327D02*
D03*
Y125886D02*
D03*
Y128445D02*
D03*
Y131004D02*
D03*
Y133563D02*
D03*
Y136122D02*
D03*
Y138681D02*
D03*
D13*
X0Y122047D02*
D03*
D14*
X49902Y39370D02*
D03*
X56398D02*
D03*
X56791Y109055D02*
D03*
X50295D02*
D03*
X-51870Y51181D02*
D03*
X-58366D02*
D03*
D15*
X49567Y47244D02*
D03*
X52795D02*
D03*
X56732Y101575D02*
D03*
X53504D02*
D03*
X46890D02*
D03*
X43661D02*
D03*
D16*
X78740Y71575D02*
D03*
Y74803D02*
D03*
Y62283D02*
D03*
Y59055D02*
D03*
X7874Y73268D02*
D03*
Y70039D02*
D03*
X-19685Y54764D02*
D03*
Y51535D02*
D03*
X-87795Y84291D02*
D03*
Y81063D02*
D03*
X-21654Y102323D02*
D03*
Y105551D02*
D03*
D17*
X-77067Y51181D02*
D03*
X-88287D02*
D03*
X-77067Y62992D02*
D03*
X-88287D02*
D03*
D18*
X-51181Y81988D02*
D03*
Y75492D02*
D03*
X-29528Y99114D02*
D03*
Y105610D02*
D03*
D19*
X-17126Y43307D02*
D03*
X-22244D02*
D03*
X-19685Y35433D02*
D03*
D20*
X-49213Y62992D02*
D03*
X-61024D02*
D03*
D21*
X90551Y74783D02*
D03*
Y59075D02*
D03*
D22*
X-66909Y35433D02*
D03*
X-51201D02*
D03*
D23*
X-21654Y118602D02*
D03*
Y112894D02*
D03*
D24*
X-689Y63366D02*
D03*
Y68366D02*
D03*
Y73366D02*
D03*
Y78366D02*
D03*
X-22933Y63366D02*
D03*
Y68366D02*
D03*
Y73366D02*
D03*
Y78366D02*
D03*
D25*
X-79055Y76378D02*
D03*
X-61102D02*
D03*
D26*
X-70079Y101969D02*
D03*
D27*
X-87795Y129921D02*
X-83858Y125984D01*
X-118110Y129921D02*
X-87795D01*
X-122047Y125984D02*
X-118110Y129921D01*
X98032Y117717D02*
X106299Y125984D01*
X79379Y117717D02*
X98032D01*
X75048Y122047D02*
X79379Y117717D01*
X92126Y119685D02*
X98425Y125984D01*
X80530Y119685D02*
X92126D01*
X76199Y124016D02*
X80530Y119685D01*
X46850Y122047D02*
X75048D01*
X45669Y124016D02*
X76199D01*
X36614Y111811D02*
X46850Y122047D01*
X34646Y112992D02*
X45669Y124016D01*
X44488Y125984D02*
X77559D01*
X81496Y122047D01*
X86614D01*
X90551Y125984D01*
X55905Y54724D02*
X67323Y43307D01*
Y35827D02*
Y43307D01*
X60630Y29134D02*
X67323Y35827D01*
X55905Y54724D02*
Y58071D01*
X6299Y29134D02*
X60630D01*
X69291Y34252D02*
Y44346D01*
X62205Y27165D02*
X69291Y34252D01*
X6299Y27165D02*
X62205D01*
X59055Y54582D02*
X69291Y44346D01*
X59055Y54582D02*
Y58071D01*
X32677Y114173D02*
X44488Y125984D01*
X-6505Y101387D02*
Y110836D01*
Y101387D02*
X-3543Y98425D01*
X-8760Y113091D02*
X-6505Y110836D01*
X53543Y73228D02*
X67913D01*
X33858Y60630D02*
X37008D01*
X38976Y62598D01*
X41732D01*
X43307Y61024D01*
Y58071D02*
Y61024D01*
X29528Y61811D02*
X31496Y63779D01*
X34449D01*
X29528Y56299D02*
Y61811D01*
X26772Y53543D02*
X29528Y56299D01*
X20866Y53543D02*
X26772D01*
X15354Y59055D02*
X20866Y53543D01*
X67913Y76378D02*
X67913Y76378D01*
X73228D01*
X78740Y81890D01*
X79528D01*
X79921Y82284D01*
X94095D01*
X101181Y75197D01*
Y53543D02*
Y75197D01*
X72835Y25197D02*
X101181Y53543D01*
X591Y25197D02*
X72835D01*
X-4921Y19685D02*
X591Y25197D01*
X-7874Y41339D02*
X6299Y27165D01*
X-5906Y41339D02*
X6299Y29134D01*
X25984Y58268D02*
Y62598D01*
X30315Y66929D01*
X34449D01*
X37992Y55905D02*
X40157Y58071D01*
X37402Y55905D02*
X37992D01*
X46457Y58071D02*
X46457Y58071D01*
Y52362D02*
Y58071D01*
X62992Y63779D02*
X67913D01*
X62598Y79528D02*
X67913D01*
X29528Y79921D02*
X29921Y79528D01*
X34449D01*
X38189Y76378D02*
X42126Y80315D01*
X34449Y76378D02*
X38189D01*
X-27559Y76772D02*
X-25965Y78366D01*
X-27559Y72303D02*
Y76772D01*
Y72303D02*
X-26122Y70866D01*
X-25965Y78366D02*
X-22933D01*
X-26122Y70866D02*
X-19685D01*
X-15748Y66929D01*
Y53150D02*
Y66929D01*
X-17362Y51535D02*
X-15748Y53150D01*
X-19685Y51535D02*
X-17362D01*
X-19685Y47244D02*
Y51535D01*
X-31496Y57087D02*
Y62992D01*
Y55118D02*
Y57087D01*
X-11811D02*
Y66929D01*
Y51181D02*
Y57087D01*
X46890Y101575D02*
X49606Y98858D01*
Y91535D02*
Y98858D01*
X-21654Y112894D02*
X-16732Y107972D01*
X-11614D01*
X98425Y110236D02*
X114173Y125984D01*
X74016Y110236D02*
X98425D01*
X81890Y85827D02*
X122047Y125984D01*
X67913Y85827D02*
X81890D01*
X35433Y90551D02*
X39370Y86614D01*
X-36614Y90551D02*
X35433D01*
X-45276Y99213D02*
X-36614Y90551D01*
X-51968Y125984D02*
X-45276Y119291D01*
Y99213D02*
Y119291D01*
X-83858Y125984D02*
X-51968D01*
X-90551D02*
X-88583Y124016D01*
X-94488Y122047D02*
X-53543D01*
X-98425Y125984D02*
X-94488Y122047D01*
X-100394Y120079D02*
X-54324D01*
X-106299Y118110D02*
X-55118D01*
X-88583Y124016D02*
X-52756D01*
X-47244Y98032D02*
Y118504D01*
Y98032D02*
X-37795Y88583D01*
X39370Y86614D02*
X60630D01*
X62205Y88189D01*
Y91535D01*
X36614Y103150D02*
Y111811D01*
X34646Y102362D02*
Y112992D01*
X36614Y103150D02*
X46457Y93307D01*
X40157Y91535D02*
Y94095D01*
X32677Y101575D02*
X40157Y94095D01*
X32677Y101575D02*
Y114173D01*
X43307Y91535D02*
Y93701D01*
X34646Y102362D02*
X43307Y93701D01*
X46457Y91535D02*
Y93307D01*
X59055Y95276D02*
X74016Y110236D01*
X59055Y91535D02*
Y95276D01*
X-37795Y88583D02*
X17717D01*
X-38976Y86614D02*
X15748D01*
X-49213Y96850D02*
X-38976Y86614D01*
X-49213Y96850D02*
Y117717D01*
X-40157Y84646D02*
X13780D01*
X-51181Y95669D02*
X-40157Y84646D01*
X-51181Y95669D02*
Y116936D01*
X-52756Y124016D02*
X-47244Y118504D01*
X-53543Y122047D02*
X-49213Y117717D01*
X-54324Y120079D02*
X-51181Y116936D01*
X-114173Y125984D02*
X-106299Y118110D01*
X-106299Y125984D02*
X-100394Y120079D01*
X-53150Y94488D02*
Y116142D01*
X-55118Y118110D02*
X-53150Y116142D01*
X17717Y88583D02*
X20472Y85827D01*
X34449D01*
X15748Y86614D02*
X19685Y82677D01*
X34449D01*
X13780Y84646D02*
X25197Y73228D01*
X34449D01*
X24409Y70079D02*
X34449D01*
X11811Y82677D02*
X24409Y70079D01*
X-41339Y82677D02*
X11811D01*
X-53150Y94488D02*
X-41339Y82677D01*
X21654Y98425D02*
X23622Y96457D01*
X-3543Y98425D02*
X21654D01*
X-11614Y113091D02*
X-8760D01*
X16043Y107972D02*
X23622Y100394D01*
X11614Y107972D02*
X16043D01*
X17421Y110531D02*
X23622Y104331D01*
X11614Y110531D02*
X17421D01*
X18799Y113091D02*
X23622Y108268D01*
X11614Y113091D02*
X18799D01*
X20177Y115650D02*
X23622Y112205D01*
X11614Y115650D02*
X20177D01*
X21555Y118209D02*
X23622Y116142D01*
X11614Y118209D02*
X21555D01*
X-7874Y41339D02*
Y76772D01*
X-6279Y78366D01*
X-689D01*
X-5906Y41339D02*
Y61024D01*
X-3563Y63366D01*
X-689D01*
X-24606Y19685D02*
Y40945D01*
X-22244Y43307D01*
X-14764Y19685D02*
Y40945D01*
X-17126Y43307D02*
X-14764Y40945D01*
X-22244Y43307D02*
Y45866D01*
X-31496Y55118D02*
X-22244Y45866D01*
X-31496Y62992D02*
X-26122Y68366D01*
X-22933D01*
X-17126Y43307D02*
Y45866D01*
X-11811Y51181D01*
X-18248Y73366D02*
X-11811Y66929D01*
X-22933Y73366D02*
X-18248D01*
X90531Y74803D02*
X90551Y74783D01*
X78516Y74803D02*
X78740D01*
X73792Y70079D02*
X78516Y74803D01*
X67913Y70079D02*
X73792D01*
X90531Y59055D02*
X90551Y59075D01*
X78516Y59055D02*
X78740D01*
X76723Y60848D02*
X78516Y59055D01*
X76723Y60848D02*
Y61072D01*
X70866Y66929D02*
X76723Y61072D01*
X67913Y66929D02*
X70866D01*
X78740Y74803D02*
X90531D01*
X78740Y59055D02*
X90531D01*
D28*
X49567Y33898D02*
Y39705D01*
X-70866Y76378D02*
X-61102D01*
X-51575Y17323D02*
Y60630D01*
X56791Y109055D02*
Y114862D01*
X-36614Y105610D02*
X-29528D01*
X-70866Y76378D02*
X-70866Y76378D01*
X-55492Y81988D02*
X-51181D01*
X-61102Y76378D02*
X-55492Y81988D01*
X-77067Y51181D02*
Y62992D01*
X-79055Y64980D02*
Y76378D01*
Y64980D02*
X-77067Y62992D01*
X-61024D01*
X-51575Y60630D02*
X-49213Y62992D01*
D29*
X-23484Y105413D02*
X-21516D01*
X-79488Y81063D02*
X-79134Y80709D01*
X-87795Y81063D02*
X-79488D01*
X49567Y58031D02*
X49606Y58071D01*
X49567Y47244D02*
Y58031D01*
X7874Y73268D02*
Y76772D01*
X7776Y73366D02*
X7874Y73268D01*
X-689Y73366D02*
X7776D01*
X55905Y91535D02*
X55905Y91536D01*
Y96457D01*
X-29528Y105610D02*
X-29469Y105551D01*
X-21605Y105502D02*
X-21516Y105413D01*
X-11703Y105502D02*
X-11614Y105413D01*
X-16142Y105502D02*
X-11703D01*
D30*
X49567Y39705D02*
Y47244D01*
Y39705D02*
X49902Y39370D01*
X55905Y96457D02*
X56732Y97284D01*
Y101575D01*
X56791Y101634D01*
Y109055D01*
X-21605Y105502D02*
X-16142D01*
X-21654Y105551D02*
X-21605Y105502D01*
X-29469Y105551D02*
X-21654D01*
D31*
X-7874Y107087D02*
Y109449D01*
X-9547Y105413D02*
X-7874Y107087D01*
X-11614Y105413D02*
X-9547D01*
X-8957Y110531D02*
X-7874Y109449D01*
X-11614Y110531D02*
X-8957D01*
D32*
X-167717Y118773D02*
X-125094Y76151D01*
X-167717Y118773D02*
Y139370D01*
X167823Y118923D02*
Y139370D01*
X126751Y77851D02*
X167823Y118923D01*
X125201Y77851D02*
X126751D01*
X13144Y169861D02*
X15354Y167651D01*
X-16043Y136122D02*
X-11614D01*
X-17717Y137795D02*
X-16043Y136122D01*
X-17717Y137795D02*
Y159449D01*
X-27559Y169291D02*
X-17717Y159449D01*
X-39366Y169291D02*
X-27559D01*
X-39528Y169129D02*
X-39366Y169291D01*
X-20079Y137008D02*
X-16634Y133563D01*
X-11614D01*
X-22441Y136221D02*
X-17224Y131004D01*
X-11614D01*
X-24803Y135433D02*
X-17815Y128445D01*
X-11614D01*
X-27165Y134646D02*
X-18406Y125886D01*
X-11614D01*
X-65881Y167661D02*
X-62787Y164567D01*
X-25984D01*
X-20079Y158661D01*
Y137008D02*
Y158661D01*
X-22441Y136221D02*
Y157874D01*
X-92184Y165457D02*
X-88932Y162205D01*
X-26772D01*
X-22441Y157874D01*
X-118414Y162519D02*
X-115737Y159843D01*
X-27953D01*
X-24803Y156693D01*
Y135433D02*
Y156693D01*
X-144572Y158847D02*
X-143205Y157480D01*
X-29134D01*
X-27165Y155512D01*
Y134646D02*
Y155512D01*
X27165Y134646D02*
Y155512D01*
X29134Y157480D01*
X143205D01*
X144572Y158847D01*
X24803Y135433D02*
Y156693D01*
X27953Y159843D01*
X115737D01*
X118414Y162519D01*
X22441Y157874D02*
X26772Y162205D01*
X88931D01*
X92184Y165457D01*
X22441Y136221D02*
Y157874D01*
X20079Y137008D02*
Y158661D01*
X25984Y164567D01*
X62787D01*
X65881Y167661D01*
X18406Y125886D02*
X27165Y134646D01*
X17815Y128445D02*
X24803Y135433D01*
X17224Y131004D02*
X22441Y136221D01*
X16634Y133563D02*
X20079Y137008D01*
X39366Y169291D02*
X39528Y169129D01*
X27559Y169291D02*
X39366D01*
X17717Y159449D02*
X27559Y169291D01*
X17717Y137795D02*
Y159449D01*
X16043Y136122D02*
X17717Y137795D01*
X-15354Y167651D02*
X-13144Y169861D01*
X-15354Y139370D02*
Y167651D01*
Y139370D02*
X-14665Y138681D01*
X-11614D01*
X11614Y131004D02*
X17224D01*
X11614Y133563D02*
X16634D01*
X11614Y136122D02*
X16043D01*
X11614Y125886D02*
X18406D01*
X11614Y128445D02*
X17815D01*
X11614Y138681D02*
X14665D01*
X15354Y139370D01*
Y167651D01*
X-29528Y133858D02*
X-18996Y123327D01*
X-11614D01*
X-31496Y154331D02*
X-29528Y152362D01*
Y133858D02*
Y152362D01*
X-167717Y139370D02*
X-152756Y154331D01*
X-31496D01*
X31602Y154331D02*
X152862D01*
X167823Y139370D01*
X29634Y133859D02*
Y152363D01*
X31602Y154331D01*
X11721Y123327D02*
X19103D01*
X29634Y133859D01*
X-69882Y19685D02*
X-62008Y11811D01*
X6890D01*
X14764Y19685D01*
X71850Y11811D02*
X79724Y19685D01*
X32480Y11811D02*
X71850D01*
X24606Y19685D02*
X32480Y11811D01*
D33*
X122047Y133858D02*
D03*
Y118110D02*
D03*
Y125984D02*
D03*
X-122047Y133858D02*
D03*
Y118110D02*
D03*
Y125984D02*
D03*
X114173D02*
D03*
Y133858D02*
D03*
X106299D02*
D03*
Y125984D02*
D03*
X98425D02*
D03*
Y133858D02*
D03*
X90551D02*
D03*
Y125984D02*
D03*
X-90551D02*
D03*
Y133858D02*
D03*
X-98425D02*
D03*
Y125984D02*
D03*
X-106299D02*
D03*
Y133858D02*
D03*
X-114173D02*
D03*
Y125984D02*
D03*
X65987Y167660D02*
D03*
X66662Y177638D02*
D03*
X92289Y165456D02*
D03*
X93237Y175411D02*
D03*
X118520Y162518D02*
D03*
X119739Y172444D02*
D03*
X144658Y158849D02*
D03*
X146149Y168737D02*
D03*
X-124951Y76149D02*
D03*
Y86149D02*
D03*
X125049D02*
D03*
Y76149D02*
D03*
X39634Y169129D02*
D03*
X40036Y179121D02*
D03*
X13250Y169861D02*
D03*
X13379Y179860D02*
D03*
X-13144Y169861D02*
D03*
X-13288Y179860D02*
D03*
X-39528Y169129D02*
D03*
X-39946Y179121D02*
D03*
X-66572Y177637D02*
D03*
X-65881Y167661D02*
D03*
X-93147Y175410D02*
D03*
X-92184Y165457D02*
D03*
X-119649Y172443D02*
D03*
X-118414Y162519D02*
D03*
X-146039Y168739D02*
D03*
X-144572Y158847D02*
D03*
D34*
X-125241Y24817D02*
D03*
X-151243Y128401D02*
D03*
X150761D02*
D03*
X124759Y24817D02*
D03*
D35*
X-34449Y19685D02*
D03*
X-24606D02*
D03*
X34449D02*
D03*
X24606D02*
D03*
X-14764D02*
D03*
X-4921D02*
D03*
X4921D02*
D03*
X14764D02*
D03*
X-69882D02*
D03*
X-79724D02*
D03*
X79724D02*
D03*
X69882D02*
D03*
D36*
X82677Y66929D02*
D03*
X-25591Y57480D02*
D03*
X62205Y42520D02*
D03*
X48819Y116535D02*
D03*
X49567Y33898D02*
D03*
X56791Y114862D02*
D03*
X-36614Y105610D02*
D03*
X-65984Y76378D02*
D03*
X-70866Y76378D02*
D03*
X-51575Y17323D02*
D03*
D37*
X53543Y73228D02*
D03*
X15354Y59055D02*
D03*
X25984Y58268D02*
D03*
X33858Y60630D02*
D03*
X62598Y79528D02*
D03*
X42126Y80315D02*
D03*
X62992Y63779D02*
D03*
X46457Y52362D02*
D03*
X37402Y55905D02*
D03*
X29528Y79921D02*
D03*
X23622Y116142D02*
D03*
Y112205D02*
D03*
Y108268D02*
D03*
Y104331D02*
D03*
Y100394D02*
D03*
Y96457D02*
D03*
X7874Y76772D02*
D03*
X-19685Y47244D02*
D03*
X-31496Y57087D02*
D03*
X-11811D02*
D03*
X4331Y116535D02*
D03*
Y122047D02*
D03*
X-4331D02*
D03*
Y116535D02*
D03*
X0D02*
D03*
Y122047D02*
D03*
Y111024D02*
D03*
X-4331D02*
D03*
X4331D02*
D03*
X0Y105512D02*
D03*
X-4331D02*
D03*
X4331D02*
D03*
Y138583D02*
D03*
X-4331D02*
D03*
X0D02*
D03*
X4331Y133071D02*
D03*
X-4331D02*
D03*
X0D02*
D03*
Y127559D02*
D03*
X-4331D02*
D03*
X4331D02*
D03*
M02*
