M48
;Layer_Color=9474304
;FILE_FORMAT=2:5
INCH,LZ
;TYPE=PLATED
T1F00S00C0.01181
T2F00S00C0.01968
T3F00S00C0.03150
T4F00S00C0.03937
T5F00S00C0.15748
%
T01
X-0019685Y0047244
X0062992Y0063779
X0062598Y0079528
X0053543Y0073228
X0042126Y0080315
X0029528Y0079921
X0023622Y0096457
Y0100394
Y0104331
Y0108268
Y0112205
Y0116142
X0004331Y0116535
X0
X-0004331
Y0122047
X0
X0004331
Y0127559
X0
X-0004331
Y0133071
X0
X0004331
Y0138583
X0
X-0004331
Y0111024
X0
X0004331
Y0105512
X0
X-0004331
X0007874Y0076772
X0015354Y0059055
X0025984Y0058268
X0033858Y006063
X0037402Y0055905
X0046457Y0052362
X-0011811Y0057087
X-0031496
T02
X-0051575Y0017323
X0049567Y0033898
X0062205Y004252
X0082677Y0066929
X0056791Y0114862
X0048819Y0116535
X-0036614Y010561
X-0065984Y0076378
X-0070866Y0076378
X-0025591Y005748
T03
X0125049Y0076149
Y0086149
X0122047Y011811
Y0125984
Y0133858
X0114173
X0106299
X0098425
Y0125984
X0106299
X0114173
X0090551
Y0133858
X0092289Y0165456
X0093237Y0175411
X0066662Y0177638
X0065987Y016766
X011852Y0162518
X0119739Y0172444
X0146149Y0168737
X0144658Y0158849
X0039634Y0169129
X0040036Y0179121
X0013379Y017986
X001325Y0169861
X-0013144Y0169861
X-0013288Y017986
X-0039946Y0179121
X-0039528Y0169129
X-0065881Y0167661
X-0066572Y0177637
X-0093147Y017541
X-0092184Y0165457
X-0090551Y0133858
X-0098425
Y0125984
X-0090551
X-0106299
Y0133858
X-0114173
X-0122047
Y0125984
Y011811
X-0114173Y0125984
X-0118414Y0162519
X-0119649Y0172443
X-0146039Y0168739
X-0144572Y0158847
X-0124951Y0086149
Y0076149
T04
X-0079724Y0019685
X-0069882
X-0034449
X-0024606
X-0014764
X-0004921
X0004921
X0014764
X0024606
X0034449
X0069882
X0079724
T05
X-0125241Y0024817
X0124759
X0150761Y0128401
X-0151243
M30
