G04 Layer_Color=16711935*
%FSLAX25Y25*%
%MOIN*%
G70*
G01*
G75*
%ADD71C,0.05905*%
%ADD72C,0.06394*%
%ADD73C,0.24016*%
%ADD74R,0.02756X0.06299*%
%ADD75R,0.05118X0.07480*%
%ADD76R,0.06299X0.02756*%
%ADD77R,0.07480X0.05118*%
D71*
X243152Y167660D02*
D03*
X243828Y177638D02*
D03*
X269455Y165456D02*
D03*
X270402Y175411D02*
D03*
X295685Y162518D02*
D03*
X296905Y172444D02*
D03*
X321823Y158849D02*
D03*
X323314Y168737D02*
D03*
X52071Y76151D02*
D03*
X52358Y86147D02*
D03*
X302063Y86147D02*
D03*
X302366Y76151D02*
D03*
X216799Y169129D02*
D03*
X217201Y179121D02*
D03*
X190415Y169861D02*
D03*
X190544Y179860D02*
D03*
X164021Y169861D02*
D03*
X163877Y179860D02*
D03*
X137637Y169129D02*
D03*
X137220Y179121D02*
D03*
X110593Y177637D02*
D03*
X111284Y167661D02*
D03*
X84019Y175410D02*
D03*
X84982Y165457D02*
D03*
X57516Y172443D02*
D03*
X58751Y162519D02*
D03*
X31127Y168739D02*
D03*
X32594Y158847D02*
D03*
D72*
X276693Y18898D02*
D03*
Y28898D02*
D03*
X266693D02*
D03*
Y18898D02*
D03*
X256693D02*
D03*
Y28898D02*
D03*
D73*
X51924Y24817D02*
D03*
X25922Y128401D02*
D03*
X327926D02*
D03*
X301924Y24817D02*
D03*
D74*
X175984Y46457D02*
D03*
X179921D02*
D03*
X183858D02*
D03*
X172047D02*
D03*
X124803D02*
D03*
X120866D02*
D03*
X116929D02*
D03*
X211417D02*
D03*
X207480D02*
D03*
X203543D02*
D03*
X238976D02*
D03*
X235039D02*
D03*
X231102D02*
D03*
X152362D02*
D03*
X148425D02*
D03*
X144488D02*
D03*
D75*
X189764Y31299D02*
D03*
X166142D02*
D03*
X111024D02*
D03*
X130709D02*
D03*
X197638D02*
D03*
X217323D02*
D03*
X225197D02*
D03*
X244882D02*
D03*
X138583D02*
D03*
X158268D02*
D03*
D76*
X103150Y144882D02*
D03*
Y140945D02*
D03*
X252756Y46457D02*
D03*
Y50394D02*
D03*
X103150Y121260D02*
D03*
Y117323D02*
D03*
X252756Y70079D02*
D03*
Y74016D02*
D03*
X103150Y97638D02*
D03*
Y93701D02*
D03*
X252756Y93701D02*
D03*
Y97638D02*
D03*
Y117323D02*
D03*
Y121260D02*
D03*
X103150Y50394D02*
D03*
Y46457D02*
D03*
X252756Y140945D02*
D03*
Y144882D02*
D03*
X103150Y74016D02*
D03*
Y70079D02*
D03*
D77*
X87992Y135039D02*
D03*
Y150787D02*
D03*
X267913Y56299D02*
D03*
Y40551D02*
D03*
X87992Y111417D02*
D03*
Y127165D02*
D03*
X267913Y79921D02*
D03*
Y64173D02*
D03*
X87992Y87795D02*
D03*
Y103543D02*
D03*
X267913Y103543D02*
D03*
Y87795D02*
D03*
Y127165D02*
D03*
Y111417D02*
D03*
X87992Y40551D02*
D03*
Y56299D02*
D03*
X267913Y150787D02*
D03*
Y135039D02*
D03*
X87992Y64173D02*
D03*
Y79921D02*
D03*
M02*
