G04 Layer_Color=32896*
%FSLAX25Y25*%
%MOIN*%
G70*
G01*
G75*
%ADD32C,0.00787*%
%ADD33C,0.01968*%
%ADD36C,0.01181*%
%ADD78C,0.00591*%
G36*
X73622Y64173D02*
X65748D01*
Y79921D01*
X73622D01*
Y64173D01*
D02*
G37*
G36*
X130315Y14173D02*
X110630D01*
Y22047D01*
X130315D01*
Y14173D01*
D02*
G37*
G36*
X244488D02*
X224803D01*
Y22047D01*
X244488D01*
Y14173D01*
D02*
G37*
G36*
X290158Y41929D02*
X282283D01*
Y57677D01*
X290158D01*
Y41929D01*
D02*
G37*
G36*
X157874Y14173D02*
X138189D01*
Y22047D01*
X157874D01*
Y14173D01*
D02*
G37*
G36*
X73622Y111417D02*
X65748D01*
Y127165D01*
X73622D01*
Y111417D01*
D02*
G37*
G36*
X73622Y135039D02*
X65748D01*
Y150787D01*
X73622D01*
Y135039D01*
D02*
G37*
G36*
X290158Y136417D02*
X282283D01*
Y152165D01*
X290158D01*
Y136417D01*
D02*
G37*
G36*
X216929Y14173D02*
X197244D01*
Y22047D01*
X216929D01*
Y14173D01*
D02*
G37*
G36*
X189370D02*
X165748D01*
Y22047D01*
X189370D01*
Y14173D01*
D02*
G37*
G36*
X290158Y65551D02*
X282283D01*
Y81299D01*
X290158D01*
Y65551D01*
D02*
G37*
G36*
X290158Y112795D02*
X282283D01*
Y128543D01*
X290158D01*
Y112795D01*
D02*
G37*
G36*
X73622Y40551D02*
X65748D01*
Y56299D01*
X73622D01*
Y40551D01*
D02*
G37*
G36*
X290158Y89173D02*
X282283D01*
Y104921D01*
X290158D01*
Y89173D01*
D02*
G37*
G36*
X73622Y87795D02*
X65748D01*
Y103543D01*
X73622D01*
Y87795D01*
D02*
G37*
%LPC*%
G36*
X71548Y75159D02*
X71016D01*
X71010Y75154D01*
X71004Y75148D01*
X70981Y75130D01*
X70957Y75107D01*
X70928Y75077D01*
X70887Y75042D01*
X70840Y75002D01*
X70788Y74961D01*
X70729Y74914D01*
X70665Y74867D01*
X70589Y74814D01*
X70513Y74756D01*
X70425Y74703D01*
X70337Y74645D01*
X70238Y74580D01*
X70133Y74522D01*
X70127Y74516D01*
X70109Y74510D01*
X70074Y74493D01*
X70033Y74469D01*
X69980Y74440D01*
X69916Y74411D01*
X69846Y74375D01*
X69764Y74340D01*
X69676Y74300D01*
X69583Y74259D01*
X69483Y74218D01*
X69378Y74177D01*
X69150Y74101D01*
X68910Y74030D01*
X68904D01*
X68881Y74024D01*
X68846Y74013D01*
X68805Y74007D01*
X68746Y73989D01*
X68682Y73978D01*
X68606Y73960D01*
X68524Y73949D01*
X68436Y73931D01*
X68348Y73913D01*
X68155Y73890D01*
X67956Y73872D01*
X67763Y73867D01*
Y73159D01*
X67798D01*
X67839Y73165D01*
X67898D01*
X67974Y73170D01*
X68056Y73182D01*
X68155Y73194D01*
X68261Y73206D01*
X68378Y73223D01*
X68506Y73247D01*
X68641Y73276D01*
X68775Y73305D01*
X68922Y73340D01*
X69074Y73381D01*
X69226Y73434D01*
X69378Y73486D01*
X69390Y73492D01*
X69413Y73498D01*
X69460Y73521D01*
X69518Y73545D01*
X69589Y73574D01*
X69676Y73609D01*
X69770Y73656D01*
X69875Y73709D01*
X69986Y73761D01*
X70103Y73826D01*
X70355Y73966D01*
X70612Y74130D01*
X70864Y74311D01*
Y72644D01*
X71548D01*
Y75159D01*
D02*
G37*
G36*
X69647Y72147D02*
X69565D01*
X69524Y72141D01*
X69477D01*
X69366Y72129D01*
X69238Y72117D01*
X69103Y72094D01*
X68963Y72065D01*
X68828Y72024D01*
X68822D01*
X68810Y72018D01*
X68787Y72012D01*
X68758Y72000D01*
X68723Y71983D01*
X68682Y71965D01*
X68588Y71918D01*
X68477Y71860D01*
X68366Y71790D01*
X68255Y71708D01*
X68149Y71614D01*
X68144Y71603D01*
X68114Y71579D01*
X68079Y71532D01*
X68038Y71474D01*
X67986Y71392D01*
X67933Y71298D01*
X67886Y71193D01*
X67839Y71070D01*
X67834Y71059D01*
X67828Y71023D01*
X67816Y70971D01*
X67804Y70889D01*
X67787Y70795D01*
X67775Y70678D01*
X67769Y70538D01*
X67763Y70386D01*
Y68935D01*
X71607D01*
Y70345D01*
Y70351D01*
Y70368D01*
Y70392D01*
Y70427D01*
Y70462D01*
X71601Y70509D01*
X71595Y70614D01*
X71589Y70737D01*
X71578Y70854D01*
X71554Y70971D01*
X71531Y71076D01*
Y71082D01*
X71525Y71094D01*
X71519Y71111D01*
X71513Y71135D01*
X71484Y71193D01*
X71449Y71275D01*
X71402Y71363D01*
X71338Y71456D01*
X71262Y71556D01*
X71174Y71649D01*
Y71655D01*
X71162Y71661D01*
X71127Y71690D01*
X71074Y71731D01*
X71004Y71790D01*
X70911Y71848D01*
X70805Y71907D01*
X70688Y71965D01*
X70554Y72018D01*
X70548D01*
X70536Y72024D01*
X70519Y72030D01*
X70489Y72035D01*
X70454Y72047D01*
X70407Y72059D01*
X70361Y72071D01*
X70302Y72082D01*
X70238Y72094D01*
X70174Y72106D01*
X70016Y72129D01*
X69840Y72141D01*
X69647Y72147D01*
D02*
G37*
%LPD*%
G36*
X69834Y71339D02*
X69934Y71333D01*
X70045Y71328D01*
X70156Y71310D01*
X70267Y71293D01*
X70361Y71263D01*
X70372Y71258D01*
X70402Y71252D01*
X70443Y71234D01*
X70495Y71211D01*
X70560Y71176D01*
X70618Y71140D01*
X70682Y71100D01*
X70735Y71047D01*
X70741Y71041D01*
X70758Y71023D01*
X70782Y70988D01*
X70811Y70947D01*
X70840Y70901D01*
X70870Y70836D01*
X70893Y70766D01*
X70916Y70690D01*
Y70684D01*
X70922Y70655D01*
X70928Y70614D01*
X70940Y70550D01*
Y70509D01*
X70946Y70462D01*
Y70415D01*
X70951Y70357D01*
Y70292D01*
X70957Y70222D01*
Y70140D01*
Y70058D01*
Y69713D01*
X68413D01*
Y70286D01*
Y70292D01*
Y70298D01*
Y70316D01*
Y70339D01*
Y70398D01*
X68419Y70468D01*
Y70538D01*
X68430Y70620D01*
X68436Y70690D01*
X68448Y70749D01*
Y70754D01*
X68459Y70784D01*
X68471Y70819D01*
X68483Y70860D01*
X68536Y70965D01*
X68565Y71018D01*
X68606Y71064D01*
X68612Y71070D01*
X68629Y71088D01*
X68652Y71105D01*
X68693Y71135D01*
X68746Y71170D01*
X68810Y71199D01*
X68887Y71234D01*
X68974Y71263D01*
X68980D01*
X68986Y71269D01*
X69003D01*
X69021Y71275D01*
X69080Y71287D01*
X69161Y71304D01*
X69261Y71322D01*
X69384Y71333D01*
X69524Y71339D01*
X69682Y71345D01*
X69793D01*
X69834Y71339D01*
D02*
G37*
%LPC*%
G36*
X118200Y20038D02*
X117580D01*
Y17598D01*
X117106D01*
Y16955D01*
X117580D01*
Y16183D01*
X118293D01*
Y16955D01*
X119867D01*
Y17593D01*
X118200Y20038D01*
D02*
G37*
G36*
X122347Y20026D02*
X121528D01*
X119984Y16183D01*
X120826D01*
X121154Y17054D01*
X122704D01*
X123020Y16183D01*
X123839D01*
X122347Y20026D01*
D02*
G37*
%LPD*%
G36*
X119183Y17598D02*
X118293D01*
Y18915D01*
X119183Y17598D01*
D02*
G37*
G36*
X122464Y17704D02*
X121405D01*
X121944Y19131D01*
X122464Y17704D01*
D02*
G37*
%LPC*%
G36*
X236149Y20026D02*
X235330D01*
X233786Y16183D01*
X234628D01*
X234956Y17054D01*
X236506D01*
X236822Y16183D01*
X237641D01*
X236149Y20026D01*
D02*
G37*
G36*
X232253Y20038D02*
X231650D01*
Y16183D01*
X232388D01*
Y18956D01*
X232393Y18950D01*
X232405Y18938D01*
X232429Y18920D01*
X232458Y18891D01*
X232499Y18862D01*
X232545Y18827D01*
X232598Y18786D01*
X232663Y18745D01*
X232727Y18698D01*
X232803Y18651D01*
X232961Y18564D01*
X233142Y18476D01*
X233341Y18400D01*
Y19067D01*
X233335D01*
X233329Y19073D01*
X233312Y19078D01*
X233289Y19084D01*
X233230Y19108D01*
X233154Y19149D01*
X233060Y19195D01*
X232955Y19260D01*
X232838Y19330D01*
X232715Y19424D01*
X232709Y19429D01*
X232698Y19435D01*
X232680Y19453D01*
X232663Y19470D01*
X232604Y19523D01*
X232528Y19599D01*
X232452Y19687D01*
X232376Y19792D01*
X232306Y19909D01*
X232253Y20038D01*
D02*
G37*
%LPD*%
G36*
X236266Y17704D02*
X235207D01*
X235746Y19131D01*
X236266Y17704D01*
D02*
G37*
%LPC*%
G36*
X288107Y52953D02*
X284264D01*
Y51544D01*
Y51538D01*
Y51520D01*
Y51497D01*
Y51462D01*
Y51427D01*
X284269Y51380D01*
X284275Y51275D01*
X284281Y51152D01*
X284293Y51035D01*
X284316Y50918D01*
X284340Y50812D01*
Y50806D01*
X284346Y50795D01*
X284351Y50777D01*
X284357Y50754D01*
X284386Y50695D01*
X284422Y50613D01*
X284468Y50526D01*
X284533Y50432D01*
X284609Y50333D01*
X284697Y50239D01*
Y50233D01*
X284708Y50227D01*
X284743Y50198D01*
X284796Y50157D01*
X284866Y50099D01*
X284960Y50040D01*
X285065Y49982D01*
X285182Y49923D01*
X285317Y49870D01*
X285322D01*
X285334Y49865D01*
X285352Y49859D01*
X285381Y49853D01*
X285416Y49841D01*
X285463Y49830D01*
X285510Y49818D01*
X285568Y49806D01*
X285632Y49794D01*
X285697Y49783D01*
X285855Y49759D01*
X286030Y49748D01*
X286223Y49742D01*
X286305D01*
X286346Y49748D01*
X286393D01*
X286504Y49759D01*
X286633Y49771D01*
X286768Y49794D01*
X286908Y49824D01*
X287042Y49865D01*
X287048D01*
X287060Y49870D01*
X287083Y49876D01*
X287113Y49888D01*
X287148Y49906D01*
X287189Y49923D01*
X287282Y49970D01*
X287393Y50028D01*
X287505Y50099D01*
X287616Y50181D01*
X287721Y50274D01*
X287727Y50286D01*
X287756Y50309D01*
X287791Y50356D01*
X287832Y50415D01*
X287885Y50496D01*
X287937Y50590D01*
X287984Y50695D01*
X288031Y50818D01*
X288037Y50830D01*
X288043Y50865D01*
X288054Y50918D01*
X288066Y50999D01*
X288084Y51093D01*
X288095Y51210D01*
X288101Y51350D01*
X288107Y51503D01*
Y52953D01*
D02*
G37*
G36*
X287124Y49233D02*
X287048Y48502D01*
X287060D01*
X287089Y48496D01*
X287136Y48484D01*
X287194Y48467D01*
X287253Y48443D01*
X287323Y48414D01*
X287388Y48373D01*
X287446Y48320D01*
X287452Y48314D01*
X287470Y48291D01*
X287493Y48262D01*
X287516Y48215D01*
X287540Y48162D01*
X287563Y48104D01*
X287581Y48034D01*
X287586Y47963D01*
Y47952D01*
X287581Y47922D01*
X287575Y47881D01*
X287563Y47829D01*
X287540Y47765D01*
X287505Y47700D01*
X287464Y47636D01*
X287399Y47571D01*
X287388Y47566D01*
X287364Y47548D01*
X287317Y47519D01*
X287259Y47490D01*
X287177Y47460D01*
X287083Y47431D01*
X286966Y47414D01*
X286838Y47408D01*
X286779D01*
X286715Y47414D01*
X286639Y47425D01*
X286551Y47449D01*
X286463Y47478D01*
X286375Y47519D01*
X286305Y47571D01*
X286299Y47577D01*
X286276Y47601D01*
X286247Y47636D01*
X286212Y47683D01*
X286182Y47741D01*
X286153Y47811D01*
X286130Y47893D01*
X286124Y47981D01*
Y47987D01*
Y47993D01*
Y48010D01*
X286130Y48034D01*
X286136Y48098D01*
X286159Y48174D01*
X286194Y48262D01*
X286241Y48361D01*
X286311Y48455D01*
X286358Y48507D01*
X286405Y48554D01*
X286323Y49145D01*
X284322Y48771D01*
Y46823D01*
X285012D01*
Y48215D01*
X285662Y48332D01*
X285656Y48320D01*
X285644Y48291D01*
X285621Y48238D01*
X285597Y48174D01*
X285580Y48104D01*
X285557Y48016D01*
X285545Y47922D01*
X285539Y47829D01*
Y47823D01*
Y47805D01*
Y47782D01*
X285545Y47747D01*
X285551Y47706D01*
X285557Y47653D01*
X285568Y47601D01*
X285586Y47542D01*
X285627Y47408D01*
X285656Y47343D01*
X285691Y47273D01*
X285732Y47203D01*
X285779Y47133D01*
X285831Y47063D01*
X285896Y46998D01*
X285902Y46992D01*
X285913Y46981D01*
X285931Y46969D01*
X285960Y46946D01*
X285995Y46916D01*
X286036Y46887D01*
X286089Y46858D01*
X286147Y46823D01*
X286212Y46793D01*
X286282Y46764D01*
X286358Y46735D01*
X286440Y46706D01*
X286528Y46682D01*
X286621Y46670D01*
X286721Y46659D01*
X286826Y46653D01*
X286873D01*
X286908Y46659D01*
X286949D01*
X286996Y46665D01*
X287048Y46676D01*
X287107Y46688D01*
X287241Y46717D01*
X287382Y46770D01*
X287528Y46834D01*
X287604Y46881D01*
X287674Y46928D01*
X287680Y46934D01*
X287698Y46946D01*
X287721Y46969D01*
X287750Y46998D01*
X287791Y47033D01*
X287832Y47080D01*
X287879Y47139D01*
X287926Y47197D01*
X287973Y47267D01*
X288019Y47349D01*
X288060Y47431D01*
X288101Y47525D01*
X288130Y47624D01*
X288154Y47735D01*
X288172Y47846D01*
X288177Y47969D01*
Y47975D01*
Y47993D01*
Y48022D01*
X288172Y48057D01*
Y48104D01*
X288160Y48156D01*
X288154Y48215D01*
X288142Y48279D01*
X288107Y48414D01*
X288060Y48560D01*
X287990Y48700D01*
X287943Y48771D01*
X287896Y48835D01*
X287891Y48841D01*
X287885Y48847D01*
X287867Y48864D01*
X287844Y48888D01*
X287815Y48917D01*
X287779Y48946D01*
X287738Y48975D01*
X287692Y49011D01*
X287581Y49081D01*
X287452Y49145D01*
X287294Y49198D01*
X287212Y49215D01*
X287124Y49233D01*
D02*
G37*
%LPD*%
G36*
X287458Y51602D02*
Y51596D01*
Y51590D01*
Y51573D01*
Y51549D01*
Y51491D01*
X287452Y51421D01*
Y51350D01*
X287440Y51269D01*
X287434Y51198D01*
X287423Y51140D01*
Y51134D01*
X287411Y51105D01*
X287399Y51070D01*
X287388Y51029D01*
X287335Y50924D01*
X287306Y50871D01*
X287265Y50824D01*
X287259Y50818D01*
X287241Y50801D01*
X287218Y50783D01*
X287177Y50754D01*
X287124Y50719D01*
X287060Y50690D01*
X286984Y50654D01*
X286896Y50625D01*
X286890D01*
X286884Y50619D01*
X286867D01*
X286849Y50613D01*
X286791Y50602D01*
X286709Y50584D01*
X286610Y50567D01*
X286487Y50555D01*
X286346Y50549D01*
X286188Y50543D01*
X286077D01*
X286036Y50549D01*
X285937Y50555D01*
X285826Y50561D01*
X285714Y50578D01*
X285603Y50596D01*
X285510Y50625D01*
X285498Y50631D01*
X285469Y50637D01*
X285428Y50654D01*
X285375Y50678D01*
X285311Y50713D01*
X285252Y50748D01*
X285188Y50789D01*
X285135Y50842D01*
X285129Y50847D01*
X285112Y50865D01*
X285088Y50900D01*
X285059Y50941D01*
X285030Y50988D01*
X285001Y51052D01*
X284977Y51122D01*
X284954Y51198D01*
Y51204D01*
X284948Y51234D01*
X284942Y51275D01*
X284930Y51339D01*
Y51380D01*
X284925Y51427D01*
Y51473D01*
X284919Y51532D01*
Y51596D01*
X284913Y51666D01*
Y51748D01*
Y51830D01*
Y52175D01*
X287458D01*
Y51602D01*
D02*
G37*
%LPC*%
G36*
X146034Y20073D02*
X145981D01*
X145946Y20067D01*
X145899Y20061D01*
X145846Y20055D01*
X145782Y20044D01*
X145718Y20032D01*
X145583Y19985D01*
X145507Y19962D01*
X145437Y19927D01*
X145367Y19886D01*
X145291Y19839D01*
X145226Y19786D01*
X145162Y19722D01*
X145156Y19716D01*
X145150Y19710D01*
X145139Y19693D01*
X145121Y19675D01*
X145074Y19617D01*
X145022Y19535D01*
X144975Y19441D01*
X144928Y19336D01*
X144899Y19213D01*
X144887Y19149D01*
Y19084D01*
Y19078D01*
Y19061D01*
X144893Y19038D01*
Y19002D01*
X144905Y18956D01*
X144916Y18909D01*
X144934Y18856D01*
X144957Y18798D01*
X144987Y18733D01*
X145022Y18669D01*
X145069Y18599D01*
X145121Y18534D01*
X145185Y18464D01*
X145262Y18400D01*
X145343Y18336D01*
X145443Y18277D01*
X145437D01*
X145425Y18271D01*
X145414D01*
X145390Y18265D01*
X145326Y18242D01*
X145256Y18213D01*
X145168Y18172D01*
X145080Y18113D01*
X144998Y18043D01*
X144916Y17961D01*
X144911Y17949D01*
X144887Y17920D01*
X144852Y17867D01*
X144817Y17797D01*
X144782Y17709D01*
X144747Y17604D01*
X144723Y17493D01*
X144718Y17364D01*
Y17358D01*
Y17341D01*
Y17318D01*
X144723Y17282D01*
X144729Y17236D01*
X144735Y17189D01*
X144747Y17130D01*
X144764Y17066D01*
X144811Y16931D01*
X144840Y16861D01*
X144875Y16791D01*
X144916Y16715D01*
X144969Y16645D01*
X145027Y16575D01*
X145092Y16504D01*
X145098Y16499D01*
X145109Y16487D01*
X145127Y16469D01*
X145156Y16452D01*
X145191Y16422D01*
X145238Y16393D01*
X145285Y16358D01*
X145343Y16329D01*
X145408Y16294D01*
X145478Y16259D01*
X145554Y16229D01*
X145636Y16206D01*
X145724Y16183D01*
X145811Y16165D01*
X145911Y16153D01*
X146010Y16148D01*
X146063D01*
X146098Y16153D01*
X146145Y16159D01*
X146197Y16165D01*
X146256Y16171D01*
X146315Y16183D01*
X146455Y16218D01*
X146601Y16276D01*
X146671Y16306D01*
X146747Y16346D01*
X146818Y16393D01*
X146882Y16446D01*
X146888Y16452D01*
X146894Y16458D01*
X146911Y16475D01*
X146935Y16499D01*
X146964Y16528D01*
X146993Y16569D01*
X147022Y16610D01*
X147057Y16657D01*
X147128Y16768D01*
X147192Y16902D01*
X147245Y17054D01*
X147262Y17142D01*
X147274Y17230D01*
X146560Y17318D01*
Y17312D01*
Y17306D01*
X146554Y17271D01*
X146543Y17224D01*
X146525Y17160D01*
X146502Y17095D01*
X146473Y17025D01*
X146432Y16955D01*
X146379Y16896D01*
X146373Y16891D01*
X146350Y16873D01*
X146320Y16849D01*
X146274Y16826D01*
X146221Y16803D01*
X146162Y16779D01*
X146092Y16762D01*
X146016Y16756D01*
X145975D01*
X145934Y16768D01*
X145882Y16779D01*
X145823Y16797D01*
X145759Y16826D01*
X145694Y16867D01*
X145630Y16926D01*
X145624Y16931D01*
X145607Y16961D01*
X145577Y16996D01*
X145548Y17048D01*
X145525Y17119D01*
X145495Y17201D01*
X145478Y17294D01*
X145472Y17399D01*
Y17405D01*
Y17411D01*
Y17446D01*
X145478Y17499D01*
X145490Y17563D01*
X145507Y17633D01*
X145536Y17704D01*
X145572Y17780D01*
X145624Y17844D01*
X145630Y17850D01*
X145653Y17867D01*
X145683Y17897D01*
X145729Y17926D01*
X145782Y17955D01*
X145846Y17985D01*
X145917Y18002D01*
X145993Y18008D01*
X146045D01*
X146086Y18002D01*
X146133Y17996D01*
X146192Y17985D01*
X146256Y17967D01*
X146326Y17949D01*
X146244Y18546D01*
X146197D01*
X146139Y18552D01*
X146075Y18558D01*
X146004Y18570D01*
X145928Y18593D01*
X145852Y18628D01*
X145788Y18669D01*
X145782Y18675D01*
X145765Y18692D01*
X145735Y18727D01*
X145706Y18768D01*
X145677Y18821D01*
X145648Y18885D01*
X145630Y18956D01*
X145624Y19038D01*
Y19043D01*
Y19073D01*
X145630Y19108D01*
X145636Y19149D01*
X145653Y19195D01*
X145671Y19248D01*
X145700Y19301D01*
X145741Y19347D01*
X145747Y19353D01*
X145765Y19365D01*
X145788Y19383D01*
X145823Y19406D01*
X145870Y19429D01*
X145923Y19447D01*
X145987Y19459D01*
X146057Y19465D01*
X146086D01*
X146122Y19459D01*
X146168Y19447D01*
X146221Y19429D01*
X146274Y19406D01*
X146332Y19377D01*
X146385Y19330D01*
X146391Y19324D01*
X146408Y19307D01*
X146426Y19277D01*
X146455Y19236D01*
X146484Y19178D01*
X146508Y19114D01*
X146531Y19038D01*
X146543Y18950D01*
X147221Y19061D01*
Y19067D01*
X147215Y19078D01*
Y19096D01*
X147210Y19119D01*
X147192Y19184D01*
X147169Y19266D01*
X147139Y19353D01*
X147104Y19447D01*
X147057Y19541D01*
X147011Y19623D01*
X147005Y19634D01*
X146981Y19658D01*
X146952Y19693D01*
X146905Y19745D01*
X146847Y19798D01*
X146783Y19851D01*
X146701Y19903D01*
X146613Y19950D01*
X146607D01*
X146601Y19956D01*
X146566Y19968D01*
X146513Y19991D01*
X146443Y20014D01*
X146355Y20032D01*
X146262Y20055D01*
X146151Y20067D01*
X146034Y20073D01*
D02*
G37*
G36*
X149854Y20061D02*
X149035D01*
X147490Y16218D01*
X148333D01*
X148660Y17089D01*
X150211D01*
X150526Y16218D01*
X151346D01*
X149854Y20061D01*
D02*
G37*
%LPD*%
G36*
X149971Y17739D02*
X148912D01*
X149450Y19166D01*
X149971Y17739D01*
D02*
G37*
%LPC*%
G36*
X69705Y122398D02*
X69606D01*
X69536Y122392D01*
X69448Y122386D01*
X69349Y122374D01*
X69238Y122363D01*
X69121Y122351D01*
X68869Y122304D01*
X68746Y122269D01*
X68617Y122234D01*
X68500Y122187D01*
X68383Y122134D01*
X68278Y122076D01*
X68185Y122006D01*
X68179Y122000D01*
X68167Y121988D01*
X68144Y121965D01*
X68114Y121935D01*
X68079Y121895D01*
X68038Y121848D01*
X67997Y121795D01*
X67956Y121731D01*
X67910Y121661D01*
X67869Y121584D01*
X67828Y121503D01*
X67793Y121415D01*
X67763Y121315D01*
X67740Y121216D01*
X67728Y121105D01*
X67722Y120994D01*
Y120988D01*
Y120976D01*
Y120953D01*
X67728Y120918D01*
Y120882D01*
X67734Y120836D01*
X67752Y120736D01*
X67781Y120619D01*
X67822Y120496D01*
X67880Y120374D01*
X67962Y120262D01*
X67968D01*
X67974Y120251D01*
X68009Y120216D01*
X68062Y120169D01*
X68144Y120116D01*
X68243Y120058D01*
X68366Y119999D01*
X68512Y119947D01*
X68676Y119911D01*
X68758Y120625D01*
X68746D01*
X68723Y120631D01*
X68682Y120637D01*
X68635Y120649D01*
X68582Y120666D01*
X68524Y120689D01*
X68477Y120719D01*
X68430Y120754D01*
X68424Y120760D01*
X68413Y120771D01*
X68401Y120801D01*
X68383Y120830D01*
X68360Y120877D01*
X68348Y120923D01*
X68337Y120982D01*
X68331Y121046D01*
Y121058D01*
X68337Y121087D01*
X68343Y121128D01*
X68354Y121181D01*
X68383Y121239D01*
X68419Y121304D01*
X68465Y121368D01*
X68536Y121432D01*
X68547Y121438D01*
X68559Y121450D01*
X68577Y121456D01*
X68606Y121473D01*
X68635Y121485D01*
X68676Y121503D01*
X68723Y121520D01*
X68781Y121532D01*
X68840Y121549D01*
X68910Y121567D01*
X68992Y121584D01*
X69080Y121602D01*
X69179Y121614D01*
X69290Y121625D01*
X69407Y121637D01*
X69401Y121631D01*
X69396Y121625D01*
X69378Y121608D01*
X69354Y121584D01*
X69308Y121526D01*
X69249Y121444D01*
X69185Y121345D01*
X69138Y121228D01*
X69097Y121093D01*
X69091Y121017D01*
X69085Y120941D01*
Y120935D01*
Y120923D01*
Y120900D01*
X69091Y120865D01*
X69097Y120824D01*
X69103Y120783D01*
X69126Y120678D01*
X69167Y120555D01*
X69197Y120491D01*
X69232Y120420D01*
X69273Y120356D01*
X69319Y120292D01*
X69372Y120227D01*
X69431Y120163D01*
X69436Y120157D01*
X69448Y120151D01*
X69466Y120134D01*
X69495Y120110D01*
X69530Y120087D01*
X69571Y120058D01*
X69618Y120028D01*
X69676Y119999D01*
X69741Y119970D01*
X69805Y119941D01*
X69881Y119911D01*
X69963Y119888D01*
X70144Y119847D01*
X70238Y119841D01*
X70343Y119835D01*
X70402D01*
X70443Y119841D01*
X70489Y119847D01*
X70548Y119853D01*
X70612Y119865D01*
X70683Y119876D01*
X70829Y119917D01*
X70911Y119947D01*
X70987Y119982D01*
X71069Y120023D01*
X71145Y120069D01*
X71215Y120122D01*
X71285Y120180D01*
X71291Y120186D01*
X71303Y120198D01*
X71320Y120216D01*
X71343Y120245D01*
X71367Y120280D01*
X71402Y120321D01*
X71431Y120368D01*
X71466Y120420D01*
X71501Y120479D01*
X71531Y120549D01*
X71566Y120619D01*
X71589Y120701D01*
X71613Y120783D01*
X71630Y120871D01*
X71642Y120964D01*
X71648Y121064D01*
Y121070D01*
Y121087D01*
Y121122D01*
X71642Y121163D01*
X71636Y121210D01*
X71624Y121269D01*
X71607Y121333D01*
X71589Y121403D01*
X71566Y121479D01*
X71537Y121555D01*
X71501Y121637D01*
X71455Y121713D01*
X71402Y121795D01*
X71343Y121877D01*
X71273Y121953D01*
X71191Y122023D01*
X71186Y122029D01*
X71168Y122041D01*
X71145Y122058D01*
X71104Y122082D01*
X71057Y122111D01*
X70992Y122140D01*
X70922Y122175D01*
X70835Y122211D01*
X70741Y122246D01*
X70630Y122281D01*
X70507Y122310D01*
X70372Y122339D01*
X70226Y122363D01*
X70068Y122380D01*
X69893Y122392D01*
X69705Y122398D01*
D02*
G37*
G36*
X69676Y119397D02*
X69594D01*
X69553Y119391D01*
X69507D01*
X69396Y119379D01*
X69267Y119367D01*
X69132Y119344D01*
X68992Y119315D01*
X68857Y119274D01*
X68851D01*
X68840Y119268D01*
X68816Y119262D01*
X68787Y119250D01*
X68752Y119233D01*
X68711Y119215D01*
X68617Y119168D01*
X68506Y119110D01*
X68395Y119040D01*
X68284Y118958D01*
X68179Y118864D01*
X68173Y118853D01*
X68144Y118829D01*
X68108Y118782D01*
X68068Y118724D01*
X68015Y118642D01*
X67962Y118548D01*
X67915Y118443D01*
X67869Y118320D01*
X67863Y118308D01*
X67857Y118273D01*
X67845Y118221D01*
X67834Y118139D01*
X67816Y118045D01*
X67804Y117928D01*
X67798Y117788D01*
X67793Y117636D01*
Y116185D01*
X71636D01*
Y117595D01*
Y117601D01*
Y117618D01*
Y117642D01*
Y117677D01*
Y117712D01*
X71630Y117759D01*
X71624Y117864D01*
X71618Y117987D01*
X71607Y118104D01*
X71583Y118221D01*
X71560Y118326D01*
Y118332D01*
X71554Y118344D01*
X71548Y118361D01*
X71542Y118385D01*
X71513Y118443D01*
X71478Y118525D01*
X71431Y118613D01*
X71367Y118706D01*
X71291Y118806D01*
X71203Y118899D01*
Y118905D01*
X71191Y118911D01*
X71156Y118940D01*
X71104Y118981D01*
X71034Y119040D01*
X70940Y119098D01*
X70835Y119157D01*
X70718Y119215D01*
X70583Y119268D01*
X70577D01*
X70565Y119274D01*
X70548Y119280D01*
X70519Y119286D01*
X70484Y119297D01*
X70437Y119309D01*
X70390Y119321D01*
X70332Y119332D01*
X70267Y119344D01*
X70203Y119356D01*
X70045Y119379D01*
X69869Y119391D01*
X69676Y119397D01*
D02*
G37*
%LPD*%
G36*
X70407Y121567D02*
X70489Y121555D01*
X70577Y121532D01*
X70671Y121503D01*
X70758Y121462D01*
X70840Y121409D01*
X70846Y121403D01*
X70870Y121380D01*
X70905Y121345D01*
X70940Y121298D01*
X70975Y121245D01*
X71010Y121181D01*
X71034Y121105D01*
X71039Y121029D01*
Y121017D01*
Y120994D01*
X71034Y120959D01*
X71022Y120912D01*
X70998Y120853D01*
X70969Y120801D01*
X70928Y120742D01*
X70876Y120689D01*
X70870Y120684D01*
X70846Y120672D01*
X70805Y120649D01*
X70747Y120625D01*
X70677Y120602D01*
X70583Y120578D01*
X70472Y120567D01*
X70343Y120561D01*
X70285D01*
X70214Y120567D01*
X70133Y120578D01*
X70045Y120596D01*
X69951Y120619D01*
X69869Y120654D01*
X69793Y120701D01*
X69787Y120707D01*
X69770Y120730D01*
X69741Y120760D01*
X69711Y120801D01*
X69676Y120853D01*
X69653Y120918D01*
X69630Y120988D01*
X69624Y121070D01*
Y121081D01*
Y121105D01*
X69635Y121146D01*
X69647Y121193D01*
X69665Y121251D01*
X69694Y121310D01*
X69735Y121368D01*
X69787Y121427D01*
X69793Y121432D01*
X69817Y121450D01*
X69858Y121473D01*
X69916Y121503D01*
X69986Y121526D01*
X70068Y121549D01*
X70168Y121567D01*
X70285Y121573D01*
X70343D01*
X70407Y121567D01*
D02*
G37*
G36*
X69863Y118589D02*
X69963Y118584D01*
X70074Y118578D01*
X70185Y118560D01*
X70296Y118543D01*
X70390Y118513D01*
X70402Y118507D01*
X70431Y118502D01*
X70472Y118484D01*
X70525Y118461D01*
X70589Y118426D01*
X70647Y118390D01*
X70712Y118350D01*
X70764Y118297D01*
X70770Y118291D01*
X70788Y118273D01*
X70811Y118238D01*
X70840Y118197D01*
X70870Y118151D01*
X70899Y118086D01*
X70922Y118016D01*
X70946Y117940D01*
Y117934D01*
X70952Y117905D01*
X70957Y117864D01*
X70969Y117800D01*
Y117759D01*
X70975Y117712D01*
Y117665D01*
X70981Y117606D01*
Y117542D01*
X70987Y117472D01*
Y117390D01*
Y117308D01*
Y116963D01*
X68442D01*
Y117536D01*
Y117542D01*
Y117548D01*
Y117566D01*
Y117589D01*
Y117648D01*
X68448Y117718D01*
Y117788D01*
X68459Y117870D01*
X68465Y117940D01*
X68477Y117999D01*
Y118004D01*
X68489Y118034D01*
X68500Y118069D01*
X68512Y118110D01*
X68565Y118215D01*
X68594Y118268D01*
X68635Y118314D01*
X68641Y118320D01*
X68658Y118338D01*
X68682Y118355D01*
X68723Y118385D01*
X68775Y118420D01*
X68840Y118449D01*
X68916Y118484D01*
X69003Y118513D01*
X69009D01*
X69015Y118519D01*
X69033D01*
X69050Y118525D01*
X69109Y118537D01*
X69191Y118554D01*
X69290Y118572D01*
X69413Y118584D01*
X69553Y118589D01*
X69711Y118595D01*
X69823D01*
X69863Y118589D01*
D02*
G37*
%LPC*%
G36*
X69676Y141533D02*
X69594D01*
X69553Y141527D01*
X69507D01*
X69396Y141515D01*
X69267Y141504D01*
X69132Y141480D01*
X68992Y141451D01*
X68857Y141410D01*
X68851D01*
X68840Y141404D01*
X68816Y141398D01*
X68787Y141386D01*
X68752Y141369D01*
X68711Y141351D01*
X68617Y141305D01*
X68506Y141246D01*
X68395Y141176D01*
X68284Y141094D01*
X68179Y141000D01*
X68173Y140989D01*
X68144Y140965D01*
X68108Y140919D01*
X68068Y140860D01*
X68015Y140778D01*
X67962Y140684D01*
X67915Y140579D01*
X67869Y140456D01*
X67863Y140445D01*
X67857Y140410D01*
X67845Y140357D01*
X67834Y140275D01*
X67816Y140181D01*
X67804Y140064D01*
X67798Y139924D01*
X67793Y139772D01*
Y138321D01*
X71636D01*
Y139731D01*
Y139737D01*
Y139754D01*
Y139778D01*
Y139813D01*
Y139848D01*
X71630Y139895D01*
X71624Y140000D01*
X71618Y140123D01*
X71607Y140240D01*
X71583Y140357D01*
X71560Y140462D01*
Y140468D01*
X71554Y140480D01*
X71548Y140497D01*
X71542Y140521D01*
X71513Y140579D01*
X71478Y140661D01*
X71431Y140749D01*
X71367Y140842D01*
X71291Y140942D01*
X71203Y141035D01*
Y141041D01*
X71191Y141047D01*
X71156Y141077D01*
X71104Y141117D01*
X71034Y141176D01*
X70940Y141234D01*
X70835Y141293D01*
X70718Y141351D01*
X70583Y141404D01*
X70577D01*
X70565Y141410D01*
X70548Y141416D01*
X70519Y141422D01*
X70484Y141433D01*
X70437Y141445D01*
X70390Y141457D01*
X70331Y141468D01*
X70267Y141480D01*
X70203Y141492D01*
X70045Y141515D01*
X69869Y141527D01*
X69676Y141533D01*
D02*
G37*
G36*
X71648Y143920D02*
X67793D01*
Y143183D01*
X70565D01*
X70560Y143177D01*
X70548Y143165D01*
X70530Y143141D01*
X70501Y143112D01*
X70472Y143071D01*
X70437Y143025D01*
X70396Y142972D01*
X70355Y142908D01*
X70308Y142843D01*
X70261Y142767D01*
X70174Y142609D01*
X70086Y142428D01*
X70010Y142229D01*
X70677D01*
Y142235D01*
X70682Y142241D01*
X70688Y142258D01*
X70694Y142282D01*
X70718Y142340D01*
X70758Y142416D01*
X70805Y142510D01*
X70870Y142615D01*
X70940Y142732D01*
X71034Y142855D01*
X71039Y142861D01*
X71045Y142872D01*
X71063Y142890D01*
X71080Y142908D01*
X71133Y142966D01*
X71209Y143042D01*
X71297Y143118D01*
X71402Y143194D01*
X71519Y143264D01*
X71648Y143317D01*
Y143920D01*
D02*
G37*
G36*
X69682Y147506D02*
X69577D01*
X69507Y147500D01*
X69413Y147494D01*
X69314Y147488D01*
X69197Y147476D01*
X69074Y147459D01*
X68816Y147412D01*
X68688Y147383D01*
X68559Y147348D01*
X68436Y147301D01*
X68319Y147248D01*
X68208Y147190D01*
X68114Y147125D01*
X68108Y147119D01*
X68097Y147114D01*
X68079Y147096D01*
X68056Y147067D01*
X68021Y147038D01*
X67991Y146997D01*
X67956Y146956D01*
X67921Y146903D01*
X67880Y146845D01*
X67845Y146780D01*
X67816Y146704D01*
X67787Y146628D01*
X67757Y146546D01*
X67740Y146458D01*
X67728Y146359D01*
X67722Y146260D01*
Y146254D01*
Y146236D01*
X67728Y146207D01*
Y146166D01*
X67734Y146119D01*
X67746Y146066D01*
X67757Y146002D01*
X67775Y145938D01*
X67798Y145868D01*
X67828Y145792D01*
X67863Y145715D01*
X67904Y145640D01*
X67950Y145563D01*
X68009Y145493D01*
X68073Y145417D01*
X68149Y145353D01*
X68155Y145347D01*
X68173Y145341D01*
X68196Y145324D01*
X68237Y145300D01*
X68284Y145277D01*
X68342Y145247D01*
X68419Y145212D01*
X68506Y145183D01*
X68606Y145154D01*
X68717Y145119D01*
X68840Y145090D01*
X68980Y145066D01*
X69138Y145043D01*
X69302Y145031D01*
X69489Y145019D01*
X69688Y145013D01*
X69793D01*
X69863Y145019D01*
X69957Y145025D01*
X70056Y145031D01*
X70168Y145043D01*
X70290Y145060D01*
X70548Y145107D01*
X70677Y145136D01*
X70805Y145171D01*
X70928Y145212D01*
X71045Y145265D01*
X71156Y145324D01*
X71250Y145388D01*
X71256Y145394D01*
X71267Y145400D01*
X71285Y145423D01*
X71314Y145446D01*
X71343Y145476D01*
X71379Y145517D01*
X71414Y145563D01*
X71449Y145616D01*
X71484Y145675D01*
X71525Y145739D01*
X71554Y145809D01*
X71583Y145885D01*
X71613Y145973D01*
X71630Y146061D01*
X71642Y146160D01*
X71648Y146260D01*
Y146265D01*
Y146283D01*
Y146312D01*
X71642Y146353D01*
X71636Y146400D01*
X71624Y146453D01*
X71613Y146511D01*
X71595Y146575D01*
X71578Y146646D01*
X71548Y146716D01*
X71519Y146792D01*
X71478Y146862D01*
X71431Y146932D01*
X71379Y147002D01*
X71314Y147067D01*
X71244Y147131D01*
X71238Y147137D01*
X71221Y147149D01*
X71191Y147166D01*
X71156Y147190D01*
X71104Y147219D01*
X71039Y147248D01*
X70963Y147283D01*
X70876Y147318D01*
X70770Y147353D01*
X70659Y147389D01*
X70530Y147418D01*
X70390Y147447D01*
X70232Y147470D01*
X70062Y147488D01*
X69881Y147500D01*
X69682Y147506D01*
D02*
G37*
%LPD*%
G36*
X69863Y140726D02*
X69963Y140720D01*
X70074Y140714D01*
X70185Y140696D01*
X70296Y140679D01*
X70390Y140649D01*
X70402Y140644D01*
X70431Y140638D01*
X70472Y140620D01*
X70525Y140597D01*
X70589Y140562D01*
X70647Y140527D01*
X70712Y140486D01*
X70764Y140433D01*
X70770Y140427D01*
X70788Y140410D01*
X70811Y140375D01*
X70840Y140333D01*
X70870Y140287D01*
X70899Y140222D01*
X70922Y140152D01*
X70946Y140076D01*
Y140070D01*
X70951Y140041D01*
X70957Y140000D01*
X70969Y139936D01*
Y139895D01*
X70975Y139848D01*
Y139801D01*
X70981Y139743D01*
Y139678D01*
X70987Y139608D01*
Y139526D01*
Y139444D01*
Y139099D01*
X68442D01*
Y139673D01*
Y139678D01*
Y139684D01*
Y139702D01*
Y139725D01*
Y139784D01*
X68448Y139854D01*
Y139924D01*
X68459Y140006D01*
X68465Y140076D01*
X68477Y140135D01*
Y140140D01*
X68489Y140170D01*
X68500Y140205D01*
X68512Y140246D01*
X68565Y140351D01*
X68594Y140404D01*
X68635Y140451D01*
X68641Y140456D01*
X68658Y140474D01*
X68682Y140491D01*
X68723Y140521D01*
X68775Y140556D01*
X68840Y140585D01*
X68916Y140620D01*
X69003Y140649D01*
X69009D01*
X69015Y140655D01*
X69033D01*
X69050Y140661D01*
X69109Y140673D01*
X69191Y140690D01*
X69290Y140708D01*
X69413Y140720D01*
X69553Y140726D01*
X69711Y140731D01*
X69823D01*
X69863Y140726D01*
D02*
G37*
G36*
X69910Y146722D02*
X70051D01*
X70209Y146710D01*
X70361Y146698D01*
X70431Y146693D01*
X70501Y146681D01*
X70560Y146669D01*
X70612Y146657D01*
X70624D01*
X70653Y146646D01*
X70694Y146634D01*
X70747Y146611D01*
X70864Y146558D01*
X70911Y146523D01*
X70951Y146488D01*
X70957Y146482D01*
X70963Y146470D01*
X70981Y146447D01*
X70998Y146423D01*
X71010Y146388D01*
X71028Y146347D01*
X71034Y146306D01*
X71039Y146260D01*
Y146254D01*
Y146236D01*
X71034Y146213D01*
X71028Y146178D01*
X71016Y146143D01*
X71004Y146102D01*
X70981Y146061D01*
X70951Y146020D01*
X70946Y146014D01*
X70934Y146002D01*
X70911Y145985D01*
X70881Y145961D01*
X70840Y145938D01*
X70788Y145909D01*
X70723Y145885D01*
X70647Y145862D01*
X70636D01*
X70618Y145856D01*
X70595Y145850D01*
X70560Y145844D01*
X70519Y145838D01*
X70472Y145833D01*
X70419Y145827D01*
X70355Y145821D01*
X70285Y145815D01*
X70209Y145809D01*
X70121Y145803D01*
X70021Y145797D01*
X69916D01*
X69805Y145792D01*
X69518D01*
X69454Y145797D01*
X69314D01*
X69156Y145809D01*
X69003Y145821D01*
X68927Y145827D01*
X68863Y145833D01*
X68799Y145844D01*
X68746Y145856D01*
X68734Y145862D01*
X68705Y145868D01*
X68664Y145879D01*
X68612Y145903D01*
X68553Y145926D01*
X68500Y145949D01*
X68454Y145985D01*
X68413Y146020D01*
X68407Y146026D01*
X68401Y146037D01*
X68389Y146061D01*
X68372Y146090D01*
X68354Y146125D01*
X68342Y146166D01*
X68337Y146213D01*
X68331Y146260D01*
Y146265D01*
Y146283D01*
X68337Y146306D01*
X68342Y146336D01*
X68366Y146412D01*
X68383Y146447D01*
X68413Y146488D01*
X68419Y146494D01*
X68430Y146505D01*
X68454Y146523D01*
X68483Y146546D01*
X68524Y146575D01*
X68576Y146599D01*
X68641Y146628D01*
X68717Y146651D01*
X68723D01*
X68729Y146657D01*
X68746D01*
X68775Y146663D01*
X68805Y146669D01*
X68846Y146675D01*
X68892Y146681D01*
X68945Y146693D01*
X69009Y146698D01*
X69080Y146704D01*
X69156Y146710D01*
X69243Y146716D01*
X69343Y146722D01*
X69448D01*
X69559Y146728D01*
X69846D01*
X69910Y146722D01*
D02*
G37*
%LPC*%
G36*
X285931Y143183D02*
X285264D01*
Y143177D01*
X285258Y143171D01*
X285252Y143154D01*
X285246Y143130D01*
X285223Y143072D01*
X285182Y142996D01*
X285135Y142902D01*
X285071Y142797D01*
X285001Y142680D01*
X284907Y142557D01*
X284901Y142551D01*
X284895Y142539D01*
X284878Y142522D01*
X284860Y142504D01*
X284808Y142446D01*
X284732Y142370D01*
X284644Y142294D01*
X284539Y142218D01*
X284422Y142147D01*
X284293Y142095D01*
Y141492D01*
X288148D01*
Y142229D01*
X285375D01*
X285381Y142235D01*
X285393Y142247D01*
X285410Y142270D01*
X285439Y142299D01*
X285469Y142340D01*
X285504Y142387D01*
X285545Y142440D01*
X285586Y142504D01*
X285632Y142569D01*
X285679Y142645D01*
X285767Y142803D01*
X285855Y142984D01*
X285931Y143183D01*
D02*
G37*
G36*
X288148Y147091D02*
X284305D01*
Y145681D01*
Y145675D01*
Y145657D01*
Y145634D01*
Y145599D01*
Y145564D01*
X284310Y145517D01*
X284316Y145412D01*
X284322Y145289D01*
X284334Y145172D01*
X284357Y145055D01*
X284381Y144949D01*
Y144944D01*
X284386Y144932D01*
X284392Y144914D01*
X284398Y144891D01*
X284427Y144833D01*
X284462Y144751D01*
X284509Y144663D01*
X284574Y144569D01*
X284650Y144470D01*
X284737Y144376D01*
Y144370D01*
X284749Y144365D01*
X284784Y144335D01*
X284837Y144294D01*
X284907Y144236D01*
X285001Y144177D01*
X285106Y144119D01*
X285223Y144060D01*
X285358Y144008D01*
X285363D01*
X285375Y144002D01*
X285393Y143996D01*
X285422Y143990D01*
X285457Y143978D01*
X285504Y143967D01*
X285551Y143955D01*
X285609Y143943D01*
X285673Y143932D01*
X285738Y143920D01*
X285896Y143896D01*
X286071Y143885D01*
X286264Y143879D01*
X286346D01*
X286387Y143885D01*
X286434D01*
X286545Y143896D01*
X286674Y143908D01*
X286808Y143932D01*
X286949Y143961D01*
X287083Y144002D01*
X287089D01*
X287101Y144008D01*
X287124Y144014D01*
X287154Y144025D01*
X287189Y144043D01*
X287230Y144060D01*
X287323Y144107D01*
X287434Y144166D01*
X287545Y144236D01*
X287657Y144318D01*
X287762Y144411D01*
X287768Y144423D01*
X287797Y144446D01*
X287832Y144493D01*
X287873Y144552D01*
X287926Y144634D01*
X287978Y144727D01*
X288025Y144833D01*
X288072Y144955D01*
X288078Y144967D01*
X288084Y145002D01*
X288095Y145055D01*
X288107Y145137D01*
X288125Y145230D01*
X288136Y145347D01*
X288142Y145488D01*
X288148Y145640D01*
Y147091D01*
D02*
G37*
%LPD*%
G36*
X287499Y145739D02*
Y145733D01*
Y145728D01*
Y145710D01*
Y145687D01*
Y145628D01*
X287493Y145558D01*
Y145488D01*
X287481Y145406D01*
X287475Y145336D01*
X287464Y145277D01*
Y145271D01*
X287452Y145242D01*
X287440Y145207D01*
X287428Y145166D01*
X287376Y145061D01*
X287347Y145008D01*
X287306Y144961D01*
X287300Y144955D01*
X287282Y144938D01*
X287259Y144920D01*
X287218Y144891D01*
X287165Y144856D01*
X287101Y144827D01*
X287025Y144791D01*
X286937Y144762D01*
X286931D01*
X286925Y144756D01*
X286908D01*
X286890Y144751D01*
X286832Y144739D01*
X286750Y144721D01*
X286650Y144704D01*
X286528Y144692D01*
X286387Y144686D01*
X286229Y144680D01*
X286118D01*
X286077Y144686D01*
X285978Y144692D01*
X285866Y144698D01*
X285755Y144715D01*
X285644Y144733D01*
X285551Y144762D01*
X285539Y144768D01*
X285510Y144774D01*
X285469Y144791D01*
X285416Y144815D01*
X285352Y144850D01*
X285293Y144885D01*
X285229Y144926D01*
X285176Y144979D01*
X285170Y144985D01*
X285153Y145002D01*
X285129Y145037D01*
X285100Y145078D01*
X285071Y145125D01*
X285042Y145189D01*
X285018Y145259D01*
X284995Y145336D01*
Y145341D01*
X284989Y145371D01*
X284983Y145412D01*
X284971Y145476D01*
Y145517D01*
X284966Y145564D01*
Y145610D01*
X284960Y145669D01*
Y145733D01*
X284954Y145804D01*
Y145886D01*
Y145967D01*
Y146312D01*
X287499D01*
Y145739D01*
D02*
G37*
%LPC*%
G36*
X208888Y20026D02*
X208069D01*
X206525Y16183D01*
X207367D01*
X207695Y17054D01*
X209245D01*
X209561Y16183D01*
X210380D01*
X208888Y20026D01*
D02*
G37*
G36*
X205109Y20038D02*
X204963D01*
X204922Y20032D01*
X204875Y20026D01*
X204817Y20020D01*
X204758Y20014D01*
X204688Y19997D01*
X204548Y19962D01*
X204396Y19909D01*
X204325Y19874D01*
X204249Y19833D01*
X204185Y19780D01*
X204121Y19728D01*
X204115Y19722D01*
X204109Y19716D01*
X204091Y19699D01*
X204068Y19675D01*
X204045Y19646D01*
X204015Y19605D01*
X203957Y19517D01*
X203898Y19406D01*
X203846Y19277D01*
X203805Y19131D01*
X203799Y19049D01*
X203793Y18967D01*
Y18956D01*
Y18926D01*
X203799Y18874D01*
X203805Y18809D01*
X203817Y18733D01*
X203834Y18651D01*
X203857Y18558D01*
X203887Y18470D01*
X203892Y18458D01*
X203904Y18429D01*
X203928Y18382D01*
X203957Y18324D01*
X203998Y18248D01*
X204050Y18166D01*
X204115Y18078D01*
X204185Y17985D01*
X204191Y17979D01*
X204208Y17955D01*
X204243Y17914D01*
X204296Y17862D01*
X204361Y17791D01*
X204448Y17704D01*
X204548Y17604D01*
X204671Y17493D01*
X204676Y17487D01*
X204688Y17481D01*
X204706Y17464D01*
X204723Y17440D01*
X204782Y17388D01*
X204852Y17318D01*
X204928Y17247D01*
X204998Y17177D01*
X205063Y17113D01*
X205086Y17089D01*
X205109Y17066D01*
X205115Y17060D01*
X205127Y17048D01*
X205144Y17031D01*
X205162Y17002D01*
X205215Y16943D01*
X205261Y16867D01*
X203793D01*
Y16183D01*
X206373D01*
Y16188D01*
Y16200D01*
X206367Y16224D01*
X206361Y16247D01*
X206355Y16282D01*
X206349Y16323D01*
X206326Y16417D01*
X206297Y16534D01*
X206250Y16657D01*
X206197Y16785D01*
X206127Y16914D01*
Y16920D01*
X206116Y16931D01*
X206104Y16949D01*
X206086Y16978D01*
X206057Y17013D01*
X206028Y17054D01*
X205987Y17107D01*
X205946Y17160D01*
X205893Y17224D01*
X205829Y17294D01*
X205765Y17370D01*
X205689Y17452D01*
X205601Y17540D01*
X205513Y17633D01*
X205408Y17733D01*
X205296Y17838D01*
X205291Y17844D01*
X205273Y17856D01*
X205250Y17885D01*
X205215Y17914D01*
X205180Y17949D01*
X205133Y17996D01*
X205033Y18090D01*
X204928Y18195D01*
X204829Y18300D01*
X204782Y18347D01*
X204741Y18388D01*
X204706Y18429D01*
X204682Y18464D01*
X204676Y18476D01*
X204659Y18505D01*
X204636Y18546D01*
X204606Y18605D01*
X204577Y18675D01*
X204554Y18751D01*
X204536Y18833D01*
X204530Y18915D01*
Y18926D01*
Y18956D01*
X204536Y19002D01*
X204548Y19055D01*
X204565Y19114D01*
X204589Y19178D01*
X204618Y19242D01*
X204665Y19295D01*
X204671Y19301D01*
X204688Y19318D01*
X204717Y19336D01*
X204758Y19365D01*
X204811Y19388D01*
X204875Y19406D01*
X204951Y19424D01*
X205033Y19429D01*
X205068D01*
X205115Y19424D01*
X205162Y19412D01*
X205221Y19394D01*
X205285Y19371D01*
X205343Y19336D01*
X205402Y19289D01*
X205408Y19283D01*
X205425Y19260D01*
X205443Y19230D01*
X205472Y19178D01*
X205495Y19114D01*
X205525Y19038D01*
X205542Y18938D01*
X205554Y18827D01*
X206285Y18897D01*
Y18903D01*
X206279Y18926D01*
Y18956D01*
X206268Y18996D01*
X206262Y19049D01*
X206244Y19102D01*
X206233Y19166D01*
X206209Y19236D01*
X206156Y19377D01*
X206086Y19523D01*
X206040Y19593D01*
X205993Y19658D01*
X205934Y19716D01*
X205876Y19769D01*
X205870Y19774D01*
X205858Y19780D01*
X205841Y19792D01*
X205811Y19810D01*
X205782Y19833D01*
X205741Y19857D01*
X205694Y19880D01*
X205636Y19903D01*
X205577Y19927D01*
X205513Y19950D01*
X205367Y19997D01*
X205203Y20026D01*
X205109Y20038D01*
D02*
G37*
%LPD*%
G36*
X209005Y17704D02*
X207947D01*
X208485Y19131D01*
X209005Y17704D01*
D02*
G37*
%LPC*%
G36*
X181233Y20096D02*
X181163D01*
X181116Y20090D01*
X181057Y20085D01*
X180987Y20073D01*
X180911Y20061D01*
X180829Y20044D01*
X180736Y20020D01*
X180648Y19991D01*
X180548Y19962D01*
X180455Y19921D01*
X180361Y19868D01*
X180268Y19816D01*
X180180Y19751D01*
X180092Y19675D01*
X180086D01*
X180080Y19663D01*
X180051Y19628D01*
X180004Y19576D01*
X179946Y19494D01*
X179882Y19394D01*
X179811Y19277D01*
X179747Y19137D01*
X179694Y18973D01*
X180461Y18792D01*
Y18798D01*
X180466Y18803D01*
X180472Y18839D01*
X180496Y18891D01*
X180525Y18961D01*
X180560Y19038D01*
X180613Y19114D01*
X180671Y19189D01*
X180747Y19260D01*
X180759Y19266D01*
X180788Y19289D01*
X180829Y19318D01*
X180894Y19347D01*
X180970Y19383D01*
X181063Y19406D01*
X181163Y19429D01*
X181274Y19435D01*
X181315D01*
X181344Y19429D01*
X181379Y19424D01*
X181420Y19418D01*
X181519Y19394D01*
X181631Y19359D01*
X181748Y19307D01*
X181800Y19271D01*
X181859Y19230D01*
X181912Y19178D01*
X181964Y19125D01*
Y19119D01*
X181976Y19114D01*
X181988Y19090D01*
X182005Y19067D01*
X182023Y19032D01*
X182046Y18991D01*
X182069Y18944D01*
X182093Y18885D01*
X182122Y18821D01*
X182146Y18751D01*
X182169Y18669D01*
X182186Y18575D01*
X182204Y18482D01*
X182216Y18371D01*
X182221Y18254D01*
X182227Y18131D01*
Y18125D01*
Y18101D01*
Y18060D01*
X182221Y18014D01*
Y17949D01*
X182216Y17885D01*
X182204Y17809D01*
X182192Y17727D01*
X182163Y17557D01*
X182116Y17382D01*
X182087Y17300D01*
X182052Y17224D01*
X182017Y17154D01*
X181970Y17089D01*
X181964Y17084D01*
X181958Y17078D01*
X181923Y17043D01*
X181865Y16996D01*
X181789Y16937D01*
X181689Y16879D01*
X181572Y16832D01*
X181438Y16797D01*
X181367Y16791D01*
X181291Y16785D01*
X181262D01*
X181239Y16791D01*
X181180Y16797D01*
X181110Y16809D01*
X181022Y16832D01*
X180935Y16867D01*
X180847Y16914D01*
X180759Y16978D01*
X180747Y16990D01*
X180724Y17013D01*
X180683Y17066D01*
X180636Y17130D01*
X180584Y17218D01*
X180531Y17329D01*
X180478Y17452D01*
X180437Y17604D01*
X179683Y17370D01*
Y17364D01*
X179689Y17341D01*
X179700Y17312D01*
X179718Y17265D01*
X179735Y17212D01*
X179759Y17154D01*
X179788Y17084D01*
X179823Y17013D01*
X179899Y16861D01*
X179999Y16703D01*
X180121Y16557D01*
X180186Y16487D01*
X180262Y16428D01*
X180268Y16422D01*
X180279Y16417D01*
X180303Y16399D01*
X180332Y16382D01*
X180373Y16358D01*
X180420Y16335D01*
X180478Y16306D01*
X180543Y16276D01*
X180613Y16247D01*
X180689Y16218D01*
X180771Y16194D01*
X180859Y16171D01*
X180958Y16153D01*
X181057Y16136D01*
X181168Y16130D01*
X181280Y16124D01*
X181315D01*
X181356Y16130D01*
X181408D01*
X181473Y16142D01*
X181549Y16153D01*
X181631Y16165D01*
X181724Y16188D01*
X181824Y16218D01*
X181923Y16253D01*
X182028Y16294D01*
X182134Y16346D01*
X182239Y16405D01*
X182344Y16475D01*
X182444Y16551D01*
X182537Y16645D01*
X182543Y16651D01*
X182561Y16668D01*
X182584Y16698D01*
X182614Y16738D01*
X182649Y16791D01*
X182695Y16855D01*
X182736Y16931D01*
X182783Y17019D01*
X182830Y17113D01*
X182871Y17224D01*
X182912Y17341D01*
X182953Y17470D01*
X182982Y17604D01*
X183005Y17751D01*
X183023Y17908D01*
X183029Y18072D01*
Y18084D01*
Y18113D01*
X183023Y18166D01*
Y18230D01*
X183011Y18312D01*
X183005Y18406D01*
X182988Y18505D01*
X182965Y18616D01*
X182941Y18739D01*
X182906Y18856D01*
X182871Y18985D01*
X182824Y19108D01*
X182766Y19230D01*
X182701Y19347D01*
X182625Y19459D01*
X182537Y19564D01*
X182532Y19570D01*
X182514Y19587D01*
X182485Y19611D01*
X182450Y19646D01*
X182397Y19687D01*
X182339Y19734D01*
X182268Y19780D01*
X182186Y19833D01*
X182099Y19880D01*
X181999Y19927D01*
X181894Y19973D01*
X181777Y20014D01*
X181654Y20050D01*
X181519Y20073D01*
X181379Y20090D01*
X181233Y20096D01*
D02*
G37*
G36*
X175143Y20032D02*
X174394D01*
X172809Y17452D01*
Y20032D01*
X172089D01*
Y16188D01*
X172867D01*
X174424Y18710D01*
Y16188D01*
X175143D01*
Y20032D01*
D02*
G37*
G36*
X177916D02*
X177097D01*
X175552Y16188D01*
X176395D01*
X176723Y17060D01*
X178273D01*
X178589Y16188D01*
X179408D01*
X177916Y20032D01*
D02*
G37*
%LPD*%
G36*
X178033Y17709D02*
X176974D01*
X177512Y19137D01*
X178033Y17709D01*
D02*
G37*
%LPC*%
G36*
X288148Y76596D02*
X284305D01*
Y75186D01*
Y75180D01*
Y75163D01*
Y75139D01*
Y75104D01*
Y75069D01*
X284310Y75022D01*
X284316Y74917D01*
X284322Y74794D01*
X284334Y74677D01*
X284357Y74560D01*
X284381Y74455D01*
Y74449D01*
X284386Y74437D01*
X284392Y74420D01*
X284398Y74396D01*
X284427Y74338D01*
X284462Y74256D01*
X284509Y74168D01*
X284574Y74075D01*
X284650Y73975D01*
X284737Y73882D01*
Y73876D01*
X284749Y73870D01*
X284784Y73841D01*
X284837Y73800D01*
X284907Y73741D01*
X285001Y73683D01*
X285106Y73624D01*
X285223Y73566D01*
X285358Y73513D01*
X285363D01*
X285375Y73507D01*
X285393Y73501D01*
X285422Y73495D01*
X285457Y73484D01*
X285504Y73472D01*
X285551Y73460D01*
X285609Y73449D01*
X285673Y73437D01*
X285738Y73425D01*
X285896Y73402D01*
X286071Y73390D01*
X286264Y73384D01*
X286346D01*
X286387Y73390D01*
X286434D01*
X286545Y73402D01*
X286674Y73413D01*
X286808Y73437D01*
X286949Y73466D01*
X287083Y73507D01*
X287089D01*
X287101Y73513D01*
X287124Y73519D01*
X287154Y73531D01*
X287189Y73548D01*
X287230Y73566D01*
X287323Y73612D01*
X287434Y73671D01*
X287545Y73741D01*
X287657Y73823D01*
X287762Y73917D01*
X287768Y73928D01*
X287797Y73952D01*
X287832Y73998D01*
X287873Y74057D01*
X287926Y74139D01*
X287978Y74233D01*
X288025Y74338D01*
X288072Y74461D01*
X288078Y74472D01*
X288084Y74507D01*
X288095Y74560D01*
X288107Y74642D01*
X288125Y74736D01*
X288136Y74853D01*
X288142Y74993D01*
X288148Y75145D01*
Y76596D01*
D02*
G37*
G36*
X287376Y73016D02*
X286738D01*
X284293Y71349D01*
Y70728D01*
X286732D01*
Y70254D01*
X287376D01*
Y70728D01*
X288148D01*
Y71442D01*
X287376D01*
Y73016D01*
D02*
G37*
%LPD*%
G36*
X287499Y75245D02*
Y75239D01*
Y75233D01*
Y75215D01*
Y75192D01*
Y75133D01*
X287493Y75063D01*
Y74993D01*
X287481Y74911D01*
X287475Y74841D01*
X287464Y74782D01*
Y74777D01*
X287452Y74747D01*
X287440Y74712D01*
X287428Y74671D01*
X287376Y74566D01*
X287347Y74513D01*
X287306Y74467D01*
X287300Y74461D01*
X287282Y74443D01*
X287259Y74426D01*
X287218Y74396D01*
X287165Y74361D01*
X287101Y74332D01*
X287025Y74297D01*
X286937Y74268D01*
X286931D01*
X286925Y74262D01*
X286908D01*
X286890Y74256D01*
X286832Y74244D01*
X286750Y74227D01*
X286650Y74209D01*
X286528Y74197D01*
X286387Y74192D01*
X286229Y74186D01*
X286118D01*
X286077Y74192D01*
X285978Y74197D01*
X285866Y74203D01*
X285755Y74221D01*
X285644Y74238D01*
X285551Y74268D01*
X285539Y74274D01*
X285510Y74279D01*
X285469Y74297D01*
X285416Y74320D01*
X285352Y74355D01*
X285293Y74391D01*
X285229Y74431D01*
X285176Y74484D01*
X285170Y74490D01*
X285153Y74507D01*
X285129Y74543D01*
X285100Y74584D01*
X285071Y74630D01*
X285042Y74695D01*
X285018Y74765D01*
X284995Y74841D01*
Y74847D01*
X284989Y74876D01*
X284983Y74917D01*
X284971Y74981D01*
Y75022D01*
X284966Y75069D01*
Y75116D01*
X284960Y75174D01*
Y75239D01*
X284954Y75309D01*
Y75391D01*
Y75473D01*
Y75818D01*
X287499D01*
Y75245D01*
D02*
G37*
G36*
X286732Y71442D02*
X285416D01*
X286732Y72331D01*
Y71442D01*
D02*
G37*
%LPC*%
G36*
X288148Y120152D02*
X288130D01*
X288107Y120146D01*
X288084Y120140D01*
X288049Y120134D01*
X288008Y120128D01*
X287914Y120105D01*
X287797Y120076D01*
X287674Y120029D01*
X287545Y119976D01*
X287417Y119906D01*
X287411D01*
X287399Y119894D01*
X287382Y119883D01*
X287352Y119865D01*
X287317Y119836D01*
X287276Y119807D01*
X287224Y119765D01*
X287171Y119725D01*
X287107Y119672D01*
X287036Y119608D01*
X286961Y119543D01*
X286879Y119467D01*
X286791Y119379D01*
X286697Y119292D01*
X286598Y119186D01*
X286492Y119075D01*
X286487Y119069D01*
X286475Y119052D01*
X286446Y119028D01*
X286416Y118993D01*
X286381Y118958D01*
X286334Y118911D01*
X286241Y118812D01*
X286136Y118707D01*
X286030Y118607D01*
X285984Y118560D01*
X285943Y118519D01*
X285902Y118484D01*
X285867Y118461D01*
X285855Y118455D01*
X285826Y118438D01*
X285785Y118414D01*
X285726Y118385D01*
X285656Y118356D01*
X285580Y118332D01*
X285498Y118315D01*
X285416Y118309D01*
X285375D01*
X285328Y118315D01*
X285276Y118326D01*
X285217Y118344D01*
X285153Y118367D01*
X285088Y118397D01*
X285036Y118443D01*
X285030Y118449D01*
X285012Y118467D01*
X284995Y118496D01*
X284966Y118537D01*
X284942Y118590D01*
X284925Y118654D01*
X284907Y118730D01*
X284901Y118812D01*
Y118824D01*
Y118847D01*
X284907Y118894D01*
X284919Y118941D01*
X284936Y118999D01*
X284960Y119063D01*
X284995Y119122D01*
X285042Y119181D01*
X285048Y119186D01*
X285071Y119204D01*
X285100Y119221D01*
X285153Y119251D01*
X285217Y119274D01*
X285293Y119303D01*
X285393Y119321D01*
X285504Y119333D01*
X285434Y120064D01*
X285428D01*
X285404Y120058D01*
X285375D01*
X285334Y120046D01*
X285282Y120041D01*
X285229Y120023D01*
X285165Y120011D01*
X285094Y119988D01*
X284954Y119935D01*
X284808Y119865D01*
X284737Y119818D01*
X284673Y119771D01*
X284615Y119713D01*
X284562Y119654D01*
X284556Y119649D01*
X284550Y119637D01*
X284539Y119619D01*
X284521Y119590D01*
X284498Y119561D01*
X284474Y119520D01*
X284451Y119473D01*
X284427Y119414D01*
X284404Y119356D01*
X284381Y119292D01*
X284334Y119145D01*
X284305Y118982D01*
X284293Y118888D01*
Y118794D01*
Y118789D01*
Y118771D01*
Y118742D01*
X284299Y118701D01*
X284305Y118654D01*
X284310Y118596D01*
X284316Y118537D01*
X284334Y118467D01*
X284369Y118326D01*
X284422Y118174D01*
X284457Y118104D01*
X284498Y118028D01*
X284550Y117964D01*
X284603Y117899D01*
X284609Y117894D01*
X284615Y117888D01*
X284632Y117870D01*
X284656Y117847D01*
X284685Y117823D01*
X284726Y117794D01*
X284813Y117736D01*
X284925Y117677D01*
X285053Y117624D01*
X285200Y117584D01*
X285282Y117578D01*
X285364Y117572D01*
X285404D01*
X285457Y117578D01*
X285521Y117584D01*
X285597Y117595D01*
X285679Y117613D01*
X285773Y117636D01*
X285861Y117665D01*
X285872Y117671D01*
X285902Y117683D01*
X285948Y117706D01*
X286007Y117736D01*
X286083Y117777D01*
X286165Y117829D01*
X286253Y117894D01*
X286346Y117964D01*
X286352Y117970D01*
X286375Y117987D01*
X286416Y118022D01*
X286469Y118075D01*
X286539Y118139D01*
X286627Y118227D01*
X286726Y118326D01*
X286838Y118449D01*
X286843Y118455D01*
X286849Y118467D01*
X286867Y118484D01*
X286890Y118502D01*
X286943Y118560D01*
X287013Y118631D01*
X287083Y118707D01*
X287154Y118777D01*
X287218Y118841D01*
X287241Y118865D01*
X287265Y118888D01*
X287271Y118894D01*
X287282Y118906D01*
X287300Y118923D01*
X287329Y118941D01*
X287388Y118993D01*
X287464Y119040D01*
Y117572D01*
X288148D01*
Y120152D01*
D02*
G37*
G36*
Y123767D02*
X284305D01*
Y122357D01*
Y122351D01*
Y122334D01*
Y122310D01*
Y122275D01*
Y122240D01*
X284310Y122193D01*
X284316Y122088D01*
X284322Y121965D01*
X284334Y121848D01*
X284357Y121731D01*
X284381Y121626D01*
Y121620D01*
X284386Y121608D01*
X284392Y121591D01*
X284398Y121567D01*
X284427Y121509D01*
X284463Y121427D01*
X284509Y121339D01*
X284574Y121246D01*
X284650Y121146D01*
X284737Y121053D01*
Y121047D01*
X284749Y121041D01*
X284784Y121012D01*
X284837Y120971D01*
X284907Y120912D01*
X285001Y120854D01*
X285106Y120795D01*
X285223Y120737D01*
X285358Y120684D01*
X285364D01*
X285375Y120678D01*
X285393Y120672D01*
X285422Y120666D01*
X285457Y120655D01*
X285504Y120643D01*
X285551Y120631D01*
X285609Y120620D01*
X285673Y120608D01*
X285738Y120596D01*
X285896Y120573D01*
X286071Y120561D01*
X286264Y120555D01*
X286346D01*
X286387Y120561D01*
X286434D01*
X286545Y120573D01*
X286674Y120584D01*
X286808Y120608D01*
X286949Y120637D01*
X287083Y120678D01*
X287089D01*
X287101Y120684D01*
X287124Y120690D01*
X287154Y120702D01*
X287189Y120719D01*
X287230Y120737D01*
X287323Y120783D01*
X287434Y120842D01*
X287545Y120912D01*
X287657Y120994D01*
X287762Y121088D01*
X287768Y121099D01*
X287797Y121123D01*
X287832Y121169D01*
X287873Y121228D01*
X287926Y121310D01*
X287978Y121404D01*
X288025Y121509D01*
X288072Y121632D01*
X288078Y121643D01*
X288084Y121678D01*
X288095Y121731D01*
X288107Y121813D01*
X288125Y121907D01*
X288136Y122024D01*
X288142Y122164D01*
X288148Y122316D01*
Y123767D01*
D02*
G37*
%LPD*%
G36*
X287499Y122416D02*
Y122410D01*
Y122404D01*
Y122386D01*
Y122363D01*
Y122304D01*
X287493Y122234D01*
Y122164D01*
X287481Y122082D01*
X287475Y122012D01*
X287464Y121953D01*
Y121948D01*
X287452Y121918D01*
X287440Y121883D01*
X287428Y121842D01*
X287376Y121737D01*
X287347Y121684D01*
X287306Y121637D01*
X287300Y121632D01*
X287282Y121614D01*
X287259Y121597D01*
X287218Y121567D01*
X287165Y121532D01*
X287101Y121503D01*
X287025Y121468D01*
X286937Y121439D01*
X286931D01*
X286925Y121433D01*
X286908D01*
X286890Y121427D01*
X286832Y121415D01*
X286750Y121398D01*
X286650Y121380D01*
X286528Y121368D01*
X286387Y121363D01*
X286229Y121357D01*
X286118D01*
X286077Y121363D01*
X285978Y121368D01*
X285867Y121374D01*
X285755Y121392D01*
X285644Y121409D01*
X285551Y121439D01*
X285539Y121444D01*
X285510Y121450D01*
X285469Y121468D01*
X285416Y121491D01*
X285352Y121526D01*
X285293Y121562D01*
X285229Y121602D01*
X285176Y121655D01*
X285170Y121661D01*
X285153Y121678D01*
X285129Y121714D01*
X285100Y121755D01*
X285071Y121801D01*
X285042Y121866D01*
X285018Y121936D01*
X284995Y122012D01*
Y122018D01*
X284989Y122047D01*
X284983Y122088D01*
X284971Y122152D01*
Y122193D01*
X284966Y122240D01*
Y122287D01*
X284960Y122345D01*
Y122410D01*
X284954Y122480D01*
Y122562D01*
Y122644D01*
Y122989D01*
X287499D01*
Y122416D01*
D02*
G37*
%LPC*%
G36*
X69676Y48501D02*
X69594D01*
X69553Y48495D01*
X69507D01*
X69396Y48484D01*
X69267Y48472D01*
X69132Y48449D01*
X68992Y48419D01*
X68857Y48378D01*
X68851D01*
X68840Y48373D01*
X68816Y48367D01*
X68787Y48355D01*
X68752Y48337D01*
X68711Y48320D01*
X68617Y48273D01*
X68506Y48215D01*
X68395Y48144D01*
X68284Y48063D01*
X68179Y47969D01*
X68173Y47957D01*
X68144Y47934D01*
X68108Y47887D01*
X68068Y47829D01*
X68015Y47747D01*
X67962Y47653D01*
X67915Y47548D01*
X67869Y47425D01*
X67863Y47413D01*
X67857Y47378D01*
X67845Y47325D01*
X67834Y47243D01*
X67816Y47150D01*
X67804Y47033D01*
X67798Y46892D01*
X67793Y46740D01*
Y45290D01*
X71636D01*
Y46699D01*
Y46705D01*
Y46723D01*
Y46746D01*
Y46781D01*
Y46816D01*
X71630Y46863D01*
X71624Y46968D01*
X71618Y47091D01*
X71607Y47208D01*
X71583Y47325D01*
X71560Y47431D01*
Y47436D01*
X71554Y47448D01*
X71548Y47466D01*
X71542Y47489D01*
X71513Y47548D01*
X71478Y47630D01*
X71431Y47717D01*
X71367Y47811D01*
X71291Y47910D01*
X71203Y48004D01*
Y48010D01*
X71191Y48016D01*
X71156Y48045D01*
X71104Y48086D01*
X71034Y48144D01*
X70940Y48203D01*
X70835Y48261D01*
X70718Y48320D01*
X70583Y48373D01*
X70577D01*
X70565Y48378D01*
X70548Y48384D01*
X70519Y48390D01*
X70484Y48402D01*
X70437Y48414D01*
X70390Y48425D01*
X70332Y48437D01*
X70267Y48449D01*
X70203Y48460D01*
X70045Y48484D01*
X69869Y48495D01*
X69676Y48501D01*
D02*
G37*
G36*
X69021Y51561D02*
X68963D01*
X68922Y51555D01*
X68875Y51549D01*
X68816Y51543D01*
X68752Y51531D01*
X68682Y51520D01*
X68530Y51473D01*
X68454Y51450D01*
X68372Y51415D01*
X68296Y51374D01*
X68220Y51327D01*
X68144Y51274D01*
X68073Y51210D01*
X68068Y51204D01*
X68056Y51192D01*
X68038Y51175D01*
X68021Y51145D01*
X67992Y51116D01*
X67962Y51075D01*
X67933Y51023D01*
X67898Y50970D01*
X67863Y50911D01*
X67834Y50841D01*
X67804Y50771D01*
X67775Y50689D01*
X67757Y50607D01*
X67740Y50520D01*
X67728Y50426D01*
X67722Y50326D01*
Y50321D01*
Y50303D01*
X67728Y50268D01*
Y50227D01*
X67734Y50180D01*
X67746Y50122D01*
X67757Y50057D01*
X67781Y49987D01*
X67804Y49911D01*
X67834Y49835D01*
X67869Y49753D01*
X67915Y49677D01*
X67962Y49595D01*
X68027Y49513D01*
X68091Y49437D01*
X68173Y49367D01*
X68179Y49361D01*
X68196Y49349D01*
X68220Y49332D01*
X68261Y49308D01*
X68307Y49279D01*
X68372Y49250D01*
X68442Y49215D01*
X68530Y49186D01*
X68623Y49151D01*
X68734Y49115D01*
X68851Y49086D01*
X68986Y49057D01*
X69132Y49034D01*
X69296Y49016D01*
X69466Y49004D01*
X69653Y48998D01*
X69752D01*
X69828Y49004D01*
X69910Y49010D01*
X70016Y49022D01*
X70121Y49034D01*
X70244Y49045D01*
X70489Y49092D01*
X70618Y49121D01*
X70747Y49162D01*
X70864Y49203D01*
X70981Y49256D01*
X71086Y49314D01*
X71180Y49385D01*
X71186Y49390D01*
X71197Y49402D01*
X71221Y49426D01*
X71256Y49455D01*
X71291Y49496D01*
X71326Y49542D01*
X71373Y49595D01*
X71414Y49659D01*
X71455Y49730D01*
X71501Y49806D01*
X71537Y49888D01*
X71578Y49975D01*
X71607Y50075D01*
X71630Y50174D01*
X71642Y50286D01*
X71648Y50397D01*
Y50402D01*
Y50414D01*
Y50438D01*
X71642Y50473D01*
Y50508D01*
X71636Y50549D01*
X71618Y50654D01*
X71589Y50765D01*
X71542Y50888D01*
X71484Y51011D01*
X71402Y51122D01*
Y51128D01*
X71390Y51134D01*
X71355Y51169D01*
X71303Y51216D01*
X71221Y51274D01*
X71121Y51338D01*
X70998Y51397D01*
X70852Y51450D01*
X70688Y51491D01*
X70612Y50777D01*
X70624D01*
X70647Y50771D01*
X70688Y50759D01*
X70735Y50748D01*
X70788Y50730D01*
X70840Y50707D01*
X70893Y50677D01*
X70934Y50637D01*
X70940Y50631D01*
X70952Y50619D01*
X70969Y50595D01*
X70987Y50560D01*
X71004Y50520D01*
X71022Y50473D01*
X71034Y50420D01*
X71039Y50356D01*
Y50344D01*
X71034Y50315D01*
X71028Y50274D01*
X71016Y50221D01*
X70987Y50157D01*
X70952Y50087D01*
X70899Y50022D01*
X70829Y49958D01*
X70817Y49952D01*
X70805Y49940D01*
X70788Y49935D01*
X70758Y49923D01*
X70729Y49905D01*
X70688Y49888D01*
X70641Y49876D01*
X70589Y49858D01*
X70525Y49841D01*
X70454Y49823D01*
X70372Y49806D01*
X70285Y49794D01*
X70185Y49782D01*
X70074Y49771D01*
X69957Y49759D01*
X69963Y49765D01*
X69969Y49771D01*
X69986Y49788D01*
X70010Y49806D01*
X70062Y49870D01*
X70121Y49946D01*
X70179Y50046D01*
X70232Y50163D01*
X70273Y50297D01*
X70279Y50367D01*
X70285Y50443D01*
Y50449D01*
Y50461D01*
Y50490D01*
X70279Y50520D01*
X70273Y50560D01*
X70267Y50607D01*
X70238Y50713D01*
X70197Y50835D01*
X70168Y50900D01*
X70133Y50964D01*
X70092Y51034D01*
X70045Y51099D01*
X69992Y51163D01*
X69928Y51227D01*
X69922Y51233D01*
X69910Y51239D01*
X69893Y51257D01*
X69863Y51280D01*
X69828Y51303D01*
X69787Y51333D01*
X69741Y51362D01*
X69682Y51397D01*
X69624Y51426D01*
X69553Y51455D01*
X69477Y51485D01*
X69396Y51508D01*
X69314Y51531D01*
X69220Y51549D01*
X69121Y51555D01*
X69021Y51561D01*
D02*
G37*
%LPD*%
G36*
X69863Y47694D02*
X69963Y47688D01*
X70074Y47682D01*
X70185Y47665D01*
X70296Y47647D01*
X70390Y47618D01*
X70402Y47612D01*
X70431Y47606D01*
X70472Y47589D01*
X70525Y47565D01*
X70589Y47530D01*
X70647Y47495D01*
X70712Y47454D01*
X70764Y47401D01*
X70770Y47396D01*
X70788Y47378D01*
X70811Y47343D01*
X70840Y47302D01*
X70870Y47255D01*
X70899Y47191D01*
X70922Y47121D01*
X70946Y47045D01*
Y47039D01*
X70952Y47010D01*
X70957Y46968D01*
X70969Y46904D01*
Y46863D01*
X70975Y46816D01*
Y46770D01*
X70981Y46711D01*
Y46647D01*
X70987Y46577D01*
Y46495D01*
Y46413D01*
Y46068D01*
X68442D01*
Y46641D01*
Y46647D01*
Y46653D01*
Y46670D01*
Y46694D01*
Y46752D01*
X68448Y46822D01*
Y46892D01*
X68459Y46974D01*
X68465Y47045D01*
X68477Y47103D01*
Y47109D01*
X68489Y47138D01*
X68500Y47173D01*
X68512Y47214D01*
X68565Y47319D01*
X68594Y47372D01*
X68635Y47419D01*
X68641Y47425D01*
X68658Y47442D01*
X68682Y47460D01*
X68723Y47489D01*
X68775Y47524D01*
X68840Y47554D01*
X68916Y47589D01*
X69003Y47618D01*
X69009D01*
X69015Y47624D01*
X69033D01*
X69050Y47630D01*
X69109Y47641D01*
X69191Y47659D01*
X69290Y47676D01*
X69413Y47688D01*
X69553Y47694D01*
X69711Y47700D01*
X69823D01*
X69863Y47694D01*
D02*
G37*
G36*
X69144Y50835D02*
X69226Y50824D01*
X69314Y50806D01*
X69407Y50777D01*
X69489Y50742D01*
X69565Y50689D01*
X69571Y50683D01*
X69594Y50666D01*
X69624Y50631D01*
X69653Y50590D01*
X69688Y50537D01*
X69711Y50473D01*
X69735Y50402D01*
X69741Y50326D01*
Y50315D01*
Y50291D01*
X69735Y50250D01*
X69717Y50204D01*
X69700Y50145D01*
X69670Y50087D01*
X69630Y50028D01*
X69571Y49970D01*
X69565Y49964D01*
X69542Y49946D01*
X69501Y49923D01*
X69448Y49899D01*
X69378Y49870D01*
X69296Y49847D01*
X69197Y49829D01*
X69080Y49823D01*
X69021D01*
X68957Y49835D01*
X68875Y49847D01*
X68787Y49864D01*
X68694Y49894D01*
X68606Y49935D01*
X68524Y49987D01*
X68518Y49993D01*
X68495Y50016D01*
X68465Y50051D01*
X68430Y50098D01*
X68389Y50151D01*
X68360Y50215D01*
X68337Y50286D01*
X68331Y50362D01*
Y50373D01*
Y50397D01*
X68337Y50432D01*
X68348Y50479D01*
X68372Y50537D01*
X68395Y50590D01*
X68436Y50648D01*
X68489Y50701D01*
X68495Y50707D01*
X68518Y50724D01*
X68559Y50748D01*
X68612Y50771D01*
X68688Y50794D01*
X68775Y50818D01*
X68887Y50835D01*
X69015Y50841D01*
X69080D01*
X69144Y50835D01*
D02*
G37*
%LPC*%
G36*
X288113Y100165D02*
X284269D01*
Y98756D01*
Y98750D01*
Y98732D01*
Y98709D01*
Y98674D01*
Y98638D01*
X284275Y98592D01*
X284281Y98486D01*
X284287Y98364D01*
X284299Y98247D01*
X284322Y98129D01*
X284346Y98024D01*
Y98018D01*
X284351Y98007D01*
X284357Y97989D01*
X284363Y97966D01*
X284392Y97907D01*
X284427Y97825D01*
X284474Y97738D01*
X284539Y97644D01*
X284615Y97544D01*
X284702Y97451D01*
Y97445D01*
X284714Y97439D01*
X284749Y97410D01*
X284802Y97369D01*
X284872Y97311D01*
X284966Y97252D01*
X285071Y97193D01*
X285188Y97135D01*
X285322Y97082D01*
X285328D01*
X285340Y97076D01*
X285358Y97071D01*
X285387Y97065D01*
X285422Y97053D01*
X285469Y97041D01*
X285515Y97030D01*
X285574Y97018D01*
X285638Y97006D01*
X285703Y96995D01*
X285861Y96971D01*
X286036Y96960D01*
X286229Y96954D01*
X286311D01*
X286352Y96960D01*
X286399D01*
X286510Y96971D01*
X286639Y96983D01*
X286773Y97006D01*
X286914Y97036D01*
X287048Y97076D01*
X287054D01*
X287066Y97082D01*
X287089Y97088D01*
X287118Y97100D01*
X287154Y97118D01*
X287194Y97135D01*
X287288Y97182D01*
X287399Y97240D01*
X287510Y97311D01*
X287621Y97392D01*
X287727Y97486D01*
X287733Y97498D01*
X287762Y97521D01*
X287797Y97568D01*
X287838Y97626D01*
X287891Y97708D01*
X287943Y97802D01*
X287990Y97907D01*
X288037Y98030D01*
X288043Y98042D01*
X288049Y98077D01*
X288060Y98129D01*
X288072Y98211D01*
X288089Y98305D01*
X288101Y98422D01*
X288107Y98562D01*
X288113Y98715D01*
Y100165D01*
D02*
G37*
G36*
X287101Y96486D02*
X287013Y95772D01*
X287025D01*
X287060Y95766D01*
X287107Y95754D01*
X287171Y95737D01*
X287235Y95714D01*
X287306Y95684D01*
X287376Y95643D01*
X287434Y95591D01*
X287440Y95585D01*
X287458Y95561D01*
X287481Y95532D01*
X287505Y95485D01*
X287528Y95433D01*
X287551Y95374D01*
X287569Y95304D01*
X287575Y95228D01*
Y95216D01*
Y95187D01*
X287563Y95146D01*
X287551Y95093D01*
X287534Y95035D01*
X287505Y94971D01*
X287464Y94906D01*
X287405Y94842D01*
X287399Y94836D01*
X287370Y94818D01*
X287335Y94789D01*
X287282Y94760D01*
X287212Y94736D01*
X287130Y94707D01*
X287036Y94690D01*
X286931Y94684D01*
X286884D01*
X286832Y94690D01*
X286767Y94701D01*
X286697Y94719D01*
X286627Y94748D01*
X286551Y94783D01*
X286487Y94836D01*
X286481Y94842D01*
X286463Y94865D01*
X286434Y94894D01*
X286405Y94941D01*
X286375Y94994D01*
X286346Y95058D01*
X286329Y95129D01*
X286323Y95205D01*
Y95210D01*
Y95228D01*
Y95257D01*
X286329Y95298D01*
X286334Y95345D01*
X286346Y95403D01*
X286364Y95468D01*
X286381Y95538D01*
X285785Y95456D01*
Y95450D01*
Y95444D01*
Y95409D01*
X285779Y95351D01*
X285773Y95286D01*
X285761Y95216D01*
X285738Y95140D01*
X285703Y95064D01*
X285662Y95000D01*
X285656Y94994D01*
X285638Y94976D01*
X285603Y94947D01*
X285562Y94918D01*
X285510Y94889D01*
X285445Y94859D01*
X285375Y94842D01*
X285293Y94836D01*
X285258D01*
X285223Y94842D01*
X285182Y94848D01*
X285135Y94865D01*
X285083Y94883D01*
X285030Y94912D01*
X284983Y94953D01*
X284977Y94959D01*
X284966Y94976D01*
X284948Y95000D01*
X284925Y95035D01*
X284901Y95082D01*
X284884Y95134D01*
X284872Y95199D01*
X284866Y95269D01*
Y95275D01*
Y95298D01*
X284872Y95333D01*
X284884Y95380D01*
X284901Y95433D01*
X284925Y95485D01*
X284954Y95544D01*
X285001Y95596D01*
X285007Y95602D01*
X285024Y95620D01*
X285053Y95637D01*
X285094Y95667D01*
X285153Y95696D01*
X285217Y95719D01*
X285293Y95743D01*
X285381Y95754D01*
X285270Y96433D01*
X285264D01*
X285252Y96427D01*
X285235D01*
X285211Y96421D01*
X285147Y96404D01*
X285065Y96380D01*
X284977Y96351D01*
X284884Y96316D01*
X284790Y96269D01*
X284708Y96222D01*
X284697Y96217D01*
X284673Y96193D01*
X284638Y96164D01*
X284585Y96117D01*
X284533Y96059D01*
X284480Y95994D01*
X284427Y95912D01*
X284381Y95825D01*
Y95819D01*
X284375Y95813D01*
X284363Y95778D01*
X284340Y95725D01*
X284316Y95655D01*
X284299Y95567D01*
X284275Y95474D01*
X284264Y95363D01*
X284258Y95245D01*
Y95240D01*
Y95222D01*
Y95193D01*
X284264Y95158D01*
X284269Y95111D01*
X284275Y95058D01*
X284287Y94994D01*
X284299Y94930D01*
X284346Y94795D01*
X284369Y94719D01*
X284404Y94649D01*
X284445Y94579D01*
X284492Y94503D01*
X284544Y94438D01*
X284609Y94374D01*
X284615Y94368D01*
X284620Y94362D01*
X284638Y94350D01*
X284656Y94333D01*
X284714Y94286D01*
X284796Y94233D01*
X284890Y94187D01*
X284995Y94140D01*
X285118Y94111D01*
X285182Y94099D01*
X285270D01*
X285293Y94105D01*
X285328D01*
X285375Y94116D01*
X285422Y94128D01*
X285475Y94146D01*
X285533Y94169D01*
X285597Y94198D01*
X285662Y94233D01*
X285732Y94280D01*
X285796Y94333D01*
X285866Y94397D01*
X285931Y94473D01*
X285995Y94555D01*
X286054Y94655D01*
Y94649D01*
X286060Y94637D01*
Y94625D01*
X286065Y94602D01*
X286089Y94538D01*
X286118Y94467D01*
X286159Y94380D01*
X286217Y94292D01*
X286288Y94210D01*
X286370Y94128D01*
X286381Y94122D01*
X286411Y94099D01*
X286463Y94064D01*
X286533Y94029D01*
X286621Y93994D01*
X286726Y93958D01*
X286838Y93935D01*
X286966Y93929D01*
X287013D01*
X287048Y93935D01*
X287095Y93941D01*
X287142Y93947D01*
X287200Y93958D01*
X287265Y93976D01*
X287399Y94023D01*
X287469Y94052D01*
X287540Y94087D01*
X287616Y94128D01*
X287686Y94181D01*
X287756Y94239D01*
X287826Y94304D01*
X287832Y94310D01*
X287844Y94321D01*
X287861Y94339D01*
X287879Y94368D01*
X287908Y94403D01*
X287937Y94450D01*
X287972Y94497D01*
X288002Y94555D01*
X288037Y94620D01*
X288072Y94690D01*
X288101Y94766D01*
X288125Y94848D01*
X288148Y94935D01*
X288166Y95023D01*
X288177Y95123D01*
X288183Y95222D01*
Y95228D01*
Y95245D01*
Y95275D01*
X288177Y95310D01*
X288171Y95357D01*
X288166Y95409D01*
X288160Y95468D01*
X288148Y95526D01*
X288113Y95667D01*
X288054Y95813D01*
X288025Y95883D01*
X287984Y95959D01*
X287937Y96029D01*
X287885Y96094D01*
X287879Y96100D01*
X287873Y96105D01*
X287856Y96123D01*
X287832Y96146D01*
X287803Y96176D01*
X287762Y96205D01*
X287721Y96234D01*
X287674Y96269D01*
X287563Y96339D01*
X287428Y96404D01*
X287276Y96456D01*
X287189Y96474D01*
X287101Y96486D01*
D02*
G37*
%LPD*%
G36*
X287464Y98814D02*
Y98808D01*
Y98802D01*
Y98785D01*
Y98761D01*
Y98703D01*
X287458Y98633D01*
Y98562D01*
X287446Y98480D01*
X287440Y98410D01*
X287428Y98352D01*
Y98346D01*
X287417Y98317D01*
X287405Y98282D01*
X287393Y98241D01*
X287341Y98135D01*
X287312Y98083D01*
X287270Y98036D01*
X287265Y98030D01*
X287247Y98013D01*
X287224Y97995D01*
X287183Y97966D01*
X287130Y97931D01*
X287066Y97901D01*
X286990Y97866D01*
X286902Y97837D01*
X286896D01*
X286890Y97831D01*
X286873D01*
X286855Y97825D01*
X286797Y97814D01*
X286715Y97796D01*
X286615Y97778D01*
X286492Y97767D01*
X286352Y97761D01*
X286194Y97755D01*
X286083D01*
X286042Y97761D01*
X285943Y97767D01*
X285831Y97773D01*
X285720Y97790D01*
X285609Y97808D01*
X285515Y97837D01*
X285504Y97843D01*
X285475Y97849D01*
X285434Y97866D01*
X285381Y97890D01*
X285317Y97925D01*
X285258Y97960D01*
X285194Y98001D01*
X285141Y98053D01*
X285135Y98059D01*
X285118Y98077D01*
X285094Y98112D01*
X285065Y98153D01*
X285036Y98200D01*
X285007Y98264D01*
X284983Y98334D01*
X284960Y98410D01*
Y98416D01*
X284954Y98445D01*
X284948Y98486D01*
X284936Y98551D01*
Y98592D01*
X284930Y98638D01*
Y98685D01*
X284925Y98744D01*
Y98808D01*
X284919Y98878D01*
Y98960D01*
Y99042D01*
Y99387D01*
X287464D01*
Y98814D01*
D02*
G37*
%LPC*%
G36*
X69676Y95769D02*
X69594D01*
X69553Y95763D01*
X69507D01*
X69396Y95751D01*
X69267Y95740D01*
X69132Y95716D01*
X68992Y95687D01*
X68857Y95646D01*
X68851D01*
X68840Y95640D01*
X68816Y95634D01*
X68787Y95622D01*
X68752Y95605D01*
X68711Y95587D01*
X68617Y95541D01*
X68506Y95482D01*
X68395Y95412D01*
X68284Y95330D01*
X68179Y95236D01*
X68173Y95225D01*
X68144Y95201D01*
X68108Y95155D01*
X68068Y95096D01*
X68015Y95014D01*
X67962Y94920D01*
X67915Y94815D01*
X67869Y94692D01*
X67863Y94681D01*
X67857Y94646D01*
X67845Y94593D01*
X67834Y94511D01*
X67816Y94417D01*
X67804Y94300D01*
X67798Y94160D01*
X67793Y94008D01*
Y92557D01*
X71636D01*
Y93967D01*
Y93973D01*
Y93990D01*
Y94014D01*
Y94049D01*
Y94084D01*
X71630Y94131D01*
X71624Y94236D01*
X71618Y94359D01*
X71607Y94476D01*
X71583Y94593D01*
X71560Y94698D01*
Y94704D01*
X71554Y94716D01*
X71548Y94733D01*
X71542Y94757D01*
X71513Y94815D01*
X71478Y94897D01*
X71431Y94985D01*
X71367Y95078D01*
X71291Y95178D01*
X71203Y95271D01*
Y95277D01*
X71191Y95283D01*
X71156Y95312D01*
X71104Y95353D01*
X71034Y95412D01*
X70940Y95470D01*
X70835Y95529D01*
X70718Y95587D01*
X70583Y95640D01*
X70577D01*
X70565Y95646D01*
X70548Y95652D01*
X70519Y95658D01*
X70484Y95669D01*
X70437Y95681D01*
X70390Y95693D01*
X70332Y95704D01*
X70267Y95716D01*
X70203Y95728D01*
X70045Y95751D01*
X69869Y95763D01*
X69676Y95769D01*
D02*
G37*
G36*
X68916Y98782D02*
X68863D01*
X68828Y98776D01*
X68781Y98770D01*
X68729Y98764D01*
X68670Y98752D01*
X68606Y98741D01*
X68471Y98700D01*
X68401Y98670D01*
X68325Y98635D01*
X68255Y98594D01*
X68185Y98553D01*
X68114Y98495D01*
X68050Y98436D01*
X68044Y98431D01*
X68038Y98419D01*
X68021Y98401D01*
X67997Y98372D01*
X67974Y98343D01*
X67945Y98302D01*
X67915Y98249D01*
X67886Y98197D01*
X67857Y98138D01*
X67828Y98068D01*
X67798Y97992D01*
X67775Y97916D01*
X67752Y97828D01*
X67734Y97734D01*
X67728Y97641D01*
X67722Y97535D01*
Y97530D01*
Y97512D01*
Y97483D01*
X67728Y97448D01*
Y97401D01*
X67740Y97348D01*
X67746Y97290D01*
X67757Y97231D01*
X67793Y97091D01*
X67839Y96945D01*
X67910Y96798D01*
X67950Y96728D01*
X67997Y96664D01*
X68003Y96658D01*
X68015Y96646D01*
X68032Y96629D01*
X68056Y96599D01*
X68091Y96570D01*
X68132Y96535D01*
X68179Y96500D01*
X68231Y96459D01*
X68290Y96424D01*
X68354Y96383D01*
X68430Y96348D01*
X68506Y96319D01*
X68594Y96289D01*
X68688Y96272D01*
X68781Y96260D01*
X68887Y96254D01*
X68939D01*
X68998Y96260D01*
X69074Y96272D01*
X69161Y96289D01*
X69261Y96319D01*
X69360Y96354D01*
X69460Y96406D01*
X69466D01*
X69472Y96412D01*
X69501Y96436D01*
X69553Y96471D01*
X69612Y96523D01*
X69676Y96594D01*
X69741Y96675D01*
X69805Y96775D01*
X69863Y96892D01*
Y96886D01*
X69869Y96880D01*
X69887Y96845D01*
X69910Y96798D01*
X69951Y96734D01*
X69992Y96670D01*
X70051Y96599D01*
X70115Y96535D01*
X70191Y96482D01*
X70203Y96477D01*
X70226Y96465D01*
X70273Y96442D01*
X70326Y96418D01*
X70396Y96395D01*
X70478Y96371D01*
X70560Y96360D01*
X70653Y96354D01*
X70694D01*
X70723Y96360D01*
X70764Y96365D01*
X70805Y96371D01*
X70905Y96389D01*
X71016Y96424D01*
X71139Y96482D01*
X71197Y96512D01*
X71256Y96553D01*
X71314Y96599D01*
X71367Y96652D01*
X71373Y96658D01*
X71379Y96664D01*
X71390Y96681D01*
X71414Y96705D01*
X71431Y96740D01*
X71455Y96775D01*
X71484Y96822D01*
X71507Y96868D01*
X71537Y96927D01*
X71560Y96991D01*
X71583Y97062D01*
X71607Y97138D01*
X71624Y97220D01*
X71636Y97307D01*
X71642Y97407D01*
X71648Y97506D01*
Y97512D01*
Y97530D01*
Y97559D01*
X71642Y97594D01*
Y97641D01*
X71636Y97693D01*
X71624Y97752D01*
X71613Y97816D01*
X71578Y97951D01*
X71531Y98091D01*
X71460Y98232D01*
X71414Y98296D01*
X71367Y98354D01*
X71361Y98360D01*
X71355Y98366D01*
X71338Y98384D01*
X71314Y98401D01*
X71256Y98448D01*
X71174Y98506D01*
X71069Y98565D01*
X70946Y98612D01*
X70811Y98647D01*
X70735Y98653D01*
X70653Y98659D01*
X70606D01*
X70560Y98653D01*
X70495Y98641D01*
X70419Y98624D01*
X70343Y98600D01*
X70261Y98565D01*
X70179Y98518D01*
X70168Y98512D01*
X70144Y98495D01*
X70109Y98460D01*
X70062Y98419D01*
X70010Y98360D01*
X69957Y98296D01*
X69910Y98214D01*
X69863Y98126D01*
Y98132D01*
X69858Y98138D01*
X69852Y98155D01*
X69840Y98179D01*
X69811Y98237D01*
X69770Y98308D01*
X69717Y98384D01*
X69653Y98466D01*
X69577Y98542D01*
X69489Y98612D01*
X69477Y98618D01*
X69448Y98641D01*
X69396Y98664D01*
X69325Y98700D01*
X69243Y98729D01*
X69144Y98758D01*
X69033Y98776D01*
X68916Y98782D01*
D02*
G37*
%LPD*%
G36*
X69863Y94961D02*
X69963Y94956D01*
X70074Y94950D01*
X70185Y94932D01*
X70296Y94915D01*
X70390Y94885D01*
X70402Y94880D01*
X70431Y94874D01*
X70472Y94856D01*
X70525Y94833D01*
X70589Y94798D01*
X70647Y94762D01*
X70712Y94722D01*
X70764Y94669D01*
X70770Y94663D01*
X70788Y94646D01*
X70811Y94610D01*
X70840Y94569D01*
X70870Y94523D01*
X70899Y94458D01*
X70922Y94388D01*
X70946Y94312D01*
Y94306D01*
X70952Y94277D01*
X70957Y94236D01*
X70969Y94172D01*
Y94131D01*
X70975Y94084D01*
Y94037D01*
X70981Y93979D01*
Y93914D01*
X70987Y93844D01*
Y93762D01*
Y93680D01*
Y93335D01*
X68442D01*
Y93908D01*
Y93914D01*
Y93920D01*
Y93938D01*
Y93961D01*
Y94020D01*
X68448Y94090D01*
Y94160D01*
X68459Y94242D01*
X68465Y94312D01*
X68477Y94371D01*
Y94376D01*
X68489Y94406D01*
X68500Y94441D01*
X68512Y94482D01*
X68565Y94587D01*
X68594Y94640D01*
X68635Y94687D01*
X68641Y94692D01*
X68658Y94710D01*
X68682Y94727D01*
X68723Y94757D01*
X68775Y94792D01*
X68840Y94821D01*
X68916Y94856D01*
X69003Y94885D01*
X69009D01*
X69015Y94891D01*
X69033D01*
X69050Y94897D01*
X69109Y94909D01*
X69191Y94926D01*
X69290Y94944D01*
X69413Y94956D01*
X69553Y94961D01*
X69711Y94967D01*
X69823D01*
X69863Y94961D01*
D02*
G37*
G36*
X70677Y97962D02*
X70723Y97951D01*
X70776Y97939D01*
X70829Y97916D01*
X70887Y97881D01*
X70934Y97840D01*
X70940Y97834D01*
X70952Y97816D01*
X70975Y97793D01*
X70998Y97752D01*
X71022Y97705D01*
X71045Y97652D01*
X71057Y97582D01*
X71063Y97512D01*
Y97500D01*
Y97477D01*
X71057Y97436D01*
X71045Y97389D01*
X71034Y97337D01*
X71010Y97278D01*
X70975Y97225D01*
X70934Y97173D01*
X70928Y97167D01*
X70911Y97155D01*
X70881Y97132D01*
X70846Y97114D01*
X70799Y97091D01*
X70741Y97067D01*
X70677Y97056D01*
X70601Y97050D01*
X70565D01*
X70525Y97056D01*
X70478Y97067D01*
X70425Y97079D01*
X70367Y97102D01*
X70314Y97132D01*
X70261Y97173D01*
X70255Y97179D01*
X70244Y97196D01*
X70220Y97225D01*
X70203Y97260D01*
X70179Y97307D01*
X70156Y97366D01*
X70144Y97430D01*
X70138Y97506D01*
Y97518D01*
Y97541D01*
X70144Y97576D01*
X70156Y97623D01*
X70168Y97676D01*
X70191Y97734D01*
X70220Y97787D01*
X70261Y97840D01*
X70267Y97846D01*
X70285Y97857D01*
X70314Y97881D01*
X70349Y97904D01*
X70402Y97927D01*
X70460Y97951D01*
X70530Y97962D01*
X70606Y97968D01*
X70641D01*
X70677Y97962D01*
D02*
G37*
G36*
X69045Y98050D02*
X69109Y98039D01*
X69173Y98015D01*
X69249Y97992D01*
X69319Y97951D01*
X69384Y97898D01*
X69390Y97892D01*
X69413Y97869D01*
X69436Y97840D01*
X69472Y97793D01*
X69501Y97734D01*
X69530Y97670D01*
X69548Y97594D01*
X69553Y97512D01*
Y97500D01*
Y97465D01*
X69542Y97418D01*
X69530Y97360D01*
X69507Y97296D01*
X69477Y97231D01*
X69431Y97167D01*
X69366Y97108D01*
X69360Y97102D01*
X69331Y97091D01*
X69296Y97067D01*
X69243Y97044D01*
X69185Y97021D01*
X69115Y96997D01*
X69039Y96986D01*
X68957Y96980D01*
X68904D01*
X68851Y96986D01*
X68781Y96997D01*
X68705Y97015D01*
X68629Y97044D01*
X68553Y97079D01*
X68483Y97132D01*
X68477Y97138D01*
X68459Y97161D01*
X68430Y97196D01*
X68401Y97243D01*
X68366Y97296D01*
X68343Y97366D01*
X68319Y97442D01*
X68313Y97524D01*
Y97535D01*
Y97565D01*
X68325Y97606D01*
X68337Y97658D01*
X68354Y97717D01*
X68383Y97781D01*
X68424Y97846D01*
X68477Y97904D01*
X68483Y97910D01*
X68506Y97927D01*
X68547Y97951D01*
X68600Y97980D01*
X68664Y98009D01*
X68746Y98033D01*
X68840Y98050D01*
X68951Y98056D01*
X68998D01*
X69045Y98050D01*
D02*
G37*
D32*
X187008Y45669D02*
X189764D01*
Y36614D02*
Y45669D01*
X166142D02*
X168898D01*
X166142Y36614D02*
Y45669D01*
X111024Y36614D02*
Y45669D01*
X113779D01*
X130709Y36614D02*
Y45669D01*
X127953D02*
X130709D01*
X102362Y135039D02*
Y137795D01*
X93307Y135039D02*
X102362D01*
X93307Y150787D02*
X102362D01*
Y148031D02*
Y150787D01*
X253543Y53543D02*
Y56299D01*
X262598D01*
X253543Y40551D02*
X262598D01*
X253543D02*
Y43307D01*
X102362Y111417D02*
Y114173D01*
X93307Y111417D02*
X102362D01*
X93307Y127165D02*
X102362D01*
Y124409D02*
Y127165D01*
X253543Y77165D02*
Y79921D01*
X262598D01*
X253543Y64173D02*
X262598D01*
X253543D02*
Y66929D01*
X197638Y36614D02*
Y45669D01*
X200394D01*
X217323Y36614D02*
Y45669D01*
X214567D02*
X217323D01*
X102362Y87795D02*
Y90551D01*
X93307Y87795D02*
X102362D01*
X93307Y103543D02*
X102362D01*
Y100787D02*
Y103543D01*
X253543Y100787D02*
Y103543D01*
X262598D01*
X253543Y87795D02*
X262598D01*
X253543D02*
Y90551D01*
X225197Y36614D02*
Y45669D01*
X227953D01*
X244882Y36614D02*
Y45669D01*
X242126D02*
X244882D01*
X253543Y124409D02*
Y127165D01*
X262598D01*
X253543Y111417D02*
X262598D01*
X253543D02*
Y114173D01*
X102362Y40551D02*
Y43307D01*
X93307Y40551D02*
X102362D01*
X93307Y56299D02*
X102362D01*
Y53543D02*
Y56299D01*
X253543Y148031D02*
Y150787D01*
X262598D01*
X253543Y135039D02*
X262598D01*
X253543D02*
Y137795D01*
X138583Y36614D02*
Y45669D01*
X141339D01*
X158268Y36614D02*
Y45669D01*
X155512D02*
X158268D01*
X102362Y64173D02*
Y66929D01*
X93307Y64173D02*
X102362D01*
X93307Y79921D02*
X102362D01*
Y77165D02*
Y79921D01*
X225197Y115747D02*
Y109449D01*
Y115747D02*
X222498D01*
X221598Y115447D01*
X221298Y115147D01*
X220998Y114547D01*
Y113947D01*
X221298Y113347D01*
X221598Y113048D01*
X222498Y112748D01*
X225197D01*
X223098D02*
X220998Y109449D01*
X219589Y111848D02*
X215990D01*
Y112448D01*
X216290Y113048D01*
X216590Y113347D01*
X217190Y113647D01*
X218089D01*
X218689Y113347D01*
X219289Y112748D01*
X219589Y111848D01*
Y111248D01*
X219289Y110348D01*
X218689Y109749D01*
X218089Y109449D01*
X217190D01*
X216590Y109749D01*
X215990Y110348D01*
X214640Y113647D02*
X212841Y109449D01*
X211042Y113647D02*
X212841Y109449D01*
X205074Y115747D02*
Y111248D01*
X204774Y110348D01*
X204174Y109749D01*
X203274Y109449D01*
X202675D01*
X201775Y109749D01*
X201175Y110348D01*
X200875Y111248D01*
Y115747D01*
X199136D02*
X196737Y109449D01*
X194337Y115747D02*
X196737Y109449D01*
X193528Y114547D02*
X192928Y114847D01*
X192028Y115747D01*
Y109449D01*
X184711Y115747D02*
X187710Y109449D01*
X188909Y115747D02*
X184711D01*
X183301Y112148D02*
X177903D01*
X171245Y109449D02*
X173644Y115747D01*
X176044Y109449D01*
X175144Y111548D02*
X172145D01*
X224897Y104405D02*
Y104705D01*
X224597Y105304D01*
X224297Y105604D01*
X223697Y105904D01*
X222498D01*
X221898Y105604D01*
X221598Y105304D01*
X221298Y104705D01*
Y104105D01*
X221598Y103505D01*
X222198Y102605D01*
X225197Y99606D01*
X220998D01*
X217789Y105904D02*
X218689Y105604D01*
X219289Y104705D01*
X219589Y103205D01*
Y102305D01*
X219289Y100806D01*
X218689Y99906D01*
X217789Y99606D01*
X217190D01*
X216290Y99906D01*
X215690Y100806D01*
X215390Y102305D01*
Y103205D01*
X215690Y104705D01*
X216290Y105604D01*
X217190Y105904D01*
X217789D01*
X213981Y104705D02*
X213381Y105005D01*
X212481Y105904D01*
Y99606D01*
X205164Y105904D02*
X208163Y99606D01*
X209362Y105904D02*
X205164D01*
X203754Y102305D02*
X198356D01*
X194697Y105904D02*
X195597Y105604D01*
X196197Y104705D01*
X196497Y103205D01*
Y102305D01*
X196197Y100806D01*
X195597Y99906D01*
X194697Y99606D01*
X194097D01*
X193198Y99906D01*
X192598Y100806D01*
X192298Y102305D01*
Y103205D01*
X192598Y104705D01*
X193198Y105604D01*
X194097Y105904D01*
X194697D01*
X190589Y104405D02*
Y104705D01*
X190289Y105304D01*
X189989Y105604D01*
X189389Y105904D01*
X188189D01*
X187590Y105604D01*
X187290Y105304D01*
X186990Y104705D01*
Y104105D01*
X187290Y103505D01*
X187890Y102605D01*
X190889Y99606D01*
X186690D01*
X185280Y102305D02*
X179882D01*
X176224Y105904D02*
X177123Y105604D01*
X177723Y104705D01*
X178023Y103205D01*
Y102305D01*
X177723Y100806D01*
X177123Y99906D01*
X176224Y99606D01*
X175624D01*
X174724Y99906D01*
X174124Y100806D01*
X173824Y102305D01*
Y103205D01*
X174124Y104705D01*
X174724Y105604D01*
X175624Y105904D01*
X176224D01*
X170915D02*
X171815Y105604D01*
X172115Y105005D01*
Y104405D01*
X171815Y103805D01*
X171215Y103505D01*
X170016Y103205D01*
X169116Y102905D01*
X168516Y102305D01*
X168216Y101706D01*
Y100806D01*
X168516Y100206D01*
X168816Y99906D01*
X169716Y99606D01*
X170915D01*
X171815Y99906D01*
X172115Y100206D01*
X172415Y100806D01*
Y101706D01*
X172115Y102305D01*
X171515Y102905D01*
X170615Y103205D01*
X169416Y103505D01*
X168816Y103805D01*
X168516Y104405D01*
Y105005D01*
X168816Y105604D01*
X169716Y105904D01*
X170915D01*
X225197Y147243D02*
Y142744D01*
X224897Y141845D01*
X224297Y141245D01*
X223397Y140945D01*
X222798D01*
X221898Y141245D01*
X221298Y141845D01*
X220998Y142744D01*
Y147243D01*
X219259D02*
X216860Y140945D01*
X214460Y147243D02*
X216860Y140945D01*
X213051Y147243D02*
X212751Y146943D01*
X212451Y147243D01*
X212751Y147543D01*
X213051Y147243D01*
X212751Y145143D02*
Y140945D01*
X207743Y144244D02*
X208343Y144844D01*
X208942Y145143D01*
X209842D01*
X210442Y144844D01*
X211042Y144244D01*
X211342Y143344D01*
Y142744D01*
X211042Y141845D01*
X210442Y141245D01*
X209842Y140945D01*
X208942D01*
X208343Y141245D01*
X207743Y141845D01*
X201445Y147243D02*
Y140945D01*
Y147243D02*
X197546D01*
X201445Y144244D02*
X199046D01*
X195327Y145143D02*
X195927Y144844D01*
X196527Y144244D01*
X196827Y143344D01*
Y142744D01*
X196527Y141845D01*
X195927Y141245D01*
X195327Y140945D01*
X194427D01*
X193827Y141245D01*
X193228Y141845D01*
X192928Y142744D01*
Y143344D01*
X193228Y144244D01*
X193827Y144844D01*
X194427Y145143D01*
X195327D01*
X191548D02*
Y140945D01*
Y143344D02*
X191248Y144244D01*
X190649Y144844D01*
X190049Y145143D01*
X189149D01*
X188579D02*
Y140945D01*
Y143944D02*
X187680Y144844D01*
X187080Y145143D01*
X186180D01*
X185580Y144844D01*
X185280Y143944D01*
Y140945D01*
Y143944D02*
X184381Y144844D01*
X183781Y145143D01*
X182881D01*
X182281Y144844D01*
X181982Y143944D01*
Y140945D01*
X180002Y145143D02*
Y142145D01*
X179702Y141245D01*
X179103Y140945D01*
X178203D01*
X177603Y141245D01*
X176703Y142145D01*
Y145143D02*
Y140945D01*
X175054Y147243D02*
Y140945D01*
X170135Y145143D02*
Y140945D01*
Y144244D02*
X170735Y144844D01*
X171335Y145143D01*
X172235D01*
X172835Y144844D01*
X173434Y144244D01*
X173734Y143344D01*
Y142744D01*
X173434Y141845D01*
X172835Y141245D01*
X172235Y140945D01*
X171335D01*
X170735Y141245D01*
X170135Y141845D01*
X163508Y147243D02*
Y140945D01*
Y147243D02*
X161109Y140945D01*
X158709Y147243D02*
X161109Y140945D01*
X158709Y147243D02*
Y140945D01*
X155411Y145143D02*
X156010Y144844D01*
X156610Y144244D01*
X156910Y143344D01*
Y142744D01*
X156610Y141845D01*
X156010Y141245D01*
X155411Y140945D01*
X154511D01*
X153911Y141245D01*
X153311Y141845D01*
X153011Y142744D01*
Y143344D01*
X153311Y144244D01*
X153911Y144844D01*
X154511Y145143D01*
X155411D01*
X150732Y147243D02*
Y142145D01*
X150432Y141245D01*
X149832Y140945D01*
X149233D01*
X151632Y145143D02*
X149532D01*
X146833D02*
X147433Y144844D01*
X148033Y144244D01*
X148333Y143344D01*
Y142744D01*
X148033Y141845D01*
X147433Y141245D01*
X146833Y140945D01*
X145934D01*
X145334Y141245D01*
X144734Y141845D01*
X144434Y142744D01*
Y143344D01*
X144734Y144244D01*
X145334Y144844D01*
X145934Y145143D01*
X146833D01*
X143055D02*
Y140945D01*
Y143344D02*
X142755Y144244D01*
X142155Y144844D01*
X141555Y145143D01*
X140656D01*
X136787Y144244D02*
X137087Y144844D01*
X137986Y145143D01*
X138886D01*
X139786Y144844D01*
X140086Y144244D01*
X139786Y143644D01*
X139186Y143344D01*
X137687Y143044D01*
X137087Y142744D01*
X136787Y142145D01*
Y141845D01*
X137087Y141245D01*
X137986Y140945D01*
X138886D01*
X139786Y141245D01*
X140086Y141845D01*
X135467Y145143D02*
Y138846D01*
Y144244D02*
X134868Y144844D01*
X134268Y145143D01*
X133368D01*
X132768Y144844D01*
X132168Y144244D01*
X131869Y143344D01*
Y142744D01*
X132168Y141845D01*
X132768Y141245D01*
X133368Y140945D01*
X134268D01*
X134868Y141245D01*
X135467Y141845D01*
X129019Y145143D02*
X129619Y144844D01*
X130219Y144244D01*
X130519Y143344D01*
Y142744D01*
X130219Y141845D01*
X129619Y141245D01*
X129019Y140945D01*
X128120D01*
X127520Y141245D01*
X126920Y141845D01*
X126620Y142744D01*
Y143344D01*
X126920Y144244D01*
X127520Y144844D01*
X128120Y145143D01*
X129019D01*
X125241D02*
Y140945D01*
Y143344D02*
X124941Y144244D01*
X124341Y144844D01*
X123741Y145143D01*
X122842D01*
X121372Y147243D02*
Y142145D01*
X121072Y141245D01*
X120472Y140945D01*
X119873D01*
X122272Y145143D02*
X120173D01*
D33*
X213951Y133256D02*
X214700Y134755D01*
X216200Y136255D01*
X217699Y137004D01*
X220698D01*
X222198Y136255D01*
X223697Y134755D01*
X224447Y133256D01*
X225197Y131007D01*
Y127258D01*
X224447Y125009D01*
X223697Y123509D01*
X222198Y122010D01*
X220698Y121260D01*
X217699D01*
X216200Y122010D01*
X214700Y123509D01*
X213951Y125009D01*
X197531Y121260D02*
X203529Y137004D01*
X209527Y121260D01*
X207278Y126508D02*
X199780D01*
X193858Y137004D02*
Y121260D01*
Y137004D02*
X183361Y121260D01*
Y137004D02*
Y121260D01*
X179013Y131756D02*
X176014Y121260D01*
X173015Y131756D02*
X176014Y121260D01*
X173015Y131756D02*
X170016Y121260D01*
X167017Y131756D02*
X170016Y121260D01*
X163343Y137004D02*
Y121260D01*
Y128757D02*
X161094Y131007D01*
X159594Y131756D01*
X157345D01*
X155845Y131007D01*
X155096Y128757D01*
Y121260D01*
X150972Y127258D02*
X141975D01*
Y128757D01*
X142725Y130257D01*
X143475Y131007D01*
X144974Y131756D01*
X147223D01*
X148723Y131007D01*
X150222Y129507D01*
X150972Y127258D01*
Y125758D01*
X150222Y123509D01*
X148723Y122010D01*
X147223Y121260D01*
X144974D01*
X143475Y122010D01*
X141975Y123509D01*
X138601Y127258D02*
X129604D01*
Y128757D01*
X130354Y130257D01*
X131104Y131007D01*
X132603Y131756D01*
X134853D01*
X136352Y131007D01*
X137852Y129507D01*
X138601Y127258D01*
Y125758D01*
X137852Y123509D01*
X136352Y122010D01*
X134853Y121260D01*
X132603D01*
X131104Y122010D01*
X129604Y123509D01*
X126230Y137004D02*
Y121260D01*
D36*
X126772Y93701D02*
X225197D01*
D78*
X189091Y54921D02*
X185154Y56421D01*
X189091Y57920D02*
X185154Y56421D01*
X189091Y58426D02*
X185154D01*
X189091D02*
Y60113D01*
X188903Y60676D01*
X188716Y60863D01*
X188341Y61050D01*
X187966D01*
X187591Y60863D01*
X187404Y60676D01*
X187216Y60113D01*
Y58426D02*
Y60113D01*
X187029Y60676D01*
X186841Y60863D01*
X186466Y61050D01*
X185904D01*
X185529Y60863D01*
X185342Y60676D01*
X185154Y60113D01*
Y58426D01*
Y64930D02*
X189091Y63431D01*
X185154Y61931D01*
X186466Y62494D02*
Y64368D01*
X189091Y67161D02*
X185154D01*
X189091Y65849D02*
Y68473D01*
X182013Y57733D02*
X182387Y57545D01*
X182762Y57170D01*
X182950Y56796D01*
Y56046D01*
X182762Y55671D01*
X182387Y55296D01*
X182013Y55109D01*
X181450Y54921D01*
X180513D01*
X179951Y55109D01*
X179576Y55296D01*
X179201Y55671D01*
X179014Y56046D01*
Y56796D01*
X179201Y57170D01*
X179576Y57545D01*
X179951Y57733D01*
X179014Y61838D02*
X182950Y60338D01*
X179014Y58839D01*
X180326Y59401D02*
Y61275D01*
X182950Y62756D02*
X179014D01*
X182950D02*
X179014Y65380D01*
X182950D02*
X179014D01*
X180701Y66467D02*
Y69841D01*
X175872Y57733D02*
X176247Y57545D01*
X176622Y57170D01*
X176809Y56796D01*
Y56046D01*
X176622Y55671D01*
X176247Y55296D01*
X175872Y55109D01*
X175310Y54921D01*
X174372D01*
X173810Y55109D01*
X173435Y55296D01*
X173060Y55671D01*
X172873Y56046D01*
Y56796D01*
X173060Y57170D01*
X173435Y57545D01*
X173810Y57733D01*
X172873Y61838D02*
X176809Y60338D01*
X172873Y58839D01*
X174185Y59401D02*
Y61275D01*
X176809Y62756D02*
X172873D01*
X176809D02*
X172873Y65380D01*
X176809D02*
X172873D01*
X176247Y68154D02*
X172873D01*
X174560Y66467D02*
Y69841D01*
X169731Y57733D02*
X170106Y57545D01*
X170481Y57170D01*
X170668Y56796D01*
Y56046D01*
X170481Y55671D01*
X170106Y55296D01*
X169731Y55109D01*
X169169Y54921D01*
X168232D01*
X167669Y55109D01*
X167295Y55296D01*
X166920Y55671D01*
X166732Y56046D01*
Y56796D01*
X166920Y57170D01*
X167295Y57545D01*
X167669Y57733D01*
X168232D01*
Y56796D02*
Y57733D01*
X170668Y58632D02*
X166732D01*
X170668D02*
X166732Y61257D01*
X170668D02*
X166732D01*
X170668Y62344D02*
X166732D01*
X170668D02*
Y63656D01*
X170481Y64218D01*
X170106Y64593D01*
X169731Y64780D01*
X169169Y64968D01*
X168232D01*
X167669Y64780D01*
X167295Y64593D01*
X166920Y64218D01*
X166732Y63656D01*
Y62344D01*
X244291Y100825D02*
Y96889D01*
X243467Y100825D02*
Y96889D01*
Y100825D02*
X240843Y96889D01*
Y100825D02*
Y96889D01*
X241480Y93747D02*
X241667Y94122D01*
X242042Y94497D01*
X242417Y94684D01*
X243167D01*
X243542Y94497D01*
X243917Y94122D01*
X244104Y93747D01*
X244291Y93185D01*
Y92247D01*
X244104Y91685D01*
X243917Y91310D01*
X243542Y90935D01*
X243167Y90748D01*
X242417D01*
X242042Y90935D01*
X241667Y91310D01*
X241480Y91685D01*
Y92247D01*
X242417D02*
X241480D01*
X240580Y94684D02*
Y90748D01*
Y94684D02*
X237956Y90748D01*
Y94684D02*
Y90748D01*
X236869Y94684D02*
Y90748D01*
Y94684D02*
X235557D01*
X234995Y94497D01*
X234620Y94122D01*
X234432Y93747D01*
X234245Y93185D01*
Y92247D01*
X234432Y91685D01*
X234620Y91310D01*
X234995Y90935D01*
X235557Y90748D01*
X236869D01*
X118461Y99888D02*
X118649Y100263D01*
X119023Y100637D01*
X119398Y100825D01*
X120148D01*
X120523Y100637D01*
X120898Y100263D01*
X121085Y99888D01*
X121273Y99325D01*
Y98388D01*
X121085Y97826D01*
X120898Y97451D01*
X120523Y97076D01*
X120148Y96889D01*
X119398D01*
X119023Y97076D01*
X118649Y97451D01*
X118461Y97826D01*
Y98388D01*
X119398D02*
X118461D01*
X117561Y100825D02*
Y96889D01*
Y100825D02*
X114937Y96889D01*
Y100825D02*
Y96889D01*
X113850Y100825D02*
Y96889D01*
Y100825D02*
X112538D01*
X111976Y100637D01*
X111601Y100263D01*
X111414Y99888D01*
X111226Y99325D01*
Y98388D01*
X111414Y97826D01*
X111601Y97451D01*
X111976Y97076D01*
X112538Y96889D01*
X113850D01*
X114675Y94684D02*
Y90748D01*
X113850Y94684D02*
Y90748D01*
Y94684D02*
X111226Y90748D01*
Y94684D02*
Y90748D01*
X215065Y56608D02*
X211691D01*
X213378Y54921D02*
Y58295D01*
X215627Y61706D02*
Y59832D01*
X213940Y59645D01*
X214127Y59832D01*
X214315Y60394D01*
Y60957D01*
X214127Y61519D01*
X213753Y61894D01*
X213190Y62081D01*
X212815D01*
X212253Y61894D01*
X211878Y61519D01*
X211691Y60957D01*
Y60394D01*
X211878Y59832D01*
X212066Y59645D01*
X212441Y59457D01*
X215627Y62962D02*
X211691Y64462D01*
X215627Y65961D02*
X211691Y64462D01*
X209486Y54921D02*
X205550D01*
X209486Y55746D02*
X205550D01*
X209486D02*
X205550Y58370D01*
X209486D02*
X205550D01*
X202408Y57733D02*
X202783Y57545D01*
X203158Y57170D01*
X203346Y56796D01*
Y56046D01*
X203158Y55671D01*
X202783Y55296D01*
X202408Y55109D01*
X201846Y54921D01*
X200909D01*
X200347Y55109D01*
X199972Y55296D01*
X199597Y55671D01*
X199409Y56046D01*
Y56796D01*
X199597Y57170D01*
X199972Y57545D01*
X200347Y57733D01*
X200909D01*
Y56796D02*
Y57733D01*
X203346Y58632D02*
X199409D01*
X203346D02*
X199409Y61257D01*
X203346D02*
X199409D01*
X203346Y62344D02*
X199409D01*
X203346D02*
Y63656D01*
X203158Y64218D01*
X202783Y64593D01*
X202408Y64780D01*
X201846Y64968D01*
X200909D01*
X200347Y64780D01*
X199972Y64593D01*
X199597Y64218D01*
X199409Y63656D01*
Y62344D01*
M02*
