M48
;Layer_Color=9474304
;FILE_FORMAT=2:5
INCH,LZ
;TYPE=PLATED
T1F00S00C0.01181
T2F00S00C0.01575
T3F00S00C0.03150
T4F00S00C0.04016
T5F00S00C0.15748
%
T01
X0210827Y0085236
X0215158
X0219488
X0223819
Y0089567
X0219488
Y0093898
X0223819
Y0098228
X0219488
X0215158
Y0093898
Y0089567
X0210827
Y0093898
Y0098228
X0182283Y012874
Y0133071
Y0137402
X0177953
X0173622
Y0133071
X0177953
Y012874
X0173622
T02
X0175394Y0032677
X018077Y0041535
X0235039
X0234055Y0075984
X0238189Y0074803
X0244094Y0073228
X0248819Y0063779
X0250787Y0085827
X0238976
X0233858Y0082677
X0236023Y0092716
X0239961Y0102559
X0232677Y0106299
X0229528Y0109449
X0226772Y0113779
X0225197Y0123228
X0213386Y0109055
X0197638Y0103543
X0189764Y0105512
X0182874Y0118307
X0194685Y0123228
X0185827Y0087402
X0192126Y0081102
X0194095Y007559
X0200394Y0080709
X0205118Y007874
X0210236Y0072835
X0214173Y0074016
X022126Y0074016
X0232086Y0072479
X0230118Y0078937
X0227559Y0064173
X0213681Y0063779
X0204331Y0065748
X0219291Y0053346
X0218213Y0049109
X0183858Y0052756
X0163189Y0074016
X0152756Y0079528
X0146457
X0140551Y0077953
X0134252Y0093701
X0138189Y0106299
X0143888Y010255
X0169095Y0103543
X0159252Y0088779
X0152362Y0063779
X0125394Y0061811
X0120866Y0056299
X0113976Y0052362
T03
X0302366Y0076151
X0302063Y0086147
X0295685Y0162518
X0296905Y0172444
X0270402Y0175411
X0269455Y0165456
X0243152Y016766
X0243828Y0177638
X0323314Y0168737
X0321823Y0158849
X0216799Y0169129
X0217201Y0179121
X0190544Y017986
X0190415Y0169861
X0164021Y0169861
X0163877Y017986
X013722Y0179121
X0137637Y0169129
X0111284Y0167661
X0110593Y0177637
X0084019Y017541
X0084982Y0165457
X0058751Y0162519
X0057516Y0172443
X0031127Y0168739
X0032594Y0158847
X0052358Y0086147
X0052071Y0076151
T04
X0256693Y0018898
X0266693
X0276693
Y0028898
X0266693
X0256693
T05
X0051924Y0024817
X0301924
X0327926Y0128401
X0025922
M30
