G04 Layer_Physical_Order=2*
G04 Layer_Color=16711680*
%FSLAX25Y25*%
%MOIN*%
G70*
G01*
G75*
%ADD32C,0.00787*%
%ADD33C,0.01968*%
%ADD34C,0.03937*%
%ADD37C,0.05512*%
%ADD38C,0.06000*%
%ADD39C,0.23622*%
%ADD40C,0.02756*%
%ADD41C,0.02362*%
%ADD42R,0.02362X0.05905*%
%ADD43R,0.04724X0.07087*%
%ADD44R,0.05905X0.02362*%
%ADD45R,0.07087X0.04724*%
%ADD46C,0.02362*%
G36*
X199078Y190257D02*
X221221Y189499D01*
X243340Y188233D01*
X265425Y186459D01*
X287463Y184180D01*
X309443Y181396D01*
X331353Y178108D01*
X334682Y177340D01*
X337881Y176138D01*
X340892Y174524D01*
X343664Y172526D01*
X346147Y170179D01*
X348298Y167525D01*
X350079Y164609D01*
X351459Y161483D01*
X352414Y158202D01*
X352926Y154824D01*
Y128401D01*
X352670Y124830D01*
X351906Y121334D01*
X350651Y117982D01*
X348931Y114843D01*
X346779Y111983D01*
X344242Y109458D01*
X341370Y107323D01*
X338207Y105015D01*
X335357Y102329D01*
X332866Y99308D01*
X330772Y95999D01*
X329109Y92455D01*
X327901Y88730D01*
X327169Y84883D01*
X326924Y80976D01*
Y24817D01*
X326710Y21554D01*
X326072Y18347D01*
X325021Y15250D01*
X323575Y12317D01*
X321758Y9598D01*
X319602Y7139D01*
X317143Y4983D01*
X314424Y3167D01*
X311491Y1720D01*
X308394Y669D01*
X305187Y31D01*
X301924Y-183D01*
X51924D01*
X48661Y31D01*
X45453Y669D01*
X42357Y1720D01*
X39424Y3167D01*
X36705Y4983D01*
X34246Y7139D01*
X32090Y9598D01*
X30273Y12317D01*
X28827Y15250D01*
X27776Y18347D01*
X27138Y21554D01*
X26924Y24817D01*
Y80976D01*
X26679Y84883D01*
X25947Y88730D01*
X24739Y92455D01*
X23076Y95999D01*
X20982Y99308D01*
X18491Y102329D01*
X15641Y105015D01*
X12478Y107323D01*
X9606Y109458D01*
X7068Y111983D01*
X4917Y114843D01*
X3196Y117982D01*
X1942Y121334D01*
X1178Y124830D01*
X922Y128401D01*
Y154824D01*
X1434Y158202D01*
X2389Y161483D01*
X3769Y164609D01*
X5550Y167525D01*
X7701Y170179D01*
X10184Y172526D01*
X12956Y174524D01*
X15967Y176138D01*
X19165Y177340D01*
X22495Y178108D01*
X44405Y181396D01*
X66385Y184180D01*
X88423Y186459D01*
X110508Y188233D01*
X132627Y189499D01*
X154770Y190257D01*
X176924Y190507D01*
X199078Y190257D01*
D02*
G37*
%LPC*%
G36*
X218988Y86943D02*
X218797Y86905D01*
X218211Y86514D01*
X217819Y85927D01*
X217781Y85736D01*
X218988D01*
Y86943D01*
D02*
G37*
G36*
X219988D02*
Y85736D01*
X221195D01*
X221157Y85927D01*
X220765Y86514D01*
X220179Y86905D01*
X219988Y86943D01*
D02*
G37*
G36*
X223319D02*
X223128Y86905D01*
X222542Y86514D01*
X222150Y85927D01*
X222112Y85736D01*
X223319D01*
Y86943D01*
D02*
G37*
G36*
X211327D02*
Y85736D01*
X212534D01*
X212496Y85927D01*
X212104Y86514D01*
X211518Y86905D01*
X211327Y86943D01*
D02*
G37*
G36*
X214657D02*
X214466Y86905D01*
X213880Y86514D01*
X213489Y85927D01*
X213451Y85736D01*
X214657D01*
Y86943D01*
D02*
G37*
G36*
X215657D02*
Y85736D01*
X216864D01*
X216826Y85927D01*
X216435Y86514D01*
X215849Y86905D01*
X215657Y86943D01*
D02*
G37*
G36*
X210327Y89067D02*
X209120D01*
X209158Y88876D01*
X209549Y88290D01*
X210136Y87898D01*
X210327Y87860D01*
Y89067D01*
D02*
G37*
G36*
X212534D02*
X211327D01*
Y87860D01*
X211518Y87898D01*
X212104Y88290D01*
X212496Y88876D01*
X212534Y89067D01*
D02*
G37*
G36*
X214657D02*
X213451D01*
X213489Y88876D01*
X213880Y88290D01*
X214466Y87898D01*
X214657Y87860D01*
Y89067D01*
D02*
G37*
G36*
X224319Y86943D02*
Y85736D01*
X225526D01*
X225488Y85927D01*
X225096Y86514D01*
X224510Y86905D01*
X224319Y86943D01*
D02*
G37*
G36*
X250287Y87734D02*
X250019Y87681D01*
X249368Y87246D01*
X248933Y86595D01*
X248880Y86327D01*
X250287D01*
Y87734D01*
D02*
G37*
G36*
X251287D02*
Y86327D01*
X252695D01*
X252642Y86595D01*
X252207Y87246D01*
X251555Y87681D01*
X251287Y87734D01*
D02*
G37*
G36*
X218988Y84736D02*
X217781D01*
X217819Y84545D01*
X218211Y83959D01*
X218797Y83567D01*
X218988Y83529D01*
Y84736D01*
D02*
G37*
G36*
X221195D02*
X219988D01*
Y83529D01*
X220179Y83567D01*
X220765Y83959D01*
X221157Y84545D01*
X221195Y84736D01*
D02*
G37*
G36*
X223319D02*
X222112D01*
X222150Y84545D01*
X222542Y83959D01*
X223128Y83567D01*
X223319Y83529D01*
Y84736D01*
D02*
G37*
G36*
X212534D02*
X211327D01*
Y83529D01*
X211518Y83567D01*
X212104Y83959D01*
X212496Y84545D01*
X212534Y84736D01*
D02*
G37*
G36*
X214657D02*
X213451D01*
X213489Y84545D01*
X213880Y83959D01*
X214466Y83567D01*
X214657Y83529D01*
Y84736D01*
D02*
G37*
G36*
X216864D02*
X215657D01*
Y83529D01*
X215849Y83567D01*
X216435Y83959D01*
X216826Y84545D01*
X216864Y84736D01*
D02*
G37*
G36*
X91535Y90807D02*
X84449D01*
X83990Y90617D01*
X83799Y90158D01*
Y85433D01*
X83990Y84974D01*
X84449Y84784D01*
X91535D01*
X91995Y84974D01*
X92185Y85433D01*
Y90158D01*
X91995Y90617D01*
X91535Y90807D01*
D02*
G37*
G36*
X271457Y90807D02*
X264370D01*
X263911Y90617D01*
X263721Y90158D01*
Y85433D01*
X263911Y84974D01*
X264370Y84784D01*
X271457D01*
X271916Y84974D01*
X272106Y85433D01*
Y90158D01*
X271916Y90617D01*
X271457Y90807D01*
D02*
G37*
G36*
X210327Y86943D02*
X210136Y86905D01*
X209549Y86514D01*
X209158Y85927D01*
X209120Y85736D01*
X210327D01*
Y86943D01*
D02*
G37*
G36*
X225526Y84736D02*
X224319D01*
Y83529D01*
X224510Y83567D01*
X225096Y83959D01*
X225488Y84545D01*
X225526Y84736D01*
D02*
G37*
G36*
X250287Y85327D02*
X248880D01*
X248933Y85059D01*
X249368Y84408D01*
X250019Y83973D01*
X250287Y83919D01*
Y85327D01*
D02*
G37*
G36*
X252695D02*
X251287D01*
Y83919D01*
X251555Y83973D01*
X252207Y84408D01*
X252642Y85059D01*
X252695Y85327D01*
D02*
G37*
G36*
X256348Y93201D02*
X253256D01*
Y91881D01*
X255709D01*
X256161Y92068D01*
X256348Y92520D01*
Y93201D01*
D02*
G37*
G36*
X210327Y93398D02*
X209120D01*
X209158Y93206D01*
X209549Y92620D01*
X210136Y92229D01*
X210327Y92191D01*
Y93398D01*
D02*
G37*
G36*
X212534D02*
X211327D01*
Y92191D01*
X211518Y92229D01*
X212104Y92620D01*
X212496Y93206D01*
X212534Y93398D01*
D02*
G37*
G36*
X224319Y91274D02*
Y90067D01*
X225526D01*
X225488Y90258D01*
X225096Y90844D01*
X224510Y91236D01*
X224319Y91274D01*
D02*
G37*
G36*
X106742Y97138D02*
X103150D01*
X99558D01*
Y96457D01*
X99745Y96005D01*
X99889Y95945D01*
Y95404D01*
X99738Y95341D01*
X99547Y94882D01*
Y92520D01*
X99738Y92061D01*
X100197Y91870D01*
X106102D01*
X106562Y92061D01*
X106752Y92520D01*
Y92688D01*
X132550D01*
X132826Y92275D01*
X133480Y91838D01*
X134252Y91684D01*
X135024Y91838D01*
X135678Y92275D01*
X136115Y92929D01*
X136269Y93701D01*
X136115Y94473D01*
X135678Y95127D01*
X135024Y95564D01*
X134252Y95718D01*
X133480Y95564D01*
X132826Y95127D01*
X132550Y94714D01*
X106752D01*
Y94882D01*
X106562Y95341D01*
X106410Y95404D01*
Y95945D01*
X106554Y96005D01*
X106742Y96457D01*
Y97138D01*
D02*
G37*
G36*
X252256Y93201D02*
X249164D01*
Y92520D01*
X249351Y92068D01*
X249803Y91881D01*
X252256D01*
Y93201D01*
D02*
G37*
G36*
X221195Y93398D02*
X219988D01*
Y92191D01*
X220179Y92229D01*
X220765Y92620D01*
X221157Y93206D01*
X221195Y93398D01*
D02*
G37*
G36*
X223319D02*
X222112D01*
X222150Y93206D01*
X222542Y92620D01*
X223128Y92229D01*
X223319Y92191D01*
Y93398D01*
D02*
G37*
G36*
X225526D02*
X224319D01*
Y92191D01*
X224510Y92229D01*
X225096Y92620D01*
X225488Y93206D01*
X225526Y93398D01*
D02*
G37*
G36*
X214657D02*
X213451D01*
X213489Y93206D01*
X213880Y92620D01*
X214466Y92229D01*
X214657Y92191D01*
Y93398D01*
D02*
G37*
G36*
X216864D02*
X215657D01*
Y92191D01*
X215849Y92229D01*
X216435Y92620D01*
X216826Y93206D01*
X216864Y93398D01*
D02*
G37*
G36*
X218988D02*
X217781D01*
X217819Y93206D01*
X218211Y92620D01*
X218797Y92229D01*
X218988Y92191D01*
Y93398D01*
D02*
G37*
G36*
X223319Y89067D02*
X222112D01*
X222150Y88876D01*
X222542Y88290D01*
X223128Y87898D01*
X223319Y87860D01*
Y89067D01*
D02*
G37*
G36*
X225526D02*
X224319D01*
Y87860D01*
X224510Y87898D01*
X225096Y88290D01*
X225488Y88876D01*
X225526Y89067D01*
D02*
G37*
G36*
X210327Y91274D02*
X210136Y91236D01*
X209549Y90844D01*
X209158Y90258D01*
X209120Y90067D01*
X210327D01*
Y91274D01*
D02*
G37*
G36*
X216864Y89067D02*
X215657D01*
Y87860D01*
X215849Y87898D01*
X216435Y88290D01*
X216826Y88876D01*
X216864Y89067D01*
D02*
G37*
G36*
X218988D02*
X217781D01*
X217819Y88876D01*
X218211Y88290D01*
X218797Y87898D01*
X218988Y87860D01*
Y89067D01*
D02*
G37*
G36*
X221195D02*
X219988D01*
Y87860D01*
X220179Y87898D01*
X220765Y88290D01*
X221157Y88876D01*
X221195Y89067D01*
D02*
G37*
G36*
X218988Y91274D02*
X218797Y91236D01*
X218211Y90844D01*
X217819Y90258D01*
X217781Y90067D01*
X218988D01*
Y91274D01*
D02*
G37*
G36*
X219988D02*
Y90067D01*
X221195D01*
X221157Y90258D01*
X220765Y90844D01*
X220179Y91236D01*
X219988Y91274D01*
D02*
G37*
G36*
X223319D02*
X223128Y91236D01*
X222542Y90844D01*
X222150Y90258D01*
X222112Y90067D01*
X223319D01*
Y91274D01*
D02*
G37*
G36*
X211327D02*
Y90067D01*
X212534D01*
X212496Y90258D01*
X212104Y90844D01*
X211518Y91236D01*
X211327Y91274D01*
D02*
G37*
G36*
X214657D02*
X214466Y91236D01*
X213880Y90844D01*
X213489Y90258D01*
X213451Y90067D01*
X214657D01*
Y91274D01*
D02*
G37*
G36*
X215657D02*
Y90067D01*
X216864D01*
X216826Y90258D01*
X216435Y90844D01*
X215849Y91236D01*
X215657Y91274D01*
D02*
G37*
G36*
X210327Y84736D02*
X209120D01*
X209158Y84545D01*
X209549Y83959D01*
X210136Y83567D01*
X210327Y83529D01*
Y84736D01*
D02*
G37*
G36*
X276193Y32453D02*
X275756Y32396D01*
X274882Y32034D01*
X274132Y31458D01*
X273557Y30708D01*
X273195Y29835D01*
X273137Y29398D01*
X276193D01*
Y32453D01*
D02*
G37*
G36*
X277193Y32453D02*
Y29398D01*
X280249D01*
X280191Y29835D01*
X279829Y30708D01*
X279254Y31458D01*
X278504Y32034D01*
X277630Y32396D01*
X277193Y32453D01*
D02*
G37*
G36*
X91535Y43563D02*
X84449D01*
X83990Y43373D01*
X83799Y42913D01*
Y38189D01*
X83990Y37730D01*
X84449Y37539D01*
X91535D01*
X91995Y37730D01*
X92185Y38189D01*
Y42913D01*
X91995Y43373D01*
X91535Y43563D01*
D02*
G37*
G36*
X192126Y35492D02*
X187402D01*
X186942Y35302D01*
X186752Y34843D01*
Y27756D01*
X186942Y27297D01*
X187402Y27106D01*
X192126D01*
X192585Y27297D01*
X192775Y27756D01*
Y34843D01*
X192585Y35302D01*
X192126Y35492D01*
D02*
G37*
G36*
X200000D02*
X195276D01*
X194816Y35302D01*
X194626Y34843D01*
Y27756D01*
X194816Y27297D01*
X195276Y27106D01*
X200000D01*
X200459Y27297D01*
X200649Y27756D01*
Y34843D01*
X200459Y35302D01*
X200000Y35492D01*
D02*
G37*
G36*
X219685D02*
X214961D01*
X214501Y35302D01*
X214311Y34843D01*
Y27756D01*
X214501Y27297D01*
X214961Y27106D01*
X219685D01*
X220144Y27297D01*
X220335Y27756D01*
Y34843D01*
X220144Y35302D01*
X219685Y35492D01*
D02*
G37*
G36*
X203043Y45957D02*
X201723D01*
Y43504D01*
X201910Y43052D01*
X202362Y42865D01*
X203043D01*
Y45957D01*
D02*
G37*
G36*
X230602D02*
X229282D01*
Y43504D01*
X229469Y43052D01*
X229921Y42865D01*
X230602D01*
Y45957D01*
D02*
G37*
G36*
X252256Y45957D02*
X249164D01*
Y45276D01*
X249351Y44824D01*
X249803Y44636D01*
X252256D01*
Y45957D01*
D02*
G37*
G36*
X116429Y45957D02*
X115109D01*
Y43504D01*
X115296Y43052D01*
X115748Y42865D01*
X116429D01*
Y45957D01*
D02*
G37*
G36*
X143988D02*
X142668D01*
Y43504D01*
X142855Y43052D01*
X143307Y42865D01*
X143988D01*
Y45957D01*
D02*
G37*
G36*
X171547D02*
X170227D01*
Y43504D01*
X170414Y43052D01*
X170866Y42865D01*
X171547D01*
Y45957D01*
D02*
G37*
G36*
X276693Y22529D02*
X275753Y22405D01*
X274877Y22042D01*
X274125Y21465D01*
X273548Y20713D01*
X273186Y19837D01*
X273062Y18898D01*
X273186Y17958D01*
X273548Y17082D01*
X274125Y16330D01*
X274877Y15753D01*
X275753Y15390D01*
X276693Y15267D01*
X277633Y15390D01*
X278508Y15753D01*
X279260Y16330D01*
X279837Y17082D01*
X280200Y17958D01*
X280324Y18898D01*
X280200Y19837D01*
X279837Y20713D01*
X279260Y21465D01*
X278508Y22042D01*
X277633Y22405D01*
X276693Y22529D01*
D02*
G37*
G36*
X266693Y32529D02*
X265753Y32405D01*
X264877Y32042D01*
X264125Y31465D01*
X263548Y30713D01*
X263186Y29837D01*
X263062Y28898D01*
X263186Y27958D01*
X263548Y27082D01*
X264125Y26330D01*
X264877Y25753D01*
X265753Y25390D01*
X266693Y25267D01*
X267633Y25390D01*
X268508Y25753D01*
X269261Y26330D01*
X269837Y27082D01*
X270200Y27958D01*
X270324Y28898D01*
X270200Y29837D01*
X269837Y30713D01*
X269261Y31465D01*
X268508Y32042D01*
X267633Y32405D01*
X266693Y32529D01*
D02*
G37*
G36*
X276193Y28398D02*
X273137D01*
X273195Y27960D01*
X273557Y27087D01*
X274132Y26337D01*
X274882Y25761D01*
X275756Y25400D01*
X276193Y25342D01*
Y28398D01*
D02*
G37*
G36*
X51924Y37266D02*
X49976Y37113D01*
X48077Y36657D01*
X46272Y35910D01*
X44606Y34889D01*
X43121Y33620D01*
X41852Y32135D01*
X40831Y30469D01*
X40084Y28664D01*
X39628Y26765D01*
X39474Y24817D01*
X39628Y22870D01*
X40084Y20970D01*
X40831Y19165D01*
X41852Y17500D01*
X43121Y16014D01*
X44606Y14745D01*
X46272Y13725D01*
X48077Y12977D01*
X49976Y12521D01*
X51924Y12368D01*
X53871Y12521D01*
X55771Y12977D01*
X57576Y13725D01*
X59241Y14745D01*
X60727Y16014D01*
X61996Y17500D01*
X63016Y19165D01*
X63764Y20970D01*
X64220Y22870D01*
X64373Y24817D01*
X64220Y26765D01*
X63764Y28664D01*
X63016Y30469D01*
X61996Y32135D01*
X60727Y33620D01*
X59241Y34889D01*
X57576Y35910D01*
X55771Y36657D01*
X53871Y37113D01*
X51924Y37266D01*
D02*
G37*
G36*
X301924D02*
X299976Y37113D01*
X298077Y36657D01*
X296272Y35910D01*
X294606Y34889D01*
X293121Y33620D01*
X291852Y32135D01*
X290831Y30469D01*
X290084Y28664D01*
X289628Y26765D01*
X289475Y24817D01*
X289628Y22870D01*
X290084Y20970D01*
X290831Y19165D01*
X291852Y17500D01*
X293121Y16014D01*
X294606Y14745D01*
X296272Y13725D01*
X298077Y12977D01*
X299976Y12521D01*
X301924Y12368D01*
X303871Y12521D01*
X305771Y12977D01*
X307576Y13725D01*
X309242Y14745D01*
X310727Y16014D01*
X311996Y17500D01*
X313016Y19165D01*
X313764Y20970D01*
X314220Y22870D01*
X314373Y24817D01*
X314220Y26765D01*
X313764Y28664D01*
X313016Y30469D01*
X311996Y32135D01*
X310727Y33620D01*
X309242Y34889D01*
X307576Y35910D01*
X305771Y36657D01*
X303871Y37113D01*
X301924Y37266D01*
D02*
G37*
G36*
X266693Y22529D02*
X265753Y22405D01*
X264877Y22042D01*
X264125Y21465D01*
X263548Y20713D01*
X263186Y19837D01*
X263062Y18898D01*
X263186Y17958D01*
X263548Y17082D01*
X264125Y16330D01*
X264877Y15753D01*
X265753Y15390D01*
X266693Y15267D01*
X267633Y15390D01*
X268508Y15753D01*
X269261Y16330D01*
X269837Y17082D01*
X270200Y17958D01*
X270324Y18898D01*
X270200Y19837D01*
X269837Y20713D01*
X269261Y21465D01*
X268508Y22042D01*
X267633Y22405D01*
X266693Y22529D01*
D02*
G37*
G36*
X140945Y35492D02*
X136221D01*
X135761Y35302D01*
X135571Y34843D01*
Y27756D01*
X135761Y27297D01*
X136221Y27106D01*
X140945D01*
X141404Y27297D01*
X141594Y27756D01*
Y34843D01*
X141404Y35302D01*
X140945Y35492D01*
D02*
G37*
G36*
X160630D02*
X155905D01*
X155446Y35302D01*
X155256Y34843D01*
Y27756D01*
X155446Y27297D01*
X155905Y27106D01*
X160630D01*
X161089Y27297D01*
X161279Y27756D01*
Y34843D01*
X161089Y35302D01*
X160630Y35492D01*
D02*
G37*
G36*
X168504D02*
X163779D01*
X163320Y35302D01*
X163130Y34843D01*
Y27756D01*
X163320Y27297D01*
X163779Y27106D01*
X168504D01*
X168963Y27297D01*
X169153Y27756D01*
Y34843D01*
X168963Y35302D01*
X168504Y35492D01*
D02*
G37*
G36*
X280249Y28398D02*
X277193D01*
Y25342D01*
X277630Y25400D01*
X278504Y25761D01*
X279254Y26337D01*
X279829Y27087D01*
X280191Y27960D01*
X280249Y28398D01*
D02*
G37*
G36*
X113386Y35492D02*
X108661D01*
X108202Y35302D01*
X108012Y34843D01*
Y27756D01*
X108202Y27297D01*
X108661Y27106D01*
X113386D01*
X113845Y27297D01*
X114035Y27756D01*
Y34843D01*
X113845Y35302D01*
X113386Y35492D01*
D02*
G37*
G36*
X133071D02*
X128347D01*
X127887Y35302D01*
X127697Y34843D01*
Y27756D01*
X127887Y27297D01*
X128347Y27106D01*
X133071D01*
X133530Y27297D01*
X133720Y27756D01*
Y34843D01*
X133530Y35302D01*
X133071Y35492D01*
D02*
G37*
G36*
X252256Y69579D02*
X249164D01*
Y68898D01*
X249351Y68446D01*
X249803Y68258D01*
X252256D01*
Y69579D01*
D02*
G37*
G36*
X256348D02*
X253256D01*
Y68258D01*
X255709D01*
X256161Y68446D01*
X256348Y68898D01*
Y69579D01*
D02*
G37*
G36*
X52168Y79535D02*
X51289Y79444D01*
X50463Y79130D01*
X49747Y78612D01*
X49189Y77927D01*
X48828Y77121D01*
X48687Y76248D01*
X48777Y75369D01*
X49092Y74544D01*
X49610Y73827D01*
X50295Y73270D01*
X51101Y72908D01*
X51974Y72768D01*
X52853Y72858D01*
X53678Y73172D01*
X54395Y73690D01*
X54952Y74375D01*
X55314Y75182D01*
X55454Y76054D01*
X55364Y76933D01*
X55050Y77759D01*
X54532Y78475D01*
X53847Y79033D01*
X53040Y79394D01*
X52168Y79535D01*
D02*
G37*
G36*
X125394Y63828D02*
X124622Y63674D01*
X123968Y63237D01*
X123530Y62583D01*
X123377Y61811D01*
X123530Y61039D01*
X123778Y60668D01*
Y59882D01*
X123661Y59804D01*
X123311Y59280D01*
X123188Y58661D01*
Y57216D01*
X122926Y57133D01*
X122688Y57133D01*
X122292Y57725D01*
X121638Y58162D01*
X120866Y58316D01*
X120094Y58162D01*
X119440Y57725D01*
X119003Y57071D01*
X118849Y56299D01*
X119003Y55528D01*
X119440Y54873D01*
X119853Y54597D01*
Y50059D01*
X119685D01*
X119226Y49869D01*
X119163Y49717D01*
X118622D01*
X118562Y49861D01*
X118110Y50049D01*
X117429D01*
Y46457D01*
Y42865D01*
X118110D01*
X118562Y43052D01*
X118622Y43196D01*
X119163D01*
X119226Y43045D01*
X119685Y42854D01*
X122047D01*
X122506Y43045D01*
X122564Y43184D01*
X123105D01*
X123163Y43045D01*
X123622Y42854D01*
X125984D01*
X126444Y43045D01*
X126634Y43504D01*
Y49409D01*
X126444Y49869D01*
X126418Y49879D01*
Y58031D01*
X126536Y58110D01*
X126886Y58634D01*
X127009Y59252D01*
Y60668D01*
X127257Y61039D01*
X127410Y61811D01*
X127257Y62583D01*
X126820Y63237D01*
X126165Y63674D01*
X125394Y63828D01*
D02*
G37*
G36*
X91535Y67185D02*
X84449D01*
X83990Y66995D01*
X83799Y66535D01*
Y61811D01*
X83990Y61352D01*
X84449Y61162D01*
X91535D01*
X91995Y61352D01*
X92185Y61811D01*
Y66535D01*
X91995Y66995D01*
X91535Y67185D01*
D02*
G37*
G36*
X271457Y67185D02*
X264370D01*
X263911Y66995D01*
X263721Y66535D01*
Y61811D01*
X263911Y61352D01*
X264370Y61162D01*
X271457D01*
X271916Y61352D01*
X272106Y61811D01*
Y66535D01*
X271916Y66995D01*
X271457Y67185D01*
D02*
G37*
G36*
X140551Y79970D02*
X139779Y79816D01*
X139125Y79379D01*
X138688Y78724D01*
X138534Y77953D01*
X138631Y77466D01*
X135210Y74045D01*
X114173D01*
X113786Y73968D01*
X113606Y73848D01*
X112992D01*
X112604Y73771D01*
X112276Y73551D01*
X109817Y71092D01*
X106752D01*
Y71260D01*
X106562Y71719D01*
X106410Y71782D01*
Y72323D01*
X106554Y72383D01*
X106742Y72835D01*
Y73516D01*
X103150D01*
X99558D01*
Y72835D01*
X99745Y72383D01*
X99889Y72323D01*
Y71782D01*
X99738Y71719D01*
X99547Y71260D01*
Y68898D01*
X99738Y68438D01*
X100197Y68248D01*
X106102D01*
X106562Y68438D01*
X106752Y68898D01*
Y69066D01*
X110236D01*
X110624Y69143D01*
X110953Y69362D01*
X113412Y71821D01*
X113976D01*
X114364Y71899D01*
X114543Y72018D01*
X135630D01*
X136018Y72096D01*
X136346Y72315D01*
X140064Y76033D01*
X140551Y75936D01*
X141323Y76090D01*
X141977Y76527D01*
X142414Y77181D01*
X142568Y77953D01*
X142414Y78724D01*
X141977Y79379D01*
X141323Y79816D01*
X140551Y79970D01*
D02*
G37*
G36*
X91535Y82933D02*
X84449D01*
X83990Y82743D01*
X83799Y82284D01*
Y77559D01*
X83990Y77100D01*
X84449Y76910D01*
X91535D01*
X91995Y77100D01*
X92185Y77559D01*
Y82284D01*
X91995Y82743D01*
X91535Y82933D01*
D02*
G37*
G36*
X271457Y82933D02*
X264370D01*
X263911Y82743D01*
X263721Y82284D01*
Y77559D01*
X263911Y77100D01*
X264370Y76910D01*
X271457D01*
X271916Y77100D01*
X272106Y77559D01*
Y82284D01*
X271916Y82743D01*
X271457Y82933D01*
D02*
G37*
G36*
X302263Y79535D02*
X301391Y79393D01*
X300586Y79030D01*
X299901Y78471D01*
X299385Y77754D01*
X299072Y76928D01*
X298983Y76049D01*
X299125Y75176D01*
X299488Y74371D01*
X300047Y73686D01*
X300764Y73170D01*
X301590Y72857D01*
X302469Y72768D01*
X303341Y72910D01*
X304147Y73273D01*
X304831Y73832D01*
X305348Y74549D01*
X305661Y75375D01*
X305750Y76254D01*
X305608Y77126D01*
X305245Y77932D01*
X304686Y78616D01*
X303969Y79133D01*
X303143Y79446D01*
X302263Y79535D01*
D02*
G37*
G36*
X102650Y75836D02*
X100197D01*
X99745Y75649D01*
X99558Y75197D01*
Y74516D01*
X102650D01*
Y75836D01*
D02*
G37*
G36*
X106102D02*
X103650D01*
Y74516D01*
X106742D01*
Y75197D01*
X106554Y75649D01*
X106102Y75836D01*
D02*
G37*
G36*
X203043Y50049D02*
X202362D01*
X201910Y49861D01*
X201723Y49409D01*
Y46957D01*
X203043D01*
Y50049D01*
D02*
G37*
G36*
X230602D02*
X229921D01*
X229469Y49861D01*
X229282Y49409D01*
Y46957D01*
X230602D01*
Y50049D01*
D02*
G37*
G36*
X116429D02*
X115748D01*
X115296Y49861D01*
X115109Y49409D01*
Y46957D01*
X116429D01*
Y50049D01*
D02*
G37*
G36*
X256348Y45957D02*
X253256D01*
Y44636D01*
X255709D01*
X256161Y44824D01*
X256348Y45276D01*
Y45957D01*
D02*
G37*
G36*
X171547Y50049D02*
X170866D01*
X170414Y49861D01*
X170227Y49409D01*
Y46957D01*
X171547D01*
Y50049D01*
D02*
G37*
G36*
X143988D02*
X143307D01*
X142855Y49861D01*
X142668Y49409D01*
Y46957D01*
X143988D01*
Y50049D01*
D02*
G37*
G36*
X106102Y52214D02*
X103650D01*
Y50894D01*
X106742D01*
Y51575D01*
X106554Y52027D01*
X106102Y52214D01*
D02*
G37*
G36*
X91535Y59311D02*
X84449D01*
X83990Y59121D01*
X83799Y58661D01*
Y53937D01*
X83990Y53478D01*
X84449Y53288D01*
X91535D01*
X91995Y53478D01*
X92185Y53937D01*
Y58661D01*
X91995Y59121D01*
X91535Y59311D01*
D02*
G37*
G36*
X271457Y59311D02*
X264370D01*
X263911Y59121D01*
X263721Y58661D01*
Y53937D01*
X263911Y53478D01*
X264370Y53288D01*
X271457D01*
X271916Y53478D01*
X272106Y53937D01*
Y58661D01*
X271916Y59121D01*
X271457Y59311D01*
D02*
G37*
G36*
X183858Y54773D02*
X183087Y54619D01*
X182432Y54182D01*
X181995Y53528D01*
X181842Y52756D01*
X181995Y51984D01*
X182042Y51913D01*
Y50015D01*
X181562Y49869D01*
X181102Y50059D01*
X178740D01*
X178281Y49869D01*
X178223Y49730D01*
X177682D01*
X177625Y49869D01*
X177165Y50059D01*
X174803D01*
X174344Y49869D01*
X174281Y49717D01*
X173740D01*
X173680Y49861D01*
X173228Y50049D01*
X172547D01*
Y46457D01*
Y42865D01*
X173228D01*
X173680Y43052D01*
X173740Y43196D01*
X174281D01*
X174344Y43045D01*
X174803Y42854D01*
X174971D01*
Y34610D01*
X174622Y34540D01*
X173968Y34103D01*
X173530Y33449D01*
X173377Y32677D01*
X173530Y31905D01*
X173968Y31251D01*
X174622Y30814D01*
X175394Y30661D01*
X176165Y30814D01*
X176820Y31251D01*
X177257Y31905D01*
X177410Y32677D01*
X177257Y33449D01*
X176997Y33837D01*
Y42854D01*
X177165D01*
X177625Y43045D01*
X177682Y43184D01*
X178223D01*
X178281Y43045D01*
X178686Y42877D01*
X178797Y42751D01*
X178978Y42413D01*
X178907Y42307D01*
X178753Y41535D01*
X178907Y40764D01*
X179344Y40109D01*
X179998Y39672D01*
X180770Y39519D01*
X181542Y39672D01*
X182196Y40109D01*
X182633Y40764D01*
X182787Y41535D01*
X182633Y42307D01*
X182576Y42393D01*
X182580Y42409D01*
X182869Y42854D01*
X185039D01*
X185499Y43045D01*
X185689Y43504D01*
Y49409D01*
X185674Y49445D01*
Y51913D01*
X185722Y51984D01*
X185875Y52756D01*
X185722Y53528D01*
X185284Y54182D01*
X184630Y54619D01*
X183858Y54773D01*
D02*
G37*
G36*
X113976Y54379D02*
X113205Y54225D01*
X112550Y53788D01*
X112275Y53375D01*
X112008D01*
X111620Y53298D01*
X111292Y53079D01*
X107182Y48969D01*
X106807Y49177D01*
X106742Y49236D01*
Y49894D01*
X103150D01*
X99558D01*
Y49213D01*
X99745Y48761D01*
X99889Y48701D01*
Y48160D01*
X99738Y48097D01*
X99547Y47638D01*
Y45276D01*
X99738Y44816D01*
X100197Y44626D01*
X106102D01*
X106562Y44816D01*
X106752Y45276D01*
Y45695D01*
X106819Y45740D01*
X112063Y50984D01*
X112550Y50936D01*
X113205Y50499D01*
X113976Y50345D01*
X114748Y50499D01*
X115402Y50936D01*
X115840Y51590D01*
X115993Y52362D01*
X115840Y53134D01*
X115402Y53788D01*
X114748Y54225D01*
X113976Y54379D01*
D02*
G37*
G36*
X102650Y52214D02*
X100197D01*
X99745Y52027D01*
X99558Y51575D01*
Y50894D01*
X102650D01*
Y52214D01*
D02*
G37*
G36*
X210327Y95604D02*
X210136Y95566D01*
X209549Y95175D01*
X209158Y94589D01*
X209120Y94398D01*
X210327D01*
Y95604D01*
D02*
G37*
G36*
X177453Y134778D02*
X177261Y134740D01*
X176675Y134348D01*
X176284Y133762D01*
X176246Y133571D01*
X177453D01*
Y134778D01*
D02*
G37*
G36*
X178453D02*
Y133571D01*
X179660D01*
X179622Y133762D01*
X179230Y134348D01*
X178644Y134740D01*
X178453Y134778D01*
D02*
G37*
G36*
X181783D02*
X181592Y134740D01*
X181006Y134348D01*
X180615Y133762D01*
X180577Y133571D01*
X181783D01*
Y134778D01*
D02*
G37*
G36*
X271457Y138051D02*
X264370D01*
X263911Y137861D01*
X263721Y137402D01*
Y132677D01*
X263911Y132218D01*
X264370Y132028D01*
X271457D01*
X271916Y132218D01*
X272106Y132677D01*
Y137402D01*
X271916Y137861D01*
X271457Y138051D01*
D02*
G37*
G36*
X173122Y134778D02*
X172931Y134740D01*
X172345Y134348D01*
X171953Y133762D01*
X171915Y133571D01*
X173122D01*
Y134778D01*
D02*
G37*
G36*
X174122D02*
Y133571D01*
X175329D01*
X175291Y133762D01*
X174899Y134348D01*
X174313Y134740D01*
X174122Y134778D01*
D02*
G37*
G36*
X177453Y136902D02*
X176246D01*
X176284Y136710D01*
X176675Y136124D01*
X177261Y135733D01*
X177453Y135695D01*
Y136902D01*
D02*
G37*
G36*
X179660D02*
X178453D01*
Y135695D01*
X178644Y135733D01*
X179230Y136124D01*
X179622Y136710D01*
X179660Y136902D01*
D02*
G37*
G36*
X181783D02*
X180577D01*
X180615Y136710D01*
X181006Y136124D01*
X181592Y135733D01*
X181783Y135695D01*
Y136902D01*
D02*
G37*
G36*
X182783Y134778D02*
Y133571D01*
X183990D01*
X183952Y133762D01*
X183561Y134348D01*
X182975Y134740D01*
X182783Y134778D01*
D02*
G37*
G36*
X173122Y136902D02*
X171915D01*
X171953Y136710D01*
X172345Y136124D01*
X172931Y135733D01*
X173122Y135695D01*
Y136902D01*
D02*
G37*
G36*
X175329D02*
X174122D01*
Y135695D01*
X174313Y135733D01*
X174899Y136124D01*
X175291Y136710D01*
X175329Y136902D01*
D02*
G37*
G36*
X91535Y138051D02*
X84449D01*
X83990Y137861D01*
X83799Y137402D01*
Y132677D01*
X83990Y132218D01*
X84449Y132028D01*
X91535D01*
X91995Y132218D01*
X92185Y132677D01*
Y137402D01*
X91995Y137861D01*
X91535Y138051D01*
D02*
G37*
G36*
X178453Y130447D02*
Y129240D01*
X179660D01*
X179622Y129431D01*
X179230Y130017D01*
X178644Y130409D01*
X178453Y130447D01*
D02*
G37*
G36*
X181783D02*
X181592Y130409D01*
X181006Y130017D01*
X180615Y129431D01*
X180577Y129240D01*
X181783D01*
Y130447D01*
D02*
G37*
G36*
X182783D02*
Y129240D01*
X183990D01*
X183952Y129431D01*
X183561Y130017D01*
X182975Y130409D01*
X182783Y130447D01*
D02*
G37*
G36*
X173122D02*
X172931Y130409D01*
X172345Y130017D01*
X171953Y129431D01*
X171915Y129240D01*
X173122D01*
Y130447D01*
D02*
G37*
G36*
X174122D02*
Y129240D01*
X175329D01*
X175291Y129431D01*
X174899Y130017D01*
X174313Y130409D01*
X174122Y130447D01*
D02*
G37*
G36*
X177453D02*
X177261Y130409D01*
X176675Y130017D01*
X176284Y129431D01*
X176246Y129240D01*
X177453D01*
Y130447D01*
D02*
G37*
G36*
X179660Y132571D02*
X178453D01*
Y131364D01*
X178644Y131402D01*
X179230Y131794D01*
X179622Y132380D01*
X179660Y132571D01*
D02*
G37*
G36*
X181783D02*
X180577D01*
X180615Y132380D01*
X181006Y131794D01*
X181592Y131402D01*
X181783Y131364D01*
Y132571D01*
D02*
G37*
G36*
X183990D02*
X182783D01*
Y131364D01*
X182975Y131402D01*
X183561Y131794D01*
X183952Y132380D01*
X183990Y132571D01*
D02*
G37*
G36*
X173122D02*
X171915D01*
X171953Y132380D01*
X172345Y131794D01*
X172931Y131402D01*
X173122Y131364D01*
Y132571D01*
D02*
G37*
G36*
X175329D02*
X174122D01*
Y131364D01*
X174313Y131402D01*
X174899Y131794D01*
X175291Y132380D01*
X175329Y132571D01*
D02*
G37*
G36*
X177453D02*
X176246D01*
X176284Y132380D01*
X176675Y131794D01*
X177261Y131402D01*
X177453Y131364D01*
Y132571D01*
D02*
G37*
G36*
X183990Y136902D02*
X182783D01*
Y135695D01*
X182975Y135733D01*
X183561Y136124D01*
X183952Y136710D01*
X183990Y136902D01*
D02*
G37*
G36*
X269776Y168826D02*
X268892Y168794D01*
X268048Y168535D01*
X267299Y168066D01*
X266697Y167419D01*
X266283Y166638D01*
X266085Y165777D01*
X266117Y164894D01*
X266376Y164049D01*
X266845Y163300D01*
X267492Y162698D01*
X268273Y162284D01*
X269134Y162087D01*
X270017Y162118D01*
X270862Y162378D01*
X271610Y162847D01*
X272212Y163494D01*
X272626Y164274D01*
X272824Y165135D01*
X272793Y166018D01*
X272533Y166863D01*
X272064Y167612D01*
X271417Y168214D01*
X270637Y168628D01*
X269776Y168826D01*
D02*
G37*
G36*
X84656Y168826D02*
X83795Y168627D01*
X83015Y168212D01*
X82369Y167609D01*
X81901Y166859D01*
X81643Y166014D01*
X81613Y165131D01*
X81812Y164270D01*
X82227Y163490D01*
X82830Y162844D01*
X83579Y162376D01*
X84425Y162118D01*
X85308Y162088D01*
X86169Y162287D01*
X86949Y162702D01*
X87594Y163305D01*
X88062Y164055D01*
X88320Y164900D01*
X88351Y165783D01*
X88152Y166644D01*
X87736Y167424D01*
X87134Y168070D01*
X86384Y168538D01*
X85539Y168796D01*
X84656Y168826D01*
D02*
G37*
G36*
X243381Y171037D02*
X242499Y170982D01*
X241662Y170699D01*
X240926Y170210D01*
X240342Y169547D01*
X239950Y168755D01*
X239775Y167889D01*
X239831Y167007D01*
X240113Y166170D01*
X240603Y165434D01*
X241266Y164850D01*
X242058Y164457D01*
X242924Y164283D01*
X243806Y164339D01*
X244643Y164621D01*
X245379Y165111D01*
X245963Y165774D01*
X246355Y166566D01*
X246530Y167432D01*
X246474Y168314D01*
X246192Y169151D01*
X245702Y169887D01*
X245039Y170471D01*
X244247Y170863D01*
X243381Y171037D01*
D02*
G37*
G36*
X32980Y162210D02*
X32097Y162196D01*
X31247Y161953D01*
X30489Y161499D01*
X29875Y160864D01*
X29446Y160091D01*
X29231Y159234D01*
X29245Y158351D01*
X29488Y157501D01*
X29942Y156743D01*
X30577Y156129D01*
X31349Y155699D01*
X32206Y155485D01*
X33090Y155499D01*
X33940Y155742D01*
X34698Y156196D01*
X35312Y156831D01*
X35741Y157603D01*
X35956Y158460D01*
X35942Y159344D01*
X35699Y160193D01*
X35245Y160951D01*
X34610Y161566D01*
X33838Y161995D01*
X32980Y162210D01*
D02*
G37*
G36*
X296098Y165878D02*
X295214Y165870D01*
X294363Y165634D01*
X293601Y165186D01*
X292982Y164556D01*
X292547Y163787D01*
X292325Y162931D01*
X292333Y162048D01*
X292569Y161196D01*
X293018Y160435D01*
X293648Y159815D01*
X294417Y159380D01*
X295272Y159159D01*
X296156Y159166D01*
X297007Y159402D01*
X297769Y159851D01*
X298388Y160481D01*
X298823Y161250D01*
X299045Y162106D01*
X299037Y162989D01*
X298801Y163841D01*
X298353Y164602D01*
X297722Y165221D01*
X296953Y165657D01*
X296098Y165878D01*
D02*
G37*
G36*
X58333Y165878D02*
X57478Y165656D01*
X56710Y165219D01*
X56081Y164599D01*
X55633Y163837D01*
X55399Y162985D01*
X55392Y162101D01*
X55615Y161246D01*
X56051Y160478D01*
X56672Y159849D01*
X57434Y159401D01*
X58286Y159167D01*
X59169Y159160D01*
X60024Y159383D01*
X60793Y159819D01*
X61422Y160440D01*
X61869Y161202D01*
X62104Y162054D01*
X62110Y162937D01*
X61888Y163792D01*
X61451Y164561D01*
X60831Y165190D01*
X60069Y165637D01*
X59217Y165872D01*
X58333Y165878D01*
D02*
G37*
G36*
X190459Y173246D02*
X189581Y173142D01*
X188761Y172814D01*
X188053Y172285D01*
X187506Y171591D01*
X187157Y170779D01*
X187031Y169905D01*
X187135Y169027D01*
X187462Y168207D01*
X187991Y167499D01*
X188685Y166952D01*
X189497Y166603D01*
X190372Y166477D01*
X191249Y166581D01*
X192070Y166908D01*
X192778Y167437D01*
X193324Y168131D01*
X193673Y168943D01*
X193800Y169818D01*
X193696Y170695D01*
X193368Y171516D01*
X192839Y172224D01*
X192145Y172771D01*
X191333Y173119D01*
X190459Y173246D01*
D02*
G37*
G36*
X163972Y173246D02*
X163098Y173118D01*
X162287Y172768D01*
X161593Y172220D01*
X161066Y171511D01*
X160739Y170690D01*
X160637Y169813D01*
X160765Y168938D01*
X161115Y168127D01*
X161662Y167434D01*
X162371Y166906D01*
X163192Y166580D01*
X164070Y166477D01*
X164944Y166605D01*
X165756Y166955D01*
X166449Y167503D01*
X166977Y168211D01*
X167303Y169033D01*
X167406Y169910D01*
X167278Y170784D01*
X166928Y171596D01*
X166380Y172289D01*
X165671Y172817D01*
X164850Y173143D01*
X163972Y173246D01*
D02*
G37*
G36*
X190588Y183245D02*
X189710Y183141D01*
X188890Y182813D01*
X188405Y182451D01*
X166017D01*
X165527Y182816D01*
X164706Y183142D01*
X163828Y183245D01*
X162954Y183117D01*
X162142Y182767D01*
X161449Y182219D01*
X161071Y181711D01*
X139370D01*
X138788Y182120D01*
X137958Y182424D01*
X137078Y182503D01*
X136208Y182351D01*
X135406Y181979D01*
X134728Y181412D01*
X134220Y180689D01*
X134051Y180228D01*
X112759D01*
X112079Y180678D01*
X111241Y180959D01*
X110360Y181014D01*
X109494Y180838D01*
X108703Y180445D01*
X108040Y179859D01*
X107552Y179123D01*
X107271Y178285D01*
X107254Y178001D01*
X86191D01*
X86171Y178023D01*
X85421Y178491D01*
X84576Y178749D01*
X83693Y178779D01*
X82832Y178580D01*
X82052Y178165D01*
X81406Y177562D01*
X80938Y176813D01*
X80680Y175968D01*
X80672Y175727D01*
X79978Y175033D01*
X59675D01*
X59596Y175113D01*
X58834Y175561D01*
X57982Y175795D01*
X57099Y175802D01*
X56243Y175579D01*
X55475Y175143D01*
X54846Y174522D01*
X54399Y173760D01*
X54164Y172908D01*
X54163Y172753D01*
X52740Y171330D01*
X33275D01*
X33143Y171458D01*
X32371Y171887D01*
X31514Y172102D01*
X30630Y172087D01*
X29781Y171845D01*
X29023Y171390D01*
X28408Y170756D01*
X27979Y169983D01*
X27764Y169126D01*
X27766Y169042D01*
X21790Y163066D01*
X21378Y162530D01*
X21120Y161905D01*
X21031Y161234D01*
Y153543D01*
X21120Y152873D01*
X21378Y152248D01*
X21790Y151711D01*
X49767Y123734D01*
Y88280D01*
X49476Y87923D01*
X49115Y87117D01*
X48974Y86244D01*
X49065Y85365D01*
X49379Y84539D01*
X49897Y83823D01*
X50582Y83265D01*
X51388Y82904D01*
X52261Y82764D01*
X53140Y82854D01*
X53966Y83168D01*
X54682Y83686D01*
X55239Y84371D01*
X55601Y85177D01*
X55741Y86050D01*
X55651Y86929D01*
X55337Y87755D01*
X54949Y88292D01*
Y124807D01*
X54860Y125478D01*
X54602Y126103D01*
X54190Y126639D01*
X26213Y154616D01*
Y160161D01*
X31439Y165388D01*
X31623Y165391D01*
X32473Y165633D01*
X33231Y166088D01*
X33290Y166148D01*
X53813D01*
X54483Y166237D01*
X55108Y166496D01*
X55645Y166907D01*
X57822Y169085D01*
X57934Y169084D01*
X58790Y169306D01*
X59558Y169743D01*
X59669Y169852D01*
X81051D01*
X81722Y169940D01*
X82346Y170199D01*
X82883Y170611D01*
X84314Y172042D01*
X84345Y172041D01*
X85206Y172240D01*
X85986Y172656D01*
X86161Y172820D01*
X108367D01*
X109037Y172908D01*
X109662Y173167D01*
X110199Y173579D01*
X110894Y174274D01*
X111693Y174436D01*
X112484Y174829D01*
X112730Y175046D01*
X135736D01*
X136406Y175135D01*
X137031Y175393D01*
X137517Y175766D01*
X138232Y175891D01*
X139033Y176263D01*
X139353Y176530D01*
X163137D01*
X163290Y176550D01*
X163926Y176476D01*
X164800Y176604D01*
X165611Y176954D01*
X166011Y177270D01*
X188410D01*
X188814Y176951D01*
X189626Y176602D01*
X190501Y176476D01*
X191378Y176580D01*
X192199Y176908D01*
X192684Y177270D01*
X214400D01*
X214714Y176826D01*
X215392Y176260D01*
X216195Y175889D01*
X217065Y175739D01*
X217945Y175819D01*
X218775Y176124D01*
X219351Y176530D01*
X240660D01*
X240789Y176147D01*
X241278Y175411D01*
X241941Y174827D01*
X242733Y174435D01*
X243599Y174260D01*
X244481Y174316D01*
X245318Y174599D01*
X245992Y175047D01*
X267057D01*
X267065Y174849D01*
X267324Y174004D01*
X267793Y173255D01*
X268440Y172653D01*
X269220Y172239D01*
X270082Y172041D01*
X270965Y172073D01*
X271809Y172333D01*
X272558Y172802D01*
X272576Y172820D01*
X292864D01*
X293551Y172133D01*
X293553Y171973D01*
X293789Y171121D01*
X294237Y170360D01*
X294867Y169741D01*
X295636Y169305D01*
X296492Y169084D01*
X297375Y169092D01*
X298227Y169328D01*
X298988Y169776D01*
X299064Y169853D01*
X318534D01*
X319650Y168737D01*
X300231Y149318D01*
X299819Y148781D01*
X299560Y148156D01*
X299472Y147486D01*
Y88292D01*
X299081Y87749D01*
X298768Y86923D01*
X298679Y86044D01*
X298819Y85187D01*
X294133Y80502D01*
X293783Y79978D01*
X293660Y79360D01*
Y47913D01*
X282796Y37048D01*
X271478D01*
X271457Y37540D01*
X271916Y37730D01*
X272106Y38189D01*
Y42913D01*
X271916Y43373D01*
X271457Y43563D01*
X264370D01*
X263911Y43373D01*
X263721Y42913D01*
Y38189D01*
X263911Y37730D01*
X264370Y37540D01*
X264349Y37048D01*
X263228D01*
X262610Y36925D01*
X262086Y36575D01*
X257833Y32322D01*
X257633Y32405D01*
X256693Y32529D01*
X255753Y32405D01*
X254877Y32042D01*
X254125Y31465D01*
X253548Y30713D01*
X253186Y29837D01*
X253062Y28898D01*
X253186Y27958D01*
X253548Y27082D01*
X254125Y26330D01*
X254877Y25753D01*
X255753Y25390D01*
X256693Y25267D01*
X257633Y25390D01*
X258508Y25753D01*
X259261Y26330D01*
X259838Y27082D01*
X260200Y27958D01*
X260324Y28898D01*
X260200Y29837D01*
X260117Y30038D01*
X263897Y33818D01*
X283465D01*
X284083Y33941D01*
X284607Y34291D01*
X296418Y46102D01*
X296768Y46626D01*
X296891Y47244D01*
Y78691D01*
X301116Y82916D01*
X301286Y82852D01*
X302165Y82763D01*
X303038Y82905D01*
X303843Y83268D01*
X304528Y83827D01*
X305044Y84544D01*
X305357Y85370D01*
X305446Y86250D01*
X305304Y87122D01*
X304941Y87928D01*
X304653Y88280D01*
Y146413D01*
X318103Y159862D01*
X318547Y159600D01*
X318476Y159353D01*
X318460Y158470D01*
X318672Y157612D01*
X319100Y156839D01*
X319713Y156203D01*
X320470Y155747D01*
X321319Y155502D01*
X322202Y155485D01*
X323060Y155698D01*
X323833Y156125D01*
X324470Y156738D01*
X324926Y157495D01*
X325170Y158344D01*
X325187Y159228D01*
X324974Y160086D01*
X324547Y160859D01*
X323934Y161495D01*
X323177Y161951D01*
X322328Y162196D01*
X321444Y162213D01*
X321066Y162119D01*
X320811Y162571D01*
X323616Y165375D01*
X323693Y165374D01*
X324551Y165586D01*
X325324Y166014D01*
X325960Y166627D01*
X326416Y167384D01*
X326661Y168233D01*
X326677Y169116D01*
X326465Y169974D01*
X326037Y170747D01*
X325424Y171384D01*
X324668Y171840D01*
X323818Y172084D01*
X323627Y172088D01*
X321439Y174276D01*
X320903Y174687D01*
X320278Y174946D01*
X319607Y175034D01*
X299056D01*
X298942Y175147D01*
X298173Y175582D01*
X297318Y175803D01*
X297210Y175802D01*
X295769Y177243D01*
X295233Y177655D01*
X294608Y177913D01*
X293937Y178002D01*
X272545D01*
X272365Y178169D01*
X271584Y178583D01*
X270723Y178781D01*
X270697Y178780D01*
X270008Y179469D01*
X269471Y179881D01*
X268847Y180140D01*
X268176Y180228D01*
X245964D01*
X245714Y180448D01*
X244923Y180840D01*
X244110Y181004D01*
X243640Y181365D01*
X243015Y181623D01*
X242344Y181712D01*
X219335D01*
X219010Y181982D01*
X218208Y182353D01*
X217337Y182503D01*
X216586Y182435D01*
X216462Y182451D01*
X192679D01*
X192274Y182770D01*
X191462Y183118D01*
X190588Y183245D01*
D02*
G37*
G36*
X111050Y171038D02*
X110184Y170862D01*
X109393Y170468D01*
X108731Y169883D01*
X108243Y169147D01*
X107962Y168309D01*
X107907Y167427D01*
X108083Y166561D01*
X108476Y165770D01*
X109062Y165108D01*
X109798Y164620D01*
X110636Y164339D01*
X111518Y164284D01*
X112384Y164460D01*
X113175Y164853D01*
X113837Y165438D01*
X114325Y166175D01*
X114606Y167013D01*
X114661Y167895D01*
X114485Y168761D01*
X114091Y169552D01*
X113506Y170214D01*
X112770Y170702D01*
X111932Y170983D01*
X111050Y171038D01*
D02*
G37*
G36*
X216935Y172511D02*
X216055Y172431D01*
X215226Y172126D01*
X214504Y171617D01*
X213938Y170938D01*
X213568Y170136D01*
X213417Y169265D01*
X213497Y168385D01*
X213802Y167556D01*
X214311Y166834D01*
X214990Y166268D01*
X215792Y165898D01*
X216663Y165747D01*
X217543Y165827D01*
X218372Y166132D01*
X219094Y166641D01*
X219660Y167320D01*
X220031Y168122D01*
X220181Y168993D01*
X220101Y169873D01*
X219796Y170702D01*
X219287Y171424D01*
X218608Y171990D01*
X217806Y172361D01*
X216935Y172511D01*
D02*
G37*
G36*
X137496Y172511D02*
X136625Y172360D01*
X135824Y171987D01*
X135146Y171421D01*
X134638Y170698D01*
X134334Y169868D01*
X134255Y168988D01*
X134407Y168117D01*
X134779Y167316D01*
X135346Y166638D01*
X136069Y166130D01*
X136899Y165826D01*
X137779Y165747D01*
X138649Y165899D01*
X139451Y166271D01*
X140129Y166838D01*
X140637Y167561D01*
X140941Y168391D01*
X141019Y169271D01*
X140867Y170141D01*
X140495Y170943D01*
X139929Y171621D01*
X139206Y172129D01*
X138376Y172433D01*
X137496Y172511D01*
D02*
G37*
G36*
X271457Y153799D02*
X264370D01*
X263911Y153609D01*
X263721Y153150D01*
Y148425D01*
X263911Y147966D01*
X264370Y147776D01*
X271457D01*
X271916Y147966D01*
X272106Y148425D01*
Y153150D01*
X271916Y153609D01*
X271457Y153799D01*
D02*
G37*
G36*
X178453Y139109D02*
Y137902D01*
X179660D01*
X179622Y138093D01*
X179230Y138679D01*
X178644Y139070D01*
X178453Y139109D01*
D02*
G37*
G36*
X181783D02*
X181592Y139070D01*
X181006Y138679D01*
X180615Y138093D01*
X180577Y137902D01*
X181783D01*
Y139109D01*
D02*
G37*
G36*
X182783D02*
Y137902D01*
X183990D01*
X183952Y138093D01*
X183561Y138679D01*
X182975Y139070D01*
X182783Y139109D01*
D02*
G37*
G36*
X173122D02*
X172931Y139070D01*
X172345Y138679D01*
X171953Y138093D01*
X171915Y137902D01*
X173122D01*
Y139109D01*
D02*
G37*
G36*
X174122D02*
Y137902D01*
X175329D01*
X175291Y138093D01*
X174899Y138679D01*
X174313Y139070D01*
X174122Y139109D01*
D02*
G37*
G36*
X177453D02*
X177261Y139070D01*
X176675Y138679D01*
X176284Y138093D01*
X176246Y137902D01*
X177453D01*
Y139109D01*
D02*
G37*
G36*
X102650Y146702D02*
X100197D01*
X99745Y146515D01*
X99558Y146063D01*
Y145382D01*
X102650D01*
Y146702D01*
D02*
G37*
G36*
X106102D02*
X103650D01*
Y145382D01*
X106742D01*
Y146063D01*
X106554Y146515D01*
X106102Y146702D01*
D02*
G37*
G36*
X91535Y153799D02*
X84449D01*
X83990Y153609D01*
X83799Y153150D01*
Y148425D01*
X83990Y147966D01*
X84449Y147776D01*
X91535D01*
X91995Y147966D01*
X92185Y148425D01*
Y153150D01*
X91995Y153609D01*
X91535Y153799D01*
D02*
G37*
G36*
X252256Y140445D02*
X249164D01*
Y139764D01*
X249351Y139312D01*
X249803Y139125D01*
X252256D01*
Y140445D01*
D02*
G37*
G36*
X256348D02*
X253256D01*
Y139125D01*
X255709D01*
X256161Y139312D01*
X256348Y139764D01*
Y140445D01*
D02*
G37*
G36*
X255709Y146712D02*
X249803D01*
X249344Y146522D01*
X249154Y146063D01*
Y145883D01*
X248825Y145818D01*
X248496Y145598D01*
X246921Y144024D01*
X246702Y143695D01*
X246625Y143307D01*
Y124429D01*
X241991Y119795D01*
X241771Y119466D01*
X241694Y119079D01*
Y104357D01*
X241194Y104114D01*
X240732Y104422D01*
X239961Y104576D01*
X239189Y104422D01*
X238535Y103985D01*
X238097Y103331D01*
X237944Y102559D01*
X238097Y101787D01*
X238535Y101133D01*
X238583Y100645D01*
X232739Y94801D01*
X232519Y94473D01*
X232442Y94085D01*
Y84110D01*
X232432Y84103D01*
X232055Y83538D01*
X231782Y83410D01*
X231466Y83353D01*
X231328Y83455D01*
Y101969D01*
X231251Y102356D01*
X231031Y102685D01*
X223945Y109772D01*
X223616Y109991D01*
X223228Y110068D01*
X215088D01*
X214812Y110481D01*
X214158Y110918D01*
X213386Y111072D01*
X212614Y110918D01*
X211960Y110481D01*
X211523Y109827D01*
X211369Y109055D01*
X211523Y108283D01*
X211960Y107629D01*
X212614Y107192D01*
X213386Y107038D01*
X214158Y107192D01*
X214812Y107629D01*
X215088Y108042D01*
X222809D01*
X229302Y101549D01*
Y82588D01*
X229379Y82200D01*
X229598Y81872D01*
X230028Y81442D01*
X229861Y80902D01*
X229346Y80800D01*
X228692Y80363D01*
X228255Y79709D01*
X228101Y78937D01*
X228255Y78165D01*
X228692Y77511D01*
X228754Y76868D01*
X228302Y76416D01*
X223925D01*
X223040Y77301D01*
X222711Y77520D01*
X222324Y77597D01*
X217619D01*
X215928Y79288D01*
X215599Y79508D01*
X215212Y79585D01*
X210431D01*
X198651Y91365D01*
Y101841D01*
X199064Y102117D01*
X199501Y102772D01*
X199654Y103543D01*
X199501Y104315D01*
X199064Y104969D01*
X198409Y105406D01*
X197638Y105560D01*
X196866Y105406D01*
X196212Y104969D01*
X195775Y104315D01*
X195621Y103543D01*
X195775Y102772D01*
X196212Y102117D01*
X196625Y101841D01*
Y92076D01*
X196163Y91884D01*
X193739Y94308D01*
Y104117D01*
X202618Y112996D01*
X224916D01*
X225346Y112354D01*
X226000Y111916D01*
X226772Y111763D01*
X227543Y111916D01*
X227827Y112106D01*
X228327Y111839D01*
Y111026D01*
X228101Y110875D01*
X227664Y110221D01*
X227511Y109449D01*
X227664Y108677D01*
X228101Y108023D01*
X228756Y107586D01*
X229528Y107432D01*
X230299Y107586D01*
X230764Y107896D01*
X231124Y107536D01*
X230814Y107071D01*
X230661Y106299D01*
X230814Y105527D01*
X231251Y104873D01*
X231905Y104436D01*
X232677Y104282D01*
X233449Y104436D01*
X234103Y104873D01*
X234540Y105527D01*
X234694Y106299D01*
X234540Y107071D01*
X234103Y107725D01*
X233690Y108001D01*
Y114567D01*
X233613Y114955D01*
X233394Y115283D01*
X229457Y119220D01*
X229128Y119440D01*
X228740Y119517D01*
X216142D01*
X215754Y119440D01*
X215425Y119220D01*
X214128Y117923D01*
X192304D01*
X191916Y117846D01*
X191587Y117627D01*
X184717Y110756D01*
X175857Y101896D01*
X174120D01*
X173969Y102396D01*
X173977Y102401D01*
X190226Y118651D01*
X195912D01*
X196530Y118774D01*
X196655Y118857D01*
X207087D01*
X207705Y118980D01*
X208229Y119330D01*
X210512Y121613D01*
X224054D01*
X224425Y121365D01*
X225197Y121212D01*
X225969Y121365D01*
X226623Y121802D01*
X227060Y122457D01*
X227214Y123228D01*
X227060Y124000D01*
X226623Y124654D01*
X225969Y125092D01*
X225197Y125245D01*
X224425Y125092D01*
X224054Y124844D01*
X209842D01*
X209224Y124721D01*
X208700Y124371D01*
X206417Y122088D01*
X196857D01*
X196574Y122588D01*
X196702Y123228D01*
X196548Y124000D01*
X196111Y124654D01*
X195457Y125092D01*
X194685Y125245D01*
X193913Y125092D01*
X193259Y124654D01*
X192983Y124241D01*
X181890D01*
X181502Y124164D01*
X181173Y123945D01*
X145740Y88512D01*
X145521Y88183D01*
X145443Y87795D01*
Y81229D01*
X145031Y80954D01*
X144594Y80299D01*
X144440Y79528D01*
X144594Y78756D01*
X145031Y78101D01*
X145685Y77664D01*
X146457Y77511D01*
X147228Y77664D01*
X147883Y78101D01*
X148320Y78756D01*
X148473Y79528D01*
X148320Y80299D01*
X147883Y80954D01*
X147470Y81229D01*
Y87376D01*
X151248Y91153D01*
X151743Y90941D01*
Y81229D01*
X151330Y80954D01*
X150893Y80299D01*
X150739Y79528D01*
X150893Y78756D01*
X151330Y78101D01*
X151984Y77664D01*
X152756Y77511D01*
X153528Y77664D01*
X154182Y78101D01*
X154619Y78756D01*
X154773Y79528D01*
X154619Y80299D01*
X154182Y80954D01*
X153769Y81229D01*
Y90722D01*
X157221Y94174D01*
X157682Y93928D01*
X157637Y93701D01*
Y89922D01*
X157389Y89551D01*
X157235Y88779D01*
X157389Y88008D01*
X157826Y87353D01*
X158480Y86916D01*
X159252Y86763D01*
X160024Y86916D01*
X160678Y87353D01*
X161115Y88008D01*
X161269Y88779D01*
X161115Y89551D01*
X160867Y89922D01*
Y93032D01*
X169429Y101593D01*
X169866Y101680D01*
X170237Y101928D01*
X172629D01*
X172837Y101429D01*
X162857Y91449D01*
X162637Y91120D01*
X162560Y90732D01*
Y78757D01*
X162473Y78669D01*
X162253Y78341D01*
X162176Y77953D01*
Y75718D01*
X161763Y75442D01*
X161326Y74787D01*
X161172Y74016D01*
X161326Y73244D01*
X161763Y72590D01*
X162417Y72153D01*
X163189Y71999D01*
X163961Y72153D01*
X164402Y72447D01*
X164721Y72059D01*
X161785Y69123D01*
X151575D01*
X151187Y69046D01*
X150858Y68827D01*
X147709Y65677D01*
X147489Y65348D01*
X147412Y64961D01*
Y50059D01*
X147244D01*
X146785Y49869D01*
X146722Y49717D01*
X146181D01*
X146121Y49861D01*
X145669Y50049D01*
X144988D01*
Y46457D01*
Y42865D01*
X145669D01*
X146121Y43052D01*
X146181Y43196D01*
X146722D01*
X146785Y43045D01*
X147244Y42854D01*
X149606D01*
X150066Y43045D01*
X150123Y43184D01*
X150664D01*
X150722Y43045D01*
X151181Y42854D01*
X153543D01*
X154002Y43045D01*
X154193Y43504D01*
Y49409D01*
X154002Y49869D01*
X153978Y49879D01*
Y62637D01*
X154225Y63008D01*
X154252Y63139D01*
X162786D01*
X163404Y63262D01*
X163928Y63612D01*
X169764Y69448D01*
X197959D01*
X198883Y68524D01*
X199407Y68174D01*
X200025Y68051D01*
X203385D01*
X203410Y67990D01*
X203469Y67551D01*
X202905Y67174D01*
X202467Y66520D01*
X202314Y65748D01*
X202467Y64976D01*
X202905Y64322D01*
X203559Y63885D01*
X204331Y63731D01*
X204818Y63828D01*
X206467Y62179D01*
Y50059D01*
X206299D01*
X205840Y49869D01*
X205777Y49717D01*
X205236D01*
X205176Y49861D01*
X204724Y50049D01*
X204043D01*
Y46457D01*
Y42865D01*
X204724D01*
X205176Y43052D01*
X205236Y43196D01*
X205777D01*
X205840Y43045D01*
X206299Y42854D01*
X208661D01*
X209121Y43045D01*
X209178Y43184D01*
X209719D01*
X209777Y43045D01*
X210236Y42854D01*
X212598D01*
X213058Y43045D01*
X213248Y43504D01*
Y49409D01*
X213058Y49869D01*
X213033Y49879D01*
Y61498D01*
X213275Y61696D01*
X213533Y61742D01*
X214606Y60669D01*
X215130Y60319D01*
X215748Y60196D01*
X224803D01*
X225421Y60319D01*
X225945Y60669D01*
X227454Y62177D01*
X227559Y62156D01*
X228331Y62310D01*
X228985Y62747D01*
X229422Y63402D01*
X229450Y63542D01*
X239345D01*
X239536Y63080D01*
X237834Y61378D01*
X237484Y60854D01*
X237361Y60236D01*
Y49879D01*
X237336Y49869D01*
X237279Y49730D01*
X236737D01*
X236680Y49869D01*
X236221Y50059D01*
X233858D01*
X233399Y49869D01*
X233336Y49717D01*
X232795D01*
X232735Y49861D01*
X232283Y50049D01*
X231602D01*
Y46457D01*
Y42865D01*
X232283D01*
X232735Y43052D01*
X232795Y43196D01*
X233294D01*
X233474Y42753D01*
X233176Y42307D01*
X233023Y41535D01*
X233176Y40764D01*
X233366Y40480D01*
X233098Y39980D01*
X231138D01*
X221789Y49329D01*
X221460Y49549D01*
X221073Y49626D01*
X220127D01*
X220077Y49881D01*
X219639Y50535D01*
X219181Y50842D01*
X219262Y51200D01*
X219337Y51339D01*
X220063Y51483D01*
X220717Y51920D01*
X221154Y52575D01*
X221308Y53346D01*
X221154Y54118D01*
X220717Y54772D01*
X220063Y55210D01*
X219291Y55363D01*
X218519Y55210D01*
X217865Y54772D01*
X217589Y54360D01*
X216338D01*
X215951Y54282D01*
X215622Y54063D01*
X214638Y53079D01*
X214418Y52750D01*
X214341Y52362D01*
Y48336D01*
X214418Y47948D01*
X214638Y47620D01*
X226266Y35992D01*
X226167Y35623D01*
X226075Y35492D01*
X222835D01*
X222375Y35302D01*
X222185Y34843D01*
Y27756D01*
X222375Y27297D01*
X222835Y27106D01*
X227559D01*
X228018Y27297D01*
X228208Y27756D01*
Y34843D01*
X228101Y35101D01*
X228372Y35601D01*
X241706D01*
X241977Y35101D01*
X241870Y34843D01*
Y27756D01*
X242060Y27297D01*
X242520Y27106D01*
X247244D01*
X247306Y27132D01*
X247806Y26798D01*
Y26772D01*
X247883Y26384D01*
X248102Y26055D01*
X253518Y20640D01*
X253186Y19837D01*
X253062Y18898D01*
X253186Y17958D01*
X253548Y17082D01*
X254125Y16330D01*
X254877Y15753D01*
X255753Y15390D01*
X256693Y15267D01*
X257633Y15390D01*
X258508Y15753D01*
X259261Y16330D01*
X259838Y17082D01*
X260200Y17958D01*
X260324Y18898D01*
X260200Y19837D01*
X259838Y20713D01*
X259261Y21465D01*
X258508Y22042D01*
X257633Y22405D01*
X256693Y22529D01*
X255753Y22405D01*
X254951Y22073D01*
X249832Y27191D01*
Y30289D01*
X255441Y35898D01*
X259584Y40041D01*
X259804Y40370D01*
X259881Y40758D01*
Y96250D01*
X259804Y96638D01*
X259584Y96967D01*
X258197Y98354D01*
X257868Y98574D01*
X257480Y98651D01*
X256358D01*
Y98819D01*
X256168Y99278D01*
X255709Y99468D01*
X249803D01*
X249344Y99278D01*
X249154Y98819D01*
Y96457D01*
X249344Y95998D01*
X249495Y95935D01*
Y95394D01*
X249351Y95334D01*
X249164Y94882D01*
Y94201D01*
X252756D01*
X256348D01*
Y94882D01*
X256161Y95334D01*
X256016Y95394D01*
Y95935D01*
X256168Y95998D01*
X256358Y96457D01*
Y96625D01*
X257061D01*
X257855Y95831D01*
Y41177D01*
X254305Y37627D01*
X242013D01*
X241861Y38127D01*
X242045Y38250D01*
X245598Y41803D01*
X245818Y42132D01*
X245895Y42520D01*
Y47605D01*
X247670Y49380D01*
X249154D01*
Y49213D01*
X249344Y48753D01*
X249495Y48691D01*
Y48149D01*
X249351Y48090D01*
X249164Y47638D01*
Y46957D01*
X252756D01*
X256348D01*
Y47638D01*
X256161Y48090D01*
X256016Y48149D01*
Y48691D01*
X256168Y48753D01*
X256358Y49213D01*
Y51575D01*
X256168Y52034D01*
X255709Y52224D01*
X249803D01*
X249344Y52034D01*
X249154Y51575D01*
Y51407D01*
X247251D01*
X246863Y51330D01*
X246534Y51110D01*
X244165Y48741D01*
X243946Y48413D01*
X243869Y48025D01*
Y42939D01*
X240910Y39980D01*
X236980D01*
X236713Y40480D01*
X236903Y40764D01*
X237056Y41535D01*
X236903Y42307D01*
X236618Y42733D01*
X236803Y43184D01*
X237279D01*
X237336Y43045D01*
X237795Y42854D01*
X240158D01*
X240617Y43045D01*
X240807Y43504D01*
Y49409D01*
X240617Y49869D01*
X240592Y49879D01*
Y59567D01*
X243189Y62164D01*
X247676D01*
X248047Y61916D01*
X248819Y61763D01*
X249591Y61916D01*
X250245Y62353D01*
X250682Y63008D01*
X250836Y63779D01*
X250682Y64551D01*
X250245Y65206D01*
X249591Y65643D01*
X248819Y65796D01*
X248047Y65643D01*
X247676Y65395D01*
X243311D01*
X243133Y65622D01*
X243373Y66122D01*
X243907D01*
X244295Y66199D01*
X244623Y66419D01*
X248167Y69962D01*
X248386Y70291D01*
X248464Y70679D01*
Y72144D01*
X248855Y72489D01*
X249337Y72393D01*
X249344Y72375D01*
X249495Y72313D01*
Y71772D01*
X249351Y71712D01*
X249164Y71260D01*
Y70579D01*
X252756D01*
X256348D01*
Y71260D01*
X256161Y71712D01*
X256016Y71772D01*
Y72313D01*
X256168Y72375D01*
X256358Y72835D01*
Y75197D01*
X256168Y75656D01*
X255709Y75846D01*
X249803D01*
X249344Y75656D01*
X249154Y75197D01*
Y75029D01*
X248819D01*
X248431Y74952D01*
X248102Y74732D01*
X246734Y73364D01*
X246596Y73158D01*
X246336Y73195D01*
X246096Y73302D01*
X245958Y74000D01*
X245520Y74654D01*
X245108Y74930D01*
Y118084D01*
X247270Y120247D01*
X249154D01*
Y120079D01*
X249344Y119620D01*
X249495Y119557D01*
Y119016D01*
X249351Y118956D01*
X249164Y118504D01*
Y117823D01*
X252756D01*
X256348D01*
Y118504D01*
X256161Y118956D01*
X256016Y119016D01*
Y119557D01*
X256168Y119620D01*
X256358Y120079D01*
Y122441D01*
X256168Y122900D01*
X255709Y123090D01*
X249803D01*
X249344Y122900D01*
X249154Y122441D01*
Y122273D01*
X247988D01*
X247796Y122735D01*
X248354Y123293D01*
X248574Y123622D01*
X248651Y124009D01*
Y142887D01*
X249033Y143269D01*
X249495Y143138D01*
Y142638D01*
X249351Y142578D01*
X249164Y142126D01*
Y141445D01*
X252756D01*
X256348D01*
Y142126D01*
X256161Y142578D01*
X256016Y142638D01*
Y143179D01*
X256168Y143242D01*
X256358Y143701D01*
Y146063D01*
X256168Y146522D01*
X255709Y146712D01*
D02*
G37*
G36*
X183990Y128240D02*
X182783D01*
Y127033D01*
X182975Y127071D01*
X183561Y127463D01*
X183952Y128049D01*
X183990Y128240D01*
D02*
G37*
G36*
X106102Y99458D02*
X103650D01*
Y98138D01*
X106742D01*
Y98819D01*
X106554Y99271D01*
X106102Y99458D01*
D02*
G37*
G36*
X210327Y99935D02*
X210136Y99897D01*
X209549Y99506D01*
X209158Y98920D01*
X209120Y98728D01*
X210327D01*
Y99935D01*
D02*
G37*
G36*
X211327D02*
Y98728D01*
X212534D01*
X212496Y98920D01*
X212104Y99506D01*
X211518Y99897D01*
X211327Y99935D01*
D02*
G37*
G36*
X223319Y97728D02*
X222112D01*
X222150Y97537D01*
X222542Y96951D01*
X223128Y96560D01*
X223319Y96522D01*
Y97728D01*
D02*
G37*
G36*
X225526D02*
X224319D01*
Y96522D01*
X224510Y96560D01*
X225096Y96951D01*
X225488Y97537D01*
X225526Y97728D01*
D02*
G37*
G36*
X102650Y99458D02*
X100197D01*
X99745Y99271D01*
X99558Y98819D01*
Y98138D01*
X102650D01*
Y99458D01*
D02*
G37*
G36*
X214657Y99935D02*
X214466Y99897D01*
X213880Y99506D01*
X213489Y98920D01*
X213451Y98728D01*
X214657D01*
Y99935D01*
D02*
G37*
G36*
X223319D02*
X223128Y99897D01*
X222542Y99506D01*
X222150Y98920D01*
X222112Y98728D01*
X223319D01*
Y99935D01*
D02*
G37*
G36*
X224319D02*
Y98728D01*
X225526D01*
X225488Y98920D01*
X225096Y99506D01*
X224510Y99897D01*
X224319Y99935D01*
D02*
G37*
G36*
X91535Y106555D02*
X84449D01*
X83990Y106365D01*
X83799Y105905D01*
Y101181D01*
X83990Y100722D01*
X84449Y100532D01*
X91535D01*
X91995Y100722D01*
X92185Y101181D01*
Y105905D01*
X91995Y106365D01*
X91535Y106555D01*
D02*
G37*
G36*
X215657Y99935D02*
Y98728D01*
X216864D01*
X216826Y98920D01*
X216435Y99506D01*
X215849Y99897D01*
X215657Y99935D01*
D02*
G37*
G36*
X218988D02*
X218797Y99897D01*
X218211Y99506D01*
X217819Y98920D01*
X217781Y98728D01*
X218988D01*
Y99935D01*
D02*
G37*
G36*
X219988D02*
Y98728D01*
X221195D01*
X221157Y98920D01*
X220765Y99506D01*
X220179Y99897D01*
X219988Y99935D01*
D02*
G37*
G36*
X218988Y95604D02*
X218797Y95566D01*
X218211Y95175D01*
X217819Y94589D01*
X217781Y94398D01*
X218988D01*
Y95604D01*
D02*
G37*
G36*
X219988D02*
Y94398D01*
X221195D01*
X221157Y94589D01*
X220765Y95175D01*
X220179Y95566D01*
X219988Y95604D01*
D02*
G37*
G36*
X223319D02*
X223128Y95566D01*
X222542Y95175D01*
X222150Y94589D01*
X222112Y94398D01*
X223319D01*
Y95604D01*
D02*
G37*
G36*
X211327D02*
Y94398D01*
X212534D01*
X212496Y94589D01*
X212104Y95175D01*
X211518Y95566D01*
X211327Y95604D01*
D02*
G37*
G36*
X214657D02*
X214466Y95566D01*
X213880Y95175D01*
X213489Y94589D01*
X213451Y94398D01*
X214657D01*
Y95604D01*
D02*
G37*
G36*
X215657D02*
Y94398D01*
X216864D01*
X216826Y94589D01*
X216435Y95175D01*
X215849Y95566D01*
X215657Y95604D01*
D02*
G37*
G36*
X224319D02*
Y94398D01*
X225526D01*
X225488Y94589D01*
X225096Y95175D01*
X224510Y95566D01*
X224319Y95604D01*
D02*
G37*
G36*
X216864Y97728D02*
X215657D01*
Y96522D01*
X215849Y96560D01*
X216435Y96951D01*
X216826Y97537D01*
X216864Y97728D01*
D02*
G37*
G36*
X218988D02*
X217781D01*
X217819Y97537D01*
X218211Y96951D01*
X218797Y96560D01*
X218988Y96522D01*
Y97728D01*
D02*
G37*
G36*
X221195D02*
X219988D01*
Y96522D01*
X220179Y96560D01*
X220765Y96951D01*
X221157Y97537D01*
X221195Y97728D01*
D02*
G37*
G36*
X210327D02*
X209120D01*
X209158Y97537D01*
X209549Y96951D01*
X210136Y96560D01*
X210327Y96522D01*
Y97728D01*
D02*
G37*
G36*
X212534D02*
X211327D01*
Y96522D01*
X211518Y96560D01*
X212104Y96951D01*
X212496Y97537D01*
X212534Y97728D01*
D02*
G37*
G36*
X214657D02*
X213451D01*
X213489Y97537D01*
X213880Y96951D01*
X214466Y96560D01*
X214657Y96522D01*
Y97728D01*
D02*
G37*
G36*
X271457Y106555D02*
X264370D01*
X263911Y106365D01*
X263721Y105905D01*
Y101181D01*
X263911Y100722D01*
X264370Y100532D01*
X271457D01*
X271916Y100722D01*
X272106Y101181D01*
Y105905D01*
X271916Y106365D01*
X271457Y106555D01*
D02*
G37*
G36*
X106102Y123080D02*
X103650D01*
Y121760D01*
X106742D01*
Y122441D01*
X106554Y122893D01*
X106102Y123080D01*
D02*
G37*
G36*
X91535Y130177D02*
X84449D01*
X83990Y129987D01*
X83799Y129527D01*
Y124803D01*
X83990Y124344D01*
X84449Y124154D01*
X91535D01*
X91995Y124344D01*
X92185Y124803D01*
Y129527D01*
X91995Y129987D01*
X91535Y130177D01*
D02*
G37*
G36*
X102650Y123080D02*
X100197D01*
X99745Y122893D01*
X99558Y122441D01*
Y121760D01*
X102650D01*
Y123080D01*
D02*
G37*
G36*
X25922Y140850D02*
X23974Y140697D01*
X22075Y140241D01*
X20270Y139493D01*
X18604Y138472D01*
X17119Y137204D01*
X15850Y135718D01*
X14829Y134052D01*
X14082Y132248D01*
X13626Y130348D01*
X13472Y128401D01*
X13626Y126453D01*
X14082Y124553D01*
X14829Y122749D01*
X15850Y121083D01*
X17119Y119597D01*
X18604Y118329D01*
X20270Y117308D01*
X22075Y116560D01*
X23974Y116104D01*
X25922Y115951D01*
X27869Y116104D01*
X29769Y116560D01*
X31574Y117308D01*
X33239Y118329D01*
X34725Y119597D01*
X35994Y121083D01*
X37014Y122749D01*
X37762Y124553D01*
X38218Y126453D01*
X38371Y128401D01*
X38218Y130348D01*
X37762Y132248D01*
X37014Y134052D01*
X35994Y135718D01*
X34725Y137204D01*
X33239Y138472D01*
X31574Y139493D01*
X29769Y140241D01*
X27869Y140697D01*
X25922Y140850D01*
D02*
G37*
G36*
X327926D02*
X325978Y140697D01*
X324079Y140241D01*
X322274Y139493D01*
X320608Y138472D01*
X319123Y137204D01*
X317854Y135718D01*
X316833Y134052D01*
X316086Y132248D01*
X315630Y130348D01*
X315477Y128401D01*
X315630Y126453D01*
X316086Y124553D01*
X316833Y122749D01*
X317854Y121083D01*
X319123Y119597D01*
X320608Y118329D01*
X322274Y117308D01*
X324079Y116560D01*
X325978Y116104D01*
X327926Y115951D01*
X329873Y116104D01*
X331773Y116560D01*
X333578Y117308D01*
X335244Y118329D01*
X336729Y119597D01*
X337998Y121083D01*
X339019Y122749D01*
X339766Y124553D01*
X340222Y126453D01*
X340375Y128401D01*
X340222Y130348D01*
X339766Y132248D01*
X339019Y134052D01*
X337998Y135718D01*
X336729Y137204D01*
X335244Y138472D01*
X333578Y139493D01*
X331773Y140241D01*
X329873Y140697D01*
X327926Y140850D01*
D02*
G37*
G36*
X271457Y130177D02*
X264370D01*
X263911Y129987D01*
X263721Y129528D01*
Y124803D01*
X263911Y124344D01*
X264370Y124154D01*
X271457D01*
X271916Y124344D01*
X272106Y124803D01*
Y129528D01*
X271916Y129987D01*
X271457Y130177D01*
D02*
G37*
G36*
X179660Y128240D02*
X178453D01*
Y127033D01*
X178644Y127071D01*
X179230Y127463D01*
X179622Y128049D01*
X179660Y128240D01*
D02*
G37*
G36*
X181783D02*
X180577D01*
X180615Y128049D01*
X181006Y127463D01*
X181592Y127071D01*
X181783Y127033D01*
Y128240D01*
D02*
G37*
G36*
X177453D02*
X176246D01*
X176284Y128049D01*
X176675Y127463D01*
X177261Y127071D01*
X177453Y127033D01*
Y128240D01*
D02*
G37*
G36*
X173122D02*
X171915D01*
X171953Y128049D01*
X172345Y127463D01*
X172931Y127071D01*
X173122Y127033D01*
Y128240D01*
D02*
G37*
G36*
X175329D02*
X174122D01*
Y127033D01*
X174313Y127071D01*
X174899Y127463D01*
X175291Y128049D01*
X175329Y128240D01*
D02*
G37*
G36*
X256348Y116823D02*
X253256D01*
Y115503D01*
X255709D01*
X256161Y115690D01*
X256348Y116142D01*
Y116823D01*
D02*
G37*
G36*
X91535Y114429D02*
X84449D01*
X83990Y114239D01*
X83799Y113779D01*
Y109055D01*
X83990Y108596D01*
X84449Y108406D01*
X91535D01*
X91995Y108596D01*
X92185Y109055D01*
Y113779D01*
X91995Y114239D01*
X91535Y114429D01*
D02*
G37*
G36*
X106742Y120760D02*
X103150D01*
X99558D01*
Y120079D01*
X99745Y119627D01*
X99889Y119567D01*
Y119026D01*
X99738Y118963D01*
X99547Y118504D01*
Y116142D01*
X99738Y115682D01*
X100197Y115492D01*
X106102D01*
X106562Y115682D01*
X106752Y116142D01*
Y116310D01*
X127533D01*
X136504Y107338D01*
X136326Y107071D01*
X136172Y106299D01*
X136326Y105527D01*
X136763Y104873D01*
X137417Y104436D01*
X138189Y104282D01*
X138961Y104436D01*
X139615Y104873D01*
X140052Y105527D01*
X140206Y106299D01*
X140052Y107071D01*
X139615Y107725D01*
X138961Y108162D01*
X138443Y108265D01*
X128669Y118039D01*
X128340Y118259D01*
X127953Y118336D01*
X106752D01*
Y118504D01*
X106562Y118963D01*
X106410Y119026D01*
Y119567D01*
X106554Y119627D01*
X106742Y120079D01*
Y120760D01*
D02*
G37*
G36*
Y144382D02*
X103150D01*
X99558D01*
Y143701D01*
X99745Y143249D01*
X99889Y143189D01*
Y142648D01*
X99738Y142585D01*
X99547Y142126D01*
Y139764D01*
X99738Y139305D01*
X100197Y139114D01*
X106102D01*
X106562Y139305D01*
X106752Y139764D01*
Y139932D01*
X114541D01*
X142875Y111598D01*
Y104252D01*
X142462Y103976D01*
X142025Y103321D01*
X141872Y102550D01*
X142025Y101778D01*
X142462Y101124D01*
X143116Y100686D01*
X143888Y100533D01*
X144660Y100686D01*
X145314Y101124D01*
X145751Y101778D01*
X145905Y102550D01*
X145751Y103321D01*
X145314Y103976D01*
X144901Y104252D01*
Y112017D01*
X144824Y112405D01*
X144605Y112734D01*
X115677Y141661D01*
X115348Y141881D01*
X114961Y141958D01*
X106752D01*
Y142126D01*
X106562Y142585D01*
X106410Y142648D01*
Y143189D01*
X106554Y143249D01*
X106742Y143701D01*
Y144382D01*
D02*
G37*
G36*
X252256Y116823D02*
X249164D01*
Y116142D01*
X249351Y115690D01*
X249803Y115503D01*
X252256D01*
Y116823D01*
D02*
G37*
G36*
X271457Y114429D02*
X264370D01*
X263911Y114239D01*
X263721Y113779D01*
Y109055D01*
X263911Y108596D01*
X264370Y108406D01*
X271457D01*
X271916Y108596D01*
X272106Y109055D01*
Y113779D01*
X271916Y114239D01*
X271457Y114429D01*
D02*
G37*
%LPD*%
G36*
X162162Y66607D02*
X161971Y66370D01*
X153337D01*
X152719Y66247D01*
X152195Y65896D01*
X152092Y65742D01*
X151590Y65643D01*
X150936Y65206D01*
X150499Y64551D01*
X150346Y63779D01*
X150499Y63008D01*
X150747Y62637D01*
Y49879D01*
X150722Y49869D01*
X150664Y49730D01*
X150123D01*
X150066Y49869D01*
X149606Y50059D01*
X149438D01*
Y64541D01*
X151995Y67097D01*
X161914D01*
X162162Y66607D01*
D02*
G37*
G36*
X187784Y105329D02*
X187901Y104740D01*
X188338Y104086D01*
X188751Y103810D01*
Y94888D01*
X188828Y94501D01*
X189047Y94172D01*
X195036Y88183D01*
X196812Y86407D01*
Y79684D01*
X196350Y79492D01*
X194024Y81819D01*
X193997Y81837D01*
X193989Y81874D01*
X193552Y82528D01*
X192898Y82966D01*
X192126Y83119D01*
X191354Y82966D01*
X190700Y82528D01*
X190263Y81874D01*
X190109Y81102D01*
X190263Y80331D01*
X190700Y79676D01*
X191354Y79239D01*
X192126Y79086D01*
X192898Y79239D01*
X193401Y79576D01*
X194903Y78074D01*
X194888Y77959D01*
X194334Y77560D01*
X194095Y77607D01*
X193323Y77454D01*
X192934Y77194D01*
X191955D01*
X191779Y77371D01*
X191779Y77371D01*
X188808Y80341D01*
Y85433D01*
X188731Y85821D01*
X188512Y86150D01*
X187747Y86915D01*
X187844Y87402D01*
X187690Y88173D01*
X187253Y88828D01*
X186599Y89265D01*
X185827Y89418D01*
X185055Y89265D01*
X184401Y88828D01*
X183964Y88173D01*
X183810Y87402D01*
X183964Y86630D01*
X184401Y85976D01*
X185055Y85538D01*
X185827Y85385D01*
X186314Y85482D01*
X186782Y85013D01*
Y79921D01*
X186859Y79534D01*
X187079Y79205D01*
X190346Y75938D01*
X190346Y75938D01*
X190819Y75465D01*
X191148Y75245D01*
X191535Y75168D01*
X192162D01*
X192231Y74819D01*
X192668Y74164D01*
X193323Y73727D01*
X194095Y73574D01*
X194866Y73727D01*
X195520Y74164D01*
X195958Y74819D01*
X196111Y75590D01*
X196064Y75830D01*
X196463Y76385D01*
X196578Y76399D01*
X201014Y71962D01*
X200830Y71440D01*
X200564Y71412D01*
X199771Y72205D01*
X199247Y72555D01*
X198628Y72678D01*
X169095D01*
X168557Y72571D01*
X168284Y72748D01*
X168116Y72916D01*
X168139Y73032D01*
Y86391D01*
X187280Y105532D01*
X187784Y105329D01*
D02*
G37*
G36*
X181448Y116881D02*
X182102Y116444D01*
X182637Y116338D01*
X182815Y115808D01*
X172166Y105159D01*
X170237D01*
X169866Y105406D01*
X169278Y105524D01*
X169074Y106027D01*
X180341Y117294D01*
X181172D01*
X181448Y116881D01*
D02*
G37*
G36*
X194317Y115435D02*
X166410Y87527D01*
X166190Y87199D01*
X166113Y86811D01*
Y73451D01*
X165146Y72484D01*
X164757Y72803D01*
X165052Y73244D01*
X165206Y74016D01*
X165052Y74787D01*
X164615Y75442D01*
X164202Y75718D01*
Y77533D01*
X164290Y77621D01*
X164509Y77949D01*
X164586Y78337D01*
Y90312D01*
X174143Y99869D01*
X176276D01*
X176664Y99947D01*
X176993Y100166D01*
X186150Y109323D01*
X192724Y115897D01*
X194126D01*
X194317Y115435D01*
D02*
G37*
G36*
X243081Y93112D02*
Y74930D01*
X242669Y74654D01*
X242231Y74000D01*
X242078Y73228D01*
X242175Y72741D01*
X240798Y71365D01*
X240732Y71408D01*
X240345Y71486D01*
X239957Y71408D01*
X239628Y71189D01*
X239016Y70576D01*
X238796Y70247D01*
X238719Y69860D01*
X238453Y69536D01*
X235008D01*
X234817Y69998D01*
X237702Y72883D01*
X238189Y72786D01*
X238961Y72940D01*
X239615Y73377D01*
X240052Y74031D01*
X240206Y74803D01*
X240052Y75575D01*
X239615Y76229D01*
X238961Y76666D01*
X238189Y76820D01*
X237417Y76666D01*
X236763Y76229D01*
X236556Y75919D01*
X236323Y75950D01*
X236055Y76069D01*
X235918Y76756D01*
X235481Y77410D01*
X235068Y77686D01*
Y78937D01*
X234991Y79325D01*
X234771Y79654D01*
X234205Y80220D01*
X234370Y80762D01*
X234630Y80814D01*
X235284Y81251D01*
X235721Y81905D01*
X235875Y82677D01*
X235721Y83449D01*
X235284Y84103D01*
X234630Y84540D01*
X234468Y84573D01*
Y90776D01*
X234968Y91043D01*
X235252Y90853D01*
X236023Y90700D01*
X236795Y90853D01*
X237450Y91290D01*
X237725Y91703D01*
X240600D01*
X240988Y91780D01*
X241316Y92000D01*
X242619Y93303D01*
X243081Y93112D01*
D02*
G37*
G36*
X230002Y38250D02*
X230186Y38127D01*
X230034Y37627D01*
X227496D01*
X218486Y46637D01*
X218651Y47180D01*
X218985Y47246D01*
X219514Y47599D01*
X220653D01*
X230002Y38250D01*
D02*
G37*
G36*
X200678Y113922D02*
X192254Y105498D01*
X192229Y105499D01*
X191744Y105695D01*
X191627Y106284D01*
X191190Y106938D01*
X190535Y107375D01*
X189947Y107492D01*
X189743Y107995D01*
X196132Y114384D01*
X200487D01*
X200678Y113922D01*
D02*
G37*
%LPC*%
G36*
X238476Y85327D02*
X237069D01*
X237122Y85059D01*
X237557Y84408D01*
X238208Y83973D01*
X238476Y83919D01*
Y85327D01*
D02*
G37*
G36*
X240884D02*
X239476D01*
Y83919D01*
X239744Y83973D01*
X240396Y84408D01*
X240831Y85059D01*
X240884Y85327D01*
D02*
G37*
G36*
X239476Y87734D02*
Y86327D01*
X240884D01*
X240831Y86595D01*
X240396Y87246D01*
X239744Y87681D01*
X239476Y87734D01*
D02*
G37*
G36*
X238476D02*
X238208Y87681D01*
X237557Y87246D01*
X237122Y86595D01*
X237069Y86327D01*
X238476D01*
Y87734D01*
D02*
G37*
%LPD*%
D32*
X146457Y87795D02*
X181890Y123228D01*
X194685D01*
X175394Y33268D02*
X175984Y32677D01*
X244094Y73228D02*
Y118504D01*
X227149Y68523D02*
X239389D01*
X227724Y67135D02*
X243907D01*
X233296Y69910D02*
X238189Y74803D01*
X226575Y69910D02*
X233296D01*
X228721Y75403D02*
X230118Y76800D01*
X227149Y68523D02*
X227149Y68523D01*
X226575Y69910D02*
X226575Y69910D01*
X212579Y68523D02*
X227149D01*
X210236Y70866D02*
X212579Y68523D01*
X233455Y94085D02*
X239961Y100591D01*
X240600Y92716D02*
X242707Y94824D01*
X233455Y83080D02*
Y94085D01*
X236023Y92716D02*
X240600D01*
X242707Y94824D02*
Y119079D01*
X175394Y32677D02*
Y33268D01*
X175394Y33268D01*
X175984Y32677D02*
Y46457D01*
X180770Y41535D02*
Y45608D01*
X179921Y46457D02*
X180770Y45608D01*
X219530Y69910D02*
X226575D01*
X227330Y66742D02*
X227724Y67135D01*
X226495Y66742D02*
X227330D01*
X226495Y66742D02*
X226495Y66742D01*
X212399Y66742D02*
X226495D01*
X218142Y71298D02*
X219530Y69910D01*
X243907Y67135D02*
X247450Y70679D01*
X206699Y72441D02*
X212399Y66742D01*
X227165Y64173D02*
X227559D01*
X114173Y73032D02*
X135630D01*
X140551Y77953D01*
X113976Y72835D02*
X114173Y73032D01*
X192726Y104537D02*
X202199Y114010D01*
X195712Y115397D02*
X215003D01*
X167126Y86811D02*
X195712Y115397D01*
X215003D02*
X215954Y116348D01*
X110236Y70079D02*
X112992Y72835D01*
X113976D01*
X112008Y52362D02*
X113976D01*
X106102Y46457D02*
X112008Y52362D01*
X103150Y46457D02*
X106102D01*
X258868Y40758D02*
Y96250D01*
X215354Y48336D02*
X227076Y36614D01*
X187795Y79921D02*
Y85433D01*
Y79921D02*
X191062Y76654D01*
Y76654D02*
Y76654D01*
X191535Y76181D02*
X193504D01*
X191062Y76654D02*
X191535Y76181D01*
X185827Y87402D02*
X187795Y85433D01*
X247450Y70679D02*
Y72647D01*
X239961Y100591D02*
Y102559D01*
X167126Y73032D02*
Y86811D01*
X162205Y68110D02*
X167126Y73032D01*
X163573Y90732D02*
X173724Y100883D01*
X176276D01*
X185433Y110039D01*
X192304Y116910D02*
X214548D01*
X185433Y110039D02*
X192304Y116910D01*
X179921Y118307D02*
X182874D01*
X152756Y91142D02*
X179921Y118307D01*
X152756Y79528D02*
Y91142D01*
X146457Y79528D02*
Y87795D01*
X151575Y68110D02*
X162205D01*
X148425Y64961D02*
X151575Y68110D01*
X197638Y90945D02*
Y102362D01*
Y90945D02*
X210011Y78572D01*
X189764Y94888D02*
Y105512D01*
X192726Y93888D02*
Y104537D01*
X221073Y48612D02*
X230718Y38967D01*
X218710Y48612D02*
X221073D01*
X241329Y38967D02*
X244882Y42520D01*
X230718Y38967D02*
X241329D01*
X235039Y41535D02*
Y44488D01*
X235039Y44488D01*
Y46457D01*
X215354Y48336D02*
Y52362D01*
X216338Y53346D01*
X219291D01*
X244882Y48025D02*
X247251Y50394D01*
X244882Y42520D02*
Y48025D01*
X247251Y50394D02*
X252756D01*
X124803Y58661D02*
X125394Y59252D01*
X163189Y74016D02*
Y77953D01*
X163573Y78337D01*
Y90732D01*
X175984Y48819D02*
X175984Y48819D01*
X120866Y46457D02*
Y56299D01*
X189764Y94888D02*
X195752Y88900D01*
X192726Y93888D02*
X205118Y81496D01*
X148425Y46457D02*
Y64961D01*
X213386Y109055D02*
X223228D01*
X103150Y117323D02*
X127953D01*
X134252Y93701D02*
X134252Y93701D01*
X103150Y93701D02*
X134252D01*
X103150Y70079D02*
X110236D01*
X138189Y106299D02*
Y107087D01*
X127953Y117323D02*
X138189Y107087D01*
X205118Y78740D02*
Y81496D01*
X200394Y78347D02*
Y80709D01*
X229340Y109636D02*
X229528Y109449D01*
X229340Y109636D02*
Y114843D01*
X227836Y116348D02*
X229340Y114843D01*
X232677Y106299D02*
Y114567D01*
X228740Y118504D02*
X232677Y114567D01*
X216142Y118504D02*
X228740D01*
X215954Y116348D02*
X227836D01*
X223228Y109055D02*
X230315Y101969D01*
X103150Y140945D02*
X114961D01*
X143888Y112017D01*
Y102550D02*
Y112017D01*
X214548Y116910D02*
X216142Y118504D01*
X244094Y118504D02*
X246850Y121260D01*
X252756D01*
X252756Y121260D01*
X249213Y144882D02*
X252756D01*
X197825Y78947D02*
Y86827D01*
X195752Y88900D02*
X197825Y86827D01*
X192126Y81102D02*
X193307D01*
X201969Y72441D01*
X206699D01*
X248819Y74016D02*
X252756D01*
X247450Y72647D02*
X248819Y74016D01*
X247638Y143307D02*
X249213Y144882D01*
X242707Y119079D02*
X247638Y124009D01*
Y143307D01*
X197825Y78947D02*
X202569Y74203D01*
X200394Y78347D02*
X203150Y75590D01*
X257480Y97638D02*
X258868Y96250D01*
X252756Y97638D02*
X257480D01*
X203150Y75590D02*
X207398D01*
X208991Y77184D01*
X207972Y74203D02*
X209566Y75797D01*
X202569Y74203D02*
X207972D01*
X210236Y70866D02*
Y72835D01*
X209566Y75797D02*
X211605D01*
X213573Y73828D01*
X214637Y77184D02*
X216742Y75080D01*
X208991Y77184D02*
X214637D01*
X216742Y72235D02*
Y75080D01*
X204331Y65748D02*
X207480Y62598D01*
Y46457D02*
Y62598D01*
X152362Y63779D02*
X152362Y63779D01*
X152362Y63779D02*
X153337Y64754D01*
X210011Y78572D02*
X215212D01*
X216742Y72235D02*
X217679Y71298D01*
X218142D01*
X218110Y49213D02*
X218213Y49109D01*
X221063Y73031D02*
X221260Y73228D01*
Y74016D01*
X217199Y76584D02*
X222324D01*
X223505Y75403D01*
X228721D01*
X221063Y73031D02*
X222797Y71298D01*
X226000D01*
X226000Y71298D01*
X230905D01*
X215212Y78572D02*
X217199Y76584D01*
X202199Y114010D02*
X226541D01*
X226772Y113779D01*
X239389Y68523D02*
X240726Y69860D01*
X244094Y73228D01*
X239732Y69860D02*
X240726D01*
X240726D01*
X239732D02*
X240345Y70472D01*
X248819Y26772D02*
Y30709D01*
Y26772D02*
X256693Y18898D01*
X248819Y30709D02*
X254724Y36614D01*
X258868Y40758D01*
X227076Y36614D02*
X254724D01*
X230315Y82588D02*
Y101969D01*
X233455Y83080D02*
X233858Y82677D01*
X230315Y82588D02*
X232794Y80109D01*
X232884D01*
X234055Y78937D01*
X230118Y76800D02*
Y78937D01*
X234055Y75984D02*
Y78937D01*
X230905Y71298D02*
X232086Y72479D01*
D33*
X213681Y63779D02*
X213779D01*
X211417D02*
X213681D01*
X209842Y123228D02*
X225197D01*
X207087Y120472D02*
X209842Y123228D01*
X196118Y120472D02*
X207087D01*
X195912Y120266D02*
X196118Y120472D01*
X189558Y120266D02*
X195912D01*
X172835Y103543D02*
X189558Y120266D01*
X169095Y103543D02*
X172835D01*
X295276Y79360D02*
X302063Y86147D01*
X295276Y47244D02*
Y79360D01*
X283465Y35433D02*
X295276Y47244D01*
X263228Y35433D02*
X283465D01*
X256693Y28898D02*
X263228Y35433D01*
X227559Y64173D02*
X228543Y65158D01*
X242520Y63779D02*
X248819D01*
X241142Y65158D02*
X242520Y63779D01*
X159252Y93701D02*
X169095Y103543D01*
X159252Y88779D02*
Y93701D01*
X228543Y65158D02*
X241142D01*
X238976Y60236D02*
X242520Y63779D01*
X238976Y46457D02*
Y60236D01*
X169095Y71063D02*
X198628D01*
X162786Y64754D02*
X169095Y71063D01*
X153337Y64754D02*
X162786D01*
X125394Y59252D02*
Y61811D01*
X152362Y46457D02*
Y63779D01*
X124803Y46457D02*
Y58661D01*
X198628Y71063D02*
X200025Y69666D01*
X205143D01*
X211417Y46457D02*
Y62992D01*
X205143Y69666D02*
X211030Y63779D01*
X224803Y61811D02*
X227165Y64173D01*
X215748Y61811D02*
X224803D01*
X213779Y63779D02*
X215748Y61811D01*
D34*
X302063Y147486D02*
X323314Y168737D01*
X302063Y86147D02*
Y147486D01*
X319607Y172444D02*
X323314Y168737D01*
X296905Y172444D02*
X319607D01*
X293937Y175411D02*
X296905Y172444D01*
X270402Y175411D02*
X293937D01*
X268176Y177638D02*
X270402Y175411D01*
X243828Y177638D02*
X268176D01*
X242344Y179121D02*
X243828Y177638D01*
X217201Y179121D02*
X242344D01*
X216462Y179860D02*
X217201Y179121D01*
X190544Y179860D02*
X216462D01*
X190544Y179860D02*
X190544Y179860D01*
X163877Y179860D02*
X190544D01*
X163137Y179121D02*
X163877Y179860D01*
X137220Y179121D02*
X163137D01*
X135736Y177637D02*
X137220Y179121D01*
X110593Y177637D02*
X135736D01*
X108367Y175410D02*
X110593Y177637D01*
X84019Y175410D02*
X108367D01*
X81051Y172443D02*
X84019Y175410D01*
X57516Y172443D02*
X81051D01*
X53813Y168739D02*
X57516Y172443D01*
X31127Y168739D02*
X53813D01*
X23622Y161234D02*
X31127Y168739D01*
X23622Y153543D02*
Y161234D01*
X52358Y86147D02*
Y124807D01*
X23622Y153543D02*
X52358Y124807D01*
D37*
X243152Y167660D02*
D03*
X243828Y177638D02*
D03*
X269455Y165456D02*
D03*
X270402Y175411D02*
D03*
X295685Y162518D02*
D03*
X296905Y172444D02*
D03*
X321823Y158849D02*
D03*
X323314Y168737D02*
D03*
X52071Y76151D02*
D03*
X52358Y86147D02*
D03*
X302063Y86147D02*
D03*
X302366Y76151D02*
D03*
X216799Y169129D02*
D03*
X217201Y179121D02*
D03*
X190415Y169861D02*
D03*
X190544Y179860D02*
D03*
X164021Y169861D02*
D03*
X163877Y179860D02*
D03*
X137637Y169129D02*
D03*
X137220Y179121D02*
D03*
X110593Y177637D02*
D03*
X111284Y167661D02*
D03*
X84019Y175410D02*
D03*
X84982Y165457D02*
D03*
X57516Y172443D02*
D03*
X58751Y162519D02*
D03*
X31127Y168739D02*
D03*
X32594Y158847D02*
D03*
D38*
X276693Y18898D02*
D03*
Y28898D02*
D03*
X266693D02*
D03*
Y18898D02*
D03*
X256693D02*
D03*
Y28898D02*
D03*
D39*
X51924Y24817D02*
D03*
X25922Y128401D02*
D03*
X327926D02*
D03*
X301924Y24817D02*
D03*
D40*
X214173Y74016D02*
D03*
X225197Y123228D02*
D03*
X250787Y85827D02*
D03*
X238976D02*
D03*
X236023Y92716D02*
D03*
X175394Y32677D02*
D03*
X180770Y41535D02*
D03*
X227559Y64173D02*
D03*
X140551Y77953D02*
D03*
X169095Y103543D02*
D03*
X159252Y88779D02*
D03*
X197638Y103543D02*
D03*
X189764Y105512D02*
D03*
X235039Y41535D02*
D03*
X219291Y53346D02*
D03*
X125394Y61811D02*
D03*
X163189Y74016D02*
D03*
X120866Y56299D02*
D03*
X113976Y52362D02*
D03*
X182874Y118307D02*
D03*
X239961Y102559D02*
D03*
X213386Y109055D02*
D03*
X185827Y87402D02*
D03*
X134252Y93701D02*
D03*
X138189Y106299D02*
D03*
X192126Y81102D02*
D03*
X146457Y79528D02*
D03*
X152756D02*
D03*
X200394Y80709D02*
D03*
X205118Y78740D02*
D03*
X226772Y113779D02*
D03*
X229528Y109449D02*
D03*
X232677Y106299D02*
D03*
X143888Y102550D02*
D03*
X183858Y52756D02*
D03*
X204331Y65748D02*
D03*
X210236Y72835D02*
D03*
X238189Y74803D02*
D03*
X248819Y63779D02*
D03*
X152362D02*
D03*
X213681D02*
D03*
X218213Y49109D02*
D03*
X194095Y75590D02*
D03*
X221260Y74016D02*
D03*
X244094Y73228D02*
D03*
X233858Y82677D02*
D03*
X230118Y78937D02*
D03*
X234055Y75984D02*
D03*
X232086Y72479D02*
D03*
X194685Y123228D02*
D03*
D41*
X223819Y98228D02*
D03*
Y93898D02*
D03*
Y89567D02*
D03*
Y85236D02*
D03*
X219488Y98228D02*
D03*
Y93898D02*
D03*
Y89567D02*
D03*
Y85236D02*
D03*
X215158Y98228D02*
D03*
Y93898D02*
D03*
Y89567D02*
D03*
Y85236D02*
D03*
X210827Y98228D02*
D03*
Y93898D02*
D03*
Y89567D02*
D03*
Y85236D02*
D03*
X173622Y137402D02*
D03*
X177953D02*
D03*
X182283D02*
D03*
X173622Y133071D02*
D03*
X177953D02*
D03*
X182283D02*
D03*
X173622Y128740D02*
D03*
X177953D02*
D03*
X182283D02*
D03*
D42*
X175984Y46457D02*
D03*
X179921D02*
D03*
X183858D02*
D03*
X172047D02*
D03*
X124803D02*
D03*
X120866D02*
D03*
X116929D02*
D03*
X211417D02*
D03*
X207480D02*
D03*
X203543D02*
D03*
X238976D02*
D03*
X235039D02*
D03*
X231102D02*
D03*
X152362D02*
D03*
X148425D02*
D03*
X144488D02*
D03*
D43*
X189764Y31299D02*
D03*
X166142D02*
D03*
X111024D02*
D03*
X130709D02*
D03*
X197638D02*
D03*
X217323D02*
D03*
X225197D02*
D03*
X244882D02*
D03*
X138583D02*
D03*
X158268D02*
D03*
D44*
X103150Y144882D02*
D03*
Y140945D02*
D03*
X252756Y46457D02*
D03*
Y50394D02*
D03*
X103150Y121260D02*
D03*
Y117323D02*
D03*
X252756Y70079D02*
D03*
Y74016D02*
D03*
X103150Y97638D02*
D03*
Y93701D02*
D03*
X252756Y93701D02*
D03*
Y97638D02*
D03*
Y117323D02*
D03*
Y121260D02*
D03*
X103150Y50394D02*
D03*
Y46457D02*
D03*
X252756Y140945D02*
D03*
Y144882D02*
D03*
X103150Y74016D02*
D03*
Y70079D02*
D03*
D45*
X87992Y135039D02*
D03*
Y150787D02*
D03*
X267913Y56299D02*
D03*
Y40551D02*
D03*
X87992Y111417D02*
D03*
Y127165D02*
D03*
X267913Y79921D02*
D03*
Y64173D02*
D03*
X87992Y87795D02*
D03*
Y103543D02*
D03*
X267913Y103543D02*
D03*
Y87795D02*
D03*
Y127165D02*
D03*
Y111417D02*
D03*
X87992Y40551D02*
D03*
Y56299D02*
D03*
X267913Y150787D02*
D03*
Y135039D02*
D03*
X87992Y64173D02*
D03*
Y79921D02*
D03*
D46*
X183858Y46457D02*
Y52756D01*
M02*
